<svg width="121" height="83" viewBox="0 0 121 83" fill="none" xmlns="http://www.w3.org/2000/svg">
<g clip-path="url(#clip0_151_902)">
<path d="M48.2297 32.4777C48.2297 32.4777 50.6937 12.5886 50.1374 5.32496C49.8522 1.5993 48.0371 0.756418 45.2628 0.968908C42.4885 1.1814 26.6235 9.55706 26.6235 9.55706L28.8843 14.9756L42.0784 10.8532C42.0784 10.8532 40.734 18.5914 40.4238 20.0612C40.1135 21.5309 39.4645 23.5106 38.9475 25.2849C38.6943 26.1596 38.3413 27.2929 38.3413 27.8418C38.3484 29.138 48.2297 32.4777 48.2297 32.4777Z" fill="#FFEDE5"/>
<path d="M42.078 10.8533C43.918 10.4991 45.7545 9.41897 46.3322 8.55838C46.0355 9.52607 45.3805 10.3461 44.4993 10.8533C43.6605 11.3904 42.7721 11.847 41.8462 12.2168L42.078 10.8533Z" fill="#F28F8F"/>
<path d="M73.2056 32.1236C72.931 31.1107 71.1409 30.0447 65.8063 29.1558C60.4716 28.2669 55.6183 29.1558 55.5898 29.7826C55.5613 30.4095 56.9056 34.5991 63.0569 35.364C69.2082 36.129 73.769 34.3476 73.2056 32.1236Z" fill="#263238"/>
<path d="M57.1584 40.7329C57.1584 40.7329 53.6816 18.3365 54.1809 13.7644C54.6979 9.04001 56.5023 6.84781 59.5298 6.5397C63.4845 8.82043 65.5919 14.2708 68.1202 19.6433C70.6485 25.0157 73.3871 36.5398 73.5333 42.0468C73.6795 47.5539 69.2934 51.4779 64.326 52.1932C59.3586 52.9086 57.1584 40.7329 57.1584 40.7329Z" fill="#FFEDE5"/>
<path d="M62.6218 23.1989C61.0174 21.918 59.9333 20.1043 59.5693 18.0921L64.5438 16.3709L67.8994 19.1439L67.9993 19.3599C68.0421 19.452 68.0848 19.5441 68.1312 19.6362C68.2275 19.8416 68.3238 20.0576 68.42 20.2772C68.445 20.3409 68.4735 20.4047 68.5021 20.472C68.5769 20.642 68.6483 20.8261 68.7231 21.0032L68.798 21.1874C68.8979 21.4317 68.9942 21.6832 69.094 21.9417C69.1903 22.2002 69.2866 22.4658 69.3829 22.735C69.4042 22.7952 69.4256 22.8519 69.4435 22.9085L69.7002 23.6522C69.7002 23.6877 69.7252 23.7266 69.7394 23.762C69.9391 24.3641 70.1388 24.9874 70.3314 25.6249L70.3635 25.7276C70.4598 26.0428 70.5525 26.3615 70.6452 26.6838C70.6452 26.6838 66.0237 26.0251 62.6218 23.1989Z" fill="#F28F8F"/>
<path d="M58.4819 6.73096C60.3718 5.99079 62.6718 7.72258 63.8878 8.50171C66.359 10.0741 81.468 21.7682 84.9912 24.5093C85.7543 24.9697 86.5317 25.4124 87.3233 25.8303L83.1725 32.2758C82.8317 31.3495 82.2983 30.5049 81.6071 29.7968C77.8414 27.1265 70.5526 25.6709 65.8598 23.8577C62.2083 22.4411 61.4452 21.6478 60.2149 19.576C59.2735 17.9363 55.8751 7.95632 58.4819 6.73096Z" fill="#FFEDE5"/>
<path d="M57.084 40.8568L55.5898 29.7826C55.5898 29.7826 56.9306 32.8353 63.8343 33.6393C70.738 34.4432 73.3804 33.2851 73.2057 32.1235C73.2057 32.1235 75.01 39.0578 74.3111 43.5626C73.6122 48.0674 66.6835 52.8661 66.6835 52.8661L57.084 40.8568Z" fill="#37474F"/>
<path opacity="0.15" d="M60.1399 42.3726C59.5052 42.3726 58.9097 42.4115 58.3569 42.447L66.0309 52.0338H67.8139C69.8037 50.4649 73.794 46.9376 74.3146 43.5732C74.8281 40.2689 73.9937 35.665 73.5122 33.4409C73.7868 35.9979 68.0278 42.2061 60.1399 42.3726Z" fill="black"/>
<path d="M94.7009 16.4595C92.2047 15.9991 91.0458 17.7875 90.1258 19.2643C89.2058 20.7411 87.6653 23.4504 86.977 23.9072C86.2888 24.3641 85.9072 23.9072 84.9266 24.6403C83.946 25.3734 83.2292 26.7652 83.5323 27.2717L84.2455 28.5041C83.8343 28.4594 83.4183 28.5114 83.0311 28.656C82.6439 28.8006 82.2964 29.0337 82.0168 29.3364C80.947 30.3988 81.5033 30.5759 82.1059 31.1779C82.7086 31.78 84.1243 34.4999 85.5435 35.2401C85.5435 35.2401 89.3662 34.1032 92.137 29.7968C94.9077 25.4903 94.7009 16.4595 94.7009 16.4595Z" fill="url(#paint0_linear_151_902)"/>
<path d="M86.3318 35.8102C86.1855 35.7844 86.0463 35.7286 85.923 35.6464C85.7996 35.5642 85.6949 35.4574 85.6154 35.3328C85.5359 35.2082 85.4834 35.0686 85.4612 34.9227C85.439 34.7768 85.4477 34.628 85.4866 34.4857C85.909 33.1577 86.5435 31.9057 87.3659 30.7777C88.3251 29.4248 90.1224 26.882 90.4255 25.4902C90.7286 24.0984 91.3811 20.1992 92.4474 18.5666C93.5136 16.934 94.6083 15.9919 96.0133 16.5196C97.4183 17.0473 92.9823 27.4983 91.6807 29.269C90.3791 31.0398 86.3318 35.8102 86.3318 35.8102Z" fill="#37474F"/>
<path d="M87.152 35.5836C90.6645 33.7243 91.8198 31.9181 92.8575 29.563C93.8952 27.2079 96.3201 25.037 96.9477 22.9227C97.5753 20.8084 97.6395 15.3864 95.2253 16.7003C92.8112 18.0142 92.3084 22.8625 91.2493 25.6638C90.1902 28.4652 83.7073 37.4145 87.152 35.5836Z" fill="#263238"/>
<path d="M66.0413 41.3101C67.646 41.0658 70.7306 41.7245 73.5298 45.606C76.5359 49.7743 77.0958 57.0486 75.2094 57.6471C75.2094 57.6471 70.8375 57.1371 67.835 55.5753C64.8325 54.0135 59.7866 43.4634 66.0413 41.3101Z" fill="#263238"/>
<path d="M117.32 76.0169C112.663 74.2001 108.851 71.0765 105.552 67.5846C102.899 64.0077 91.5309 48.6907 89.559 46.5339C88.8458 45.7689 87.1555 43.7999 84.8127 43.3076C76.5183 41.5368 61.1597 41.7989 61.1597 41.7989L55.2545 40.8108L43.4868 51.8107C45.1093 53.5284 47.1455 55.0264 50.1231 56.567C53.1006 58.1075 56.3207 59.2266 60.664 58.8619C69.3578 58.1323 74.5713 55.6922 79.2248 54.6121C80.5728 54.3004 81.9706 54.0136 83.0297 56.2093C84.0888 58.405 84.1744 59.5064 87.3088 61.8403C91.3277 64.8364 97.9639 68.1867 100.859 71.7565C101.336 72.6316 101.621 73.5973 101.694 74.5897C101.968 78.3543 105.149 77.6141 107.713 79.2503C109.111 80.1428 110.149 81.2265 111.832 81.5948C113.364 81.9079 114.948 81.8789 116.468 81.5098C117.837 81.1875 119.798 80.2065 120.472 78.882C121.357 77.1183 118.661 76.5375 117.32 76.0169Z" fill="#FFEDE5"/>
<path d="M117.32 76.0169C112.663 74.2001 108.851 71.0765 105.552 67.5846C102.899 64.0077 91.5309 48.6907 89.559 46.5339C88.8458 45.7689 87.1555 43.7999 84.8127 43.3076C76.5183 41.5368 61.1597 41.7989 61.1597 41.7989L55.2545 40.8108L43.4868 51.8107C45.1093 53.5284 47.1455 55.0264 50.1231 56.567C53.1006 58.1075 56.3207 59.2266 60.664 58.8619C69.3578 58.1323 74.5713 55.6922 79.2248 54.6121C80.5728 54.3004 81.9706 54.0136 83.0297 56.2093C84.0888 58.405 84.1744 59.5064 87.3088 61.8403C91.3277 64.8364 97.9639 68.1867 100.859 71.7565C101.336 72.6316 101.621 73.5973 101.694 74.5897C101.968 78.3543 105.149 77.6141 107.713 79.2503C109.111 80.1428 110.149 81.2265 111.832 81.5948C113.364 81.9079 114.948 81.8789 116.468 81.5098C117.837 81.1875 119.798 80.2065 120.472 78.882C121.357 77.1183 118.661 76.5375 117.32 76.0169Z" fill="#FFEDE5"/>
<path d="M87.0416 60.0553C86.1587 59.0835 85.4884 57.9403 85.0732 56.698C84.7541 55.6596 84.3436 54.6511 83.8465 53.6842C82.3987 51.2051 72.792 54.3677 68.5378 55.6639C68.2989 56.018 67.3004 57.0805 66.9438 57.9658C72.0967 56.9211 75.8052 55.4018 79.2179 54.6085C80.5658 54.2968 81.9637 54.01 83.0227 56.2057C84.0818 58.4014 84.1674 59.5029 87.3019 61.8367C88.9351 63.055 90.9998 64.3158 93.0716 65.658C90.7573 63.8731 89.0135 62.0846 87.0416 60.0553Z" fill="#F28F8F"/>
<path d="M56.1672 40.8108C56.1672 40.8108 64.6078 41.2216 66.0413 41.3243C66.0413 41.3243 62.864 42.1743 66.7295 49.9337C70.595 57.6932 75.2129 57.6507 75.2129 57.6507C69.1508 59.5773 66.0021 61.7411 58.2746 60.838C49.0638 59.5171 43.4795 52.6678 43.4795 52.6678L56.1672 40.8108Z" fill="#455A64"/>
<path opacity="0.15" d="M75.1915 57.6506C75.1215 57.6551 75.0512 57.6551 74.9811 57.6506C74.2929 57.5727 72.246 57.1265 69.9531 54.7006C68.133 55.1827 66.2863 55.5599 64.4223 55.8303C57.5329 56.8325 52.3659 55.6249 44.667 51.5486L43.4795 52.6606C46.5349 56.0826 50.4544 58.6329 54.8335 60.0482C55.1009 60.1297 55.3755 60.2111 55.6537 60.2855C55.914 60.3528 56.1779 60.4201 56.4417 60.4803L56.5131 60.498C56.7555 60.5547 57.0052 60.6042 57.2548 60.6538L57.3867 60.6786C57.6791 60.7353 57.9715 60.7849 58.2711 60.8274C58.756 60.884 59.2196 60.9265 59.6689 60.9619C60.1182 60.9973 60.5497 61.015 60.9705 61.0292H61.5874C61.7907 61.0292 61.9904 61.0292 62.1865 61.0292C62.7749 61.0292 63.3347 60.9832 63.8732 60.9301C64.2298 60.8946 64.5792 60.8521 64.9216 60.8026C65.746 60.6785 66.5627 60.5083 67.3678 60.2926C67.6816 60.2076 67.9919 60.1191 68.2985 60.0234C69.0723 59.7897 69.8355 59.5276 70.62 59.2443L71.5721 58.8902C72.6989 58.4793 73.8828 58.0473 75.2094 57.6258L75.1915 57.6506Z" fill="black"/>
<path d="M27.943 30.2465C24.5125 31.4294 21.2711 33.4976 24.0204 39.5501C27.943 48.2905 45.7228 57.9942 54.8517 60.0554C50.2159 53.0892 54.0743 45.7052 57.1018 40.8569L56.2852 34.9355C56.2852 34.9355 53.5465 33.6287 49.0106 30.1474C44.4747 26.6661 42.5919 25.7205 35.8416 27.7604C31.2023 29.1628 27.943 30.2465 27.943 30.2465Z" fill="url(#paint1_linear_151_902)"/>
<path opacity="0.05" d="M41.8393 50.001C32.5036 44.6887 29.5688 39.9573 25.9066 35.4135L23.5103 38.3176C23.5744 38.5053 23.6458 38.6965 23.7242 38.8948C23.7229 38.9054 23.7229 38.9161 23.7242 38.9267C23.8027 39.1286 23.8918 39.3375 23.9881 39.55C25.7283 43.3748 30.0966 47.3838 35.2316 50.8722C35.9447 51.368 36.715 51.8532 37.471 52.3242C37.8525 52.5615 38.2341 52.7952 38.6192 53.0325C41.2307 54.5853 43.9338 55.9808 46.7139 57.2115C49.3223 58.4074 52.0385 59.356 54.8265 60.0447C53.8111 58.546 53.1325 56.8477 52.8367 55.0653C49.5917 54.095 46.1113 52.434 41.8393 50.001Z" fill="black"/>
<path d="M25.3682 31.4329C25.3682 31.4329 13.8537 25.3203 12.0315 24.4951L22.1089 18.6197L19.9694 13.1056C19.9694 13.1056 4.99234 18.3931 2.13957 19.9124C0.645438 20.7163 0 21.3786 0 22.5189C0 24.4207 1.8222 26.8856 4.3469 29.0211C9.71366 33.5649 16.9953 37.797 24.088 41.6643C25.7141 42.8613 27.4044 44.3665 27.4044 44.3665C29.2694 45.2944 31.9831 36.731 25.3682 31.4329Z" fill="#FFEDE5"/>
<path d="M36.1482 10.1874C35.429 8.52914 34.0759 7.22254 32.3867 6.55506C30.6974 5.88758 28.8104 5.91389 27.1406 6.6282C25.4709 7.34251 24.1553 8.68631 23.4832 10.364C22.8111 12.0417 22.8376 13.9158 23.5569 15.574C23.6032 15.6874 23.6603 15.7901 23.7138 15.8963L21.9736 19.6574L19.4025 14.9507C19.4036 14.58 19.2659 14.2221 19.0161 13.9466C18.7663 13.671 18.4224 13.4975 18.051 13.4598C17.8627 13.4438 17.6731 13.466 17.4937 13.5251C17.3143 13.5842 17.1488 13.6789 17.0074 13.8034C16.866 13.928 16.7516 14.0798 16.671 14.2496C16.5905 14.4195 16.5456 14.6038 16.5391 14.7914L18.5039 14.9614C18.0727 15.2454 17.7422 15.6566 17.5589 16.1371C17.0918 17.3483 18.7179 19.8168 20.8967 21.9842C20.8967 21.9842 23.9812 26.3083 24.7301 26.9139C25.2126 27.2787 25.8174 27.4459 26.4203 27.3814L26.6058 18.8818C27.8582 19.5531 29.2901 19.8204 30.7025 19.6464C32.115 19.4723 33.4377 18.8657 34.4871 17.9108C35.5364 16.9559 36.2602 15.7001 36.5579 14.3179C36.8556 12.9357 36.7124 11.4957 36.1482 10.198V10.1874Z" fill="#263238"/>
<path d="M23.4888 21.1236C23.2035 21.5167 22.3334 21.0173 21.6452 20.7269C20.957 20.4365 19.1134 20.4259 19.0421 22.3773C18.9708 24.3286 21.3849 25.9188 22.7721 25.7736C25.1613 25.5292 24.9116 24.0524 24.9116 24.0524L28.4205 31.7693C32.4822 33.9792 40.042 30.5015 35.5061 28.3164L34.5041 26.025C35.3711 25.7937 36.2086 25.4645 37.0002 25.044C38.4266 24.1445 38.8937 22.5154 38.6406 20.649C38.2376 17.6565 37.5708 15.3757 34.6681 10.3787C31.4587 4.91766 24.6834 7.74378 22.0375 11.5792C19.3915 15.4147 23.4888 21.1236 23.4888 21.1236Z" fill="#FFEDE5"/>
<path d="M23.7705 21.7788C23.578 21.8673 22.3121 20.9678 21.631 20.7376C20.7074 20.4224 19.2061 14.6178 19.2061 14.6178C19.2061 14.6178 17.9794 13.5377 18.6534 11.5899C19.2061 9.99264 21.2458 8.9231 22.658 8.2148C25.204 6.93632 28.0532 5.48076 29.3013 2.80338C29.4012 2.59089 29.5438 2.35007 29.7792 2.34653C29.8523 2.353 29.9233 2.37388 29.9882 2.40793C30.0531 2.44198 30.1106 2.48852 30.1572 2.54485C30.745 3.20031 31.0766 4.04354 31.0914 4.9212C31.0914 5.00266 31.1164 5.10536 31.1984 5.13015C31.2804 5.15494 31.3411 5.08765 31.391 5.02745C31.6499 4.71251 31.8471 4.35213 31.9722 3.96499C32.1434 3.43731 33.042 4.77954 33.1062 4.9637C33.3164 5.54633 33.4071 6.16487 33.3728 6.78284C33.3385 7.40082 33.18 8.00572 32.9065 8.56187C32.3502 9.67036 31.2055 10.3574 30.1572 10.963C27.8215 12.3159 23.8276 13.605 23.2713 13.7573C22.5153 13.9662 22.6615 14.7205 23.0894 16.764C23.4817 18.5702 24.416 21.4777 23.7705 21.7788Z" fill="#263238"/>
<path d="M34.504 26.025C34.504 26.025 30.3318 26.8998 28.8484 26.79C27.9781 26.7272 27.1475 26.4037 26.4663 25.8621C26.9505 26.4865 27.557 27.0069 28.2493 27.392C29.6186 28.1357 34.8962 26.9493 34.8962 26.9493L34.504 26.025Z" fill="#F28F8F"/>
<path d="M27.9857 15.2411L26.7448 16.5869C26.566 16.4142 26.4614 16.1796 26.4527 15.9321C26.4441 15.6846 26.5321 15.4434 26.6984 15.2588C26.7809 15.1723 26.8801 15.1031 26.99 15.0552C27.0999 15.0074 27.2183 14.9819 27.3383 14.9802C27.4583 14.9786 27.5774 15.0008 27.6886 15.0456C27.7998 15.0904 27.9008 15.1569 27.9857 15.2411Z" fill="#263238"/>
<path d="M31.9829 22.1152L33.8194 22.0302C33.8306 22.1502 33.8173 22.2712 33.7804 22.386C33.7434 22.5007 33.6835 22.6069 33.6043 22.6982C33.5251 22.7894 33.4281 22.8639 33.3192 22.9171C33.2104 22.9702 33.0918 23.0011 32.9707 23.0077C32.7218 23.0147 32.4799 22.9256 32.2957 22.7592C32.1115 22.5928 31.9994 22.362 31.9829 22.1152Z" fill="#F28F8F"/>
<path d="M35.5383 13.1056L33.7554 12.6523C33.7796 12.5344 33.8277 12.4226 33.8968 12.3236C33.9658 12.2247 34.0544 12.1408 34.1571 12.0769C34.2598 12.0129 34.3745 11.9704 34.4942 11.9518C34.614 11.9333 34.7362 11.939 34.8537 11.9688C35.0921 12.0361 35.2956 12.1912 35.4228 12.4025C35.5501 12.6137 35.5914 12.8652 35.5383 13.1056Z" fill="#263238"/>
<path d="M31.7334 15.8786L32.9494 20.2241L35.089 18.935L31.7334 15.8786Z" fill="#F28F8F"/>
<path d="M28.3491 17.8265C28.3498 17.9832 28.3973 18.1362 28.4855 18.2662C28.5737 18.3962 28.6987 18.4974 28.8447 18.5569C28.9907 18.6164 29.1512 18.6316 29.3059 18.6006C29.4606 18.5695 29.6026 18.4937 29.714 18.3826C29.8253 18.2715 29.901 18.1302 29.9316 17.9764C29.9621 17.8226 29.9461 17.6633 29.8855 17.5185C29.825 17.3738 29.7226 17.2501 29.5913 17.1631C29.46 17.0761 29.3057 17.0296 29.1479 17.0296C29.0427 17.0296 28.9385 17.0503 28.8414 17.0904C28.7443 17.1304 28.656 17.1892 28.5818 17.2632C28.5076 17.3373 28.4488 17.4251 28.4089 17.5218C28.369 17.6185 28.3487 17.722 28.3491 17.8265Z" fill="#263238"/>
<path d="M34.1299 15.5776C34.1292 15.7299 34.1741 15.879 34.2588 16.0059C34.3436 16.1328 34.4644 16.2319 34.6059 16.2905C34.7475 16.3491 34.9034 16.3646 35.0538 16.335C35.2042 16.3055 35.3424 16.2322 35.4509 16.1245C35.5593 16.0169 35.6331 15.8796 35.6628 15.7302C35.6926 15.5808 35.6769 15.426 35.6179 15.2854C35.5589 15.1448 35.4592 15.0248 35.3314 14.9407C35.2036 14.8565 35.0535 14.8119 34.9001 14.8126C34.6961 14.8136 34.5008 14.8945 34.3565 15.0377C34.2123 15.181 34.1308 15.375 34.1299 15.5776Z" fill="#263238"/>
<path d="M101.23 75.3795C100.927 75.5849 101.398 76.8811 101.673 77.1998C102.245 77.752 102.951 78.1473 103.723 78.3472C105.127 78.7743 106.439 79.4564 107.592 80.3588C109.014 81.5025 110.669 82.3275 112.442 82.7776C114.546 83.2416 116.978 82.6502 119.099 81.4C121.325 80.0932 121.118 78.8395 120.815 78.0037L101.23 75.3795Z" fill="#37474F"/>
<path d="M106.044 68.1052C106.757 68.856 110.637 72.6666 113.615 73.637C115.986 74.409 119.071 75.1457 120.422 76.58C121.827 78.0745 119.734 79.9869 116.856 81.0848C113.854 82.2251 111.814 81.3044 109.821 80.3092C108.419 79.6009 106.354 78.1843 105.317 77.6141C104.279 77.0439 102.357 76.7323 101.555 75.8859C101.112 75.4184 100.795 74.1151 100.603 72.9712C100.428 71.9087 99.7217 70.949 100.082 70.8923L100.667 71.5263C103.377 72.0221 106.201 69.5359 106.044 68.1052Z" fill="url(#paint2_linear_151_902)"/>
<path d="M12.0316 24.4951C10.3226 25.412 8.47716 26.0516 6.56494 26.3899C6.56494 26.3899 9.59244 27.1442 13.1941 25.0724L12.0316 24.4951Z" fill="#F28F8F"/>
</g>
<defs>
<linearGradient id="paint0_linear_151_902" x1="94.7044" y1="35.2401" x2="76.9353" y2="34.2707" gradientUnits="userSpaceOnUse">
<stop stop-color="#C150F6"/>
<stop offset="1" stop-color="#EEA4CE"/>
</linearGradient>
<linearGradient id="paint1_linear_151_902" x1="57.1018" y1="60.0554" x2="11.6486" y2="56.4587" gradientUnits="userSpaceOnUse">
<stop stop-color="#C150F6"/>
<stop offset="1" stop-color="#EEA4CE"/>
</linearGradient>
<linearGradient id="paint2_linear_151_902" x1="120.87" y1="81.6118" x2="93.2579" y2="78.3072" gradientUnits="userSpaceOnUse">
<stop stop-color="#C150F6"/>
<stop offset="1" stop-color="#EEA4CE"/>
</linearGradient>
<clipPath id="clip0_151_902">
<rect width="121" height="82" fill="white" transform="translate(0 0.937012)"/>
</clipPath>
</defs>
</svg>
