<svg width="104" height="104" viewBox="0 0 104 104" fill="none" xmlns="http://www.w3.org/2000/svg">
<g filter="url(#filter0_d_229_3068)">
<circle cx="52" cy="42" r="30" fill="url(#paint0_linear_229_3068)"/>
</g>
<path fill-rule="evenodd" clip-rule="evenodd" d="M52.0002 36.4583C52.4834 36.4583 52.8752 36.8501 52.8752 37.3333V41.125H56.6668C57.1501 41.125 57.5418 41.5167 57.5418 42C57.5418 42.4832 57.1501 42.875 56.6668 42.875H52.8752V46.6667C52.8752 47.1499 52.4834 47.5417 52.0002 47.5417C51.5169 47.5417 51.1252 47.1499 51.1252 46.6667V42.875H47.3335C46.8502 42.875 46.4585 42.4832 46.4585 42C46.4585 41.5167 46.8502 41.125 47.3335 41.125H51.1252V37.3333C51.1252 36.8501 51.5169 36.4583 52.0002 36.4583Z" fill="white"/>
<defs>
<filter id="filter0_d_229_3068" x="0" y="0" width="104" height="104" filterUnits="userSpaceOnUse" color-interpolation-filters="sRGB">
<feFlood flood-opacity="0" result="BackgroundImageFix"/>
<feColorMatrix in="SourceAlpha" type="matrix" values="0 0 0 0 0 0 0 0 0 0 0 0 0 0 0 0 0 0 127 0" result="hardAlpha"/>
<feOffset dy="10"/>
<feGaussianBlur stdDeviation="11"/>
<feColorMatrix type="matrix" values="0 0 0 0 0.772549 0 0 0 0 0.545098 0 0 0 0 0.94902 0 0 0 0.3 0"/>
<feBlend mode="normal" in2="BackgroundImageFix" result="effect1_dropShadow_229_3068"/>
<feBlend mode="normal" in="SourceGraphic" in2="effect1_dropShadow_229_3068" result="shape"/>
</filter>
<linearGradient id="paint0_linear_229_3068" x1="132" y1="127.556" x2="-13.3508" y2="116.513" gradientUnits="userSpaceOnUse">
<stop stop-color="#CC8FED"/>
<stop offset="1" stop-color="#6B50F6"/>
</linearGradient>
</defs>
</svg>
