<svg width="141" height="30" viewBox="0 0 141 30" fill="none" xmlns="http://www.w3.org/2000/svg">
<rect width="141" height="30" rx="15" fill="url(#paint0_linear_229_3464)"/>
<path d="M34.928 17.296H31.436L30.836 19H29.408L32.396 10.648H33.98L36.968 19H35.528L34.928 17.296ZM34.544 16.18L33.188 12.304L31.82 16.18H34.544ZM37.8112 15.664C37.8112 15 37.9472 14.412 38.2192 13.9C38.4992 13.388 38.8752 12.992 39.3472 12.712C39.8272 12.424 40.3592 12.28 40.9432 12.28C41.3752 12.28 41.7992 12.376 42.2152 12.568C42.6392 12.752 42.9752 13 43.2232 13.312V10.12H44.6032V19H43.2232V18.004C42.9992 18.324 42.6872 18.588 42.2872 18.796C41.8952 19.004 41.4432 19.108 40.9312 19.108C40.3552 19.108 39.8272 18.964 39.3472 18.676C38.8752 18.38 38.4992 17.972 38.2192 17.452C37.9472 16.924 37.8112 16.328 37.8112 15.664ZM43.2232 15.688C43.2232 15.232 43.1272 14.836 42.9352 14.5C42.7512 14.164 42.5072 13.908 42.2032 13.732C41.8992 13.556 41.5712 13.468 41.2192 13.468C40.8672 13.468 40.5392 13.556 40.2352 13.732C39.9312 13.9 39.6832 14.152 39.4912 14.488C39.3072 14.816 39.2152 15.208 39.2152 15.664C39.2152 16.12 39.3072 16.52 39.4912 16.864C39.6832 17.208 39.9312 17.472 40.2352 17.656C40.5472 17.832 40.8752 17.92 41.2192 17.92C41.5712 17.92 41.8992 17.832 42.2032 17.656C42.5072 17.48 42.7512 17.224 42.9352 16.888C43.1272 16.544 43.2232 16.144 43.2232 15.688ZM45.944 15.664C45.944 15 46.08 14.412 46.352 13.9C46.632 13.388 47.008 12.992 47.48 12.712C47.96 12.424 48.492 12.28 49.076 12.28C49.508 12.28 49.932 12.376 50.348 12.568C50.772 12.752 51.108 13 51.356 13.312V10.12H52.736V19H51.356V18.004C51.132 18.324 50.82 18.588 50.42 18.796C50.028 19.004 49.576 19.108 49.064 19.108C48.488 19.108 47.96 18.964 47.48 18.676C47.008 18.38 46.632 17.972 46.352 17.452C46.08 16.924 45.944 16.328 45.944 15.664ZM51.356 15.688C51.356 15.232 51.26 14.836 51.068 14.5C50.884 14.164 50.64 13.908 50.336 13.732C50.032 13.556 49.704 13.468 49.352 13.468C49 13.468 48.672 13.556 48.368 13.732C48.064 13.9 47.816 14.152 47.624 14.488C47.44 14.816 47.348 15.208 47.348 15.664C47.348 16.12 47.44 16.52 47.624 16.864C47.816 17.208 48.064 17.472 48.368 17.656C48.68 17.832 49.008 17.92 49.352 17.92C49.704 17.92 50.032 17.832 50.336 17.656C50.64 17.48 50.884 17.224 51.068 16.888C51.26 16.544 51.356 16.144 51.356 15.688ZM60.398 19.084C59.838 19.084 59.334 18.988 58.886 18.796C58.438 18.596 58.086 18.316 57.83 17.956C57.574 17.596 57.446 17.176 57.446 16.696H58.91C58.942 17.056 59.082 17.352 59.33 17.584C59.586 17.816 59.942 17.932 60.398 17.932C60.87 17.932 61.238 17.82 61.502 17.596C61.766 17.364 61.898 17.068 61.898 16.708C61.898 16.428 61.814 16.2 61.646 16.024C61.486 15.848 61.282 15.712 61.034 15.616C60.794 15.52 60.458 15.416 60.026 15.304C59.482 15.16 59.038 15.016 58.694 14.872C58.358 14.72 58.07 14.488 57.83 14.176C57.59 13.864 57.47 13.448 57.47 12.928C57.47 12.448 57.59 12.028 57.83 11.668C58.07 11.308 58.406 11.032 58.838 10.84C59.27 10.648 59.77 10.552 60.338 10.552C61.146 10.552 61.806 10.756 62.318 11.164C62.838 11.564 63.126 12.116 63.182 12.82H61.67C61.646 12.516 61.502 12.256 61.238 12.04C60.974 11.824 60.626 11.716 60.194 11.716C59.802 11.716 59.482 11.816 59.234 12.016C58.986 12.216 58.862 12.504 58.862 12.88C58.862 13.136 58.938 13.348 59.09 13.516C59.25 13.676 59.45 13.804 59.69 13.9C59.93 13.996 60.258 14.1 60.674 14.212C61.226 14.364 61.674 14.516 62.018 14.668C62.37 14.82 62.666 15.056 62.906 15.376C63.154 15.688 63.278 16.108 63.278 16.636C63.278 17.06 63.162 17.46 62.93 17.836C62.706 18.212 62.374 18.516 61.934 18.748C61.502 18.972 60.99 19.084 60.398 19.084ZM64.4362 15.688C64.4362 15.008 64.5722 14.412 64.8442 13.9C65.1242 13.38 65.5082 12.98 65.9962 12.7C66.4842 12.42 67.0442 12.28 67.6762 12.28C68.4762 12.28 69.1362 12.472 69.6562 12.856C70.1842 13.232 70.5402 13.772 70.7242 14.476H69.2482C69.1282 14.148 68.9362 13.892 68.6722 13.708C68.4082 13.524 68.0762 13.432 67.6762 13.432C67.1162 13.432 66.6682 13.632 66.3322 14.032C66.0042 14.424 65.8402 14.976 65.8402 15.688C65.8402 16.4 66.0042 16.956 66.3322 17.356C66.6682 17.756 67.1162 17.956 67.6762 17.956C68.4682 17.956 68.9922 17.608 69.2482 16.912H70.7242C70.5322 17.584 70.1722 18.12 69.6442 18.52C69.1162 18.912 68.4602 19.108 67.6762 19.108C67.0442 19.108 66.4842 18.968 65.9962 18.688C65.5082 18.4 65.1242 18 64.8442 17.488C64.5722 16.968 64.4362 16.368 64.4362 15.688ZM75.5075 12.28C76.0115 12.28 76.4595 12.388 76.8515 12.604C77.2515 12.82 77.5635 13.14 77.7875 13.564C78.0195 13.988 78.1355 14.5 78.1355 15.1V19H76.7795V15.304C76.7795 14.712 76.6315 14.26 76.3355 13.948C76.0395 13.628 75.6355 13.468 75.1235 13.468C74.6115 13.468 74.2035 13.628 73.8995 13.948C73.6035 14.26 73.4555 14.712 73.4555 15.304V19H72.0875V10.12H73.4555V13.156C73.6875 12.876 73.9795 12.66 74.3315 12.508C74.6915 12.356 75.0835 12.28 75.5075 12.28ZM85.9405 15.532C85.9405 15.78 85.9245 16.004 85.8925 16.204H80.8405C80.8805 16.732 81.0765 17.156 81.4285 17.476C81.7805 17.796 82.2125 17.956 82.7245 17.956C83.4605 17.956 83.9805 17.648 84.2845 17.032H85.7605C85.5605 17.64 85.1965 18.14 84.6685 18.532C84.1485 18.916 83.5005 19.108 82.7245 19.108C82.0925 19.108 81.5245 18.968 81.0205 18.688C80.5245 18.4 80.1325 18 79.8445 17.488C79.5645 16.968 79.4245 16.368 79.4245 15.688C79.4245 15.008 79.5605 14.412 79.8325 13.9C80.1125 13.38 80.5005 12.98 80.9965 12.7C81.5005 12.42 82.0765 12.28 82.7245 12.28C83.3485 12.28 83.9045 12.416 84.3925 12.688C84.8805 12.96 85.2605 13.344 85.5325 13.84C85.8045 14.328 85.9405 14.892 85.9405 15.532ZM84.5125 15.1C84.5045 14.596 84.3245 14.192 83.9725 13.888C83.6205 13.584 83.1845 13.432 82.6645 13.432C82.1925 13.432 81.7885 13.584 81.4525 13.888C81.1165 14.184 80.9165 14.588 80.8525 15.1H84.5125ZM86.8307 15.664C86.8307 15 86.9667 14.412 87.2387 13.9C87.5187 13.388 87.8947 12.992 88.3667 12.712C88.8467 12.424 89.3787 12.28 89.9627 12.28C90.3947 12.28 90.8187 12.376 91.2347 12.568C91.6587 12.752 91.9947 13 92.2427 13.312V10.12H93.6227V19H92.2427V18.004C92.0187 18.324 91.7067 18.588 91.3067 18.796C90.9147 19.004 90.4627 19.108 89.9507 19.108C89.3747 19.108 88.8467 18.964 88.3667 18.676C87.8947 18.38 87.5187 17.972 87.2387 17.452C86.9667 16.924 86.8307 16.328 86.8307 15.664ZM92.2427 15.688C92.2427 15.232 92.1467 14.836 91.9547 14.5C91.7707 14.164 91.5267 13.908 91.2227 13.732C90.9187 13.556 90.5907 13.468 90.2387 13.468C89.8867 13.468 89.5587 13.556 89.2547 13.732C88.9507 13.9 88.7027 14.152 88.5107 14.488C88.3267 14.816 88.2347 15.208 88.2347 15.664C88.2347 16.12 88.3267 16.52 88.5107 16.864C88.7027 17.208 88.9507 17.472 89.2547 17.656C89.5667 17.832 89.8947 17.92 90.2387 17.92C90.5907 17.92 90.9187 17.832 91.2227 17.656C91.5267 17.48 91.7707 17.224 91.9547 16.888C92.1467 16.544 92.2427 16.144 92.2427 15.688ZM101.408 12.388V19H100.04V18.22C99.8235 18.492 99.5395 18.708 99.1875 18.868C98.8435 19.02 98.4755 19.096 98.0835 19.096C97.5635 19.096 97.0955 18.988 96.6795 18.772C96.2715 18.556 95.9475 18.236 95.7075 17.812C95.4755 17.388 95.3595 16.876 95.3595 16.276V12.388H96.7155V16.072C96.7155 16.664 96.8635 17.12 97.1595 17.44C97.4555 17.752 97.8595 17.908 98.3715 17.908C98.8835 17.908 99.2875 17.752 99.5835 17.44C99.8875 17.12 100.04 16.664 100.04 16.072V12.388H101.408ZM104.581 10.12V19H103.213V10.12H104.581ZM112.437 15.532C112.437 15.78 112.421 16.004 112.389 16.204H107.337C107.377 16.732 107.573 17.156 107.925 17.476C108.277 17.796 108.709 17.956 109.221 17.956C109.957 17.956 110.477 17.648 110.781 17.032H112.257C112.057 17.64 111.693 18.14 111.165 18.532C110.645 18.916 109.997 19.108 109.221 19.108C108.589 19.108 108.021 18.968 107.517 18.688C107.021 18.4 106.629 18 106.341 17.488C106.061 16.968 105.921 16.368 105.921 15.688C105.921 15.008 106.057 14.412 106.329 13.9C106.609 13.38 106.997 12.98 107.493 12.7C107.997 12.42 108.573 12.28 109.221 12.28C109.845 12.28 110.401 12.416 110.889 12.688C111.377 12.96 111.757 13.344 112.029 13.84C112.301 14.328 112.437 14.892 112.437 15.532ZM111.009 15.1C111.001 14.596 110.821 14.192 110.469 13.888C110.117 13.584 109.681 13.432 109.161 13.432C108.689 13.432 108.285 13.584 107.949 13.888C107.613 14.184 107.413 14.588 107.349 15.1H111.009Z" fill="white"/>
<defs>
<linearGradient id="paint0_linear_229_3464" x1="258.5" y1="57.7778" x2="-46.1959" y2="-51.0224" gradientUnits="userSpaceOnUse">
<stop stop-color="#CC8FED"/>
<stop offset="1" stop-color="#6B50F6"/>
</linearGradient>
</defs>
</svg>
