<svg width="66" height="53" viewBox="0 0 66 53" fill="none" xmlns="http://www.w3.org/2000/svg">
<path d="M28.3617 0.791482L24.9575 4.1824L61.4506 40.5328L64.8548 37.1419L28.3617 0.791482Z" fill="#858585"/>
<path d="M41.804 13.7028L37.9414 17.5503L48.5574 28.1249L52.4201 24.2774L41.804 13.7028Z" fill="#2C3E50"/>
<path d="M61.4308 19.4101L43.6519 37.1196L46.5488 40.0053L64.3278 22.2958L61.4308 19.4101Z" fill="#383838"/>
<path d="M61.4401 19.4053L43.6611 37.1148L45.1096 38.5576L62.8886 20.8481L61.4401 19.4053Z" fill="#1F1F1F"/>
<path d="M63.1674 23.4564L47.7231 38.8403L50.2412 41.3485L65.6855 25.9646L63.1674 23.4564Z" fill="#383838"/>
<path d="M63.1616 23.459L47.7173 38.8429L49.0374 40.1579L64.4817 24.7739L63.1616 23.459Z" fill="#1F1F1F"/>
<path d="M64.0189 27.6186L51.8994 39.6908L53.8735 41.6571L65.993 29.585L64.0189 27.6186Z" fill="#383838"/>
<path d="M64.0248 27.621L51.9053 39.6931L52.8954 40.6794L65.0149 28.6072L64.0248 27.621Z" fill="#1F1F1F"/>
<path d="M62.7383 32.828L57.0972 38.4471L58.9307 40.2735L64.5718 34.6544L62.7383 32.828Z" fill="#2B2B2B"/>
<path d="M62.318 35.6347L62.9576 36.2718L64.3146 34.9201L63.675 34.283C63.5874 34.1947 63.4831 34.1247 63.3681 34.0769C63.2531 34.029 63.1298 34.0044 63.0052 34.0044C62.8806 34.0044 62.7572 34.029 62.6422 34.0769C62.5273 34.1247 62.4229 34.1947 62.3353 34.283C62.243 34.3694 62.169 34.4734 62.118 34.5889C62.0669 34.7044 62.0398 34.829 62.0382 34.9552C62.0365 35.0813 62.0605 35.2066 62.1086 35.3233C62.1567 35.4401 62.2279 35.546 62.318 35.6347Z" fill="#0F0F0F"/>
<path d="M58.5149 39.4228L59.1459 40.0599L60.5029 38.7427L59.8633 38.1142C59.7757 38.026 59.6713 37.9559 59.5564 37.9081C59.4414 37.8603 59.318 37.8357 59.1934 37.8357C59.0688 37.8357 58.9455 37.8603 58.8305 37.9081C58.7155 37.9559 58.6112 38.026 58.5236 38.1142C58.3513 38.2883 58.2541 38.5224 58.2525 38.7668C58.2508 39.0112 58.345 39.2465 58.5149 39.4228Z" fill="#0F0F0F"/>
<path d="M60.4338 37.5115L61.0734 38.1486L62.4304 36.7969L61.7908 36.1598C61.7031 36.0716 61.5988 36.0015 61.4839 35.9537C61.3689 35.9059 61.2455 35.8813 61.1209 35.8813C60.9963 35.8813 60.873 35.9059 60.758 35.9537C60.643 36.0015 60.5387 36.0716 60.4511 36.1598C60.3587 36.2462 60.2848 36.3503 60.2337 36.4658C60.1826 36.5813 60.1555 36.7058 60.1539 36.832C60.1523 36.9582 60.1762 37.0834 60.2243 37.2002C60.2724 37.3169 60.3436 37.4228 60.4338 37.5115Z" fill="#0F0F0F"/>
<path d="M43.6198 1.65736L25.8408 19.3669L28.7378 22.2525L46.5168 4.54299L43.6198 1.65736Z" fill="#383838"/>
<path d="M45.0651 3.09892L27.2861 20.8084L28.7346 22.2512L46.5136 4.54174L45.0651 3.09892Z" fill="#1F1F1F"/>
<path d="M39.9336 0.308016L24.4893 15.692L27.0073 18.2001L42.4516 2.8162L39.9336 0.308016Z" fill="#383838"/>
<path d="M41.1313 1.50477L25.687 16.8887L27.0071 18.2037L42.4514 2.81974L41.1313 1.50477Z" fill="#1F1F1F"/>
<path d="M36.2929 -0.000627762L24.1733 12.0715L26.1474 14.0379L38.267 1.96574L36.2929 -0.000627762Z" fill="#383838"/>
<path d="M37.286 0.98323L25.1665 13.0554L26.1566 14.0416L38.2761 1.96946L37.286 0.98323Z" fill="#1F1F1F"/>
<path d="M31.2012 1.42671L25.5601 7.04578L27.3936 8.87212L33.0347 3.25306L31.2012 1.42671Z" fill="#2B2B2B"/>
<path d="M30.2514 3.66764L29.6118 3.03054L30.9429 1.72189L31.5825 2.359C31.7572 2.53748 31.855 2.77692 31.855 3.02623C31.855 3.27554 31.7572 3.51498 31.5825 3.69347C31.4004 3.86155 31.1599 3.95276 30.9117 3.94795C30.6635 3.94313 30.4268 3.84265 30.2514 3.66764Z" fill="#0F0F0F"/>
<path d="M26.414 7.45583L25.7744 6.81873L27.1314 5.46704L27.771 6.10414C27.8596 6.19142 27.9299 6.29533 27.9779 6.40986C28.0259 6.52439 28.0506 6.64727 28.0506 6.77138C28.0506 6.89549 28.0259 7.01837 27.9779 7.1329C27.9299 7.24743 27.8596 7.35134 27.771 7.43861C27.6843 7.53062 27.5798 7.60425 27.4639 7.65511C27.3479 7.70597 27.2229 7.73301 27.0962 7.73462C26.9695 7.73623 26.8438 7.71237 26.7266 7.66446C26.6094 7.61656 26.5031 7.5456 26.414 7.45583Z" fill="#0F0F0F"/>
<path d="M28.3413 5.54452L27.7017 4.90741L29.0587 3.55573L29.6983 4.19283C29.873 4.37131 29.9708 4.61075 29.9708 4.86006C29.9708 5.10937 29.873 5.34881 29.6983 5.5273C29.6103 5.61721 29.5054 5.68897 29.3896 5.7385C29.2738 5.78803 29.1494 5.81434 29.0233 5.81594C28.8973 5.81754 28.7722 5.79439 28.6552 5.74782C28.5382 5.70125 28.4315 5.63216 28.3413 5.54452Z" fill="#0F0F0F"/>
<path d="M4.19036 12.1305L0.786133 15.5214L37.2792 51.8718L40.6834 48.4809L4.19036 12.1305Z" fill="#858585"/>
<path d="M17.6307 25.0357L13.7681 28.8832L24.3841 39.4578L28.2467 35.6103L17.6307 25.0357Z" fill="#2C3E50"/>
<path d="M37.2575 30.7431L19.4785 48.4525L22.3755 51.3382L40.1544 33.6287L37.2575 30.7431Z" fill="#383838"/>
<path d="M37.2604 30.7443L19.4814 48.4538L20.9299 49.8966L38.7089 32.1871L37.2604 30.7443Z" fill="#1F1F1F"/>
<path d="M38.9965 34.7954L23.5522 50.1794L26.0703 52.6875L41.5146 37.3036L38.9965 34.7954Z" fill="#383838"/>
<path d="M38.9941 34.798L23.5498 50.1819L24.8699 51.4969L40.3142 36.1129L38.9941 34.798Z" fill="#1F1F1F"/>
<path d="M39.8476 38.9576L27.728 51.0298L29.7021 52.9962L41.8216 40.924L39.8476 38.9576Z" fill="#383838"/>
<path d="M39.8534 38.96L27.7339 51.0322L28.724 52.0184L40.8435 39.9462L39.8534 38.96Z" fill="#1F1F1F"/>
<path d="M38.5645 44.1817L32.9233 49.8008L34.7569 51.6272L40.398 46.0081L38.5645 44.1817Z" fill="#2B2B2B"/>
<path d="M38.1427 46.9734L38.7823 47.6105L40.1393 46.2588L39.4997 45.6303C39.4121 45.542 39.3077 45.472 39.1928 45.4242C39.0778 45.3764 38.9544 45.3517 38.8298 45.3517C38.7052 45.3517 38.5819 45.3764 38.4669 45.4242C38.3519 45.472 38.2476 45.542 38.16 45.6303C38.0689 45.7166 37.9961 45.8201 37.9459 45.9348C37.8956 46.0495 37.8689 46.1731 37.8673 46.2982C37.8657 46.4234 37.8892 46.5476 37.9365 46.6635C37.9838 46.7795 38.0539 46.8848 38.1427 46.9734Z" fill="#0F0F0F"/>
<path d="M34.3397 50.796L34.9793 51.4245L36.3017 50.0469L35.6707 49.4185C35.5824 49.33 35.4773 49.2597 35.3616 49.2118C35.2459 49.1639 35.1219 49.1392 34.9966 49.1392C34.8713 49.1392 34.7472 49.1639 34.6315 49.2118C34.5158 49.2597 34.4107 49.33 34.3224 49.4185C34.2293 49.5082 34.1556 49.6158 34.1058 49.7349C34.056 49.854 34.0312 49.9819 34.0328 50.1109C34.0344 50.2399 34.0625 50.3672 34.1152 50.485C34.168 50.6028 34.2444 50.7086 34.3397 50.796Z" fill="#0F0F0F"/>
<path d="M36.3019 48.8502L36.9415 49.4873L38.2985 48.1356L37.6589 47.4985C37.5713 47.4103 37.467 47.3402 37.352 47.2924C37.237 47.2446 37.1137 47.22 36.9891 47.22C36.8645 47.22 36.7411 47.2446 36.6261 47.2924C36.5112 47.3402 36.4068 47.4103 36.3192 47.4985C36.2269 47.5849 36.1529 47.689 36.1019 47.8045C36.0508 47.92 36.0237 48.0445 36.022 48.1707C36.0204 48.2969 36.0444 48.4221 36.0925 48.5389C36.1406 48.6556 36.2118 48.7615 36.3019 48.8502Z" fill="#0F0F0F"/>
<path d="M19.4401 13.005L1.66113 30.7145L4.55809 33.6001L22.3371 15.8906L19.4401 13.005Z" fill="#383838"/>
<path d="M20.8942 14.4379L3.11523 32.1474L4.56371 33.5902L22.3427 15.8808L20.8942 14.4379Z" fill="#1F1F1F"/>
<path d="M15.7539 11.647L0.30957 27.031L2.8276 29.5392L18.2719 14.1552L15.7539 11.647Z" fill="#383838"/>
<path d="M16.9516 12.8524L1.50732 28.2363L2.82745 29.5513L18.2718 14.1674L16.9516 12.8524Z" fill="#1F1F1F"/>
<path d="M12.122 11.3384L0.00244141 23.4106L1.97653 25.3769L14.0961 13.3048L12.122 11.3384Z" fill="#383838"/>
<path d="M13.1063 12.3222L0.986816 24.3944L1.97691 25.3806L14.0964 13.3085L13.1063 12.3222Z" fill="#1F1F1F"/>
<path d="M7.02978 12.7657L1.38867 18.3848L3.22219 20.2111L8.8633 14.5921L7.02978 12.7657Z" fill="#2B2B2B"/>
<path d="M6.05025 15.0063L5.41064 14.3692L6.76764 13.0175L7.40724 13.6546C7.49583 13.7419 7.56616 13.8458 7.61416 13.9604C7.66216 14.0749 7.68687 14.1978 7.68687 14.3219C7.68687 14.446 7.66216 14.5689 7.61416 14.6834C7.56616 14.7979 7.49583 14.9018 7.40724 14.9891C7.32052 15.0811 7.21606 15.1548 7.10011 15.2056C6.98416 15.2565 6.8591 15.2835 6.73242 15.2851C6.60573 15.2867 6.48003 15.2629 6.36281 15.215C6.2456 15.1671 6.13929 15.0961 6.05025 15.0063Z" fill="#0F0F0F"/>
<path d="M2.23887 18.7945L1.60791 18.166L2.9649 16.8143L3.59586 17.4428C3.68471 17.5308 3.75523 17.6355 3.80334 17.7507C3.85145 17.866 3.87622 17.9895 3.87622 18.1144C3.87622 18.2392 3.85145 18.3628 3.80334 18.478C3.75523 18.5933 3.68471 18.6979 3.59586 18.7859C3.50793 18.8763 3.40281 18.9483 3.28662 18.9977C3.17043 19.0472 3.04552 19.073 2.91918 19.0738C2.79284 19.0746 2.6676 19.0504 2.5508 19.0024C2.43399 18.9544 2.32794 18.8838 2.23887 18.7945Z" fill="#0F0F0F"/>
<path d="M4.16646 16.8832L3.52686 16.2461L4.88385 14.8944L5.52345 15.5315C5.61204 15.6188 5.68237 15.7227 5.73037 15.8372C5.77837 15.9518 5.80309 16.0746 5.80309 16.1987C5.80309 16.3229 5.77837 16.4457 5.73037 16.5603C5.68237 16.6748 5.61204 16.7787 5.52345 16.866C5.43673 16.958 5.33227 17.0316 5.21632 17.0825C5.10037 17.1333 4.97531 17.1604 4.84863 17.162C4.72195 17.1636 4.59624 17.1397 4.47902 17.0918C4.36181 17.0439 4.2555 16.973 4.16646 16.8832Z" fill="#0F0F0F"/>
</svg>
