<svg width="315" height="178" viewBox="0 0 315 178" fill="none" xmlns="http://www.w3.org/2000/svg">
<g filter="url(#filter0_d_64_1627)">
<rect width="315" height="146" rx="22" fill="url(#paint0_linear_64_1627)"/>
</g>
<mask id="mask0_64_1627" style="mask-type:alpha" maskUnits="userSpaceOnUse" x="0" y="0" width="315" height="146">
<rect width="315" height="146" rx="22" fill="url(#paint1_linear_64_1627)"/>
</mask>
<g mask="url(#mask0_64_1627)">
<circle opacity="0.2" cx="300" cy="123" r="25" fill="white"/>
<circle opacity="0.2" cx="6" cy="139" r="25" fill="white"/>
<circle opacity="0.2" cx="171" cy="26" r="4" fill="white"/>
<circle opacity="0.2" cx="136" cy="110" r="4" fill="white"/>
<circle opacity="0.2" cx="113" cy="16" r="4" fill="white"/>
<circle opacity="0.2" cx="179" cy="131" r="4" fill="white"/>
</g>
<path d="M26.51 35.988C27.0607 36.0907 27.5133 36.366 27.868 36.814C28.2227 37.262 28.4 37.7753 28.4 38.354C28.4 38.8767 28.2693 39.3387 28.008 39.74C27.756 40.132 27.3873 40.44 26.902 40.664C26.4167 40.888 25.8427 41 25.18 41H20.966V31.228H24.998C25.6607 31.228 26.23 31.3353 26.706 31.55C27.1913 31.7647 27.5553 32.0633 27.798 32.446C28.05 32.8287 28.176 33.2627 28.176 33.748C28.176 34.3173 28.022 34.7933 27.714 35.176C27.4153 35.5587 27.014 35.8293 26.51 35.988ZM22.926 35.26H24.718C25.1847 35.26 25.544 35.1573 25.796 34.952C26.048 34.7373 26.174 34.434 26.174 34.042C26.174 33.65 26.048 33.3467 25.796 33.132C25.544 32.9173 25.1847 32.81 24.718 32.81H22.926V35.26ZM24.9 39.404C25.376 39.404 25.7447 39.292 26.006 39.068C26.2767 38.844 26.412 38.5267 26.412 38.116C26.412 37.696 26.272 37.3693 25.992 37.136C25.712 36.8933 25.334 36.772 24.858 36.772H22.926V39.404H24.9ZM40.6161 31.228V41H38.6561V34.644L36.0381 41H34.5541L31.9221 34.644V41H29.9621V31.228H32.1881L35.2961 38.494L38.4041 31.228H40.6161ZM44.5139 31.228V41H42.5539V31.228H44.5139ZM53.1743 43.758C52.269 42.8807 51.5643 41.7607 51.0603 40.398C50.5656 39.0353 50.3183 37.5747 50.3183 36.016C50.3183 34.42 50.5796 32.922 51.1023 31.522C51.625 30.1127 52.3856 28.96 53.3843 28.064H55.3583V28.246C54.3316 29.226 53.5476 30.402 53.0063 31.774C52.4743 33.146 52.2083 34.56 52.2083 36.016C52.2083 37.4347 52.4603 38.8067 52.9643 40.132C53.4776 41.448 54.2056 42.5913 55.1483 43.562V43.758H53.1743ZM62.1252 35.988C62.6759 36.0907 63.1286 36.366 63.4832 36.814C63.8379 37.262 64.0152 37.7753 64.0152 38.354C64.0152 38.8767 63.8846 39.3387 63.6232 39.74C63.3712 40.132 63.0026 40.44 62.5172 40.664C62.0319 40.888 61.4579 41 60.7952 41H56.5812V31.228H60.6132C61.2759 31.228 61.8452 31.3353 62.3212 31.55C62.8066 31.7647 63.1706 32.0633 63.4132 32.446C63.6652 32.8287 63.7912 33.2627 63.7912 33.748C63.7912 34.3173 63.6372 34.7933 63.3292 35.176C63.0306 35.5587 62.6292 35.8293 62.1252 35.988ZM58.5412 35.26H60.3332C60.7999 35.26 61.1592 35.1573 61.4112 34.952C61.6632 34.7373 61.7892 34.434 61.7892 34.042C61.7892 33.65 61.6632 33.3467 61.4112 33.132C61.1592 32.9173 60.7999 32.81 60.3332 32.81H58.5412V35.26ZM60.5152 39.404C60.9912 39.404 61.3599 39.292 61.6212 39.068C61.8919 38.844 62.0272 38.5267 62.0272 38.116C62.0272 37.696 61.8872 37.3693 61.6072 37.136C61.3272 36.8933 60.9492 36.772 60.4732 36.772H58.5412V39.404H60.5152ZM69.0213 41.126C68.2747 41.126 67.6027 40.9627 67.0053 40.636C66.408 40.3 65.9367 39.8287 65.5913 39.222C65.2553 38.6153 65.0873 37.9153 65.0873 37.122C65.0873 36.3287 65.26 35.6287 65.6053 35.022C65.96 34.4153 66.4407 33.9487 67.0473 33.622C67.654 33.286 68.3307 33.118 69.0773 33.118C69.824 33.118 70.5007 33.286 71.1073 33.622C71.714 33.9487 72.19 34.4153 72.5353 35.022C72.89 35.6287 73.0673 36.3287 73.0673 37.122C73.0673 37.9153 72.8853 38.6153 72.5213 39.222C72.1667 39.8287 71.6813 40.3 71.0653 40.636C70.4587 40.9627 69.7773 41.126 69.0213 41.126ZM69.0213 39.418C69.376 39.418 69.7073 39.334 70.0153 39.166C70.3327 38.9887 70.5847 38.7273 70.7713 38.382C70.958 38.0367 71.0513 37.6167 71.0513 37.122C71.0513 36.3847 70.8553 35.82 70.4633 35.428C70.0807 35.0267 69.6093 34.826 69.0493 34.826C68.4893 34.826 68.018 35.0267 67.6353 35.428C67.262 35.82 67.0753 36.3847 67.0753 37.122C67.0753 37.8593 67.2573 38.4287 67.6213 38.83C67.9947 39.222 68.4613 39.418 69.0213 39.418ZM74.0011 37.094C74.0011 36.31 74.1551 35.6147 74.4631 35.008C74.7804 34.4013 75.2097 33.9347 75.7511 33.608C76.2924 33.2813 76.8944 33.118 77.5571 33.118C78.0611 33.118 78.5417 33.23 78.9991 33.454C79.4564 33.6687 79.8204 33.958 80.0911 34.322V30.64H82.0791V41H80.0911V39.852C79.8484 40.2347 79.5077 40.5427 79.0691 40.776C78.6304 41.0093 78.1217 41.126 77.5431 41.126C76.8897 41.126 76.2924 40.958 75.7511 40.622C75.2097 40.286 74.7804 39.8147 74.4631 39.208C74.1551 38.592 74.0011 37.8873 74.0011 37.094ZM80.1051 37.122C80.1051 36.646 80.0117 36.24 79.8251 35.904C79.6384 35.5587 79.3864 35.2973 79.0691 35.12C78.7517 34.9333 78.4111 34.84 78.0471 34.84C77.6831 34.84 77.3471 34.9287 77.0391 35.106C76.7311 35.2833 76.4791 35.5447 76.2831 35.89C76.0964 36.226 76.0031 36.6273 76.0031 37.094C76.0031 37.5607 76.0964 37.9713 76.2831 38.326C76.4791 38.6713 76.7311 38.9373 77.0391 39.124C77.3564 39.3107 77.6924 39.404 78.0471 39.404C78.4111 39.404 78.7517 39.3153 79.0691 39.138C79.3864 38.9513 79.6384 38.69 79.8251 38.354C80.0117 38.0087 80.1051 37.598 80.1051 37.122ZM91.4133 33.244L86.6113 44.668H84.5253L86.2053 40.804L83.0973 33.244H85.2953L87.2973 38.662L89.3273 33.244H91.4133ZM106.46 31.228V41H104.5V34.644L101.882 41H100.398L97.7658 34.644V41H95.8058V31.228H98.0318L101.14 38.494L104.248 31.228H106.46ZM107.894 37.094C107.894 36.31 108.048 35.6147 108.356 35.008C108.673 34.4013 109.098 33.9347 109.63 33.608C110.171 33.2813 110.773 33.118 111.436 33.118C112.014 33.118 112.518 33.2347 112.948 33.468C113.386 33.7013 113.736 33.9953 113.998 34.35V33.244H115.972V41H113.998V39.866C113.746 40.23 113.396 40.5333 112.948 40.776C112.509 41.0093 112 41.126 111.422 41.126C110.768 41.126 110.171 40.958 109.63 40.622C109.098 40.286 108.673 39.8147 108.356 39.208C108.048 38.592 107.894 37.8873 107.894 37.094ZM113.998 37.122C113.998 36.646 113.904 36.24 113.718 35.904C113.531 35.5587 113.279 35.2973 112.962 35.12C112.644 34.9333 112.304 34.84 111.94 34.84C111.576 34.84 111.24 34.9287 110.932 35.106C110.624 35.2833 110.372 35.5447 110.176 35.89C109.989 36.226 109.896 36.6273 109.896 37.094C109.896 37.5607 109.989 37.9713 110.176 38.326C110.372 38.6713 110.624 38.9373 110.932 39.124C111.249 39.3107 111.585 39.404 111.94 39.404C112.304 39.404 112.644 39.3153 112.962 39.138C113.279 38.9513 113.531 38.69 113.718 38.354C113.904 38.0087 113.998 37.598 113.998 37.122ZM120.854 41.126C120.219 41.126 119.65 41.014 119.146 40.79C118.642 40.5567 118.241 40.244 117.942 39.852C117.653 39.46 117.494 39.026 117.466 38.55H119.44C119.477 38.8487 119.622 39.096 119.874 39.292C120.135 39.488 120.457 39.586 120.84 39.586C121.213 39.586 121.503 39.5113 121.708 39.362C121.923 39.2127 122.03 39.0213 122.03 38.788C122.03 38.536 121.899 38.3493 121.638 38.228C121.386 38.0973 120.98 37.9573 120.42 37.808C119.841 37.668 119.365 37.5233 118.992 37.374C118.628 37.2247 118.311 36.996 118.04 36.688C117.779 36.38 117.648 35.9647 117.648 35.442C117.648 35.0127 117.769 34.6207 118.012 34.266C118.264 33.9113 118.619 33.6313 119.076 33.426C119.543 33.2207 120.089 33.118 120.714 33.118C121.638 33.118 122.375 33.3513 122.926 33.818C123.477 34.2753 123.78 34.896 123.836 35.68H121.96C121.932 35.372 121.801 35.1293 121.568 34.952C121.344 34.7653 121.041 34.672 120.658 34.672C120.303 34.672 120.028 34.7373 119.832 34.868C119.645 34.9987 119.552 35.1807 119.552 35.414C119.552 35.6753 119.683 35.876 119.944 36.016C120.205 36.1467 120.611 36.282 121.162 36.422C121.722 36.562 122.184 36.7067 122.548 36.856C122.912 37.0053 123.225 37.2387 123.486 37.556C123.757 37.864 123.897 38.2747 123.906 38.788C123.906 39.236 123.78 39.6373 123.528 39.992C123.285 40.3467 122.931 40.6267 122.464 40.832C122.007 41.028 121.47 41.126 120.854 41.126ZM128.483 41.126C127.848 41.126 127.279 41.014 126.775 40.79C126.271 40.5567 125.869 40.244 125.571 39.852C125.281 39.46 125.123 39.026 125.095 38.55H127.069C127.106 38.8487 127.251 39.096 127.503 39.292C127.764 39.488 128.086 39.586 128.469 39.586C128.842 39.586 129.131 39.5113 129.337 39.362C129.551 39.2127 129.659 39.0213 129.659 38.788C129.659 38.536 129.528 38.3493 129.267 38.228C129.015 38.0973 128.609 37.9573 128.049 37.808C127.47 37.668 126.994 37.5233 126.621 37.374C126.257 37.2247 125.939 36.996 125.669 36.688C125.407 36.38 125.277 35.9647 125.277 35.442C125.277 35.0127 125.398 34.6207 125.641 34.266C125.893 33.9113 126.247 33.6313 126.705 33.426C127.171 33.2207 127.717 33.118 128.343 33.118C129.267 33.118 130.004 33.3513 130.555 33.818C131.105 34.2753 131.409 34.896 131.465 35.68H129.589C129.561 35.372 129.43 35.1293 129.197 34.952C128.973 34.7653 128.669 34.672 128.287 34.672C127.932 34.672 127.657 34.7373 127.461 34.868C127.274 34.9987 127.181 35.1807 127.181 35.414C127.181 35.6753 127.311 35.876 127.573 36.016C127.834 36.1467 128.24 36.282 128.791 36.422C129.351 36.562 129.813 36.7067 130.177 36.856C130.541 37.0053 130.853 37.2387 131.115 37.556C131.385 37.864 131.525 38.2747 131.535 38.788C131.535 39.236 131.409 39.6373 131.157 39.992C130.914 40.3467 130.559 40.6267 130.093 40.832C129.635 41.028 129.099 41.126 128.483 41.126ZM138.44 31.228V41H136.48V31.228H138.44ZM144.674 33.132C145.598 33.132 146.345 33.426 146.914 34.014C147.483 34.5927 147.768 35.4047 147.768 36.45V41H145.808V36.716C145.808 36.1 145.654 35.6287 145.346 35.302C145.038 34.966 144.618 34.798 144.086 34.798C143.545 34.798 143.115 34.966 142.798 35.302C142.49 35.6287 142.336 36.1 142.336 36.716V41H140.376V33.244H142.336V34.21C142.597 33.874 142.929 33.6127 143.33 33.426C143.741 33.23 144.189 33.132 144.674 33.132ZM149.128 37.094C149.128 36.31 149.282 35.6147 149.59 35.008C149.907 34.4013 150.337 33.9347 150.878 33.608C151.419 33.2813 152.021 33.118 152.684 33.118C153.188 33.118 153.669 33.23 154.126 33.454C154.583 33.6687 154.947 33.958 155.218 34.322V30.64H157.206V41H155.218V39.852C154.975 40.2347 154.635 40.5427 154.196 40.776C153.757 41.0093 153.249 41.126 152.67 41.126C152.017 41.126 151.419 40.958 150.878 40.622C150.337 40.286 149.907 39.8147 149.59 39.208C149.282 38.592 149.128 37.8873 149.128 37.094ZM155.232 37.122C155.232 36.646 155.139 36.24 154.952 35.904C154.765 35.5587 154.513 35.2973 154.196 35.12C153.879 34.9333 153.538 34.84 153.174 34.84C152.81 34.84 152.474 34.9287 152.166 35.106C151.858 35.2833 151.606 35.5447 151.41 35.89C151.223 36.226 151.13 36.6273 151.13 37.094C151.13 37.5607 151.223 37.9713 151.41 38.326C151.606 38.6713 151.858 38.9373 152.166 39.124C152.483 39.3107 152.819 39.404 153.174 39.404C153.538 39.404 153.879 39.3153 154.196 39.138C154.513 38.9513 154.765 38.69 154.952 38.354C155.139 38.0087 155.232 37.598 155.232 37.122ZM166.33 36.954C166.33 37.234 166.312 37.486 166.274 37.71H160.604C160.651 38.27 160.847 38.7087 161.192 39.026C161.538 39.3433 161.962 39.502 162.466 39.502C163.194 39.502 163.712 39.1893 164.02 38.564H166.134C165.91 39.3107 165.481 39.9267 164.846 40.412C164.212 40.888 163.432 41.126 162.508 41.126C161.762 41.126 161.09 40.9627 160.492 40.636C159.904 40.3 159.442 39.8287 159.106 39.222C158.78 38.6153 158.616 37.9153 158.616 37.122C158.616 36.3193 158.78 35.6147 159.106 35.008C159.433 34.4013 159.89 33.9347 160.478 33.608C161.066 33.2813 161.743 33.118 162.508 33.118C163.246 33.118 163.904 33.2767 164.482 33.594C165.07 33.9113 165.523 34.364 165.84 34.952C166.167 35.5307 166.33 36.198 166.33 36.954ZM164.3 36.394C164.291 35.89 164.109 35.4887 163.754 35.19C163.4 34.882 162.966 34.728 162.452 34.728C161.967 34.728 161.556 34.8773 161.22 35.176C160.894 35.4653 160.693 35.8713 160.618 36.394H164.3ZM172.045 41L170.449 38.592L169.035 41H166.935L169.469 37.108L166.907 33.244H169.119L170.701 35.638L172.129 33.244H174.229L171.681 37.108L174.257 41H172.045ZM174.817 43.758V43.562C175.76 42.5913 176.483 41.448 176.987 40.132C177.501 38.8067 177.757 37.4347 177.757 36.016C177.757 34.56 177.487 33.146 176.945 31.774C176.413 30.402 175.634 29.226 174.607 28.246V28.064H176.581C177.58 28.96 178.341 30.1127 178.863 31.522C179.386 32.922 179.647 34.42 179.647 36.016C179.647 37.5747 179.395 39.0353 178.891 40.398C178.397 41.7607 177.697 42.8807 176.791 43.758H174.817Z" fill="white"/>
<path d="M26.78 56.636L24.056 61.844V65H22.964V61.844L20.228 56.636H21.44L23.504 60.872L25.568 56.636H26.78ZM30.7998 65.108C30.1838 65.108 29.6238 64.968 29.1198 64.688C28.6238 64.408 28.2318 64.012 27.9438 63.5C27.6638 62.98 27.5238 62.38 27.5238 61.7C27.5238 61.028 27.6678 60.436 27.9558 59.924C28.2518 59.404 28.6518 59.008 29.1558 58.736C29.6598 58.456 30.2238 58.316 30.8478 58.316C31.4718 58.316 32.0358 58.456 32.5398 58.736C33.0438 59.008 33.4398 59.4 33.7278 59.912C34.0238 60.424 34.1718 61.02 34.1718 61.7C34.1718 62.38 34.0198 62.98 33.7158 63.5C33.4198 64.012 33.0158 64.408 32.5038 64.688C31.9918 64.968 31.4238 65.108 30.7998 65.108ZM30.7998 64.148C31.1918 64.148 31.5598 64.056 31.9038 63.872C32.2478 63.688 32.5238 63.412 32.7318 63.044C32.9478 62.676 33.0558 62.228 33.0558 61.7C33.0558 61.172 32.9518 60.724 32.7438 60.356C32.5358 59.988 32.2638 59.716 31.9278 59.54C31.5918 59.356 31.2278 59.264 30.8358 59.264C30.4358 59.264 30.0678 59.356 29.7318 59.54C29.4038 59.716 29.1398 59.988 28.9398 60.356C28.7398 60.724 28.6398 61.172 28.6398 61.7C28.6398 62.236 28.7358 62.688 28.9278 63.056C29.1278 63.424 29.3918 63.7 29.7198 63.884C30.0478 64.06 30.4078 64.148 30.7998 64.148ZM41.4396 58.424V65H40.3476V64.028C40.1396 64.364 39.8476 64.628 39.4716 64.82C39.1036 65.004 38.6956 65.096 38.2476 65.096C37.7356 65.096 37.2756 64.992 36.8676 64.784C36.4596 64.568 36.1356 64.248 35.8956 63.824C35.6636 63.4 35.5476 62.884 35.5476 62.276V58.424H36.6276V62.132C36.6276 62.78 36.7916 63.28 37.1196 63.632C37.4476 63.976 37.8956 64.148 38.4636 64.148C39.0476 64.148 39.5076 63.968 39.8436 63.608C40.1796 63.248 40.3476 62.724 40.3476 62.036V58.424H41.4396ZM49.7466 58.304C50.2426 58.304 50.6906 58.412 51.0906 58.628C51.4906 58.836 51.8026 59.152 52.0266 59.576C52.2586 60 52.3746 60.516 52.3746 61.124V65H51.2946V61.28C51.2946 60.624 51.1306 60.124 50.8026 59.78C50.4746 59.428 50.0266 59.252 49.4586 59.252C48.8826 59.252 48.4226 59.432 48.0786 59.792C47.7426 60.152 47.5746 60.676 47.5746 61.364V65H46.4826V56.12H47.5746V59.36C47.7906 59.024 48.0866 58.764 48.4626 58.58C48.8466 58.396 49.2746 58.304 49.7466 58.304ZM53.7504 61.688C53.7504 61.016 53.8864 60.428 54.1584 59.924C54.4304 59.412 54.8024 59.016 55.2744 58.736C55.7544 58.456 56.2864 58.316 56.8704 58.316C57.4464 58.316 57.9464 58.44 58.3704 58.688C58.7944 58.936 59.1104 59.248 59.3184 59.624V58.424H60.4224V65H59.3184V63.776C59.1024 64.16 58.7784 64.48 58.3464 64.736C57.9224 64.984 57.4264 65.108 56.8584 65.108C56.2744 65.108 55.7464 64.964 55.2744 64.676C54.8024 64.388 54.4304 63.984 54.1584 63.464C53.8864 62.944 53.7504 62.352 53.7504 61.688ZM59.3184 61.7C59.3184 61.204 59.2184 60.772 59.0184 60.404C58.8184 60.036 58.5464 59.756 58.2024 59.564C57.8664 59.364 57.4944 59.264 57.0864 59.264C56.6784 59.264 56.3064 59.36 55.9704 59.552C55.6344 59.744 55.3664 60.024 55.1664 60.392C54.9664 60.76 54.8664 61.192 54.8664 61.688C54.8664 62.192 54.9664 62.632 55.1664 63.008C55.3664 63.376 55.6344 63.66 55.9704 63.86C56.3064 64.052 56.6784 64.148 57.0864 64.148C57.4944 64.148 57.8664 64.052 58.2024 63.86C58.5464 63.66 58.8184 63.376 59.0184 63.008C59.2184 62.632 59.3184 62.196 59.3184 61.7ZM64.7158 63.992L66.7558 58.424H67.9198L65.3398 65H64.0678L61.4878 58.424H62.6638L64.7158 63.992ZM74.9943 61.46C74.9943 61.668 74.9823 61.888 74.9583 62.12H69.7023C69.7423 62.768 69.9623 63.276 70.3623 63.644C70.7703 64.004 71.2623 64.184 71.8383 64.184C72.3103 64.184 72.7023 64.076 73.0143 63.86C73.3343 63.636 73.5583 63.34 73.6863 62.972H74.8623C74.6863 63.604 74.3343 64.12 73.8063 64.52C73.2783 64.912 72.6223 65.108 71.8383 65.108C71.2143 65.108 70.6543 64.968 70.1583 64.688C69.6703 64.408 69.2863 64.012 69.0063 63.5C68.7263 62.98 68.5863 62.38 68.5863 61.7C68.5863 61.02 68.7223 60.424 68.9943 59.912C69.2663 59.4 69.6463 59.008 70.1343 58.736C70.6303 58.456 71.1983 58.316 71.8383 58.316C72.4623 58.316 73.0143 58.452 73.4943 58.724C73.9743 58.996 74.3423 59.372 74.5983 59.852C74.8623 60.324 74.9943 60.86 74.9943 61.46ZM73.8663 61.232C73.8663 60.816 73.7743 60.46 73.5903 60.164C73.4063 59.86 73.1543 59.632 72.8343 59.48C72.5223 59.32 72.1743 59.24 71.7903 59.24C71.2383 59.24 70.7663 59.416 70.3743 59.768C69.9903 60.12 69.7703 60.608 69.7143 61.232H73.8663ZM79.2269 61.688C79.2269 61.016 79.3629 60.428 79.6349 59.924C79.9069 59.412 80.2789 59.016 80.7509 58.736C81.2309 58.456 81.7629 58.316 82.3469 58.316C82.9229 58.316 83.4229 58.44 83.8469 58.688C84.2709 58.936 84.5869 59.248 84.7949 59.624V58.424H85.8989V65H84.7949V63.776C84.5789 64.16 84.2549 64.48 83.8229 64.736C83.3989 64.984 82.9029 65.108 82.3349 65.108C81.7509 65.108 81.2229 64.964 80.7509 64.676C80.2789 64.388 79.9069 63.984 79.6349 63.464C79.3629 62.944 79.2269 62.352 79.2269 61.688ZM84.7949 61.7C84.7949 61.204 84.6949 60.772 84.4949 60.404C84.2949 60.036 84.0229 59.756 83.6789 59.564C83.3429 59.364 82.9709 59.264 82.5629 59.264C82.1549 59.264 81.7829 59.36 81.4469 59.552C81.1109 59.744 80.8429 60.024 80.6429 60.392C80.4429 60.76 80.3429 61.192 80.3429 61.688C80.3429 62.192 80.4429 62.632 80.6429 63.008C80.8429 63.376 81.1109 63.66 81.4469 63.86C81.7829 64.052 82.1549 64.148 82.5629 64.148C82.9709 64.148 83.3429 64.052 83.6789 63.86C84.0229 63.66 84.2949 63.376 84.4949 63.008C84.6949 62.632 84.7949 62.196 84.7949 61.7ZM94.1475 58.304C94.9475 58.304 95.5955 58.548 96.0915 59.036C96.5875 59.516 96.8355 60.212 96.8355 61.124V65H95.7555V61.28C95.7555 60.624 95.5915 60.124 95.2635 59.78C94.9355 59.428 94.4875 59.252 93.9195 59.252C93.3435 59.252 92.8835 59.432 92.5395 59.792C92.2035 60.152 92.0355 60.676 92.0355 61.364V65H90.9435V58.424H92.0355V59.36C92.2515 59.024 92.5435 58.764 92.9115 58.58C93.2875 58.396 93.6995 58.304 94.1475 58.304ZM101.487 65.108C100.871 65.108 100.311 64.968 99.8073 64.688C99.3113 64.408 98.9193 64.012 98.6313 63.5C98.3513 62.98 98.2113 62.38 98.2113 61.7C98.2113 61.028 98.3553 60.436 98.6433 59.924C98.9393 59.404 99.3393 59.008 99.8433 58.736C100.347 58.456 100.911 58.316 101.535 58.316C102.159 58.316 102.723 58.456 103.227 58.736C103.731 59.008 104.127 59.4 104.415 59.912C104.711 60.424 104.859 61.02 104.859 61.7C104.859 62.38 104.707 62.98 104.403 63.5C104.107 64.012 103.703 64.408 103.191 64.688C102.679 64.968 102.111 65.108 101.487 65.108ZM101.487 64.148C101.879 64.148 102.247 64.056 102.591 63.872C102.935 63.688 103.211 63.412 103.419 63.044C103.635 62.676 103.743 62.228 103.743 61.7C103.743 61.172 103.639 60.724 103.431 60.356C103.223 59.988 102.951 59.716 102.615 59.54C102.279 59.356 101.915 59.264 101.523 59.264C101.123 59.264 100.755 59.356 100.419 59.54C100.091 59.716 99.8273 59.988 99.6273 60.356C99.4273 60.724 99.3273 61.172 99.3273 61.7C99.3273 62.236 99.4233 62.688 99.6153 63.056C99.8153 63.424 100.079 63.7 100.407 63.884C100.735 64.06 101.095 64.148 101.487 64.148ZM107.387 59.492C107.579 59.116 107.851 58.824 108.203 58.616C108.563 58.408 108.999 58.304 109.511 58.304V59.432H109.223C107.999 59.432 107.387 60.096 107.387 61.424V65H106.295V58.424H107.387V59.492ZM118.68 58.304C119.192 58.304 119.648 58.412 120.048 58.628C120.448 58.836 120.764 59.152 120.996 59.576C121.228 60 121.344 60.516 121.344 61.124V65H120.264V61.28C120.264 60.624 120.1 60.124 119.772 59.78C119.452 59.428 119.016 59.252 118.464 59.252C117.896 59.252 117.444 59.436 117.108 59.804C116.772 60.164 116.604 60.688 116.604 61.376V65H115.524V61.28C115.524 60.624 115.36 60.124 115.032 59.78C114.712 59.428 114.276 59.252 113.724 59.252C113.156 59.252 112.704 59.436 112.368 59.804C112.032 60.164 111.864 60.688 111.864 61.376V65H110.772V58.424H111.864V59.372C112.08 59.028 112.368 58.764 112.728 58.58C113.096 58.396 113.5 58.304 113.94 58.304C114.492 58.304 114.98 58.428 115.404 58.676C115.828 58.924 116.144 59.288 116.352 59.768C116.536 59.304 116.84 58.944 117.264 58.688C117.688 58.432 118.16 58.304 118.68 58.304ZM122.727 61.688C122.727 61.016 122.863 60.428 123.135 59.924C123.407 59.412 123.779 59.016 124.251 58.736C124.731 58.456 125.263 58.316 125.847 58.316C126.423 58.316 126.923 58.44 127.347 58.688C127.771 58.936 128.087 59.248 128.295 59.624V58.424H129.399V65H128.295V63.776C128.079 64.16 127.755 64.48 127.323 64.736C126.899 64.984 126.403 65.108 125.835 65.108C125.251 65.108 124.723 64.964 124.251 64.676C123.779 64.388 123.407 63.984 123.135 63.464C122.863 62.944 122.727 62.352 122.727 61.688ZM128.295 61.7C128.295 61.204 128.195 60.772 127.995 60.404C127.795 60.036 127.523 59.756 127.179 59.564C126.843 59.364 126.471 59.264 126.063 59.264C125.655 59.264 125.283 59.36 124.947 59.552C124.611 59.744 124.343 60.024 124.143 60.392C123.943 60.76 123.843 61.192 123.843 61.688C123.843 62.192 123.943 62.632 124.143 63.008C124.343 63.376 124.611 63.66 124.947 63.86C125.283 64.052 125.655 64.148 126.063 64.148C126.471 64.148 126.843 64.052 127.179 63.86C127.523 63.66 127.795 63.376 127.995 63.008C128.195 62.632 128.295 62.196 128.295 61.7ZM132.336 56.12V65H131.244V56.12H132.336ZM146.157 58.424L144.105 65H142.977L141.393 59.78L139.809 65H138.681L136.617 58.424H137.733L139.245 63.944L140.877 58.424H141.993L143.589 63.956L145.077 58.424H146.157ZM153.24 61.46C153.24 61.668 153.228 61.888 153.204 62.12H147.948C147.988 62.768 148.208 63.276 148.608 63.644C149.016 64.004 149.508 64.184 150.084 64.184C150.556 64.184 150.948 64.076 151.26 63.86C151.58 63.636 151.804 63.34 151.932 62.972H153.108C152.932 63.604 152.58 64.12 152.052 64.52C151.524 64.912 150.868 65.108 150.084 65.108C149.46 65.108 148.9 64.968 148.404 64.688C147.916 64.408 147.532 64.012 147.252 63.5C146.972 62.98 146.832 62.38 146.832 61.7C146.832 61.02 146.968 60.424 147.24 59.912C147.512 59.4 147.892 59.008 148.38 58.736C148.876 58.456 149.444 58.316 150.084 58.316C150.708 58.316 151.26 58.452 151.74 58.724C152.22 58.996 152.588 59.372 152.844 59.852C153.108 60.324 153.24 60.86 153.24 61.46ZM152.112 61.232C152.112 60.816 152.02 60.46 151.836 60.164C151.652 59.86 151.4 59.632 151.08 59.48C150.768 59.32 150.42 59.24 150.036 59.24C149.484 59.24 149.012 59.416 148.62 59.768C148.236 60.12 148.016 60.608 147.96 61.232H152.112ZM155.246 57.356C155.038 57.356 154.862 57.284 154.718 57.14C154.574 56.996 154.502 56.82 154.502 56.612C154.502 56.404 154.574 56.228 154.718 56.084C154.862 55.94 155.038 55.868 155.246 55.868C155.446 55.868 155.614 55.94 155.75 56.084C155.894 56.228 155.966 56.404 155.966 56.612C155.966 56.82 155.894 56.996 155.75 57.14C155.614 57.284 155.446 57.356 155.246 57.356ZM155.774 58.424V65H154.682V58.424H155.774ZM160.347 58.316C160.915 58.316 161.411 58.44 161.835 58.688C162.267 58.936 162.587 59.248 162.795 59.624V58.424H163.899V65.144C163.899 65.744 163.771 66.276 163.515 66.74C163.259 67.212 162.891 67.58 162.411 67.844C161.939 68.108 161.387 68.24 160.755 68.24C159.891 68.24 159.171 68.036 158.595 67.628C158.019 67.22 157.679 66.664 157.575 65.96H158.655C158.775 66.36 159.023 66.68 159.399 66.92C159.775 67.168 160.227 67.292 160.755 67.292C161.355 67.292 161.843 67.104 162.219 66.728C162.603 66.352 162.795 65.824 162.795 65.144V63.764C162.579 64.148 162.259 64.468 161.835 64.724C161.411 64.98 160.915 65.108 160.347 65.108C159.763 65.108 159.231 64.964 158.751 64.676C158.279 64.388 157.907 63.984 157.635 63.464C157.363 62.944 157.227 62.352 157.227 61.688C157.227 61.016 157.363 60.428 157.635 59.924C157.907 59.412 158.279 59.016 158.751 58.736C159.231 58.456 159.763 58.316 160.347 58.316ZM162.795 61.7C162.795 61.204 162.695 60.772 162.495 60.404C162.295 60.036 162.023 59.756 161.679 59.564C161.343 59.364 160.971 59.264 160.563 59.264C160.155 59.264 159.783 59.36 159.447 59.552C159.111 59.744 158.843 60.024 158.643 60.392C158.443 60.76 158.343 61.192 158.343 61.688C158.343 62.192 158.443 62.632 158.643 63.008C158.843 63.376 159.111 63.66 159.447 63.86C159.783 64.052 160.155 64.148 160.563 64.148C160.971 64.148 161.343 64.052 161.679 63.86C162.023 63.66 162.295 63.376 162.495 63.008C162.695 62.632 162.795 62.196 162.795 61.7ZM169.008 58.304C169.504 58.304 169.952 58.412 170.352 58.628C170.752 58.836 171.064 59.152 171.288 59.576C171.52 60 171.636 60.516 171.636 61.124V65H170.556V61.28C170.556 60.624 170.392 60.124 170.064 59.78C169.736 59.428 169.288 59.252 168.72 59.252C168.144 59.252 167.684 59.432 167.34 59.792C167.004 60.152 166.836 60.676 166.836 61.364V65H165.744V56.12H166.836V59.36C167.052 59.024 167.348 58.764 167.724 58.58C168.108 58.396 168.536 58.304 169.008 58.304ZM174.752 59.324V63.2C174.752 63.52 174.82 63.748 174.956 63.884C175.092 64.012 175.328 64.076 175.664 64.076H176.468V65H175.484C174.876 65 174.42 64.86 174.116 64.58C173.812 64.3 173.66 63.84 173.66 63.2V59.324H172.808V58.424H173.66V56.768H174.752V58.424H176.468V59.324H174.752Z" fill="white"/>
<g filter="url(#filter1_d_64_1627)">
<circle cx="242" cy="73" r="44" fill="white"/>
</g>
<path d="M253.164 51.104C253.932 50.464 254.544 49.932 255 49.508C255.456 49.076 255.836 48.628 256.14 48.164C256.444 47.7 256.596 47.244 256.596 46.796C256.596 46.388 256.5 46.068 256.308 45.836C256.116 45.604 255.82 45.488 255.42 45.488C255.02 45.488 254.712 45.624 254.496 45.896C254.28 46.16 254.168 46.524 254.16 46.988H252.528C252.56 46.028 252.844 45.3 253.38 44.804C253.924 44.308 254.612 44.06 255.444 44.06C256.356 44.06 257.056 44.304 257.544 44.792C258.032 45.272 258.276 45.908 258.276 46.7C258.276 47.324 258.108 47.92 257.772 48.488C257.436 49.056 257.052 49.552 256.62 49.976C256.188 50.392 255.624 50.896 254.928 51.488H258.468V52.88H252.54V51.632L253.164 51.104ZM259.527 48.512C259.527 47.128 259.775 46.044 260.271 45.26C260.775 44.476 261.607 44.084 262.767 44.084C263.927 44.084 264.755 44.476 265.251 45.26C265.755 46.044 266.007 47.128 266.007 48.512C266.007 49.904 265.755 50.996 265.251 51.788C264.755 52.58 263.927 52.976 262.767 52.976C261.607 52.976 260.775 52.58 260.271 51.788C259.775 50.996 259.527 49.904 259.527 48.512ZM264.351 48.512C264.351 47.92 264.311 47.424 264.231 47.024C264.159 46.616 264.007 46.284 263.775 46.028C263.551 45.772 263.215 45.644 262.767 45.644C262.319 45.644 261.979 45.772 261.747 46.028C261.523 46.284 261.371 46.616 261.291 47.024C261.219 47.424 261.183 47.92 261.183 48.512C261.183 49.12 261.219 49.632 261.291 50.048C261.363 50.456 261.515 50.788 261.747 51.044C261.979 51.292 262.319 51.416 262.767 51.416C263.215 51.416 263.555 51.292 263.787 51.044C264.019 50.788 264.171 50.456 264.243 50.048C264.315 49.632 264.351 49.12 264.351 48.512ZM269.312 51.236L267.908 54.608H266.828L267.608 51.236H269.312ZM270.127 45.8V44.252H273.019V53H271.291V45.8H270.127Z" fill="white"/>
<defs>
<filter id="filter0_d_64_1627" x="-22" y="-12" width="359" height="190" filterUnits="userSpaceOnUse" color-interpolation-filters="sRGB">
<feFlood flood-opacity="0" result="BackgroundImageFix"/>
<feColorMatrix in="SourceAlpha" type="matrix" values="0 0 0 0 0 0 0 0 0 0 0 0 0 0 0 0 0 0 127 0" result="hardAlpha"/>
<feOffset dy="10"/>
<feGaussianBlur stdDeviation="11"/>
<feColorMatrix type="matrix" values="0 0 0 0 0.584314 0 0 0 0 0.678431 0 0 0 0 0.996078 0 0 0 0.3 0"/>
<feBlend mode="normal" in2="BackgroundImageFix" result="effect1_dropShadow_64_1627"/>
<feBlend mode="normal" in="SourceGraphic" in2="effect1_dropShadow_64_1627" result="shape"/>
</filter>
<filter id="filter1_d_64_1627" x="158" y="-1" width="168" height="168" filterUnits="userSpaceOnUse" color-interpolation-filters="sRGB">
<feFlood flood-opacity="0" result="BackgroundImageFix"/>
<feColorMatrix in="SourceAlpha" type="matrix" values="0 0 0 0 0 0 0 0 0 0 0 0 0 0 0 0 0 0 127 0" result="hardAlpha"/>
<feOffset dy="10"/>
<feGaussianBlur stdDeviation="20"/>
<feColorMatrix type="matrix" values="0 0 0 0 0.113725 0 0 0 0 0.0862745 0 0 0 0 0.0901961 0 0 0 0.07 0"/>
<feBlend mode="normal" in2="BackgroundImageFix" result="effect1_dropShadow_64_1627"/>
<feBlend mode="normal" in="SourceGraphic" in2="effect1_dropShadow_64_1627" result="shape"/>
</filter>
<linearGradient id="paint0_linear_64_1627" x1="315" y1="146" x2="-95.891" y2="77.4009" gradientUnits="userSpaceOnUse">
<stop stop-color="#C150F6"/>
<stop offset="1" stop-color="#EEA4CE"/>
</linearGradient>
<linearGradient id="paint1_linear_64_1627" x1="315" y1="146" x2="-95.891" y2="77.4009" gradientUnits="userSpaceOnUse">
<stop stop-color="#00FF66"/>
<stop offset="1" stop-color="#00F0FF"/>
</linearGradient>
</defs>
</svg>
