<svg width="30" height="30" viewBox="0 0 30 30" fill="none" xmlns="http://www.w3.org/2000/svg">
<path d="M19.9517 20.5808L18.0796 20.7101V29.5511L18.0801 29.5511C18.0856 29.67 18.1606 29.7828 18.308 29.8679C18.6465 30.0633 19.2376 30.0388 19.6284 29.8132C19.8294 29.6972 19.9374 29.5506 19.9497 29.4089L19.9517 29.4088V20.5808Z" fill="url(#paint0_linear_229_3399)"/>
<path d="M28.8325 15.489L26.9604 15.6183V24.4594L26.9609 24.4593C26.9665 24.5782 27.0415 24.691 27.189 24.7761C27.5274 24.9715 28.1185 24.947 28.5093 24.7214C28.7103 24.6053 28.8184 24.4587 28.8306 24.3171L28.8326 24.3169V15.489H28.8325Z" fill="url(#paint1_linear_229_3399)"/>
<path d="M11.3138 1.0035L11.3146 1.00239L9.79293 0.128172L9.79211 0.129344C9.56547 -0.021301 9.26125 -0.0531174 8.99201 0.102332L1.05379 4.66028C0.487481 4.98723 0.138672 5.59139 0.138672 6.2453V18.957C0.138672 19.2532 0.301504 19.4927 0.527676 19.6193L0.527441 19.6196L2.11264 20.5304L11.3141 1.00362C11.314 1.00356 11.314 1.00356 11.3138 1.0035Z" fill="url(#paint2_linear_229_3399)"/>
<path d="M1.73975 19.8777V7.16594C1.73975 6.51209 2.08855 5.90787 2.65486 5.58092L10.5931 1.02297C11.0993 0.730702 11.7322 1.09603 11.7322 1.68062V14.3923C11.7322 15.0462 11.3833 15.6504 10.8171 15.9773L2.87887 20.5353C2.37262 20.8276 1.73975 20.4623 1.73975 19.8777Z" fill="url(#paint3_linear_229_3399)"/>
<path d="M28.6598 18.5671L12.0726 8.99047C11.7423 8.79969 11.3352 8.79969 11.0049 8.99047L1.91236 14.2147C1.79729 14.2812 1.73975 14.3974 1.73975 14.5138V18.465C1.73975 18.5812 1.79729 18.6975 1.91236 18.764L18.4996 28.3406C18.83 28.5313 19.237 28.5313 19.5674 28.3406L28.6599 23.1163C28.7767 23.0489 28.8339 22.9302 28.8322 22.8122H28.8325V18.8706H28.8322C28.8337 18.7528 28.7764 18.6344 28.6598 18.5671Z" fill="url(#paint4_linear_229_3399)"/>
<path d="M18.4996 24.3911L1.91236 14.8145C1.68221 14.6816 1.68221 14.3494 1.91236 14.2165L11.0048 8.99221C11.3352 8.80149 11.7422 8.80149 12.0726 8.99221L28.6598 18.5688C28.89 18.7017 28.89 19.034 28.6598 19.1668L19.5674 24.3911C19.237 24.5819 18.83 24.5819 18.4996 24.3911Z" fill="#D7D1EB"/>
<path d="M28.8322 14.9195L1.73975 10.5627V14.5139C1.73975 14.6302 1.79729 14.7465 1.91236 14.8129L18.4996 24.3895C18.83 24.5802 19.237 24.5802 19.5674 24.3895L28.6599 19.1652C28.7767 19.0978 28.8339 18.979 28.8322 18.8611H28.8325V14.9195H28.8322Z" fill="url(#paint5_linear_229_3399)"/>
<path d="M18.4996 20.4381L1.91236 10.8615C1.68221 10.7286 1.68221 10.3963 1.91236 10.2635L11.0048 5.03918C11.3352 4.84845 11.7422 4.84845 12.0726 5.03918L28.6598 14.6158C28.89 14.7487 28.89 15.0809 28.6598 15.2138L19.5674 20.4381C19.237 20.6288 18.83 20.6288 18.4996 20.4381Z" fill="#D7D1EB"/>
<path d="M13.1197 7.08556C13.0693 7.04191 13.0112 7.00834 12.9482 6.98654L9.66527 5.09109C9.50877 4.9524 9.27193 4.90963 9.06551 5.02881L4.52156 7.65222C4.06225 7.91742 3.7793 8.40744 3.7793 8.93783C3.7793 9.1446 3.89648 9.31013 4.05697 9.3938L7.4625 11.36C7.61672 11.4653 7.82578 11.4886 8.01047 11.3819L12.5544 8.75853C13.0137 8.49334 13.2967 8.00326 13.2967 7.47293C13.2967 7.31267 13.226 7.17756 13.1197 7.08556Z" fill="url(#paint6_linear_229_3399)"/>
<path d="M7.98006 9.6502L12.524 7.02679C12.8673 6.82862 13.2964 7.07636 13.2964 7.47274C13.2964 8.00313 13.0134 8.49321 12.5541 8.75835L8.01017 11.3818C7.66687 11.5799 7.23779 11.3322 7.23779 10.9358C7.23779 10.4055 7.52074 9.9154 7.98006 9.6502Z" fill="url(#paint7_linear_229_3399)"/>
<path d="M5.9585 15.07L18.9184 27.0316L29.861 17.1285C29.861 15.2664 28.8676 13.5457 27.2549 12.6147L17.8339 7.17543C16.8948 6.63332 15.738 6.63332 14.7989 7.17543L8.56047 10.752C7.00463 11.6503 6.02541 13.2838 5.9585 15.07Z" fill="#E9E5F6"/>
<path d="M15.7741 17.9258L7.80408 13.3244C7.23965 12.9985 6.5783 13.1761 6.21924 13.6267L8.58689 21.0654L8.58572 21.0659L18.9183 27.0314V23.3718C18.9183 21.1251 17.7197 19.0491 15.7741 17.9258Z" fill="url(#paint8_linear_229_3399)"/>
<path d="M22.2254 17.9738L26.94 15.6812C28.2623 14.9743 29.861 15.9324 29.861 17.4319V20.7395L18.9185 27.032V23.4916C18.9185 21.1831 20.1896 19.0622 22.2254 17.9738Z" fill="url(#paint9_linear_229_3399)"/>
<path d="M17.8338 7.17578C16.8948 6.63361 15.7379 6.63361 14.7989 7.17578L8.56041 10.7523C7.43752 11.4006 6.61533 12.432 6.21924 13.6272L9.28475 14.1797C9.73469 13.4001 10.3864 12.7368 11.193 12.2711L17.4314 8.69452C18.3619 8.15734 19.5061 8.15324 20.4405 8.6807L17.8338 7.17578Z" fill="#F2EDFF"/>
<path d="M8.58715 21.0654V16.7845C8.58715 15.8537 8.83536 14.9584 9.28501 14.1793L7.80434 13.3244C7.23991 12.9985 6.57856 13.1761 6.21949 13.6267C6.19875 13.6892 5.95459 14.4066 5.95459 15.2656V19.5466L8.58715 21.0654Z" fill="#E9E5F6"/>
<defs>
<linearGradient id="paint0_linear_229_3399" x1="18.1804" y1="25.2903" x2="19.9271" y2="25.2903" gradientUnits="userSpaceOnUse">
<stop stop-color="#8B451C"/>
<stop offset="1" stop-color="#BF942A"/>
</linearGradient>
<linearGradient id="paint1_linear_229_3399" x1="26.9604" y1="20.1986" x2="28.8325" y2="20.1986" gradientUnits="userSpaceOnUse">
<stop stop-color="#8B451C"/>
<stop offset="1" stop-color="#BF942A"/>
</linearGradient>
<linearGradient id="paint2_linear_229_3399" x1="3.77359" y1="8.55624" x2="4.59309" y2="7.13692" gradientUnits="userSpaceOnUse">
<stop stop-color="#252336"/>
<stop offset="1" stop-color="#594A8E"/>
</linearGradient>
<linearGradient id="paint3_linear_229_3399" x1="6.73598" y1="14.6956" x2="6.73598" y2="6.04773" gradientUnits="userSpaceOnUse">
<stop stop-color="#594A8E"/>
<stop offset="1" stop-color="#7662BD"/>
</linearGradient>
<linearGradient id="paint4_linear_229_3399" x1="18.1802" y1="18.6655" x2="19.9268" y2="18.6655" gradientUnits="userSpaceOnUse">
<stop stop-color="#8B451C"/>
<stop offset="1" stop-color="#BF942A"/>
</linearGradient>
<linearGradient id="paint5_linear_229_3399" x1="15.6592" y1="17.5476" x2="17.2752" y2="17.5476" gradientUnits="userSpaceOnUse">
<stop stop-color="#C5BAEB"/>
<stop offset="1" stop-color="#E9E5F6"/>
</linearGradient>
<linearGradient id="paint6_linear_229_3399" x1="6.59432" y1="11.5719" x2="7.76496" y2="9.54427" gradientUnits="userSpaceOnUse">
<stop stop-color="#C5BAEB"/>
<stop offset="1" stop-color="#E9E5F6"/>
</linearGradient>
<linearGradient id="paint7_linear_229_3399" x1="7.23779" y1="9.20431" x2="13.2964" y2="9.20431" gradientUnits="userSpaceOnUse">
<stop stop-color="#C5BAEB"/>
<stop offset="1" stop-color="#E9E5F6"/>
</linearGradient>
<linearGradient id="paint8_linear_229_3399" x1="8.25396" y1="17.2292" x2="18.4065" y2="23.0907" gradientUnits="userSpaceOnUse">
<stop stop-color="#D7D1EB"/>
<stop offset="1" stop-color="#E7E3F3"/>
</linearGradient>
<linearGradient id="paint9_linear_229_3399" x1="19.3797" y1="23.2019" x2="29.4335" y2="17.3974" gradientUnits="userSpaceOnUse">
<stop stop-color="#D7D1EB"/>
<stop offset="1" stop-color="#E7E3F3"/>
</linearGradient>
</defs>
</svg>
