<svg width="26" height="26" viewBox="0 0 26 26" fill="none" xmlns="http://www.w3.org/2000/svg">
<g clip-path="url(#clip0_121_97)">
<path fill-rule="evenodd" clip-rule="evenodd" d="M0.999512 24.8748C0.999512 25.4353 1.44141 25.8951 1.98121 25.8951H7.07356L8.17094 25.0691L9.28463 25.8951H11.7003L12.5292 25.0691L13.3597 25.8951H14.1901L15.0205 25.0691L15.8509 25.8951H18.6195C19.1593 25.8951 19.6012 25.4353 19.6012 24.8748V23.8441V23.509L10.0547 21.7344L0.999512 23.509V24.8748Z" fill="#7E707D"/>
<path fill-rule="evenodd" clip-rule="evenodd" d="M13.398 4.43811L19.1787 2.91076C19.2232 2.91076 19.2662 2.90335 19.3078 2.89299C19.502 2.83662 19.6444 2.65574 19.6444 2.44515V0.57066C19.6444 0.314113 19.4353 0.104996 19.1788 0.104996H6.8646C6.60805 0.104996 6.39746 0.314113 6.39746 0.57066V2.26122L13.398 4.43811Z" fill="#F5A96C"/>
<path fill-rule="evenodd" clip-rule="evenodd" d="M0.465613 5.06706L6.62345 7.03271L12.7813 5.06706C12.8243 5.06706 12.8688 5.06112 12.9088 5.04929C13.103 4.99292 13.2469 4.81351 13.2469 4.60145V2.91084V2.72696C13.2469 2.47041 13.0363 2.26129 12.7813 2.26129H6.39732H0.465613C0.209066 2.26129 0 2.47041 0 2.72696V4.60145C0 4.84911 0.197234 5.05376 0.441898 5.06711H0.465613V5.06706Z" fill="#FFBC85"/>
<path fill-rule="evenodd" clip-rule="evenodd" d="M20.5869 22.0306V23.509H6.24716C4.36855 22.651 3.15803 22.1159 1.31655 19.2308C1.41542 17.2235 1.4238 15.2868 1.31554 13.1917C1.30665 13.0211 1.2972 12.8495 1.28674 12.6764C1.27521 12.4901 1.26318 12.3023 1.25013 12.113C1.10469 10.0188 0.844184 7.73953 0.441895 5.06732H12.7812C12.8257 5.06732 12.8685 5.06102 12.9088 5.04955C13.2468 5.55385 17.2028 15.6468 20.5514 21.3532C20.5686 21.3825 20.5587 21.4227 20.5618 21.4583C20.578 21.6361 20.5869 21.826 20.5869 22.0306Z" fill="#FDE588"/>
<path fill-rule="evenodd" clip-rule="evenodd" d="M1.31684 19.2309C1.25012 20.6011 1.14185 22.0025 0.999512 23.5092H6.24755C5.73004 21.2892 3.84077 19.2309 1.31684 19.2309Z" fill="#FFBC85"/>
<path fill-rule="evenodd" clip-rule="evenodd" d="M26 19.8742V21.4583L22.788 22.6513L19.5758 21.4583C19.5732 21.4227 19.5701 21.3887 19.5654 21.3542C19.5654 21.3531 19.5654 21.3531 19.5654 21.3531C19.0956 17.2156 14.1054 20.4942 12.3691 17.2093C11.9432 16.4042 11.7612 14.7375 11.8695 12.4728C11.8967 11.9162 11.9401 11.324 12.0029 10.6983C12.0154 10.5728 12.0285 10.4461 12.0426 10.318C12.0573 10.1851 12.0725 10.0512 12.0881 9.91571C12.2639 8.44148 12.5354 6.80826 12.9089 5.0657C13.103 5.00918 13.2469 4.82977 13.2469 4.61791V2.92872H19.1787C19.2232 2.92872 19.2661 2.92298 19.3074 2.91095C18.7403 5.55543 18.4102 7.94408 18.2899 9.91683C18.2815 10.0523 18.2742 10.1862 18.2679 10.3181C18.2617 10.4478 18.2564 10.5749 18.2522 10.7005C18.1811 12.7705 18.3663 14.2955 18.7675 15.0551C20.5902 18.5025 26 14.7181 26 19.8742Z" fill="#FDE588"/>
<path fill-rule="evenodd" clip-rule="evenodd" d="M17.9312 25.8953H18.6192C19.159 25.8953 19.6009 25.4356 19.6009 24.875V23.8443V23.5092H17.9312V23.8443V25.8953Z" fill="#6A5C69"/>
<path fill-rule="evenodd" clip-rule="evenodd" d="M17.3129 2.92864C16.7108 5.74329 16.3772 8.26727 16.2793 10.3078C16.2778 10.3108 16.2778 10.3152 16.2778 10.3182H18.2679C18.3658 8.27169 18.7009 5.7373 19.3074 2.91081C19.306 2.91081 19.3045 2.91081 19.303 2.91228C19.263 2.92264 19.2214 2.92859 19.1784 2.92859H17.3129V2.92864Z" fill="#FDD76F"/>
<path fill-rule="evenodd" clip-rule="evenodd" d="M16.2778 10.3181C16.1695 12.5826 16.6841 15.329 17.1097 16.1343C18.9337 19.5821 24.0097 16.1298 24.0097 21.2875V21.4581H25.9998V19.8742V19.8728C25.9983 14.718 20.5901 18.5025 18.7676 15.0546C18.4206 14.3992 18.2352 13.1713 18.2367 11.5148C18.2367 11.1367 18.2471 10.7378 18.2679 10.3181H16.2778Z" fill="#FDD76F"/>
<path d="M18.29 9.91663C18.2817 10.0521 18.2743 10.186 18.2681 10.3179C18.2618 10.4476 18.2565 10.5747 18.2524 10.7003H12.0427C12.0291 10.7003 12.0161 10.6998 12.003 10.6982C11.8052 10.6784 11.6504 10.5109 11.6504 10.308C11.6504 10.0909 11.8262 9.91562 12.0427 9.91562H18.2681C18.2754 9.91562 18.2827 9.91562 18.29 9.91663Z" fill="#7E707D"/>
<path fill-rule="evenodd" clip-rule="evenodd" d="M19.6008 22.0305V23.5089H17.9315L17.896 22.2262C17.9875 19.4561 12.4355 21.4346 10.6991 18.1467C10.2979 17.3861 10.1127 15.0231 10.1839 12.8562C10.188 12.7244 10.1933 12.5936 10.1996 12.4639H11.8694C11.8631 12.5968 11.8579 12.7275 11.8537 12.8562C11.7831 14.9226 11.9683 16.4455 12.369 17.2051C14.1053 20.4925 19.0955 17.2124 19.5653 21.353L19.5757 21.4582C19.5919 21.636 19.6008 21.826 19.6008 22.0305Z" fill="#FDD76F"/>
<path fill-rule="evenodd" clip-rule="evenodd" d="M12.909 5.04947C12.501 6.95473 12.2148 8.72715 12.0427 10.3081C11.9747 10.9269 11.9244 11.5165 11.891 12.0726C11.8826 12.205 11.8758 12.3353 11.8695 12.4639H10.1997C10.206 12.3353 10.2133 12.2044 10.2211 12.0716C10.2552 11.5155 10.3048 10.927 10.3729 10.3081C10.545 8.73294 10.8295 6.96524 11.2345 5.06729H12.7814C12.8258 5.06724 12.8687 5.061 12.909 5.04947Z" fill="#FDD76F"/>
<path d="M11.8907 12.0726C11.8823 12.2049 11.8755 12.3352 11.8692 12.4639C11.8629 12.5968 11.8577 12.7275 11.8535 12.8562H6.41339C5.92843 12.8562 5.59886 12.8656 5.43356 12.9928C5.25725 13.1288 5.17148 13.5007 5.17148 14.1296C5.17148 14.6129 4.97425 14.9833 4.63056 15.1444C4.539 15.1873 4.40768 15.2287 4.2398 15.2287C3.9798 15.2287 3.6324 15.1293 3.21341 14.7814L1.31541 13.1915C1.30652 13.021 1.29707 12.8494 1.28661 12.6763C1.27509 12.49 1.26305 12.3022 1.25 12.1128L3.71401 14.1771C4.01377 14.4256 4.2267 14.4669 4.29733 14.434C4.34024 14.4141 4.38681 14.31 4.38681 14.1296C4.38681 13.2036 4.55682 12.6778 4.95495 12.3713C5.34363 12.0715 5.86312 12.0715 6.41344 12.0715H11.8693C11.8765 12.0715 11.8833 12.0715 11.8907 12.0726Z" fill="#7E707D"/>
<path fill-rule="evenodd" clip-rule="evenodd" d="M19.6014 22.0306V23.5091V23.8443H20.589L21.4194 23.0183L22.2499 23.8443H25.0184C25.5583 23.8443 26.0002 23.3846 26.0002 22.824V21.4582H19.5762C19.5925 21.6362 19.6014 21.826 19.6014 22.0306Z" fill="#7E707D"/>
<path d="M24.0098 21.4582V23.8443H25.0181C25.558 23.8443 25.9999 23.3846 25.9999 22.824V21.4582H24.0098V21.4582Z" fill="#6A5C69"/>
</g>
<defs>
<clipPath id="clip0_121_97">
<rect width="26" height="26" fill="white"/>
</clipPath>
</defs>
</svg>
