<svg width="88" height="28" viewBox="0 0 88 28" fill="none" xmlns="http://www.w3.org/2000/svg">
<rect width="88" height="28" rx="14" fill="url(#paint0_linear_397_835)"/>
<path d="M15.516 13.812C15.516 12.996 15.7 12.264 16.068 11.616C16.436 10.96 16.936 10.448 17.568 10.08C18.208 9.712 18.916 9.528 19.692 9.528C20.604 9.528 21.4 9.748 22.08 10.188C22.76 10.628 23.256 11.252 23.568 12.06H22.26C22.028 11.556 21.692 11.168 21.252 10.896C20.82 10.624 20.3 10.488 19.692 10.488C19.108 10.488 18.584 10.624 18.12 10.896C17.656 11.168 17.292 11.556 17.028 12.06C16.764 12.556 16.632 13.14 16.632 13.812C16.632 14.476 16.764 15.06 17.028 15.564C17.292 16.06 17.656 16.444 18.12 16.716C18.584 16.988 19.108 17.124 19.692 17.124C20.3 17.124 20.82 16.992 21.252 16.728C21.692 16.456 22.028 16.068 22.26 15.564H23.568C23.256 16.364 22.76 16.984 22.08 17.424C21.4 17.856 20.604 18.072 19.692 18.072C18.916 18.072 18.208 17.892 17.568 17.532C16.936 17.164 16.436 16.656 16.068 16.008C15.7 15.36 15.516 14.628 15.516 13.812ZM28.0615 18.108C27.4455 18.108 26.8855 17.968 26.3815 17.688C25.8855 17.408 25.4935 17.012 25.2055 16.5C24.9255 15.98 24.7855 15.38 24.7855 14.7C24.7855 14.028 24.9295 13.436 25.2175 12.924C25.5135 12.404 25.9135 12.008 26.4175 11.736C26.9215 11.456 27.4855 11.316 28.1095 11.316C28.7335 11.316 29.2975 11.456 29.8015 11.736C30.3055 12.008 30.7015 12.4 30.9895 12.912C31.2855 13.424 31.4335 14.02 31.4335 14.7C31.4335 15.38 31.2815 15.98 30.9775 16.5C30.6815 17.012 30.2775 17.408 29.7655 17.688C29.2535 17.968 28.6855 18.108 28.0615 18.108ZM28.0615 17.148C28.4535 17.148 28.8215 17.056 29.1655 16.872C29.5095 16.688 29.7855 16.412 29.9935 16.044C30.2095 15.676 30.3175 15.228 30.3175 14.7C30.3175 14.172 30.2135 13.724 30.0055 13.356C29.7975 12.988 29.5255 12.716 29.1895 12.54C28.8535 12.356 28.4895 12.264 28.0975 12.264C27.6975 12.264 27.3295 12.356 26.9935 12.54C26.6655 12.716 26.4015 12.988 26.2015 13.356C26.0015 13.724 25.9015 14.172 25.9015 14.7C25.9015 15.236 25.9975 15.688 26.1895 16.056C26.3895 16.424 26.6535 16.7 26.9815 16.884C27.3095 17.06 27.6695 17.148 28.0615 17.148ZM40.7773 11.304C41.2893 11.304 41.7453 11.412 42.1453 11.628C42.5453 11.836 42.8613 12.152 43.0933 12.576C43.3253 13 43.4413 13.516 43.4413 14.124V18H42.3613V14.28C42.3613 13.624 42.1973 13.124 41.8693 12.78C41.5493 12.428 41.1133 12.252 40.5613 12.252C39.9933 12.252 39.5413 12.436 39.2053 12.804C38.8693 13.164 38.7013 13.688 38.7013 14.376V18H37.6213V14.28C37.6213 13.624 37.4573 13.124 37.1293 12.78C36.8093 12.428 36.3733 12.252 35.8213 12.252C35.2533 12.252 34.8013 12.436 34.4653 12.804C34.1293 13.164 33.9613 13.688 33.9613 14.376V18H32.8693V11.424H33.9613V12.372C34.1773 12.028 34.4653 11.764 34.8253 11.58C35.1933 11.396 35.5973 11.304 36.0373 11.304C36.5893 11.304 37.0773 11.428 37.5013 11.676C37.9253 11.924 38.2413 12.288 38.4493 12.768C38.6333 12.304 38.9373 11.944 39.3613 11.688C39.7853 11.432 40.2573 11.304 40.7773 11.304ZM46.3246 12.636C46.5406 12.26 46.8606 11.948 47.2846 11.7C47.7166 11.444 48.2166 11.316 48.7846 11.316C49.3686 11.316 49.8966 11.456 50.3686 11.736C50.8486 12.016 51.2246 12.412 51.4966 12.924C51.7686 13.428 51.9046 14.016 51.9046 14.688C51.9046 15.352 51.7686 15.944 51.4966 16.464C51.2246 16.984 50.8486 17.388 50.3686 17.676C49.8966 17.964 49.3686 18.108 48.7846 18.108C48.2246 18.108 47.7286 17.984 47.2966 17.736C46.8726 17.48 46.5486 17.164 46.3246 16.788V21.12H45.2326V11.424H46.3246V12.636ZM50.7886 14.688C50.7886 14.192 50.6886 13.76 50.4886 13.392C50.2886 13.024 50.0166 12.744 49.6726 12.552C49.3366 12.36 48.9646 12.264 48.5566 12.264C48.1566 12.264 47.7846 12.364 47.4406 12.564C47.1046 12.756 46.8326 13.04 46.6246 13.416C46.4246 13.784 46.3246 14.212 46.3246 14.7C46.3246 15.196 46.4246 15.632 46.6246 16.008C46.8326 16.376 47.1046 16.66 47.4406 16.86C47.7846 17.052 48.1566 17.148 48.5566 17.148C48.9646 17.148 49.3366 17.052 49.6726 16.86C50.0166 16.66 50.2886 16.376 50.4886 16.008C50.6886 15.632 50.7886 15.192 50.7886 14.688ZM52.934 14.688C52.934 14.016 53.07 13.428 53.342 12.924C53.614 12.412 53.986 12.016 54.458 11.736C54.938 11.456 55.47 11.316 56.054 11.316C56.63 11.316 57.13 11.44 57.554 11.688C57.978 11.936 58.294 12.248 58.502 12.624V11.424H59.606V18H58.502V16.776C58.286 17.16 57.962 17.48 57.53 17.736C57.106 17.984 56.61 18.108 56.042 18.108C55.458 18.108 54.93 17.964 54.458 17.676C53.986 17.388 53.614 16.984 53.342 16.464C53.07 15.944 52.934 15.352 52.934 14.688ZM58.502 14.7C58.502 14.204 58.402 13.772 58.202 13.404C58.002 13.036 57.73 12.756 57.386 12.564C57.05 12.364 56.678 12.264 56.27 12.264C55.862 12.264 55.49 12.36 55.154 12.552C54.818 12.744 54.55 13.024 54.35 13.392C54.15 13.76 54.05 14.192 54.05 14.688C54.05 15.192 54.15 15.632 54.35 16.008C54.55 16.376 54.818 16.66 55.154 16.86C55.49 17.052 55.862 17.148 56.27 17.148C56.678 17.148 57.05 17.052 57.386 16.86C57.73 16.66 58.002 16.376 58.202 16.008C58.402 15.632 58.502 15.196 58.502 14.7ZM62.5433 12.492C62.7353 12.116 63.0073 11.824 63.3593 11.616C63.7193 11.408 64.1553 11.304 64.6673 11.304V12.432H64.3793C63.1553 12.432 62.5433 13.096 62.5433 14.424V18H61.4513V11.424H62.5433V12.492ZM71.9279 14.46C71.9279 14.668 71.9159 14.888 71.8919 15.12H66.6359C66.6759 15.768 66.8959 16.276 67.2959 16.644C67.7039 17.004 68.1959 17.184 68.7719 17.184C69.2439 17.184 69.6359 17.076 69.9479 16.86C70.2679 16.636 70.4919 16.34 70.6199 15.972H71.7959C71.6199 16.604 71.2679 17.12 70.7399 17.52C70.2119 17.912 69.5559 18.108 68.7719 18.108C68.1479 18.108 67.5879 17.968 67.0919 17.688C66.6039 17.408 66.2199 17.012 65.9399 16.5C65.6599 15.98 65.5199 15.38 65.5199 14.7C65.5199 14.02 65.6559 13.424 65.9279 12.912C66.1999 12.4 66.5799 12.008 67.0679 11.736C67.5639 11.456 68.1319 11.316 68.7719 11.316C69.3959 11.316 69.9479 11.452 70.4279 11.724C70.9079 11.996 71.2759 12.372 71.5319 12.852C71.7959 13.324 71.9279 13.86 71.9279 14.46ZM70.7999 14.232C70.7999 13.816 70.7079 13.46 70.5239 13.164C70.3399 12.86 70.0879 12.632 69.7679 12.48C69.4559 12.32 69.1079 12.24 68.7239 12.24C68.1719 12.24 67.6999 12.416 67.3079 12.768C66.9239 13.12 66.7039 13.608 66.6479 14.232H70.7999Z" fill="white"/>
<defs>
<linearGradient id="paint0_linear_397_835" x1="161.333" y1="53.9259" x2="-41.5133" y2="5.49109" gradientUnits="userSpaceOnUse">
<stop stop-color="#CC8FED"/>
<stop offset="1" stop-color="#6B50F6"/>
</linearGradient>
</defs>
</svg>
