<svg width="24" height="24" viewBox="0 0 24 24" fill="none" xmlns="http://www.w3.org/2000/svg">
<path fill-rule="evenodd" clip-rule="evenodd" d="M15.0402 4.05129C16.0502 4.45329 16.3592 5.85329 16.7722 6.30329C17.1852 6.75329 17.7762 6.90629 18.1032 6.90629C19.8412 6.90629 21.2502 8.31529 21.2502 10.0523V15.8473C21.2502 18.1773 19.3602 20.0673 17.0302 20.0673H6.97024C4.63924 20.0673 2.75024 18.1773 2.75024 15.8473V10.0523C2.75024 8.31529 4.15924 6.90629 5.89724 6.90629C6.22324 6.90629 6.81424 6.75329 7.22824 6.30329C7.64124 5.85329 7.94924 4.45329 8.95924 4.05129C9.97024 3.64929 14.0302 3.64929 15.0402 4.05129Z" stroke="#A5A3B0" stroke-width="1.2" stroke-linecap="round" stroke-linejoin="round"/>
<path d="M17.4955 9.5H17.5045" stroke="#A5A3B0" stroke-width="1.2" stroke-linecap="round" stroke-linejoin="round"/>
<path fill-rule="evenodd" clip-rule="evenodd" d="M15.179 13.128C15.179 11.372 13.756 9.94897 12 9.94897C10.244 9.94897 8.82104 11.372 8.82104 13.128C8.82104 14.884 10.244 16.307 12 16.307C13.756 16.307 15.179 14.884 15.179 13.128Z" stroke="#A5A3B0" stroke-width="1.2" stroke-linecap="round" stroke-linejoin="round"/>
</svg>
