<svg width="92" height="79" viewBox="0 0 92 79" fill="none" xmlns="http://www.w3.org/2000/svg">
<g filter="url(#filter0_d_107_368)">
<circle cx="46" cy="36" r="24" fill="url(#paint0_linear_107_368)"/>
</g>
<path d="M30.4041 32.416C31.0814 31.872 31.6121 31.4267 31.9961 31.08C32.3801 30.728 32.7028 30.3627 32.9641 29.984C33.2308 29.6 33.3641 29.224 33.3641 28.856C33.3641 28.5093 33.2788 28.2373 33.1081 28.04C32.9428 27.8373 32.6734 27.736 32.3001 27.736C31.9374 27.736 31.6548 27.8507 31.4521 28.08C31.2548 28.304 31.1481 28.6053 31.1321 28.984H30.4281C30.4494 28.3867 30.6308 27.9253 30.9721 27.6C31.3134 27.2747 31.7534 27.112 32.2921 27.112C32.8414 27.112 33.2761 27.264 33.5961 27.568C33.9214 27.872 34.0841 28.2907 34.0841 28.824C34.0841 29.2667 33.9508 29.6987 33.6841 30.12C33.4228 30.536 33.1241 30.904 32.7881 31.224C32.4521 31.5387 32.0228 31.9067 31.5001 32.328H34.2521V32.936H30.4041V32.416ZM35.0777 28.672C35.115 28.1813 35.3043 27.7973 35.6457 27.52C35.987 27.2427 36.4297 27.104 36.9737 27.104C37.3363 27.104 37.6483 27.1707 37.9097 27.304C38.1763 27.432 38.3763 27.608 38.5097 27.832C38.6483 28.056 38.7177 28.3093 38.7177 28.592C38.7177 28.9227 38.6217 29.208 38.4297 29.448C38.243 29.688 37.9977 29.8427 37.6937 29.912V29.952C38.0403 30.0373 38.315 30.2053 38.5177 30.456C38.7203 30.7067 38.8217 31.0347 38.8217 31.44C38.8217 31.744 38.7523 32.0187 38.6137 32.264C38.475 32.504 38.267 32.6933 37.9897 32.832C37.7123 32.9707 37.379 33.04 36.9897 33.04C36.4243 33.04 35.9603 32.8933 35.5977 32.6C35.235 32.3013 35.0323 31.88 34.9897 31.336H35.6937C35.731 31.656 35.8617 31.9173 36.0857 32.12C36.3097 32.3227 36.6083 32.424 36.9817 32.424C37.355 32.424 37.6377 32.328 37.8297 32.136C38.027 31.9387 38.1257 31.6853 38.1257 31.376C38.1257 30.976 37.9923 30.688 37.7257 30.512C37.459 30.336 37.0563 30.248 36.5177 30.248H36.3337V29.64H36.5257C37.0163 29.6347 37.387 29.5547 37.6377 29.4C37.8883 29.24 38.0137 28.9947 38.0137 28.664C38.0137 28.3813 37.9203 28.1547 37.7337 27.984C37.5523 27.8133 37.291 27.728 36.9497 27.728C36.619 27.728 36.3523 27.8133 36.1497 27.984C35.947 28.1547 35.827 28.384 35.7897 28.672H35.0777ZM39.8046 30.048C39.8046 29.1307 39.9539 28.416 40.2526 27.904C40.5513 27.3867 41.0739 27.128 41.8206 27.128C42.5619 27.128 43.0819 27.3867 43.3806 27.904C43.6793 28.416 43.8286 29.1307 43.8286 30.048C43.8286 30.9813 43.6793 31.7067 43.3806 32.224C43.0819 32.7413 42.5619 33 41.8206 33C41.0739 33 40.5513 32.7413 40.2526 32.224C39.9539 31.7067 39.8046 30.9813 39.8046 30.048ZM43.1086 30.048C43.1086 29.584 43.0766 29.192 43.0126 28.872C42.9539 28.5467 42.8286 28.2853 42.6366 28.088C42.4499 27.8907 42.1779 27.792 41.8206 27.792C41.4579 27.792 41.1806 27.8907 40.9886 28.088C40.8019 28.2853 40.6766 28.5467 40.6126 28.872C40.5539 29.192 40.5246 29.584 40.5246 30.048C40.5246 30.528 40.5539 30.9307 40.6126 31.256C40.6766 31.5813 40.8019 31.8427 40.9886 32.04C41.1806 32.2373 41.4579 32.336 41.8206 32.336C42.1779 32.336 42.4499 32.2373 42.6366 32.04C42.8286 31.8427 42.9539 31.5813 43.0126 31.256C43.0766 30.9307 43.1086 30.528 43.1086 30.048ZM47.396 33L45.676 31.064V33H44.948V27.08H45.676V30.56L47.364 28.616H48.38L46.316 30.8L48.388 33H47.396ZM48.7932 30.208C48.7932 29.664 48.9159 29.176 49.1612 28.744C49.4066 28.3067 49.7399 27.9653 50.1612 27.72C50.5879 27.4747 51.0599 27.352 51.5772 27.352C52.1852 27.352 52.7159 27.4987 53.1692 27.792C53.6226 28.0853 53.9532 28.5013 54.1612 29.04H53.2892C53.1346 28.704 52.9106 28.4453 52.6172 28.264C52.3292 28.0827 51.9826 27.992 51.5772 27.992C51.1879 27.992 50.8386 28.0827 50.5292 28.264C50.2199 28.4453 49.9772 28.704 49.8012 29.04C49.6252 29.3707 49.5372 29.76 49.5372 30.208C49.5372 30.6507 49.6252 31.04 49.8012 31.376C49.9772 31.7067 50.2199 31.9627 50.5292 32.144C50.8386 32.3253 51.1879 32.416 51.5772 32.416C51.9826 32.416 52.3292 32.328 52.6172 32.152C52.9106 31.9707 53.1346 31.712 53.2892 31.376H54.1612C53.9532 31.9093 53.6226 32.3227 53.1692 32.616C52.7159 32.904 52.1852 33.048 51.5772 33.048C51.0599 33.048 50.5879 32.928 50.1612 32.688C49.7399 32.4427 49.4066 32.104 49.1612 31.672C48.9159 31.24 48.7932 30.752 48.7932 30.208ZM54.9729 30.792C54.9729 30.344 55.0636 29.952 55.2449 29.616C55.4262 29.2747 55.6742 29.0107 55.9889 28.824C56.3089 28.6373 56.6636 28.544 57.0529 28.544C57.4369 28.544 57.7702 28.6267 58.0529 28.792C58.3356 28.9573 58.5462 29.1653 58.6849 29.416V28.616H59.4209V33H58.6849V32.184C58.5409 32.44 58.3249 32.6533 58.0369 32.824C57.7542 32.9893 57.4236 33.072 57.0449 33.072C56.6556 33.072 56.3036 32.976 55.9889 32.784C55.6742 32.592 55.4262 32.3227 55.2449 31.976C55.0636 31.6293 54.9729 31.2347 54.9729 30.792ZM58.6849 30.8C58.6849 30.4693 58.6182 30.1813 58.4849 29.936C58.3516 29.6907 58.1702 29.504 57.9409 29.376C57.7169 29.2427 57.4689 29.176 57.1969 29.176C56.9249 29.176 56.6769 29.24 56.4529 29.368C56.2289 29.496 56.0502 29.6827 55.9169 29.928C55.7836 30.1733 55.7169 30.4613 55.7169 30.792C55.7169 31.128 55.7836 31.4213 55.9169 31.672C56.0502 31.9173 56.2289 32.1067 56.4529 32.24C56.6769 32.368 56.9249 32.432 57.1969 32.432C57.4689 32.432 57.7169 32.368 57.9409 32.24C58.1702 32.1067 58.3516 31.9173 58.4849 31.672C58.6182 31.4213 58.6849 31.1307 58.6849 30.8ZM61.3792 27.08V33H60.6512V27.08H61.3792ZM41.1057 39.08V45H40.3777V39.08H41.1057ZM46.3465 42.64C46.3465 42.7787 46.3385 42.9253 46.3225 43.08H42.8185C42.8451 43.512 42.9918 43.8507 43.2585 44.096C43.5305 44.336 43.8585 44.456 44.2425 44.456C44.5571 44.456 44.8185 44.384 45.0265 44.24C45.2398 44.0907 45.3891 43.8933 45.4745 43.648H46.2585C46.1411 44.0693 45.9065 44.4133 45.5545 44.68C45.2025 44.9413 44.7651 45.072 44.2425 45.072C43.8265 45.072 43.4531 44.9787 43.1225 44.792C42.7971 44.6053 42.5411 44.3413 42.3545 44C42.1678 43.6533 42.0745 43.2533 42.0745 42.8C42.0745 42.3467 42.1651 41.9493 42.3465 41.608C42.5278 41.2667 42.7811 41.0053 43.1065 40.824C43.4371 40.6373 43.8158 40.544 44.2425 40.544C44.6585 40.544 45.0265 40.6347 45.3465 40.816C45.6665 40.9973 45.9118 41.248 46.0825 41.568C46.2585 41.8827 46.3465 42.24 46.3465 42.64ZM45.5945 42.488C45.5945 42.2107 45.5331 41.9733 45.4105 41.776C45.2878 41.5733 45.1198 41.4213 44.9065 41.32C44.6985 41.2133 44.4665 41.16 44.2105 41.16C43.8425 41.16 43.5278 41.2773 43.2665 41.512C43.0105 41.7467 42.8638 42.072 42.8265 42.488H45.5945ZM49.0914 41.216H48.1714V45H47.4434V41.216H46.8754V40.616H47.4434V40.304C47.4434 39.8133 47.5687 39.456 47.8194 39.232C48.0754 39.0027 48.4834 38.888 49.0434 38.888V39.496C48.7234 39.496 48.4967 39.56 48.3634 39.688C48.2354 39.8107 48.1714 40.016 48.1714 40.304V40.616H49.0914V41.216ZM50.8282 41.216V43.8C50.8282 44.0133 50.8736 44.1653 50.9642 44.256C51.0549 44.3413 51.2122 44.384 51.4362 44.384H51.9722V45H51.3162C50.9109 45 50.6069 44.9067 50.4042 44.72C50.2016 44.5333 50.1002 44.2267 50.1002 43.8V41.216H49.5322V40.616H50.1002V39.512H50.8282V40.616H51.9722V41.216H50.8282Z" fill="white"/>
<defs>
<filter id="filter0_d_107_368" x="0" y="0" width="92" height="92" filterUnits="userSpaceOnUse" color-interpolation-filters="sRGB">
<feFlood flood-opacity="0" result="BackgroundImageFix"/>
<feColorMatrix in="SourceAlpha" type="matrix" values="0 0 0 0 0 0 0 0 0 0 0 0 0 0 0 0 0 0 127 0" result="hardAlpha"/>
<feOffset dy="10"/>
<feGaussianBlur stdDeviation="11"/>
<feColorMatrix type="matrix" values="0 0 0 0 0.584314 0 0 0 0 0.678431 0 0 0 0 0.996078 0 0 0 0.3 0"/>
<feBlend mode="normal" in2="BackgroundImageFix" result="effect1_dropShadow_107_368"/>
<feBlend mode="normal" in="SourceGraphic" in2="effect1_dropShadow_107_368" result="shape"/>
</filter>
<linearGradient id="paint0_linear_107_368" x1="70" y1="60" x2="6.02592" y2="55.0496" gradientUnits="userSpaceOnUse">
<stop stop-color="#C150F6"/>
<stop offset="1" stop-color="#EEA4CE"/>
</linearGradient>
</defs>
</svg>
