<svg width="118" height="100" viewBox="0 0 118 100" fill="none" xmlns="http://www.w3.org/2000/svg">
<path d="M0.136473 79.5314C1.36343 74.3135 13.3452 74.4067 18.8438 77.6679C15.375 76.4411 9.75521 71.9531 14.2995 68.9249C17.1927 66.9682 21.6158 68.3814 25.0543 72.2637C23.186 70.5529 21.5732 68.5699 20.2677 66.3781C18.1773 63.3343 17.738 57.4798 22.7216 55.0727C26.9326 53.0229 33.3249 54.669 36.4605 59.6539C38.3855 63.1446 39.427 67.074 39.49 71.0834C39.49 68.3503 39.5809 63.1324 45.2006 63.5517C51.0628 63.9866 49.6389 70.9903 49.7449 74.531C49.7449 74.531 49.5177 64.3748 55.9252 60.5546C57.3601 59.6391 58.9837 59.0795 60.6667 58.9205C62.3497 58.7614 64.0456 59.0072 65.6196 59.6383C67.343 60.1801 68.7876 61.3981 69.6388 63.0271C70.49 64.656 70.6788 66.5638 70.1639 68.3348C68.937 72.4966 64.4078 76.1149 64.4078 76.1149C66.832 74.8388 69.3678 73.799 71.9817 73.0091C77.147 71.9686 85.5236 71.658 88.841 76.1149C92.1583 80.5719 87.3262 86.8768 77.768 87.1563C71.4515 87.3426 17.738 87.5445 11.4063 87.5445C6.40759 87.529 -1.13593 84.9822 0.136473 79.5314Z" fill="url(#paint0_linear_325_463)"/>
<path d="M117.864 72.0929C116.712 66.5644 105.428 66.6421 100.247 70.1051C103.519 68.7851 108.76 64.0332 104.549 60.7875C101.838 58.7221 97.6719 60.2129 94.4303 64.3282C96.2253 62.4895 97.7554 60.3979 98.9746 58.1165C100.929 54.9019 101.323 48.7989 96.6267 46.1278C92.6732 43.9382 86.6596 45.693 83.6907 50.9885C81.8823 54.7706 80.9246 58.9205 80.8884 63.1324C80.8884 60.2285 80.8126 54.6845 75.5261 55.1349C69.9972 55.6007 71.3454 63.0393 71.2696 66.7974C71.2696 66.7974 71.4665 55.9268 65.4378 52.0135C64.1375 51.0523 62.6147 50.4564 61.0204 50.2847C59.4262 50.1131 57.8159 50.3718 56.3492 51.0351C54.6537 51.7675 53.2808 53.1146 52.4929 54.8191C51.7049 56.5236 51.557 58.4659 52.0776 60.2751C53.0167 64.6233 57.3489 68.3503 57.3489 68.3503C55.0679 67.0202 52.6625 65.9277 50.169 65.0891C45.3066 64.0021 37.4147 63.676 34.2943 68.3969C31.1739 73.1178 35.6727 79.842 44.7158 80.137C50.6688 80.3234 101.247 80.5563 107.215 80.5563C111.956 80.6029 119.06 77.8853 117.864 72.0929Z" fill="url(#paint1_linear_325_463)"/>
<path d="M63.9385 1.57375C63.9385 1.57375 70.5125 -0.227653 72.8756 4.40008C72.4407 5.47974 71.7068 6.40514 70.7646 7.06198C69.8224 7.71882 68.7132 8.07831 67.5739 8.09606C67.5739 8.09606 68.0435 2.55209 63.9385 1.57375Z" fill="#069FAD"/>
<path d="M75.45 58.7679C69.317 58.1153 63.5012 55.6495 58.7102 51.6703C53.9191 47.6912 50.3594 42.3703 48.464 36.3551C46.5687 30.3398 46.4194 23.8895 48.0344 17.7889C49.6494 11.6882 52.9591 6.2003 57.5607 1.99274C50.297 2.33783 43.2683 4.7378 37.2534 8.92673C31.2385 13.1157 26.4722 18.93 23.4826 25.7255C20.493 32.521 19.3969 40.0323 20.3157 47.4273C21.2344 54.8223 24.1322 61.8121 28.688 67.6223C33.2437 73.4325 39.2795 77.8363 46.1267 80.3456C52.9738 82.855 60.3649 83.372 67.481 81.8393C74.5972 80.3067 81.1605 76.7842 86.4438 71.6622C91.7271 66.5402 95.5241 60.0187 97.4141 52.8202C91.0564 57.5067 83.2359 59.6244 75.45 58.7679Z" fill="#FFB842"/>
<path d="M49.2148 31.7011C48.1871 27.914 47.8938 23.957 48.3514 20.0541C49.2906 12.1031 54.3044 4.5248 65.0138 2.3507C65.1227 2.31691 65.2182 2.24809 65.286 2.1544C65.3538 2.06071 65.3904 1.94714 65.3904 1.83047C65.3904 1.7138 65.3538 1.60022 65.286 1.50654C65.2182 1.41285 65.1227 1.34403 65.0138 1.31024C45.8066 -4.63749 26.7509 10.7676 20.7373 25.303C26.66 35.9717 46.9578 33.7354 49.2148 31.7011Z" fill="url(#paint2_linear_325_463)"/>
<path d="M35.8696 40.8323H35.6121C34.0782 40.6676 32.5929 40.1848 31.2467 39.4133C29.9004 38.6418 28.7212 37.5976 27.7808 36.3444C27.716 36.2606 27.6683 36.1643 27.6408 36.0612C27.6132 35.9581 27.6063 35.8503 27.6204 35.7444C27.6346 35.6385 27.6695 35.5366 27.7231 35.4449C27.7767 35.3531 27.8479 35.2735 27.9323 35.2107C28.1013 35.0797 28.314 35.0225 28.524 35.0516C28.7339 35.0807 28.9242 35.1937 29.0532 35.366C29.0532 35.366 31.8555 39.0775 35.6727 39.2018C38.0357 39.2018 40.3685 37.9594 42.5952 35.3194C42.7376 35.1577 42.9358 35.0592 43.1479 35.0447C43.3599 35.0302 43.5692 35.1009 43.7313 35.2418C43.8106 35.3116 43.8756 35.397 43.9225 35.4928C43.9693 35.5887 43.9971 35.6931 44.0041 35.8001C44.0112 35.9071 43.9974 36.0144 43.9635 36.1159C43.9297 36.2173 43.8765 36.3108 43.807 36.391C41.3228 39.3415 38.6568 40.8323 35.8696 40.8323Z" fill="#4F4840"/>
<path d="M36.3849 40.2733H35.4609V44.9942H36.3849V40.2733Z" fill="#4F4840"/>
<path d="M37.5172 39.9823L36.6143 40.1834L37.5921 44.7966L38.495 44.5955L37.5172 39.9823Z" fill="#4F4840"/>
<path d="M38.8752 39.5874L37.9951 39.8759L39.3974 44.3726L40.2776 44.0841L38.8752 39.5874Z" fill="#4F4840"/>
<path d="M40.051 39.0533L39.2148 39.4564L41.174 43.7287L42.0103 43.3256L40.051 39.0533Z" fill="#4F4840"/>
<path d="M41.1627 38.3555L40.3828 38.8635L42.8523 42.8481L43.6322 42.3401L41.1627 38.3555Z" fill="#4F4840"/>
<path d="M42.2221 37.4396L41.4766 37.9992L44.1969 41.8083L44.9424 41.2487L42.2221 37.4396Z" fill="#4F4840"/>
<path d="M43.1999 36.6073L42.502 37.228L45.5194 40.7942L46.2174 40.1735L43.1999 36.6073Z" fill="#4F4840"/>
<path d="M34.2767 39.9774L33.2988 44.5906L34.2018 44.7918L35.1796 40.1785L34.2767 39.9774Z" fill="#4F4840"/>
<path d="M32.9246 39.5689L31.5215 44.0654L32.4016 44.354L33.8046 39.8576L32.9246 39.5689Z" fill="#4F4840"/>
<path d="M31.7561 39.0584L29.7969 43.3307L30.6331 43.7338L32.5923 39.4615L31.7561 39.0584Z" fill="#4F4840"/>
<path d="M30.6276 38.351L28.1602 42.337L28.9403 42.8446L31.4077 38.8586L30.6276 38.351Z" fill="#4F4840"/>
<path d="M29.5738 37.4577L26.8535 41.2668L27.5991 41.8264L30.3194 38.0173L29.5738 37.4577Z" fill="#4F4840"/>
<path d="M28.6028 36.6055L25.5859 40.1722L26.284 40.7928L29.3009 37.2261L28.6028 36.6055Z" fill="#4F4840"/>
<path d="M65.7565 56.1131C62.8757 58.4095 59.3737 59.7382 55.7288 59.9178C52.3357 59.7936 49.2759 57.5418 47.1704 55.6162C46.7505 55.9922 46.2994 56.3299 45.8223 56.6256C54.3655 66.7973 65.1355 60.5856 68.5891 57.2623C67.5982 57.0138 66.6451 56.6271 65.7565 56.1131Z" fill="#4F4840"/>
<path d="M44.4592 57.7438C44.0433 57.7465 43.6295 57.6836 43.2322 57.5574C43.1569 57.5268 43.0883 57.481 43.0305 57.4227C42.9728 57.3644 42.927 57.2949 42.8959 57.2181C42.8648 57.1414 42.8491 57.059 42.8496 56.9759C42.8502 56.8928 42.8669 56.8107 42.899 56.7344C42.9597 56.5783 43.0782 56.4531 43.2286 56.3862C43.379 56.3193 43.5491 56.316 43.7018 56.3772C43.8078 56.3772 46.3223 57.3245 48.4127 53.349C48.4958 53.21 48.6277 53.1089 48.7812 53.0667C48.9348 53.0244 49.0983 53.0441 49.2381 53.1217C49.3779 53.1994 49.4833 53.329 49.5327 53.484C49.582 53.6389 49.5715 53.8074 49.5033 53.9546C47.822 57.1692 45.7467 57.7438 44.4592 57.7438Z" fill="#4F4840"/>
<path d="M113.865 90.9765C112.608 85.0443 100.141 85.153 94.4304 88.8334C98.0356 87.4358 103.822 82.3422 99.1868 78.8947C96.1573 76.674 91.613 78.2735 88.0079 82.6838C89.973 80.7147 91.6514 78.4657 92.9914 76.0062C95.1575 72.5587 95.5817 65.9432 90.4012 63.179C86.0387 60.8496 79.3888 62.7286 76.1321 68.3813C73.0117 73.8011 73.1026 81.3638 73.1026 81.3638C73.1026 78.258 72.9966 72.3413 67.1647 72.8072C61.1057 73.3041 62.6204 81.2707 62.4841 85.2306C62.4841 85.2306 62.7113 73.6923 56.0464 69.4063C54.5914 68.3708 52.9033 67.732 51.1411 67.55C49.3788 67.3679 47.6004 67.6487 45.9732 68.3658C44.1271 69.1159 42.6215 70.5469 41.7525 72.3775C40.8836 74.2081 40.7141 76.3058 41.2774 78.258C42.4286 82.9168 47.1396 86.9544 47.1396 86.9544C44.6218 85.5312 41.9733 84.3661 39.2325 83.4758C33.8551 82.2956 25.1604 81.9229 21.7067 87.001C18.253 92.0791 23.2215 99.2381 33.2189 99.5487C39.7778 99.7661 95.5968 99.999 102.171 99.999C107.367 100.061 115.122 97.1727 113.865 90.9765Z" fill="url(#paint3_linear_325_463)"/>
<path d="M69.7703 32.726L60.6817 33.223L60.5908 31.4837L66.3318 23.1134L60.7877 23.424L60.5908 21.4984L68.8008 21.0635L68.8917 22.7562L63.1356 31.1576L69.6794 30.8159L69.7703 32.726Z" fill="#4F4840"/>
<path d="M71.9053 28.2381L71.1934 26.4212L75.1166 24.8682L75.8285 26.7628L71.9053 28.2381Z" fill="#4F4840"/>
<path d="M79.4948 28.7195L78.6465 27.3063L79.2524 20.287L76.0411 22.3369L75.1777 20.8927L80.5248 17.4918L81.3882 18.9205L80.7823 25.9087L84.5995 23.4705L85.4781 24.9303L79.4948 28.7195Z" fill="#4F4840"/>
<path d="M85.7355 20.2871L84.2207 18.9981L86.917 15.6749L88.4317 16.9638L85.7355 20.2871Z" fill="#4F4840"/>
<path d="M92.6272 16.2805L91.1124 15.5817L87.9314 9.33888L86.3409 12.8796L84.8262 12.1652L87.4921 6.31067L89.0069 7.02502L92.2333 13.2367L94.1117 9.0283L95.6264 9.75818L92.6272 16.2805Z" fill="#4F4840"/>
<path d="M17.8744 17.9732L15.0266 14.4636L10.6035 14.8674L12.9817 11.0161L11.2397 6.82317L15.5416 7.95681L18.8893 4.95966L19.1771 9.50974L22.9943 11.8547L18.859 13.5318L17.8744 17.9732Z" fill="#FFB842"/>
<path d="M97.5813 37.9284L95.294 33.5491L90.4619 32.99L93.8247 29.4028L92.8401 24.5266L97.2177 26.7007L101.429 24.2315L100.777 29.1698L104.367 32.5242L99.5808 33.4093L97.5813 37.9284Z" fill="#FFB842"/>
<path d="M76.9496 47.4634L74.7229 44.342L70.9512 44.4507L73.1627 41.3137L71.9055 37.6644L75.4955 38.8446L78.4795 36.4841L78.4947 40.3665L81.6151 42.5406L78.0251 43.7518L76.9496 47.4634Z" fill="#FFB842"/>
<defs>
<linearGradient id="paint0_linear_325_463" x1="89.8846" y1="87.5445" x2="-25.6087" y2="63.4432" gradientUnits="userSpaceOnUse">
<stop stop-color="#C150F6"/>
<stop offset="1" stop-color="#EEA4CE"/>
</linearGradient>
<linearGradient id="paint1_linear_325_463" x1="117.997" y1="80.5569" x2="8.22045" y2="60.2056" gradientUnits="userSpaceOnUse">
<stop stop-color="#C150F6"/>
<stop offset="1" stop-color="#EEA4CE"/>
</linearGradient>
<linearGradient id="paint2_linear_325_463" x1="65.3904" y1="33.4018" x2="6.15458" y2="27.2741" gradientUnits="userSpaceOnUse">
<stop stop-color="#C150F6"/>
<stop offset="1" stop-color="#EEA4CE"/>
</linearGradient>
<linearGradient id="paint3_linear_325_463" x1="114.001" y1="100" x2="-6.79525" y2="76.9053" gradientUnits="userSpaceOnUse">
<stop stop-color="#C150F6"/>
<stop offset="1" stop-color="#EEA4CE"/>
</linearGradient>
</defs>
</svg>
