<svg width="141" height="30" viewBox="0 0 141 30" fill="none" xmlns="http://www.w3.org/2000/svg">
<rect width="141" height="30" rx="15" fill="url(#paint0_linear_229_3877)"/>
<path d="M26.444 14.812C26.444 13.996 26.632 13.264 27.008 12.616C27.392 11.968 27.908 11.464 28.556 11.104C29.212 10.736 29.928 10.552 30.704 10.552C31.592 10.552 32.38 10.772 33.068 11.212C33.764 11.644 34.268 12.26 34.58 13.06H32.936C32.72 12.62 32.42 12.292 32.036 12.076C31.652 11.86 31.208 11.752 30.704 11.752C30.152 11.752 29.66 11.876 29.228 12.124C28.796 12.372 28.456 12.728 28.208 13.192C27.968 13.656 27.848 14.196 27.848 14.812C27.848 15.428 27.968 15.968 28.208 16.432C28.456 16.896 28.796 17.256 29.228 17.512C29.66 17.76 30.152 17.884 30.704 17.884C31.208 17.884 31.652 17.776 32.036 17.56C32.42 17.344 32.72 17.016 32.936 16.576H34.58C34.268 17.376 33.764 17.992 33.068 18.424C32.38 18.856 31.592 19.072 30.704 19.072C29.92 19.072 29.204 18.892 28.556 18.532C27.908 18.164 27.392 17.656 27.008 17.008C26.632 16.36 26.444 15.628 26.444 14.812ZM39.6013 12.28C40.1053 12.28 40.5533 12.388 40.9453 12.604C41.3453 12.82 41.6573 13.14 41.8813 13.564C42.1133 13.988 42.2293 14.5 42.2293 15.1V19H40.8733V15.304C40.8733 14.712 40.7253 14.26 40.4293 13.948C40.1333 13.628 39.7293 13.468 39.2173 13.468C38.7053 13.468 38.2973 13.628 37.9933 13.948C37.6973 14.26 37.5493 14.712 37.5493 15.304V19H36.1813V10.12H37.5493V13.156C37.7813 12.876 38.0733 12.66 38.4253 12.508C38.7853 12.356 39.1773 12.28 39.6013 12.28ZM43.5182 15.664C43.5182 15 43.6542 14.412 43.9262 13.9C44.2062 13.388 44.5822 12.992 45.0542 12.712C45.5342 12.424 46.0622 12.28 46.6382 12.28C47.1582 12.28 47.6102 12.384 47.9942 12.592C48.3862 12.792 48.6982 13.044 48.9302 13.348V12.388H50.3102V19H48.9302V18.016C48.6982 18.328 48.3822 18.588 47.9822 18.796C47.5822 19.004 47.1262 19.108 46.6142 19.108C46.0462 19.108 45.5262 18.964 45.0542 18.676C44.5822 18.38 44.2062 17.972 43.9262 17.452C43.6542 16.924 43.5182 16.328 43.5182 15.664ZM48.9302 15.688C48.9302 15.232 48.8342 14.836 48.6422 14.5C48.4582 14.164 48.2142 13.908 47.9102 13.732C47.6062 13.556 47.2782 13.468 46.9262 13.468C46.5742 13.468 46.2462 13.556 45.9422 13.732C45.6382 13.9 45.3902 14.152 45.1982 14.488C45.0142 14.816 44.9222 15.208 44.9222 15.664C44.9222 16.12 45.0142 16.52 45.1982 16.864C45.3902 17.208 45.6382 17.472 45.9422 17.656C46.2542 17.832 46.5822 17.92 46.9262 17.92C47.2782 17.92 47.6062 17.832 47.9102 17.656C48.2142 17.48 48.4582 17.224 48.6422 16.888C48.8342 16.544 48.9302 16.144 48.9302 15.688ZM55.443 12.28C55.963 12.28 56.427 12.388 56.835 12.604C57.251 12.82 57.575 13.14 57.807 13.564C58.039 13.988 58.155 14.5 58.155 15.1V19H56.799V15.304C56.799 14.712 56.651 14.26 56.355 13.948C56.059 13.628 55.655 13.468 55.143 13.468C54.631 13.468 54.223 13.628 53.919 13.948C53.623 14.26 53.475 14.712 53.475 15.304V19H52.107V12.388H53.475V13.144C53.699 12.872 53.983 12.66 54.327 12.508C54.679 12.356 55.051 12.28 55.443 12.28ZM62.564 12.28C63.076 12.28 63.528 12.384 63.92 12.592C64.32 12.792 64.632 13.044 64.856 13.348V12.388H66.236V19.108C66.236 19.716 66.108 20.256 65.852 20.728C65.596 21.208 65.224 21.584 64.736 21.856C64.256 22.128 63.68 22.264 63.008 22.264C62.112 22.264 61.368 22.052 60.776 21.628C60.184 21.212 59.848 20.644 59.768 19.924H61.124C61.228 20.268 61.448 20.544 61.784 20.752C62.128 20.968 62.536 21.076 63.008 21.076C63.56 21.076 64.004 20.908 64.34 20.572C64.684 20.236 64.856 19.748 64.856 19.108V18.004C64.624 18.316 64.308 18.58 63.908 18.796C63.516 19.004 63.068 19.108 62.564 19.108C61.988 19.108 61.46 18.964 60.98 18.676C60.508 18.38 60.132 17.972 59.852 17.452C59.58 16.924 59.444 16.328 59.444 15.664C59.444 15 59.58 14.412 59.852 13.9C60.132 13.388 60.508 12.992 60.98 12.712C61.46 12.424 61.988 12.28 62.564 12.28ZM64.856 15.688C64.856 15.232 64.76 14.836 64.568 14.5C64.384 14.164 64.14 13.908 63.836 13.732C63.532 13.556 63.204 13.468 62.852 13.468C62.5 13.468 62.172 13.556 61.868 13.732C61.564 13.9 61.316 14.152 61.124 14.488C60.94 14.816 60.848 15.208 60.848 15.664C60.848 16.12 60.94 16.52 61.124 16.864C61.316 17.208 61.564 17.472 61.868 17.656C62.18 17.832 62.508 17.92 62.852 17.92C63.204 17.92 63.532 17.832 63.836 17.656C64.14 17.48 64.384 17.224 64.568 16.888C64.76 16.544 64.856 16.144 64.856 15.688ZM74.0928 15.532C74.0928 15.78 74.0768 16.004 74.0448 16.204H68.9928C69.0328 16.732 69.2288 17.156 69.5808 17.476C69.9328 17.796 70.3648 17.956 70.8768 17.956C71.6128 17.956 72.1328 17.648 72.4368 17.032H73.9128C73.7128 17.64 73.3488 18.14 72.8208 18.532C72.3008 18.916 71.6528 19.108 70.8768 19.108C70.2448 19.108 69.6768 18.968 69.1728 18.688C68.6768 18.4 68.2848 18 67.9968 17.488C67.7168 16.968 67.5768 16.368 67.5768 15.688C67.5768 15.008 67.7128 14.412 67.9848 13.9C68.2648 13.38 68.6528 12.98 69.1488 12.7C69.6528 12.42 70.2288 12.28 70.8768 12.28C71.5008 12.28 72.0568 12.416 72.5448 12.688C73.0328 12.96 73.4128 13.344 73.6848 13.84C73.9568 14.328 74.0928 14.892 74.0928 15.532ZM72.6648 15.1C72.6568 14.596 72.4768 14.192 72.1248 13.888C71.7728 13.584 71.3368 13.432 70.8168 13.432C70.3448 13.432 69.9408 13.584 69.6048 13.888C69.2688 14.184 69.0688 14.588 69.0048 15.1H72.6648ZM84.3883 13.144C84.3883 13.568 84.2883 13.968 84.0883 14.344C83.8883 14.72 83.5683 15.028 83.1283 15.268C82.6883 15.5 82.1243 15.616 81.4363 15.616H79.9243V19H78.5563V10.66H81.4363C82.0763 10.66 82.6163 10.772 83.0563 10.996C83.5043 11.212 83.8363 11.508 84.0523 11.884C84.2763 12.26 84.3883 12.68 84.3883 13.144ZM81.4363 14.5C81.9563 14.5 82.3443 14.384 82.6003 14.152C82.8563 13.912 82.9843 13.576 82.9843 13.144C82.9843 12.232 82.4683 11.776 81.4363 11.776H79.9243V14.5H81.4363ZM86.389 11.512C86.141 11.512 85.933 11.428 85.765 11.26C85.597 11.092 85.513 10.884 85.513 10.636C85.513 10.388 85.597 10.18 85.765 10.012C85.933 9.844 86.141 9.76 86.389 9.76C86.629 9.76 86.833 9.844 87.001 10.012C87.169 10.18 87.253 10.388 87.253 10.636C87.253 10.884 87.169 11.092 87.001 11.26C86.833 11.428 86.629 11.512 86.389 11.512ZM87.061 12.388V19H85.693V12.388H87.061ZM88.401 15.688C88.401 15.008 88.537 14.412 88.809 13.9C89.089 13.38 89.473 12.98 89.961 12.7C90.449 12.42 91.009 12.28 91.641 12.28C92.441 12.28 93.101 12.472 93.621 12.856C94.149 13.232 94.505 13.772 94.689 14.476H93.213C93.093 14.148 92.901 13.892 92.637 13.708C92.373 13.524 92.041 13.432 91.641 13.432C91.081 13.432 90.633 13.632 90.297 14.032C89.969 14.424 89.805 14.976 89.805 15.688C89.805 16.4 89.969 16.956 90.297 17.356C90.633 17.756 91.081 17.956 91.641 17.956C92.433 17.956 92.957 17.608 93.213 16.912H94.689C94.497 17.584 94.137 18.12 93.609 18.52C93.081 18.912 92.425 19.108 91.641 19.108C91.009 19.108 90.449 18.968 89.961 18.688C89.473 18.4 89.089 18 88.809 17.488C88.537 16.968 88.401 16.368 88.401 15.688ZM97.6483 13.504V17.164C97.6483 17.412 97.7043 17.592 97.8163 17.704C97.9363 17.808 98.1363 17.86 98.4163 17.86H99.2563V19H98.1763C97.5603 19 97.0883 18.856 96.7603 18.568C96.4323 18.28 96.2683 17.812 96.2683 17.164V13.504H95.4883V12.388H96.2683V10.744H97.6483V12.388H99.2563V13.504H97.6483ZM106.505 12.388V19H105.137V18.22C104.921 18.492 104.637 18.708 104.285 18.868C103.941 19.02 103.573 19.096 103.181 19.096C102.661 19.096 102.193 18.988 101.777 18.772C101.369 18.556 101.045 18.236 100.805 17.812C100.573 17.388 100.457 16.876 100.457 16.276V12.388H101.813V16.072C101.813 16.664 101.961 17.12 102.257 17.44C102.553 17.752 102.957 17.908 103.469 17.908C103.981 17.908 104.385 17.752 104.681 17.44C104.985 17.12 105.137 16.664 105.137 16.072V12.388H106.505ZM109.678 13.348C109.878 13.012 110.142 12.752 110.47 12.568C110.806 12.376 111.202 12.28 111.658 12.28V13.696H111.31C110.774 13.696 110.366 13.832 110.086 14.104C109.814 14.376 109.678 14.848 109.678 15.52V19H108.31V12.388H109.678V13.348ZM118.976 15.532C118.976 15.78 118.96 16.004 118.928 16.204H113.876C113.916 16.732 114.112 17.156 114.464 17.476C114.816 17.796 115.248 17.956 115.76 17.956C116.496 17.956 117.016 17.648 117.32 17.032H118.796C118.596 17.64 118.232 18.14 117.704 18.532C117.184 18.916 116.536 19.108 115.76 19.108C115.128 19.108 114.56 18.968 114.056 18.688C113.56 18.4 113.168 18 112.88 17.488C112.6 16.968 112.46 16.368 112.46 15.688C112.46 15.008 112.596 14.412 112.868 13.9C113.148 13.38 113.536 12.98 114.032 12.7C114.536 12.42 115.112 12.28 115.76 12.28C116.384 12.28 116.94 12.416 117.428 12.688C117.916 12.96 118.296 13.344 118.568 13.84C118.84 14.328 118.976 14.892 118.976 15.532ZM117.548 15.1C117.54 14.596 117.36 14.192 117.008 13.888C116.656 13.584 116.22 13.432 115.7 13.432C115.228 13.432 114.824 13.584 114.488 13.888C114.152 14.184 113.952 14.588 113.888 15.1H117.548Z" fill="white"/>
<defs>
<linearGradient id="paint0_linear_229_3877" x1="258.5" y1="57.7778" x2="-46.1959" y2="-51.0224" gradientUnits="userSpaceOnUse">
<stop stop-color="#CC8FED"/>
<stop offset="1" stop-color="#6B50F6"/>
</linearGradient>
</defs>
</svg>
