<svg width="116" height="76" viewBox="0 0 116 76" fill="none" xmlns="http://www.w3.org/2000/svg">
<g clip-path="url(#clip0_229_3680)">
<path d="M36.6513 72.2848H114.794C115.556 72.2848 116.088 71.6748 115.986 70.9179L108.087 12.9857C107.986 12.2288 107.292 11.6188 106.543 11.6188H29.4643C28.7156 11.6188 28.1794 12.2288 28.2672 12.9857L35.1122 70.9179C35.2047 71.6748 35.8933 72.2848 36.6513 72.2848Z" fill="#3B2645"/>
<path d="M35.8886 72.2848H114.031C114.793 72.2848 115.325 71.6748 115.223 70.9179L107.32 12.9857C107.218 12.2288 106.525 11.6188 105.776 11.6188H28.7016C27.9529 11.6188 27.4167 12.2288 27.5045 12.9857L34.3495 70.9179C34.442 71.6748 35.1306 72.2848 35.8886 72.2848Z" fill="url(#paint0_linear_229_3680)"/>
<path opacity="0.3" d="M111.008 40.0209L102.948 72.285H80.8135L107.477 14.1234L111.008 40.0209Z" fill="#543753"/>
<path d="M99.3607 72.2848H21.2186C20.456 72.2848 19.9245 71.6748 20.0261 70.9179L27.9249 12.9857C28.0266 12.2288 28.7199 11.6188 29.4686 11.6188H106.543C107.292 11.6188 107.828 12.2288 107.74 12.9857L100.895 70.9179C100.807 71.6748 100.119 72.2848 99.3607 72.2848Z" fill="#3B2645"/>
<path d="M98.5935 72.2848H20.4559C19.6933 72.2848 19.1618 71.6748 19.2634 70.9179L27.1622 12.9857C27.2639 12.2288 27.9572 11.6188 28.706 11.6188H105.781C106.529 11.6188 107.065 12.2288 106.978 12.9857L100.133 70.9179C100.045 71.6748 99.3561 72.2848 98.5935 72.2848Z" fill="url(#paint1_linear_229_3680)"/>
<path d="M97.4193 70.7986H22.0364C21.8423 70.7986 21.6667 70.7252 21.5465 70.5876C21.4264 70.45 21.3709 70.2665 21.3986 70.0693L27.8554 22.5493C27.9062 22.164 28.2667 21.8475 28.6504 21.8475H103.21C103.4 21.8475 103.576 21.9209 103.696 22.0585C103.821 22.1961 103.876 22.3796 103.853 22.5768L98.2142 70.0922C98.168 70.4821 97.8121 70.7986 97.4193 70.7986ZM28.6504 22.0539C28.3638 22.0539 28.0957 22.2878 28.0587 22.5768L21.602 70.0968C21.5835 70.2298 21.6205 70.3583 21.699 70.45C21.7822 70.5418 21.8978 70.5922 22.0318 70.5922H97.4147C97.7058 70.5922 97.9693 70.3583 98.0016 70.0693L103.64 22.5539C103.659 22.4162 103.617 22.2924 103.534 22.1961C103.451 22.1043 103.335 22.0539 103.206 22.0539H28.6504Z" fill="white"/>
<path d="M83.1151 20.1963H51.8573C51.3674 20.1963 50.9283 20.0036 50.6186 19.6596C50.3043 19.3018 50.1657 18.8294 50.2304 18.3203C50.3644 17.302 51.2981 16.4717 52.3149 16.4717H83.5495C84.0395 16.4717 84.4832 16.6644 84.7882 17.0084C85.1071 17.3662 85.2458 17.8386 85.1857 18.3432C85.0609 19.3661 84.1319 20.1963 83.1151 20.1963ZM52.3149 16.6736C51.3997 16.6736 50.5585 17.4212 50.4338 18.3432C50.3737 18.7881 50.4938 19.2101 50.7712 19.5174C51.0392 19.8202 51.4228 19.9853 51.8527 19.9853H83.1105C84.0256 19.9853 84.8622 19.2376 84.9777 18.3157C85.0332 17.8707 84.9084 17.4487 84.6311 17.1414C84.363 16.8387 83.9748 16.6736 83.5449 16.6736H52.3149Z" fill="white"/>
<path d="M68.5333 32.0898H60.75L61.5357 25.948H69.3097L68.5333 32.0898Z" fill="#F2F9FF"/>
<path d="M78.535 32.0898H70.7471L71.5235 25.948H79.2976L78.535 32.0898Z" fill="#F2F9FF"/>
<path d="M88.5358 32.0898H80.748L81.506 25.948H89.2846L88.5358 32.0898Z" fill="#F2F9FF"/>
<path d="M98.5379 32.0898H90.75L91.4941 25.948H99.2681L98.5379 32.0898Z" fill="url(#paint2_radial_229_3680)"/>
<path d="M37.3349 41.0799H29.5332L30.3605 34.9381H38.153L37.3349 41.0799Z" fill="#F2F9FF"/>
<path d="M47.3555 41.0799H39.5537L40.3672 34.9381H48.1597L47.3555 41.0799Z" fill="#F2F9FF"/>
<path d="M57.376 41.0799H49.5742L50.3738 34.9381H58.1663L57.376 41.0799Z" fill="#F2F9FF"/>
<path d="M67.3955 41.0799H59.5938L60.3795 34.9381H68.172L67.3955 41.0799Z" fill="#F2F9FF"/>
<path d="M77.4206 41.0799H69.6143L70.3907 34.9381H78.1786L77.4206 41.0799Z" fill="#F2F9FF"/>
<path d="M87.4411 41.0799H79.6348L80.3974 34.9381H88.1899L87.4411 41.0799Z" fill="#F2F9FF"/>
<path d="M97.4609 41.0799H89.6592L90.4033 34.9381H98.1958L97.4609 41.0799Z" fill="url(#paint3_radial_229_3680)"/>
<path d="M36.1376 50.0752H28.3174L29.1447 43.9333H36.9557L36.1376 50.0752Z" fill="#F2F9FF"/>
<path d="M46.1769 50.0752H38.3613L39.1748 43.9333H46.9811L46.1769 50.0752Z" fill="#F2F9FF"/>
<path d="M56.2196 50.0752H48.3994L49.2036 43.9333H57.01L56.2196 50.0752Z" fill="#F2F9FF"/>
<path d="M66.259 50.0752H58.4434L59.2291 43.9333H67.0354L66.259 50.0752Z" fill="#F2F9FF"/>
<path d="M76.3027 50.0752H68.4824L69.2589 43.9333H77.0653L76.3027 50.0752Z" fill="#F2F9FF"/>
<path d="M86.3455 50.0752H78.5254L79.2834 43.9333H87.0943L86.3455 50.0752Z" fill="#F2F9FF"/>
<path d="M96.3837 50.0752H88.5635L89.3122 43.9333H97.1186L96.3837 50.0752Z" fill="url(#paint4_radial_229_3680)"/>
<path d="M34.9412 59.0703H27.1025L27.9345 52.9285H35.7593L34.9412 59.0703Z" fill="#F2F9FF"/>
<path d="M45.0027 59.0703H37.1641L37.9821 52.9285H45.8069L45.0027 59.0703Z" fill="#F2F9FF"/>
<path d="M55.0643 59.0703H47.2256L48.0298 52.9285H55.8546L55.0643 59.0703Z" fill="#F2F9FF"/>
<path d="M65.1258 59.0703H57.2871L58.0775 52.9285H65.8977L65.1258 59.0703Z" fill="#F2F9FF"/>
<path d="M75.1837 59.0703H67.3496L68.1261 52.9285H75.9463L75.1837 59.0703Z" fill="#F2F9FF"/>
<path d="M85.2452 59.0703H77.4111L78.1737 52.9285H85.994L85.2452 59.0703Z" fill="#F2F9FF"/>
<path d="M95.3078 59.0703H87.4736L88.2224 52.9285H96.0427L95.3078 59.0703Z" fill="url(#paint5_radial_229_3680)"/>
<path d="M33.7385 68.0605H25.8906L26.7179 61.9187H34.5566L33.7385 68.0605Z" fill="#F2F9FF"/>
<path d="M43.8243 68.0605H35.9717L36.7898 61.9187H44.6285L43.8243 68.0605Z" fill="#F2F9FF"/>
<path d="M53.9046 68.0605H46.0566L46.8562 61.9187H54.6949L53.9046 68.0605Z" fill="#F2F9FF"/>
<path d="M63.9893 68.0605H56.1367L56.9224 61.9187H64.7658L63.9893 68.0605Z" fill="#F2F9FF"/>
<path d="M74.0694 68.0605H66.2168L66.9933 61.9187H74.832L74.0694 68.0605Z" fill="#FDF8EE"/>
<path d="M99.5182 24.1774H91.7442C91.5732 24.1774 91.4346 24.0398 91.4346 23.8701C91.4346 23.7004 91.5732 23.5628 91.7442 23.5628H99.5182C99.6892 23.5628 99.8279 23.7004 99.8279 23.8701C99.8279 24.0398 99.6892 24.1774 99.5182 24.1774Z" fill="#F2F9FF"/>
<path d="M89.5348 24.1774H81.7608C81.5898 24.1774 81.4512 24.0398 81.4512 23.8701C81.4512 23.7004 81.5898 23.5628 81.7608 23.5628H89.5348C89.7059 23.5628 89.8445 23.7004 89.8445 23.8701C89.8445 24.0398 89.7059 24.1774 89.5348 24.1774Z" fill="url(#paint6_radial_229_3680)"/>
<path d="M79.5563 24.1774H71.7823C71.6113 24.1774 71.4727 24.0398 71.4727 23.8701C71.4727 23.7004 71.6113 23.5628 71.7823 23.5628H79.5563C79.7273 23.5628 79.866 23.7004 79.866 23.8701C79.866 24.0398 79.7273 24.1774 79.5563 24.1774Z" fill="url(#paint7_radial_229_3680)"/>
<path d="M69.5729 24.1774H61.7989C61.6279 24.1774 61.4893 24.0398 61.4893 23.8701C61.4893 23.7004 61.6279 23.5628 61.7989 23.5628H69.5729C69.7439 23.5628 69.8826 23.7004 69.8826 23.8701C69.8826 24.0398 69.7439 24.1774 69.5729 24.1774Z" fill="url(#paint8_radial_229_3680)"/>
<path d="M59.5896 24.1774H51.8155C51.6445 24.1774 51.5059 24.0398 51.5059 23.8701C51.5059 23.7004 51.6445 23.5628 51.8155 23.5628H59.5896C59.7606 23.5628 59.8993 23.7004 59.8993 23.8701C59.8993 24.0398 59.7606 24.1774 59.5896 24.1774Z" fill="url(#paint9_radial_229_3680)"/>
<path d="M49.611 24.1774H41.837C41.666 24.1774 41.5273 24.0398 41.5273 23.8701C41.5273 23.7004 41.666 23.5628 41.837 23.5628H49.611C49.782 23.5628 49.9207 23.7004 49.9207 23.8701C49.9207 24.0398 49.782 24.1774 49.611 24.1774Z" fill="url(#paint10_radial_229_3680)"/>
<path d="M39.6276 24.1774H31.8536C31.6826 24.1774 31.5439 24.0398 31.5439 23.8701C31.5439 23.7004 31.6826 23.5628 31.8536 23.5628H39.6276C39.7986 23.5628 39.9373 23.7004 39.9373 23.8701C39.9373 24.0398 39.7986 24.1774 39.6276 24.1774Z" fill="url(#paint11_radial_229_3680)"/>
<path d="M35.6717 14.1234C35.6162 14.5408 35.2326 14.8802 34.8167 14.8802C34.4007 14.8802 34.1095 14.5408 34.165 14.1234C34.2204 13.7059 34.6041 13.3665 35.02 13.3665C35.436 13.3665 35.7318 13.7059 35.6717 14.1234Z" fill="#3B2645"/>
<path d="M35.3432 8.729C34.6822 8.729 34.0028 8.95835 33.4343 9.37575C32.6671 9.93535 32.1587 10.7702 32.0385 11.66C31.8213 13.2746 32.949 14.591 34.5574 14.591C34.6545 14.591 34.7516 14.5865 34.8486 14.5773C35.0982 14.5543 35.3108 14.3296 35.32 14.0819C35.3293 13.8342 35.1352 13.6507 34.881 13.6737C34.8163 13.6783 34.7469 13.6828 34.6822 13.6828C33.573 13.6828 32.7919 12.7746 32.9444 11.66C33.0276 11.0454 33.3789 10.4674 33.9104 10.0821C34.3079 9.78857 34.7654 9.63721 35.2276 9.63721C36.323 9.63721 37.0948 10.5225 36.9701 11.6233H37.8713C38.0562 10.0225 36.9331 8.729 35.3432 8.729Z" fill="#5080C0"/>
<path d="M35.6717 14.1234C35.6162 14.5408 35.2326 14.8802 34.8167 14.8802C34.4007 14.8802 34.1095 14.5408 34.165 14.1234C34.2204 13.7059 34.6041 13.3665 35.02 13.3665C35.436 13.3665 35.7318 13.7059 35.6717 14.1234Z" fill="#3B2645"/>
<path d="M35.3432 8.729C34.6822 8.729 34.0028 8.95835 33.4343 9.37575C32.6671 9.93535 32.1587 10.7702 32.0385 11.66C31.8213 13.2746 32.949 14.591 34.5574 14.591C34.6545 14.591 34.7516 14.5865 34.8486 14.5773C35.0982 14.5543 35.3108 14.3296 35.32 14.0819C35.3293 13.8342 35.1352 13.6507 34.881 13.6737C34.8163 13.6783 34.7469 13.6828 34.6822 13.6828C33.573 13.6828 32.7919 12.7746 32.9444 11.66C33.0276 11.0454 33.3789 10.4674 33.9104 10.0821C34.3079 9.78857 34.7654 9.63721 35.2276 9.63721C36.323 9.63721 37.0948 10.5225 36.9701 11.6233H37.8713C38.0562 10.0225 36.9331 8.729 35.3432 8.729Z" fill="#AA8CA7"/>
<path d="M43.8104 14.1234C43.7549 14.5408 43.3713 14.8802 42.9553 14.8802C42.5394 14.8802 42.2482 14.5408 42.3036 14.1234C42.3591 13.7059 42.7427 13.3665 43.1587 13.3665C43.5746 13.3665 43.8658 13.7059 43.8104 14.1234Z" fill="#3B2645"/>
<path d="M43.4681 8.729C42.8071 8.729 42.1277 8.95835 41.5592 9.37575C40.792 9.93535 40.2836 10.7702 40.1634 11.66C39.9462 13.2746 41.0786 14.591 42.687 14.591C42.784 14.591 42.8811 14.5865 42.9782 14.5773C43.2277 14.5543 43.4403 14.3296 43.4496 14.0819C43.4588 13.8342 43.2601 13.6507 43.0105 13.6737C42.9458 13.6783 42.8765 13.6828 42.8118 13.6828C41.7025 13.6828 40.9214 12.7746 41.0693 11.66C41.1525 11.0454 41.5038 10.4674 42.0307 10.0821C42.4281 9.78857 42.8857 9.63721 43.3479 9.63721C44.4433 9.63721 45.2198 10.5225 45.095 11.6233H45.9963C46.1858 10.0225 45.0626 8.729 43.4681 8.729Z" fill="#AA8CA7"/>
<path d="M51.95 14.1234C51.8945 14.5408 51.5155 14.8802 51.0996 14.8802C50.6836 14.8802 50.3924 14.5408 50.4433 14.1234C50.4987 13.7059 50.8777 13.3665 51.2937 13.3665C51.7143 13.3665 52.0055 13.7059 51.95 14.1234Z" fill="#3B2645"/>
<path d="M51.5981 8.729C50.9372 8.729 50.2578 8.95835 49.6893 9.37575C48.9221 9.93535 48.4183 10.7702 48.2981 11.66C48.0855 13.2746 49.2179 14.591 50.8263 14.591C50.9233 14.591 51.0204 14.5865 51.1175 14.5773C51.367 14.5543 51.5796 14.3296 51.5843 14.0819C51.5935 13.8342 51.3948 13.6507 51.1452 13.6737C51.0805 13.6783 51.0112 13.6828 50.9464 13.6828C49.8372 13.6828 49.0515 12.7746 49.1994 11.66C49.2826 11.0454 49.6292 10.4674 50.1607 10.0821C50.5582 9.78857 51.0158 9.63721 51.478 9.63721C52.5733 9.63721 53.3498 10.5225 53.2296 11.6233H54.1309C54.3158 10.0225 53.1881 8.729 51.5981 8.729Z" fill="#AA8CA7"/>
<path d="M60.0886 14.1234C60.0331 14.5408 59.6541 14.8802 59.2382 14.8802C58.8222 14.8802 58.5264 14.5408 58.5819 14.1234C58.6373 13.7059 59.0163 13.3665 59.4323 13.3665C59.8482 13.3665 60.144 13.7059 60.0886 14.1234Z" fill="#3B2645"/>
<path d="M59.7284 8.729C59.0675 8.729 58.3927 8.95835 57.8242 9.37575C57.0616 9.93535 56.5532 10.7702 56.4376 11.66C56.2296 13.2746 57.3666 14.591 58.9704 14.591C59.0675 14.591 59.1645 14.5865 59.2616 14.5773C59.5112 14.5543 59.7238 14.3296 59.7284 14.0819C59.7377 13.8342 59.5389 13.6507 59.2893 13.6737C59.2246 13.6783 59.1553 13.6828 59.0906 13.6828C57.9813 13.6828 57.1956 12.7746 57.3389 11.66C57.4175 11.0454 57.7687 10.4674 58.2956 10.0821C58.6931 9.78857 59.1507 9.63721 59.6129 9.63721C60.7083 9.63721 61.4847 10.5225 61.3646 11.6233H62.2658C62.4461 10.0225 61.3183 8.729 59.7284 8.729Z" fill="#AA8CA7"/>
<path d="M68.2283 14.1234C68.1774 14.5408 67.7938 14.8802 67.3778 14.8802C66.9619 14.8802 66.6661 14.5408 66.7215 14.1234C66.777 13.7059 67.156 13.3665 67.572 13.3665C67.9879 13.3665 68.2791 13.7059 68.2283 14.1234Z" fill="#3B2645"/>
<path d="M67.8536 8.729C67.1926 8.729 66.5178 8.95835 65.9494 9.37575C65.1868 9.93535 64.683 10.7702 64.5674 11.66C64.3594 13.2746 65.501 14.591 67.1094 14.591C67.2065 14.591 67.3036 14.5865 67.4006 14.5773C67.6502 14.5543 67.8628 14.3296 67.8674 14.0819C67.8767 13.8342 67.6779 13.6507 67.4283 13.6737C67.3636 13.6783 67.2943 13.6828 67.2296 13.6828C66.1204 13.6828 65.3347 12.7746 65.4733 11.66C65.5519 11.0454 65.8985 10.4674 66.4254 10.0821C66.8229 9.78857 67.2758 9.63721 67.7426 9.63721C68.838 9.63721 69.6191 10.5225 69.4989 11.6233H70.4002C70.5804 10.0225 69.4481 8.729 67.8536 8.729Z" fill="#AA8CA7"/>
<path d="M76.3669 14.1234C76.3161 14.5408 75.9371 14.8802 75.5165 14.8802C75.1005 14.8802 74.8047 14.5408 74.8602 14.1234C74.911 13.7059 75.2947 13.3665 75.7106 13.3665C76.1266 13.3665 76.4178 13.7059 76.3669 14.1234Z" fill="#3B2645"/>
<path d="M75.9837 8.729C75.3228 8.729 74.648 8.95835 74.0795 9.37575C73.3169 9.93535 72.8131 10.7702 72.7022 11.66C72.4988 13.2746 73.6404 14.591 75.2488 14.591C75.3459 14.591 75.443 14.5865 75.54 14.5773C75.7896 14.5543 75.9976 14.3296 76.0068 14.0819C76.0115 13.8342 75.8173 13.6507 75.5631 13.6737C75.4984 13.6783 75.4291 13.6828 75.3644 13.6828C74.2551 13.6828 73.4648 12.7746 73.6081 11.66C73.6866 11.0454 74.0333 10.4674 74.5602 10.0821C74.9577 9.78857 75.4106 9.63721 75.8728 9.63721C76.9682 9.63721 77.7493 10.5225 77.6338 11.6233H78.535C78.7107 10.0225 77.5737 8.729 75.9837 8.729Z" fill="#AA8CA7"/>
<path d="M84.5017 14.1234C84.4509 14.5408 84.0719 14.8802 83.6559 14.8802C83.2399 14.8802 82.9441 14.5408 82.9949 14.1234C83.0458 13.7059 83.4248 13.3665 83.8408 13.3665C84.2614 13.3665 84.5572 13.7059 84.5017 14.1234Z" fill="#3B2645"/>
<path d="M84.109 8.729C83.448 8.729 82.7732 8.95835 82.2047 9.37575C81.4421 9.93535 80.943 10.7702 80.832 11.66C80.6333 13.2746 81.7749 14.591 83.3833 14.591C83.4804 14.591 83.5775 14.5865 83.6745 14.5773C83.9241 14.5543 84.1321 14.3296 84.1413 14.0819C84.146 13.8342 83.9518 13.6507 83.6976 13.6737C83.6329 13.6783 83.5636 13.6828 83.4989 13.6828C82.3896 13.6828 81.5993 12.7746 81.7379 11.66C81.8165 11.0454 82.1585 10.4674 82.6854 10.0821C83.0829 9.78857 83.5359 9.63721 83.9981 9.63721C85.0935 9.63721 85.8792 10.5225 85.7636 11.6233H86.6649C86.8405 10.0225 85.7035 8.729 84.109 8.729Z" fill="#AA8CA7"/>
<path d="M92.6403 14.1234C92.5895 14.5408 92.2105 14.8802 91.7945 14.8802C91.3786 14.8802 91.0828 14.5408 91.1336 14.1234C91.1845 13.7059 91.5634 13.3665 91.9794 13.3665C92.3953 13.3665 92.6911 13.7059 92.6403 14.1234Z" fill="#3B2645"/>
<path d="M92.2383 8.729C91.5774 8.729 90.9026 8.95835 90.3387 9.37575C89.5807 9.93535 89.0816 10.7702 88.9706 11.66C88.7719 13.2746 89.9181 14.591 91.5265 14.591C91.6236 14.591 91.7206 14.5865 91.8177 14.5773C92.0673 14.5543 92.2753 14.3296 92.2799 14.0819C92.2845 13.8342 92.0858 13.6507 91.8362 13.6737C91.7715 13.6783 91.7021 13.6828 91.6374 13.6828C90.5282 13.6828 89.7332 12.7746 89.8719 11.66C89.9458 11.0454 90.2925 10.4674 90.8194 10.0821C91.2169 9.78857 91.6698 9.63721 92.132 9.63721C93.2274 9.63721 94.0131 10.5225 93.9021 11.6233H94.8034C94.9698 10.0225 93.8328 8.729 92.2383 8.729Z" fill="#AA8CA7"/>
<path d="M100.78 14.1234C100.729 14.5408 100.35 14.8802 99.9342 14.8802C99.5182 14.8802 99.2224 14.5408 99.2733 14.1234C99.3241 13.7059 99.7031 13.3665 100.119 13.3665C100.535 13.3665 100.831 13.7059 100.78 14.1234Z" fill="#3B2645"/>
<path d="M100.368 8.729C99.7075 8.729 99.0327 8.95835 98.4688 9.37575C97.7108 9.93535 97.2116 10.7702 97.1053 11.66C96.9112 13.2746 98.0621 14.591 99.6659 14.591C99.7629 14.591 99.86 14.5865 99.9571 14.5773C100.207 14.5543 100.415 14.3296 100.419 14.0819C100.424 13.8342 100.225 13.6507 99.9755 13.6737C99.9108 13.6783 99.8415 13.6828 99.7768 13.6828C98.6675 13.6828 97.8726 12.7746 98.0066 11.66C98.0806 11.0454 98.4226 10.4674 98.9495 10.0821C99.347 9.78857 99.7999 9.63721 100.262 9.63721C101.357 9.63721 102.143 10.5225 102.032 11.6233H102.934C103.1 10.0225 101.958 8.729 100.368 8.729Z" fill="#AA8CA7"/>
<path d="M45.4468 40.1215C45.3636 40.1215 45.2804 40.0894 45.2203 40.0252L41.8001 36.3787C41.6846 36.2548 41.6892 36.0622 41.814 35.9429C41.9388 35.8283 42.1329 35.8328 42.2531 35.9567L45.6733 39.6032C45.7888 39.7271 45.7842 39.9197 45.6594 40.039C45.5947 40.094 45.5207 40.1215 45.4468 40.1215Z" fill="#3B2645"/>
<path d="M41.7027 40.1215C41.6148 40.1215 41.527 40.0848 41.4669 40.0114C41.356 39.883 41.3699 39.6903 41.5039 39.5802L45.8161 35.9337C45.9456 35.8236 46.1397 35.8373 46.2506 35.9704C46.3615 36.0988 46.3477 36.2914 46.2136 36.4015L41.9014 40.0481C41.8459 40.0985 41.7766 40.1215 41.7027 40.1215Z" fill="#3B2645"/>
<path d="M64.1139 48.6395C64.0307 48.6395 63.9475 48.6074 63.8875 48.5432L60.9202 45.3829C60.8047 45.259 60.8093 45.0664 60.9341 44.9471C61.0589 44.8325 61.253 44.8371 61.3732 44.9609L64.3404 48.1212C64.4559 48.2451 64.4513 48.4377 64.3265 48.557C64.2618 48.612 64.1879 48.6395 64.1139 48.6395Z" fill="#3B2645"/>
<path d="M60.8696 48.6395C60.7818 48.6395 60.694 48.6028 60.6339 48.5294C60.523 48.401 60.5369 48.2084 60.6709 48.0983L64.41 44.9379C64.5394 44.8278 64.7335 44.8415 64.8445 44.9746C64.9554 45.103 64.9415 45.2957 64.8075 45.4057L61.0684 48.5661C61.0129 48.6166 60.939 48.6395 60.8696 48.6395Z" fill="#3B2645"/>
<path d="M73.9353 30.9156L72.6088 28.9799C72.4794 28.7919 72.5303 28.5396 72.7198 28.4111C72.9093 28.2827 73.1635 28.3332 73.2929 28.5212L74.111 29.7138L77.4526 27.003C77.6282 26.8608 77.8871 26.8837 78.035 27.0626C78.1782 27.2369 78.1551 27.4938 77.9749 27.6406L73.9353 30.9156Z" fill="#3B2645"/>
<path d="M71.0144 57.2763L70.0854 55.9186C69.9883 55.7764 70.0253 55.5883 70.1686 55.492C70.3118 55.3957 70.5013 55.4324 70.5984 55.5746L71.1484 56.3773L73.4409 54.5196C73.575 54.4141 73.7691 54.4325 73.8754 54.5609C73.9817 54.6939 73.9632 54.8866 73.8338 54.9921L71.0144 57.2763Z" fill="#3B2645"/>
<path d="M70.3948 58.6068C69.2486 58.6068 68.7772 58.1298 68.5877 57.7078C68.0608 56.5336 69.1377 54.6713 70.4734 53.4328C70.5982 53.3181 70.7923 53.3227 70.9125 53.4466C71.028 53.5704 71.0234 53.7631 70.8986 53.8823C69.5953 55.0887 68.8142 56.6895 69.1562 57.4555C69.3919 57.9784 70.1591 58.0243 70.76 57.9738C72.6919 57.8041 74.1663 56.4739 74.6239 55.2492C74.7995 54.7813 74.7949 54.3731 74.6146 54.1896C74.0323 53.5979 72.1928 54.3272 71.5965 54.63C71.444 54.708 71.2591 54.6483 71.1806 54.497C71.102 54.3456 71.1621 54.1621 71.3146 54.0841C71.5919 53.9419 74.0508 52.7402 75.0583 53.7631C75.4188 54.13 75.4743 54.7492 75.2062 55.4648C74.6978 56.8317 73.1079 58.3913 70.8154 58.5885C70.6629 58.6023 70.5243 58.6068 70.3948 58.6068Z" fill="#3B2645"/>
<path d="M53.5204 57.8175L52.4066 54.992L50.9414 56.5607L50.4561 55.9323L48.8662 57.8129L53.5204 57.8175Z" fill="url(#paint12_radial_229_3680)"/>
<path d="M51.7085 54.5839C51.7501 54.3591 51.5929 54.1802 51.3618 54.1802C51.1307 54.1802 50.9135 54.3637 50.8719 54.5839C50.8303 54.8086 50.9875 54.9875 51.2186 54.9875C51.4497 54.9875 51.6669 54.8086 51.7085 54.5839Z" fill="url(#paint13_radial_229_3680)"/>
<path d="M66.8737 30.6359L65.7598 27.8104L64.2901 29.3837L63.8094 28.7507L62.2148 30.6314L66.8737 30.6359Z" fill="#3B2645"/>
<path d="M65.0619 27.4066C65.1035 27.1818 64.9464 27.0029 64.7153 27.0029C64.4842 27.0029 64.267 27.1864 64.2254 27.4066C64.1838 27.6313 64.341 27.8102 64.572 27.8102C64.7985 27.8102 65.0203 27.6267 65.0619 27.4066Z" fill="#3B2645"/>
<path opacity="0.3" d="M45.9458 44.6902C45.9458 44.6902 45.6823 49.7862 44.9521 51.8045H37.9453C37.9453 51.8045 39.3735 48.268 39.8542 45.0984L45.9458 44.6902Z" fill="#543753"/>
<path d="M45.9455 44.6899C45.9455 44.6899 45.7375 48.7861 43.995 50.8456L36.8496 50.6805C36.8496 50.6805 38.9664 48.1531 39.6227 44.6854H45.9455V44.6899Z" fill="url(#paint14_radial_229_3680)"/>
<path d="M44.42 46.6164H40.4452C40.3851 46.6164 40.3389 46.5705 40.3389 46.5109C40.3389 46.4513 40.3851 46.4054 40.4452 46.4054H44.42C44.4801 46.4054 44.5263 46.4513 44.5263 46.5109C44.5217 46.5659 44.4755 46.6164 44.42 46.6164Z" fill="#3B2645"/>
<path d="M44.0782 47.4011H40.1034C40.0433 47.4011 39.9971 47.3552 39.9971 47.2956C39.9971 47.2359 40.0433 47.1901 40.1034 47.1901H44.0782C44.1383 47.1901 44.1845 47.2359 44.1845 47.2956C44.1799 47.3552 44.1337 47.4011 44.0782 47.4011Z" fill="#3B2645"/>
<path d="M43.7081 48.1898H39.7333C39.6732 48.1898 39.627 48.144 39.627 48.0843C39.627 48.0247 39.6732 47.9788 39.7333 47.9788H43.7081C43.7682 47.9788 43.8144 48.0247 43.8144 48.0843C43.8144 48.144 43.7682 48.1898 43.7081 48.1898Z" fill="#3B2645"/>
<path d="M43.3341 49.0066H39.3592C39.2991 49.0066 39.2529 48.9607 39.2529 48.9011C39.2529 48.8415 39.2991 48.7956 39.3592 48.7956H43.3341C43.3941 48.7956 43.4404 48.8415 43.4404 48.9011C43.4404 48.9607 43.3941 49.0066 43.3341 49.0066Z" fill="#3B2645"/>
<path opacity="0.3" d="M77.5964 35.5026C77.5964 35.5026 77.3099 41.0711 76.5103 43.2728H68.8564C68.8564 43.2728 70.414 39.406 70.9409 35.9475L77.5964 35.5026Z" fill="#543753"/>
<path d="M77.5963 35.5026C77.5963 35.5026 77.3698 39.9794 75.4656 42.2269L67.6592 42.048C67.6592 42.048 69.9701 39.2867 70.6865 35.5026H77.5963Z" fill="url(#paint15_radial_229_3680)"/>
<path d="M75.9328 37.6034H71.5882C71.5235 37.6034 71.4727 37.553 71.4727 37.4888C71.4727 37.4245 71.5235 37.3741 71.5882 37.3741H75.9328C75.9975 37.3741 76.0483 37.4245 76.0483 37.4888C76.0483 37.553 75.9928 37.6034 75.9328 37.6034Z" fill="#3B2645"/>
<path d="M75.5577 38.4658H71.2132C71.1485 38.4658 71.0977 38.4154 71.0977 38.3511C71.0977 38.2869 71.1485 38.2365 71.2132 38.2365H75.5577C75.6224 38.2365 75.6732 38.2869 75.6732 38.3511C75.6732 38.4154 75.6178 38.4658 75.5577 38.4658Z" fill="#3B2645"/>
<path d="M75.1554 39.3277H70.8109C70.7462 39.3277 70.6953 39.2772 70.6953 39.213C70.6953 39.1487 70.7462 39.0983 70.8109 39.0983H75.1554C75.2202 39.0983 75.271 39.1487 75.271 39.213C75.271 39.2772 75.2202 39.3277 75.1554 39.3277Z" fill="#3B2645"/>
<path d="M74.7493 40.218H70.4046C70.3399 40.218 70.2891 40.1676 70.2891 40.1033C70.2891 40.0391 70.3399 39.9886 70.4046 39.9886H74.7493C74.814 39.9886 74.8648 40.0391 74.8648 40.1033C74.8648 40.1676 74.8093 40.218 74.7493 40.218Z" fill="#3B2645"/>
<path d="M17.4843 47.6897L10.6532 46.5338C10.6532 46.5338 9.4977 51.1528 9.18342 52.061C8.86913 52.9692 7.59349 54.6205 6.45651 58.8358C5.32414 63.0466 3.48926 66.6381 3.48926 66.6381C3.48926 66.6381 4.26111 66.5326 4.61238 67.2344C4.96364 67.9362 5.4628 69.7022 6.53046 68.9591C6.53046 68.9591 12.8717 57.8955 14.5356 54.7902C16.1994 51.6803 17.4843 47.6897 17.4843 47.6897Z" fill="#FFEDE5"/>
<path d="M10.6534 46.538C10.6534 46.538 10.3437 47.781 9.99707 49.1021C11.9198 49.8406 15.5803 49.9461 16.6757 49.9598C17.1795 48.6342 17.4799 47.6939 17.4799 47.6939L10.6534 46.538Z" fill="#DD825C"/>
<path d="M4.61736 67.2341C4.2661 66.5323 3.49424 66.6378 3.49424 66.6378C3.49424 66.6378 0.984561 67.7616 0.120269 69.2202C-0.485198 70.2385 1.45137 73.1465 2.67155 74.8024C3.22617 75.5546 4.10433 75.9996 5.04257 75.9996H8.68C8.74932 75.9996 8.80941 75.9399 8.80479 75.8711C8.76781 73.5961 7.79722 72.7383 7.03461 72.5365C6.25813 72.3301 5.87914 71.165 6.34595 70.1146C6.81738 69.0642 6.53544 68.9587 6.53544 68.9587C5.46317 69.7018 4.96862 67.9359 4.61736 67.2341Z" fill="#3B2645"/>
<path d="M11.5685 34.1262C11.5685 34.1262 9.6874 38.8048 10.7735 41.3184L9.92773 47.5657C9.92773 47.5657 14.6282 49.983 18.1038 49.24C18.1038 49.24 20.5211 41.4881 19.7631 35.2408C19.0051 28.9934 11.9475 31.9933 11.5685 34.1262Z" fill="#3B2645"/>
<path opacity="0.5" d="M16.9941 39.1169L18.5332 47.6899C18.8983 46.2496 19.4114 43.9515 19.6979 41.4104L16.9941 39.1169Z" fill="#3B2645"/>
<path d="M5.49064 73.5688C4.39987 71.8762 2.3154 68.0966 0.850266 68.3443C0.559087 68.6149 0.29564 68.9131 0.115386 69.225C-0.49008 70.2433 1.44649 73.1514 2.66667 74.8073C3.22129 75.5595 4.09945 76.0044 5.03769 76.0044H8.67511C8.74444 76.0044 8.80453 75.9448 8.7999 75.876C8.79528 75.6742 8.78604 75.4815 8.76755 75.3026C8.19444 75.2843 6.4751 75.0962 5.49064 73.5688Z" fill="#E5E5E5"/>
<path d="M2.66666 74.807C3.22129 75.5593 4.09945 76.0042 5.03769 76.0042H8.22679C7.41796 75.9583 5.69862 75.6327 4.67718 73.7979C3.30448 71.3393 1.04901 68.2294 0.115386 69.2248C-0.49008 70.243 1.44649 73.1511 2.66666 74.807Z" fill="#AFAFAF"/>
<path d="M30.6432 71.5692C31.1516 71.6425 31.1193 70.6105 31.1193 70.6105C31.1193 70.6105 28.1335 53.3363 27.736 51.685C27.3386 50.0338 26.3264 44.9377 26.3264 44.9377L20.4658 47.566C20.4658 47.566 21.9587 51.4924 22.0558 52.3777C22.1528 53.2629 22.8276 58.0241 23.8398 60.1065C24.852 62.189 27.3386 67.7666 27.6251 71.138C29.0533 70.0509 30.1348 71.4958 30.6432 71.5692Z" fill="#FFEDE5"/>
<path d="M27.1215 75.8488C27.1307 75.936 27.2093 76.0048 27.2971 76.0048H36.4115C36.5178 76.0048 36.601 75.9176 36.5964 75.8167C36.5779 75.3168 36.467 73.9866 35.8245 73.7251C35.0295 73.404 32.372 72.8766 31.5724 70.9684C31.3182 70.3584 31.1333 70.5923 31.1194 70.6107C31.1194 70.6107 31.1518 71.6427 30.6434 71.5693C30.135 71.4959 29.0534 70.0511 27.6299 71.1381C27.6299 71.1381 26.932 74.2067 27.1215 75.8488Z" fill="#3B2645"/>
<path d="M27.2969 76.0001H36.4112C36.5175 76.0001 36.6007 75.9129 36.5961 75.812C36.5915 75.6836 36.5822 75.5047 36.5545 75.3029H27.0889C27.0889 75.4955 27.1027 75.679 27.1212 75.8487C27.1305 75.9359 27.2044 76.0001 27.2969 76.0001Z" fill="#E5E5E5"/>
<path d="M21.3856 50.0888C21.3856 50.0888 24.4129 50.6713 26.9087 47.8045L26.331 44.9377L20.4658 47.566L21.3856 50.0888Z" fill="#DD825C"/>
<path d="M24.8795 34.7044C24.8795 34.7044 26.6174 42.0571 27.7359 47.0156C27.7359 47.0156 25.0459 50.3227 20.3917 49.3411C20.3917 49.3411 18.5198 43.6213 18.224 43.0479C17.9282 42.4745 14.4803 37.9244 15.9778 34.3604C17.4753 30.7963 23.5068 31.6266 24.8795 34.7044Z" fill="#3B2645"/>
<path d="M22.4993 13.4668C22.4993 13.4668 18.3951 12.3935 16.9947 12.421C15.5943 12.4439 13.4728 14.2282 12.872 18.0078C12.2711 21.7874 12.5577 26.8376 12.2711 28.443C11.98 30.0484 10.8984 34.571 10.8984 34.6398C10.8984 34.7132 16.5094 36.3691 18.5199 36.3324C20.5258 36.2957 21.122 35.9563 21.122 35.9563C21.122 35.9563 22.0279 34.3417 22.0788 34.4105C22.1342 34.4839 22.712 35.8278 22.712 35.8278L25.1847 35.4288C25.1847 35.4288 24.3666 30.5805 24.3897 29.9612C24.4128 29.3374 25.3649 19.8013 25.5359 19.0582C25.6977 18.3197 25.2725 14.6548 22.4993 13.4668Z" fill="#AA8CA7"/>
<path opacity="0.5" d="M21.298 20.5948L24.4039 29.7227C24.5333 28.1035 25.3745 19.7554 25.5317 19.0628C25.7027 18.3197 25.2728 14.6548 22.4997 13.4668C22.4997 13.4668 18.3955 12.3935 16.9951 12.421C16.8194 12.4256 16.6345 12.4531 16.4404 12.5127L23.0358 16.3198L21.298 20.5948Z" fill="#543753"/>
<path d="M26.5809 5.2835C26.5809 5.2835 25.8553 12.0125 23.7061 13.072C21.5523 14.1316 19.6897 9.3016 19.9069 7.39805C20.1242 5.49449 23.5952 2.80658 26.5809 5.2835Z" fill="#FFEDE5"/>
<path d="M23.336 8.9167C23.336 8.9167 24.0616 8.80202 24.2835 7.47183C24.2835 7.47183 25.1894 7.21955 25.0138 6.02696C25.0138 6.02696 26.2524 6.67371 27.1398 6.15998C28.0272 5.64625 28.2444 4.39403 28.0873 4.18763C27.9348 3.98122 27.6436 4.12341 27.6436 4.12341C27.6436 4.12341 28.0503 2.65561 26.2617 2.63726C24.473 2.61433 22.9986 1.71988 21.7599 1.40339C20.5213 1.0869 18.6217 2.00427 18.6217 3.77481C18.6217 3.77481 16.3801 4.59586 17.5956 9.10476C18.8112 13.6137 22.4671 11.6184 22.4671 11.6184C22.4671 11.6184 22.1713 9.00385 23.336 8.9167Z" fill="#3B2645"/>
<path d="M23.1019 10.2163C23.5724 10.0895 23.7901 9.3882 23.5882 8.64985C23.3862 7.91151 22.841 7.41573 22.3705 7.5425C21.9 7.66927 21.6823 8.37058 21.8843 9.10893C22.0862 9.84728 22.6314 10.3431 23.1019 10.2163Z" fill="#FFEDE5"/>
<path d="M39.1885 22.9207L44.3003 24.0399C44.4112 24.0629 44.4851 23.9299 44.4066 23.8473L40.4872 20.0585L39.1885 22.9207Z" fill="#F2F9FF"/>
<path d="M39.3274 21.2644C38.99 22.0717 38.9299 22.8147 39.1888 22.9202C39.4476 23.0257 39.9329 22.4615 40.2703 21.6497C40.6077 20.8424 40.6677 20.0993 40.4089 19.9938C40.1455 19.8883 39.6602 20.4571 39.3274 21.2644Z" fill="url(#paint16_radial_229_3680)"/>
<path d="M39.1891 22.9205L0.453125 4.24736L2.21868 0.0136719L40.4093 19.9941L39.1891 22.9205Z" fill="url(#paint17_radial_229_3680)"/>
<path d="M43.4365 23.8518C43.5752 23.5858 43.663 23.3656 43.7138 23.1867L44.421 23.8701C44.4949 23.9435 44.4302 24.072 44.3239 24.049L43.4365 23.8518Z" fill="#3B2645"/>
<path d="M6.25359 2.12383C6.41073 2.51371 6.28132 3.38063 5.88846 4.32095C5.44938 5.37593 4.83467 6.14652 4.44181 6.17404L2.2002 5.09154L3.94265 0.91748L6.25359 2.12383Z" fill="#3B2645"/>
<path d="M4.19197 1.05464L4.48315 1.20601C4.68189 1.5592 4.5571 2.48116 4.14113 3.46734C3.68818 4.55443 3.05036 5.33878 2.66212 5.32044L2.48649 5.23787L0.448242 4.25169L2.2138 0.0180054L4.19197 1.05464Z" fill="#EEEEEE"/>
<path d="M2.01503 2.41707C2.50322 1.24683 2.59308 0.172483 2.21574 0.0174472C1.83841 -0.137589 1.13677 0.685398 0.648584 1.85564C0.1604 3.02588 0.0705387 4.10023 0.447874 4.25527C0.825209 4.4103 1.52685 3.58731 2.01503 2.41707Z" fill="#EEEEEE"/>
<path d="M18.4737 11.3755C18.3858 11.3755 18.2934 11.3571 18.2102 11.3113L1.75169 2.92646C1.46975 2.77968 1.35421 2.43566 1.50211 2.15586C1.65001 1.87606 1.99665 1.76139 2.27858 1.90817L18.7371 10.2884C19.019 10.4352 19.1346 10.7792 18.9867 11.059C18.885 11.2608 18.6816 11.3755 18.4737 11.3755Z" fill="#EEEEEE"/>
<path d="M37.6503 18.4485C37.5856 18.1183 35.173 16.8982 35.0205 16.8156C34.8679 16.733 34.6184 16.9624 34.6184 16.9624L34.8356 17.0771C34.8356 17.0771 34.7016 17.733 34.6369 18.0311C34.5721 18.3293 33.523 19.4576 33.523 19.4576C33.523 19.4576 33.2133 19.1778 32.8528 18.7329C32.4923 18.288 32.0763 18.3384 32.0486 18.421C32.0209 18.5036 32.6079 19.8567 32.691 19.9897C32.7742 20.1227 33.1995 20.8979 33.1995 21.0401C33.1995 21.1823 29.807 24.8381 29.807 24.8381C29.502 24.1638 28.9797 23.3519 28.4435 22.5767C27.4822 24.1133 25.5318 25.5353 24.2607 26.3563C25.1944 27.4663 28.1662 30.8469 29.6637 30.6496C31.4524 30.4157 35.4041 22.7602 35.5243 22.5354C35.6398 22.3107 35.8154 22.2373 36.5318 21.641C37.2482 21.0447 37.7104 18.7834 37.6503 18.4485Z" fill="#FFEDE5"/>
<path d="M28.4387 22.5731C27.7039 21.5043 26.9505 20.5136 26.7379 20.064C26.3774 19.2889 25.5917 15.6239 23.4702 15.5735C21.3488 15.5276 20.7109 17.633 20.7109 20.064C20.7109 22.4951 23.9647 26.0086 23.9647 26.0086C23.9647 26.0086 24.0711 26.1416 24.2513 26.3572C25.5223 25.5316 27.4728 24.1051 28.4387 22.5731Z" fill="#AA8CA7"/>
<path opacity="0.5" d="M23.4701 15.5678C22.9802 15.5587 22.5735 15.6596 22.2314 15.8568L25.989 18.0264C25.476 16.8384 24.6995 15.5954 23.4701 15.5678Z" fill="#543753"/>
</g>
<defs>
<linearGradient id="paint0_linear_229_3680" x1="27.4941" y1="41.9539" x2="115.234" y2="41.9539" gradientUnits="userSpaceOnUse">
<stop offset="0.0747467" stop-color="#97C1FB"/>
<stop offset="0.6348" stop-color="#94B2FB"/>
<stop offset="1" stop-color="#91A5FB"/>
</linearGradient>
<linearGradient id="paint1_linear_229_3680" x1="19.2505" y1="41.9539" x2="106.99" y2="41.9539" gradientUnits="userSpaceOnUse">
<stop offset="0.0747467" stop-color="#97C1FB"/>
<stop offset="0.6348" stop-color="#94B2FB"/>
<stop offset="1" stop-color="#91A5FB"/>
</linearGradient>
<radialGradient id="paint2_radial_229_3680" cx="0" cy="0" r="1" gradientUnits="userSpaceOnUse" gradientTransform="translate(79.4256 10.9246) scale(24.4804 24.295)">
<stop offset="0.0747467" stop-color="#F99E96"/>
<stop offset="0.7122" stop-color="#F78F98"/>
<stop offset="1" stop-color="#F68699"/>
</radialGradient>
<radialGradient id="paint3_radial_229_3680" cx="0" cy="0" r="1" gradientUnits="userSpaceOnUse" gradientTransform="translate(79.4256 10.9244) scale(24.4804 24.295)">
<stop offset="0.0747467" stop-color="#F99E96"/>
<stop offset="0.7122" stop-color="#F78F98"/>
<stop offset="1" stop-color="#F68699"/>
</radialGradient>
<radialGradient id="paint4_radial_229_3680" cx="0" cy="0" r="1" gradientUnits="userSpaceOnUse" gradientTransform="translate(79.4253 10.9246) scale(24.4804 24.2952)">
<stop offset="0.0747467" stop-color="#F99E96"/>
<stop offset="0.7122" stop-color="#F78F98"/>
<stop offset="1" stop-color="#F68699"/>
</radialGradient>
<radialGradient id="paint5_radial_229_3680" cx="0" cy="0" r="1" gradientUnits="userSpaceOnUse" gradientTransform="translate(79.4261 10.925) scale(24.4806 24.295)">
<stop offset="0.0747467" stop-color="#F99E96"/>
<stop offset="0.7122" stop-color="#F78F98"/>
<stop offset="1" stop-color="#F68699"/>
</radialGradient>
<radialGradient id="paint6_radial_229_3680" cx="0" cy="0" r="1" gradientUnits="userSpaceOnUse" gradientTransform="translate(79.426 10.9246) scale(24.4804 24.295)">
<stop offset="0.0747467" stop-color="#F99E96"/>
<stop offset="0.7122" stop-color="#F78F98"/>
<stop offset="1" stop-color="#F68699"/>
</radialGradient>
<radialGradient id="paint7_radial_229_3680" cx="0" cy="0" r="1" gradientUnits="userSpaceOnUse" gradientTransform="translate(79.4262 10.9246) scale(24.4804 24.295)">
<stop offset="0.0747467" stop-color="#F99E96"/>
<stop offset="0.7122" stop-color="#F78F98"/>
<stop offset="1" stop-color="#F68699"/>
</radialGradient>
<radialGradient id="paint8_radial_229_3680" cx="0" cy="0" r="1" gradientUnits="userSpaceOnUse" gradientTransform="translate(79.426 10.9246) scale(24.4804 24.295)">
<stop offset="0.0747467" stop-color="#F99E96"/>
<stop offset="0.7122" stop-color="#F78F98"/>
<stop offset="1" stop-color="#F68699"/>
</radialGradient>
<radialGradient id="paint9_radial_229_3680" cx="0" cy="0" r="1" gradientUnits="userSpaceOnUse" gradientTransform="translate(79.4262 10.9246) scale(24.4807 24.295)">
<stop offset="0.0747467" stop-color="#F99E96"/>
<stop offset="0.7122" stop-color="#F78F98"/>
<stop offset="1" stop-color="#F68699"/>
</radialGradient>
<radialGradient id="paint10_radial_229_3680" cx="0" cy="0" r="1" gradientUnits="userSpaceOnUse" gradientTransform="translate(79.426 10.9246) scale(24.4804 24.295)">
<stop offset="0.0747467" stop-color="#F99E96"/>
<stop offset="0.7122" stop-color="#F78F98"/>
<stop offset="1" stop-color="#F68699"/>
</radialGradient>
<radialGradient id="paint11_radial_229_3680" cx="0" cy="0" r="1" gradientUnits="userSpaceOnUse" gradientTransform="translate(79.4259 10.9246) scale(24.4804 24.295)">
<stop offset="0.0747467" stop-color="#F99E96"/>
<stop offset="0.7122" stop-color="#F78F98"/>
<stop offset="1" stop-color="#F68699"/>
</radialGradient>
<radialGradient id="paint12_radial_229_3680" cx="0" cy="0" r="1" gradientUnits="userSpaceOnUse" gradientTransform="translate(53.7799 53.4269) scale(8.69533 8.62946)">
<stop offset="0.0747467" stop-color="#F99E96"/>
<stop offset="0.7122" stop-color="#F78F98"/>
<stop offset="1" stop-color="#F68699"/>
</radialGradient>
<radialGradient id="paint13_radial_229_3680" cx="0" cy="0" r="1" gradientUnits="userSpaceOnUse" gradientTransform="translate(53.7798 53.427) scale(8.69546 8.6295)">
<stop offset="0.0747467" stop-color="#F99E96"/>
<stop offset="0.7122" stop-color="#F78F98"/>
<stop offset="1" stop-color="#F68699"/>
</radialGradient>
<radialGradient id="paint14_radial_229_3680" cx="0" cy="0" r="1" gradientUnits="userSpaceOnUse" gradientTransform="translate(47.1609 44.0578) scale(9.24615 9.17624)">
<stop offset="0.0747467" stop-color="#F99E96"/>
<stop offset="0.7122" stop-color="#F78F98"/>
<stop offset="1" stop-color="#F68699"/>
</radialGradient>
<radialGradient id="paint15_radial_229_3680" cx="0" cy="0" r="1" gradientUnits="userSpaceOnUse" gradientTransform="translate(78.6301 33.8272) scale(9.91827 9.84306)">
<stop offset="0.0747467" stop-color="#F99E96"/>
<stop offset="0.7122" stop-color="#F78F98"/>
<stop offset="1" stop-color="#F68699"/>
</radialGradient>
<radialGradient id="paint16_radial_229_3680" cx="0" cy="0" r="1" gradientUnits="userSpaceOnUse" gradientTransform="translate(47.8123 19.2882) scale(30.7848 30.552)">
<stop offset="0.0747467" stop-color="#F99E96"/>
<stop offset="0.7122" stop-color="#F78F98"/>
<stop offset="1" stop-color="#F68699"/>
</radialGradient>
<radialGradient id="paint17_radial_229_3680" cx="0" cy="0" r="1" gradientUnits="userSpaceOnUse" gradientTransform="translate(47.8128 19.2885) scale(30.7852 30.5521)">
<stop offset="0.0747467" stop-color="#F99E96"/>
<stop offset="0.7122" stop-color="#F78F98"/>
<stop offset="1" stop-color="#F68699"/>
</radialGradient>
<clipPath id="clip0_229_3680">
<rect width="116" height="76" fill="white"/>
</clipPath>
</defs>
</svg>
