<svg width="75" height="106" viewBox="0 0 75 106" fill="none" xmlns="http://www.w3.org/2000/svg">
<path d="M35.8484 105.934C34.1703 105.937 32.4967 105.758 30.8565 105.402C27.9896 104.812 25.2891 103.59 22.9494 101.827C20.6098 100.063 18.6892 97.8012 17.3261 95.2035C16.2445 92.7737 15.441 90.2288 14.931 87.6175L14.8133 87.1202C13.1325 79.9387 11.0147 72.3443 7.10688 65.4831C6.47658 64.3789 5.78746 63.2748 5.12354 62.2127C3.51733 59.8079 2.15739 57.2466 1.06443 54.5677C-0.616368 49.9739 -0.305421 45.4054 1.98886 42.3963C2.29108 41.9288 2.68431 41.5273 3.14497 41.2159C3.60564 40.9045 4.12425 40.6896 4.66973 40.5841C5.00211 40.5438 5.3392 40.5724 5.66013 40.6681C5.98105 40.7638 6.27896 40.9245 6.53541 41.1404C6.73545 41.3004 6.89951 41.501 7.01683 41.7291C7.13414 41.9572 7.20206 42.2075 7.21613 42.4638H6.66987C6.65672 42.285 6.60659 42.1111 6.52266 41.9529C6.43874 41.7947 6.32287 41.6558 6.18244 41.545C5.98291 41.3788 5.7522 41.2544 5.50393 41.1791C5.25567 41.1038 4.99487 41.0792 4.73696 41.1067C3.79016 41.3231 2.96266 41.8966 2.42587 42.7082C0.249241 45.5825 -0.0953222 49.9402 1.58547 54.357C2.66918 57.0167 4.02083 59.5586 5.61938 61.943C6.28329 63.0135 6.97241 64.1176 7.61112 65.2303C11.5274 72.142 13.6704 79.7786 15.3512 87.0022L15.4688 87.4995C15.9681 90.0676 16.7576 92.5702 17.8219 94.9591C19.1466 97.4834 21.0135 99.6813 23.2879 101.394C25.5624 103.107 28.1876 104.292 30.9741 104.863C36.6088 105.983 42.4548 105.188 47.5888 102.604C49.6444 101.685 51.5004 100.371 53.0514 98.7352C54.6291 96.8199 55.8452 94.6318 56.6399 92.2787C58.0433 88.5868 59.1611 84.6926 60.1695 80.9418C61.7243 75.345 63.3294 69.5543 66.0523 64.3115C66.8927 62.7774 67.7331 61.2687 68.6239 59.8105C70.2919 57.1934 71.6994 54.4182 72.8259 51.5248C73.7924 48.777 73.8344 46.4675 72.9604 44.7817C72.6535 44.2195 72.2272 43.7318 71.7117 43.3531C71.1962 42.9744 70.6039 42.714 69.977 42.5902C69.5393 42.4864 69.0835 42.4864 68.6458 42.5903C68.2081 42.6942 67.8006 42.8991 67.4558 43.1886L67.0944 42.7756C67.4998 42.4277 67.9807 42.1794 68.4986 42.0507C69.0165 41.9219 69.5573 41.9162 70.0778 42.0339C70.7892 42.1811 71.4594 42.4842 72.0405 42.9213C72.6216 43.3584 73.0992 43.9188 73.4394 44.5626C74.389 46.4169 74.347 48.8276 73.3301 51.7271C72.1919 54.657 70.7616 57.464 69.0609 60.1055C68.2205 61.5637 67.2961 63.064 66.5397 64.5812C63.8505 69.7734 62.2537 75.5388 60.7074 81.1019C59.6569 84.8781 58.5728 88.7807 57.1525 92.4894C56.34 94.9076 55.0924 97.156 53.4716 99.1229C51.8696 100.811 49.954 102.168 47.8325 103.118C44.0973 104.942 40.0025 105.904 35.8484 105.934Z" fill="url(#paint0_linear_120_816)"/>
<path d="M42.0166 7.78691C42.4511 7.09513 42.7001 6.30248 42.7393 5.48581C42.7868 5.11904 42.7534 4.74629 42.6416 4.39385C42.5298 4.04141 42.3423 3.71786 42.0922 3.44601C41.8821 3.24372 41.6216 3.08357 41.4283 2.86442C41.235 2.64527 41.1426 2.41769 40.9829 2.20696C40.8098 1.98089 40.5871 1.79789 40.332 1.67217C40.0769 1.54646 39.7964 1.48141 39.5122 1.48208C38.9323 1.48208 38.3189 1.7518 37.8314 1.48208C37.5289 1.33036 37.3272 1.02691 36.991 0.858336C36.6746 0.696833 36.3117 0.652078 35.9657 0.731902C35.6635 0.837623 35.3444 0.886208 35.0245 0.875194C34.5707 0.807762 34.2597 0.403174 33.8563 0.175593C33.649 0.0692607 33.4209 0.00970933 33.1882 0.001115C32.9555 -0.00747933 32.7237 0.0350915 32.5091 0.125842C32.2945 0.216593 32.1023 0.353327 31.946 0.526457C31.7896 0.699586 31.6729 0.90492 31.6041 1.12806C31.5493 1.34091 31.5493 1.56424 31.6041 1.77709C31.6965 2.29125 32.0495 2.70427 32.0747 3.21843C32.0999 3.7326 31.789 4.17933 32.0747 4.63449C32.3604 5.08965 32.7806 5.10651 32.9823 5.53639C33.2513 6.11798 32.9823 6.87658 33.2261 7.50032C33.3521 7.89648 33.4193 8.46122 33.7891 8.71409C34.3018 9.0681 35.4195 8.77309 36.033 8.71409L38.4113 8.52022C39.4618 8.41908 40.756 8.52022 41.7057 7.99763C41.8203 7.94533 41.9254 7.8741 42.0166 7.78691Z" fill="#3B2645"/>
<path d="M33.9491 7.41585C33.8657 7.30092 33.7563 7.2074 33.63 7.14292C33.5037 7.07844 33.3639 7.04483 33.2222 7.04483C33.0804 7.04483 32.9407 7.07844 32.8144 7.14292C32.688 7.2074 32.5787 7.30092 32.4952 7.41585C31.7641 8.25874 32.9995 9.94453 33.9491 10.0457C34.0044 9.16994 34.0044 8.29158 33.9491 7.41585Z" fill="#E0855C"/>
<path d="M45.7569 21.5347C45.5354 22.9545 45.238 24.3613 44.8661 25.7491C44.8072 26.0104 44.7568 26.2633 44.7232 26.5077C44.6896 26.7522 44.656 26.9376 44.614 27.2495C44.614 27.3085 44.614 27.3759 44.614 27.4349C44.614 27.6372 44.5551 27.8479 44.5299 28.0755L43.471 37.9795C36.8907 39.7917 30.0247 37.9795 30.0247 37.9795C30.0247 37.9795 30.0247 37.8531 30.0247 37.6086C29.9154 36.4876 29.5793 32.9221 29.2431 28.9016C29.2431 28.9016 29.2431 28.8426 29.2431 28.8173C29.2465 28.7555 29.2465 28.6936 29.2431 28.6318C29.1002 26.946 28.9658 25.1591 28.8565 23.4565C28.6548 20.4979 28.5288 17.767 28.554 16.0727C28.554 15.449 30.0079 15.5164 30.9995 15.3816C31.7307 15.2804 32.4786 15.213 33.1257 15.1793C33.7728 15.1456 34.2603 15.1287 34.588 15.1287H34.9578C34.9578 15.1287 35.0418 14.1594 35.0418 14.1509L35.2687 11.774C35.3791 11.8025 35.4915 11.8222 35.6049 11.833C35.8129 11.8721 36.0237 11.8946 36.2352 11.9004C36.5125 11.9004 36.7731 11.9004 37.0168 11.9004L37.3781 11.8583H37.5882C37.8236 11.8161 38.0505 11.7656 38.2606 11.7066C38.4707 11.6476 38.5379 11.6223 38.6724 11.5801C39.2863 11.3828 39.8692 11.099 40.4036 10.7372L40.4792 10.6867L40.6221 10.5771L40.7229 10.5012C40.7229 10.6192 40.7229 10.6698 40.7229 10.7204C40.6557 11.2767 40.5801 11.9847 40.5464 12.6843C40.5464 13.1732 40.496 13.6536 40.4792 14.0667C40.4624 14.4797 40.3279 15.0781 40.6221 15.2888C40.727 15.348 40.8404 15.3906 40.9582 15.4153C41.4195 15.4883 41.8864 15.5194 42.3533 15.508C42.4962 15.508 42.639 15.508 42.7819 15.508C43.1402 15.4871 43.4993 15.4871 43.8576 15.508C44.108 15.5073 44.356 15.5569 44.5869 15.6539C44.8179 15.7509 45.0271 15.8933 45.2022 16.0727C45.42 16.389 45.5584 16.7533 45.6056 17.1348L45.7065 17.826C45.8664 19.0561 45.8834 20.3006 45.7569 21.5347Z" fill="#FFEDE5"/>
<path d="M40.689 10.4419C40.5754 11.0451 40.3299 11.6156 39.9702 12.1123C39.6105 12.609 39.1455 13.0196 38.6088 13.3146C38.072 13.6096 37.4767 13.7816 36.8657 13.8183C36.2547 13.855 35.6433 13.7555 35.0752 13.5269L35.2349 11.7821C36.1866 11.9663 37.1667 11.9418 38.1081 11.7105C39.0496 11.4792 39.93 11.0464 40.689 10.4419Z" fill="#E0855C"/>
<path d="M34.1175 4.88758C33.6301 5.39332 33.5881 6.52279 33.5544 7.77027C33.4284 11.5633 34.5629 12.7433 36.4874 12.9541C38.4119 13.1648 40.4373 12.4146 40.8491 8.90818C41.0592 7.14653 41.2777 5.53661 40.639 4.76958C39.723 3.6401 35.5966 3.33666 34.1175 4.88758Z" fill="#FFEDE5"/>
<path d="M40.5633 8.39412C40.5633 8.39412 41.1516 6.82634 42.0844 7.6608C43.0173 8.49526 41.7315 10.8638 40.3028 10.6868C40.3196 10.6868 40.1263 8.93357 40.5633 8.39412Z" fill="#FFEDE5"/>
<path d="M41.6727 8.37696C41.4521 8.44608 41.2545 8.57432 41.1012 8.74783C40.9277 8.89324 40.7872 9.07432 40.6895 9.27885C40.6895 9.33785 40.7483 9.38 40.7903 9.33785C40.9088 9.22022 41.021 9.09643 41.1265 8.96698C41.2031 9.05176 41.2979 9.11804 41.4038 9.16084C41.4878 9.16084 41.5551 9.08498 41.5214 9.01755C41.4632 8.92829 41.3857 8.85338 41.2945 8.7984C41.4514 8.69764 41.6003 8.58493 41.7399 8.46125C41.7426 8.4511 41.7428 8.44049 41.7406 8.43025C41.7384 8.42 41.7339 8.41041 41.7274 8.40223C41.7208 8.39405 41.7125 8.38751 41.703 8.38312C41.6935 8.37873 41.6832 8.37662 41.6727 8.37696Z" fill="#E0855C"/>
<path d="M35.2099 7.6857C35.2099 7.6857 34.8821 7.80371 34.9325 7.22211C34.9829 6.64052 35.2099 6.77538 35.2099 6.77538C35.2099 6.77538 35.4368 6.77538 35.4031 7.23054C35.3695 7.6857 35.2099 7.6857 35.2099 7.6857Z" fill="#3B2645"/>
<path d="M38.5126 7.6857C38.5126 7.6857 38.1933 7.80371 38.2437 7.22211C38.2941 6.64052 38.5126 6.77538 38.5126 6.77538C38.5126 6.77538 38.7395 6.77538 38.7059 7.23054C38.6723 7.6857 38.5126 7.6857 38.5126 7.6857Z" fill="#3B2645"/>
<path d="M35.5626 5.92414C35.4306 5.84915 35.2783 5.81775 35.1275 5.83439C34.9767 5.85104 34.8349 5.91488 34.7222 6.01686C34.7165 6.02839 34.7138 6.04118 34.7144 6.05403C34.715 6.06689 34.7189 6.07938 34.7256 6.09034C34.7323 6.1013 34.7417 6.11036 34.7529 6.11668C34.764 6.12299 34.7766 6.12635 34.7895 6.12644C34.9071 6.12644 35.008 6.05901 35.1256 6.05058C35.2489 6.04469 35.372 6.06479 35.487 6.10958C35.5962 6.1433 35.6719 5.97472 35.5626 5.92414Z" fill="#3B2645"/>
<path d="M39.0081 6.21098C38.8737 5.87382 38.2938 5.84853 38.0417 6.05083C38.0295 6.06028 38.0196 6.07241 38.0128 6.08629C38.006 6.10017 38.0024 6.11543 38.0024 6.1309C38.0024 6.14637 38.006 6.16163 38.0128 6.17551C38.0196 6.18939 38.0295 6.20153 38.0417 6.21098C38.1927 6.2236 38.3445 6.2236 38.4955 6.21098C38.6177 6.23072 38.7365 6.2676 38.8485 6.32055C38.8629 6.34179 38.8853 6.35638 38.9105 6.36113C38.9357 6.36587 38.9617 6.36037 38.9829 6.34584C39.0041 6.33131 39.0186 6.30894 39.0234 6.28364C39.0281 6.25835 39.0226 6.23221 39.0081 6.21098Z" fill="#3B2645"/>
<path d="M35.8735 10.3999C36.5825 10.4931 37.303 10.3697 37.9409 10.0458C37.8455 10.2708 37.7043 10.4732 37.5262 10.6401C37.3482 10.807 37.1374 10.9348 36.9072 11.0152C36.1761 11.2175 35.8735 10.3999 35.8735 10.3999Z" fill="white"/>
<path d="M31.6296 16.0642C33.5625 17.4212 33.739 20.0595 32.7978 22.1667C32.1591 23.5743 30.9741 24.5605 30.2766 25.8923C29.5497 27.1839 28.7057 28.4057 27.7554 29.542C25.6712 32.1971 23.6879 34.5994 22.9231 35.5097C20.2927 38.6621 14.7629 42.826 12.7711 44.2758C12.3173 44.6129 12.0484 44.7983 12.0484 44.7983C12.0484 44.7983 10.1407 43.7953 10.6449 41.9409C10.6449 41.9409 18.2085 33.8829 19.3262 32.2393C20.5614 30.1029 21.6835 27.9027 22.6878 25.6478C23.9764 23.1473 25.3182 20.6804 26.7133 18.2473C27.352 17.1262 28.1672 15.7186 29.5706 15.4657C30.137 15.4019 30.7088 15.5231 31.201 15.8113C31.3497 15.8852 31.4929 15.9697 31.6296 16.0642Z" fill="#FFEDE5"/>
<path d="M10.6451 41.9496C10.8521 41.9336 11.06 41.9336 11.267 41.9496C11.267 41.9496 13.0822 42.961 12.7713 44.2759C12.7713 44.2759 12.578 44.4529 12.2755 44.7227C11.9729 44.9924 11.6452 45.3127 11.2502 45.7173C10.8552 46.1219 9.95596 47.4031 9.56938 47.2935C9.47928 47.2601 9.40055 47.2016 9.34247 47.1249L8.5609 46.282C8.12389 45.7931 7.39275 44.9671 7.94741 44.3181C7.54402 44.5625 6.60277 45.161 6.14056 44.8744L5.94727 44.5625C5.94727 44.5625 7.33392 43.5258 7.90539 43.0116C8.67632 42.3633 9.63985 41.9898 10.6451 41.9496Z" fill="#FFEDE5"/>
<path d="M33.924 28.9774C33.9212 29.0224 33.9212 29.0675 33.924 29.1124C33.924 29.1124 33.9998 29.1124 33.983 29.1124L33.924 28.9774Z" fill="#D6BED3"/>
<path d="M37.0417 56.2955C36.2685 62.5076 35.3609 67.9106 35.3609 67.9106C35.4869 69.4109 35.5458 71.0377 35.5458 72.7066C35.5458 75.977 35.3273 79.4498 35.0499 82.5095C34.697 86.412 34.2095 89.733 33.9994 91.402V91.6127C34.3104 102.68 31.1673 104.146 29.6966 101.727C28.2259 99.3083 29.6966 92.1774 29.6966 92.1774C29.7013 92.1129 29.7013 92.0481 29.6966 91.9836C29.0779 88.6719 28.6653 85.3247 28.4612 81.9616C27.957 73.8192 28.8226 68.2477 28.7218 67.2363C26.9653 49.5355 29.4193 39.7748 29.4193 39.7748C29.8024 38.3565 30.4941 37.041 31.4446 35.9228C33.2347 33.9842 35.3861 34.4731 36.7391 36.8416C36.8814 37.0845 37.0105 37.3349 37.1257 37.5918C37.677 38.9522 37.9898 40.398 38.0502 41.8652C38.1846 45.5318 37.672 51.1876 37.0417 56.2955Z" fill="#FFEDE5"/>
<path d="M45.7233 81.5316C45.5278 84.9649 45.118 88.3825 44.4963 91.7643L44.4207 92.1773C44.4207 92.1773 45.8914 99.3335 44.4207 101.727C42.95 104.121 39.8405 102.722 40.1179 91.7643C40.1179 91.7137 40.1179 91.6632 40.1179 91.621C39.8825 90.0364 39.4119 86.6058 39.0421 82.5431C38.7564 79.4581 38.5379 76.0022 38.5379 72.7318C38.5379 71.046 38.6051 69.4277 38.7312 67.9189C38.7312 67.9189 37.7984 62.516 37.0504 56.3123C36.4201 51.1959 35.8991 45.5401 36.1176 41.9072C36.1804 40.4395 36.496 38.9936 37.0504 37.6338C37.1605 37.369 37.2897 37.1127 37.437 36.8668C38.9917 34.1611 41.5801 33.9251 43.4878 36.9763C44.0343 37.8608 44.4637 38.8128 44.7652 39.8084C44.7652 39.8084 47.2192 49.5439 45.4628 67.2699C45.3367 68.2645 46.1687 73.6421 45.7233 81.5316Z" fill="#FFEDE5"/>
<path d="M10.4433 47.4199C10.6107 47.6143 10.8187 47.7694 11.0525 47.8743C11.2863 47.9792 11.5402 48.0312 11.7963 48.0268C11.9136 47.9994 12.0242 47.9485 12.1213 47.877C12.2184 47.8056 12.3001 47.7151 12.3613 47.6111C12.4226 47.5071 12.4622 47.3917 12.4778 47.2719C12.4933 47.1521 12.4845 47.0304 12.4518 46.9142C12.3541 46.6578 12.1954 46.4292 11.9896 46.2483C10.7206 44.9839 9.41797 43.7196 8.09855 42.548C7.87806 42.2987 7.58338 42.1273 7.25815 42.0591C6.95569 42.059 6.66299 42.1665 6.43215 42.3625C6.20131 42.5585 6.04731 42.8304 5.99756 43.1296C5.99756 43.669 6.45978 43.8713 6.83796 44.1748C8.03132 45.2368 9.22468 46.3494 10.4433 47.4199Z" fill="#3B2645"/>
<path d="M10.2583 45.9276C10.3106 45.8735 10.3533 45.8108 10.3844 45.7422C10.4057 45.6551 10.4069 45.5643 10.388 45.4767C10.3691 45.389 10.3305 45.3069 10.2751 45.2365C9.96418 44.7223 9.32548 43.8963 8.69519 43.8204C8.48709 43.8098 8.27985 43.854 8.09408 43.9486C7.9083 44.0433 7.75047 44.185 7.63629 44.3598C7.44769 44.632 7.32775 44.946 7.28677 45.2748C7.24578 45.6037 7.28497 45.9376 7.40098 46.2479C7.58543 46.8062 7.96436 47.279 8.46828 47.5797C8.71974 47.6866 9.00265 47.6919 9.25791 47.5945C9.51317 47.4971 9.72105 47.3046 9.83813 47.0571C9.96419 46.7452 9.92217 46.3659 10.1239 46.1046C10.1621 46.0409 10.2072 45.9815 10.2583 45.9276Z" fill="#FFEDE5"/>
<path d="M42.4202 16.0643C40.4789 17.4214 40.3024 20.0596 41.2521 22.1669C41.8824 23.5745 43.0674 24.5607 43.7733 25.8924C44.5061 27.1804 45.3497 28.4016 46.2945 29.5422C48.3787 32.1973 50.3704 34.5995 51.1268 35.5098C53.7656 38.6791 59.2954 42.8261 61.2872 44.2759L62.0183 44.7985C62.0183 44.7985 63.9176 43.7955 63.4134 41.9411C63.4134 41.9411 55.8498 33.8831 54.7321 32.2394C53.4935 30.1049 52.3713 27.9045 51.3705 25.648C50.0763 23.1193 48.74 20.6834 47.3366 18.2474C46.6979 17.1264 45.8911 15.7187 44.4792 15.4659C43.9129 15.4026 43.3413 15.5238 42.8489 15.8115C42.7 15.885 42.5567 15.9695 42.4202 16.0643Z" fill="#FFEDE5"/>
<path d="M63.4053 41.9495C63.1955 41.9336 62.9848 41.9336 62.775 41.9495C62.775 41.9495 60.9597 42.9609 61.2707 44.2758C61.2707 44.2758 61.4724 44.4529 61.7665 44.7226C62.0607 44.9923 62.4052 45.3126 62.7918 45.7172C63.1784 46.1218 64.0944 47.403 64.4726 47.2934C64.5615 47.2578 64.6396 47.1997 64.6995 47.1248L65.4727 46.2819C65.9181 45.7931 66.6408 44.967 66.0946 44.318C66.4896 44.5624 67.4308 45.1609 67.9014 44.8743L68.0611 44.5624C68.0611 44.5624 66.6744 43.5257 66.0946 43.0115C65.3385 42.3714 64.3936 41.9982 63.4053 41.9495Z" fill="#FFEDE5"/>
<path d="M63.5983 47.4198C63.4309 47.6142 63.2229 47.7693 62.9891 47.8742C62.7553 47.9791 62.5014 48.0311 62.2453 48.0267C62.1265 48.0013 62.0141 47.9517 61.9151 47.8811C61.8161 47.8104 61.7325 47.7203 61.6695 47.616C61.6065 47.5118 61.5655 47.3958 61.5489 47.2751C61.5323 47.1544 61.5405 47.0315 61.573 46.9141C61.6778 46.669 61.8391 46.4523 62.0436 46.2819C63.3154 45.0176 64.6152 43.7841 65.943 42.5816C66.1623 42.3309 66.4575 42.1592 66.7834 42.0927C67.0849 42.0929 67.3765 42.2007 67.6059 42.3969C67.8354 42.593 67.9877 42.8647 68.0356 43.1632C68.0356 43.7027 67.5818 43.905 67.1952 44.2084C66.0102 45.2367 64.8169 46.3494 63.5983 47.4198Z" fill="#3B2645"/>
<path d="M63.7919 45.9276C63.7345 45.876 63.6887 45.8128 63.6574 45.7422C63.6397 45.6544 63.641 45.5637 63.6613 45.4765C63.6816 45.3892 63.7204 45.3073 63.7751 45.2365C64.0776 44.7223 64.7163 43.8963 65.3466 43.8204C65.5547 43.8098 65.762 43.854 65.9477 43.9486C66.1335 44.0433 66.2913 44.185 66.4055 44.3598C66.592 44.6333 66.7087 44.9484 66.7453 45.2776C66.7819 45.6068 66.7374 45.94 66.6156 46.2479C66.4367 46.8092 66.0564 47.2838 65.5483 47.5797C65.2969 47.6866 65.014 47.6919 64.7587 47.5945C64.5034 47.4971 64.2955 47.3046 64.1785 47.0571C64.0608 46.7452 64.1028 46.3659 63.8927 46.1046L63.7919 45.9276Z" fill="#FFEDE5"/>
<path d="M45.8494 76.1285V76.9714C45.8494 77.5361 45.8494 78.1177 45.8494 78.7162V79.3989C45.8494 80.0901 45.799 80.8065 45.7654 81.5399C43.5894 82.1419 41.349 82.4787 39.0926 82.5429C39.0002 81.5989 38.8153 79.087 38.8069 78.8089C38.8069 78.2357 38.6808 76.6174 38.6724 76.3982C38.622 75.1676 38.5884 73.937 38.5884 72.7316C38.5884 71.1638 38.6472 69.6298 38.7649 68.2053C38.7649 68.1042 38.7649 68.0114 38.7649 67.9187C38.7649 67.826 37.832 62.5242 37.0841 56.3121C37 56.9696 36.916 57.627 36.832 58.2592C36.126 63.6031 35.3781 67.9187 35.3781 67.9187C35.5041 69.4191 35.563 71.0458 35.563 72.7148C35.563 73.9875 35.563 75.2435 35.4705 76.5752C35.4705 76.7944 35.3024 79.6096 35.2772 79.8794C35.2184 80.7812 35.1428 81.6663 35.0671 82.5176C33.8906 82.467 32.7308 82.3912 31.5795 82.29C30.6719 82.2142 29.5289 82.1636 28.4196 82.0034C28.3692 81.2448 28.3356 80.5199 28.3103 79.8119C28.3103 79.6349 28.3103 79.4579 28.3103 79.2809C28.3103 78.5054 28.3103 77.7721 28.3103 77.0641V76.5078C28.3103 71.3999 28.8062 68.0367 28.7305 67.236C26.9741 49.5352 29.4281 39.7746 29.4281 39.7746C29.8112 38.3563 30.5029 37.0407 31.4534 35.9225C32.1738 36.0344 32.8807 36.2209 33.5628 36.4789C34.6019 36.7512 35.6744 36.8732 36.7479 36.8413H37.5211C38.4539 36.8413 39.3868 36.7317 40.3112 36.7064H40.9331C41.8193 36.6932 42.7043 36.778 43.5719 36.9593C44.0906 37.8534 44.4917 38.811 44.7653 39.8083C45.4442 42.9897 45.8435 46.2248 45.9587 49.4762C46.2433 55.4114 46.0776 61.3597 45.4628 67.2697C45.362 68.0199 45.8074 71.2313 45.8494 76.1285Z" fill="#3B2645"/>
<path d="M33.9491 91.6125C34.0668 95.9703 33.655 98.8361 33.0163 100.564C32.0414 103.236 30.4951 103.202 29.6547 101.761C29.4277 101.361 29.2714 100.925 29.1925 100.471C28.579 97.4622 29.6547 92.211 29.6547 92.211C29.6594 92.1464 29.6594 92.0816 29.6547 92.0171C30.0729 92.323 30.5469 92.5435 31.0498 92.6661C31.6141 92.8051 32.2081 92.7571 32.7429 92.5291C33.2777 92.3012 33.7244 91.9057 34.0164 91.4018L33.9491 91.6125Z" fill="url(#paint1_linear_120_816)"/>
<path d="M44.9248 100.235C44.853 100.771 44.682 101.288 44.4205 101.761C43.5129 103.244 41.9497 103.236 40.9833 100.362C40.395 98.676 40.0168 95.8692 40.1429 91.7559C40.7722 92.3231 41.5829 92.646 42.4288 92.6662C43.1833 92.5965 43.9001 92.3031 44.4877 91.8233C44.5033 91.9549 44.5033 92.0879 44.4877 92.2195C44.4877 92.2195 45.4458 97.1925 44.9248 100.235Z" fill="url(#paint2_linear_120_816)"/>
<path d="M32.6803 94.2003C32.2546 93.9457 31.7682 93.8112 31.2726 93.8112C30.777 93.8112 30.2906 93.9457 29.8649 94.2003C29.8492 94.2178 29.8386 94.2395 29.8345 94.2627C29.8303 94.286 29.8328 94.31 29.8415 94.3319C29.8503 94.3538 29.865 94.3729 29.884 94.3869C29.903 94.4008 29.9255 94.4092 29.949 94.411C30.3692 94.411 30.7894 94.234 31.1844 94.2424C31.6467 94.2818 32.1033 94.3723 32.5458 94.5122C32.5837 94.5169 32.6221 94.5092 32.6552 94.4902C32.6883 94.4711 32.7144 94.4419 32.7296 94.4068C32.7447 94.3716 32.7481 94.3325 32.7392 94.2953C32.7303 94.2581 32.7096 94.2247 32.6803 94.2003Z" fill="#291B30"/>
<path d="M32.5455 95.5488C31.8279 95.1293 30.9857 94.9771 30.1672 95.1189C29.8899 95.1189 29.8815 95.5825 30.1672 95.5572C30.5626 95.5191 30.9614 95.5361 31.3522 95.6078C31.7135 95.6752 32.0413 95.8269 32.4027 95.9028C32.4471 95.9123 32.4936 95.9059 32.5337 95.8845C32.5739 95.8631 32.6053 95.8282 32.6224 95.786C32.6394 95.7437 32.6411 95.6967 32.627 95.6533C32.613 95.6099 32.5841 95.5729 32.5455 95.5488Z" fill="#291B30"/>
<path d="M43.6725 94.2004C43.0338 93.9812 41.6471 93.8969 41.1513 94.487C41.084 94.5628 41.1513 94.723 41.2437 94.7146C41.6387 94.664 41.9833 94.5038 42.3951 94.487C42.8069 94.4701 43.2355 94.5797 43.622 94.5544C43.6452 94.5577 43.6688 94.5564 43.6915 94.5506C43.7142 94.5448 43.7355 94.5345 43.7542 94.5204C43.7729 94.5063 43.7887 94.4887 43.8006 94.4685C43.8126 94.4483 43.8204 94.4259 43.8237 94.4027C43.827 94.3794 43.8258 94.3558 43.8199 94.333C43.8141 94.3103 43.8039 94.2889 43.7899 94.2701C43.7758 94.2513 43.7582 94.2355 43.7381 94.2235C43.7179 94.2116 43.6956 94.2037 43.6725 94.2004Z" fill="#291B30"/>
<path d="M43.9838 95.6246C43.2863 95.3128 41.5467 95.0852 41.1937 96.0292C41.1433 96.1556 41.3029 96.2568 41.4038 96.1978C41.7669 95.9947 42.1716 95.8778 42.5867 95.8558C43.0019 95.8339 43.4166 95.9076 43.7989 96.0714C44.051 96.1725 44.2443 95.7342 43.9838 95.6246Z" fill="#291B30"/>
<path d="M12.1661 15.0611C12.1661 15.0105 12.0652 15.0105 12.0568 15.0611C11.6366 17.9353 11.8803 20.9613 11.8803 23.903C11.8803 27.0133 11.7795 30.1488 11.9644 33.2507C11.9723 33.2838 11.9912 33.3133 12.0178 33.3343C12.0445 33.3554 12.0775 33.3669 12.1115 33.3669C12.1454 33.3669 12.1784 33.3554 12.2051 33.3343C12.2317 33.3133 12.2506 33.2838 12.2585 33.2507C12.435 30.1488 12.3342 27.0133 12.3342 23.903C12.3342 21.0287 12.5779 17.9606 12.1661 15.0611Z" fill="#F7F8F8"/>
<path d="M15.8387 16.0389C15.8298 15.9975 15.807 15.9604 15.7741 15.9338C15.7412 15.9072 15.7003 15.8927 15.658 15.8927C15.6158 15.8927 15.5749 15.9072 15.542 15.9338C15.5091 15.9604 15.4863 15.9975 15.4774 16.0389C15.4774 18.8035 15.3009 21.6188 15.4774 24.3751C15.4774 24.422 15.496 24.467 15.5291 24.5002C15.5622 24.5334 15.607 24.5521 15.6538 24.5521C15.7007 24.5521 15.7455 24.5334 15.7786 24.5002C15.8117 24.467 15.8303 24.422 15.8303 24.3751C16.0236 21.6188 15.8555 18.8035 15.8387 16.0389Z" fill="#F7F8F8"/>
<path d="M53.4126 44.9837C53.4058 44.9588 53.391 44.9368 53.3705 44.9211C53.35 44.9054 53.3249 44.8969 53.2991 44.8969C53.2734 44.8969 53.2483 44.9054 53.2278 44.9211C53.2073 44.9368 53.1925 44.9588 53.1857 44.9837C52.9489 48.6031 52.9012 52.2325 53.0428 55.857C53.0428 59.4814 53.0428 63.0974 53.1773 66.7219C53.1844 66.7488 53.2002 66.7727 53.2223 66.7897C53.2443 66.8067 53.2713 66.8159 53.2991 66.8159C53.3269 66.8159 53.354 66.8067 53.376 66.7897C53.3981 66.7727 53.4139 66.7488 53.421 66.7219C53.5387 63.0974 53.5386 59.4814 53.5555 55.857C53.6928 52.2325 53.6451 48.6033 53.4126 44.9837Z" fill="#F7F8F8"/>
<path d="M59.8924 23.7851C59.8662 21.3733 59.7091 18.9647 59.4218 16.57C59.4218 16.4267 59.1949 16.4688 59.1865 16.57C59.1217 19.1599 59.1974 21.7514 59.4134 24.333C59.5226 26.7352 59.4974 29.1965 59.8168 31.5734C59.8168 31.7926 60.1866 31.7252 60.195 31.5229C60.3126 28.952 60.0437 26.3307 59.8924 23.7851Z" fill="#F7F8F8"/>
<path d="M61.573 25.1252C61.5671 25.1063 61.5554 25.0898 61.5395 25.0781C61.5236 25.0664 61.5044 25.0601 61.4847 25.0601C61.465 25.0601 61.4458 25.0664 61.43 25.0781C61.4141 25.0898 61.4023 25.1063 61.3965 25.1252C61.1738 28.5882 61.157 32.0615 61.3461 35.5265C61.3408 35.5476 61.3405 35.5696 61.345 35.5909C61.3495 35.6122 61.3588 35.6321 61.3722 35.6493C61.3856 35.6664 61.4026 35.6803 61.4221 35.6898C61.4416 35.6993 61.463 35.7043 61.4847 35.7043C61.5064 35.7043 61.5278 35.6993 61.5473 35.6898C61.5668 35.6803 61.5839 35.6664 61.5972 35.6493C61.6106 35.6321 61.6199 35.6122 61.6244 35.5909C61.629 35.5696 61.6286 35.5476 61.6234 35.5265C61.8125 32.0615 61.7956 28.5882 61.573 25.1252Z" fill="#F7F8F8"/>
<path d="M36.7896 58.251C36.8024 57.5946 36.8869 56.9417 37.0417 56.3039C36.9576 56.9613 36.8736 57.6188 36.7896 58.251Z" fill="#291B30"/>
<path d="M45.9331 49.4765C44.7986 42.6407 35.4281 42.3204 35.4281 42.3204C34.8483 39.5051 38.6301 38.6622 38.6301 38.6622L40.8403 36.7489C41.7265 36.7356 42.6115 36.8204 43.4791 37.0017C44.0266 37.8778 44.4588 38.8213 44.7649 39.8086C45.43 42.9917 45.8208 46.2262 45.9331 49.4765Z" fill="#291B30"/>
<path d="M44.8993 40.5417C37.3358 44.1072 29.1167 40.8368 29.1167 40.8368C29.7134 39.151 29.268 30.5535 29.2259 28.9183C29.2259 28.9183 29.2259 28.8593 29.2259 28.834C29.2293 28.7722 29.2293 28.7103 29.2259 28.6485C30.8143 24.9567 30.9908 17.8427 30.9992 15.3983C31.7135 15.2887 32.4615 15.2297 33.1086 15.196C33.3607 17.927 34.2599 24.9314 36.7643 24.6279C39.2687 24.3245 40.4621 18.0871 40.8991 15.3561C41.3598 15.4337 41.8272 15.4647 42.2941 15.4489C42.437 15.4489 42.5799 15.4489 42.7227 15.4489C42.5042 19.1829 44.5716 27.0302 44.6304 27.2493C44.6304 27.3083 44.6304 27.3758 44.6304 27.4348C44.6304 27.6371 44.5716 27.8478 44.5464 28.0754C44.5464 28.0754 44.5464 28.1681 44.5464 28.2187C44.0169 32.9726 44.8993 40.5417 44.8993 40.5417Z" fill="url(#paint3_linear_120_816)"/>
<defs>
<linearGradient id="paint0_linear_120_816" x1="74.1233" y1="105.934" x2="-24.4999" y2="97.2797" gradientUnits="userSpaceOnUse">
<stop stop-color="#C150F6"/>
<stop offset="1" stop-color="#EEA4CE"/>
</linearGradient>
<linearGradient id="paint1_linear_120_816" x1="34.0164" y1="102.736" x2="27.303" y2="102.507" gradientUnits="userSpaceOnUse">
<stop stop-color="#C150F6"/>
<stop offset="1" stop-color="#EEA4CE"/>
</linearGradient>
<linearGradient id="paint2_linear_120_816" x1="45.0799" y1="102.739" x2="38.4361" y2="102.507" gradientUnits="userSpaceOnUse">
<stop stop-color="#C150F6"/>
<stop offset="1" stop-color="#EEA4CE"/>
</linearGradient>
<linearGradient id="paint3_linear_120_816" x1="44.8993" y1="42.2067" x2="23.7816" y2="41.2518" gradientUnits="userSpaceOnUse">
<stop stop-color="#C150F6"/>
<stop offset="1" stop-color="#EEA4CE"/>
</linearGradient>
</defs>
</svg>
