<svg width="278" height="304" viewBox="0 0 278 304" fill="none" xmlns="http://www.w3.org/2000/svg">
<path d="M132.427 292.774C205.42 292.774 264.88 266.252 276.611 192.261C288.342 118.27 186.894 152.727 188.78 85.6436C190.666 18.5884 168.313 -20.3908 107.106 11.07C45.8994 42.5308 55.1622 108.781 46.1212 139.521C28.5385 199.169 -68.3886 292.774 132.427 292.774Z" fill="url(#paint0_linear_64_218)"/>
<path d="M38.6046 145.904C45.0256 128.073 44.1915 111.441 36.7416 108.757C29.2918 106.072 18.0472 118.351 11.6262 136.182C5.20524 154.014 6.03931 170.645 13.4892 173.33C20.939 176.014 32.1836 163.736 38.6046 145.904Z" fill="url(#paint1_linear_64_218)"/>
<path d="M251.779 110.371C261.329 102.022 259.87 84.7223 248.52 71.731C237.17 58.7397 220.227 54.9765 210.678 63.3256C201.128 71.6748 202.588 88.9746 213.937 101.966C225.287 114.957 242.23 118.72 251.779 110.371Z" fill="url(#paint2_linear_64_218)"/>
<path d="M177.327 44.223C177.327 44.223 168.091 44.1675 166.344 57.1236C164.597 70.0797 167.093 75.8225 160.798 81.6763C154.502 87.5301 164.819 90.8038 173.277 85.2552C181.764 79.7066 177.327 44.223 177.327 44.223Z" fill="#3B2645"/>
<path d="M177.326 44.223C177.326 44.223 168.84 48.8284 168.674 61.7845C168.535 73.2424 171.475 82.1202 166.982 87.8353C169.006 87.4469 171.197 86.6146 173.277 85.2552C181.764 79.7065 177.326 44.223 177.326 44.223Z" fill="#3B2645"/>
<path d="M188.309 73.8805L185.341 86.1707L166.344 84.7003C166.344 84.7003 171.17 77.1542 173.721 64.0872L188.309 73.8805Z" fill="#FFEDE5"/>
<path d="M177.049 69.6635L186.589 81.0659L188.309 73.8805L177.049 69.6635Z" fill="#DF845C"/>
<path d="M198.431 47.9685C198.431 47.9685 202.092 53.101 200.484 58.3999C198.875 63.6989 198.958 64.6144 198.681 66.5841C198.404 68.5262 193.689 77.4317 191.443 77.7646C189.196 78.0976 175.552 72.7431 172.861 65.197C170.171 57.6508 187.92 36.677 198.431 47.9685Z" fill="#FFEDE5"/>
<path d="M172.945 67.6938L176.661 61.7845L178.353 62.4503C178.353 62.4503 179.767 62.0619 180.349 56.7075C180.349 56.7075 184.593 54.9042 185.397 50.7982C185.397 50.7982 199.596 41.3655 200.9 55.903C200.9 55.903 203.035 49.2446 196.629 44.7225C190.222 40.2003 182.152 38.8964 177.049 42.6972C171.946 46.498 163.821 59.7038 172.945 67.6938Z" fill="#3B2645"/>
<path d="M176.933 65.5954C178.508 64.8416 178.82 62.2135 177.63 59.7255C176.44 57.2375 174.199 55.8318 172.624 56.5857C171.049 57.3396 170.736 59.9676 171.926 62.4556C173.116 64.9436 175.358 66.3493 176.933 65.5954Z" fill="#FFEDE5"/>
<path d="M176.356 63.2827C176.273 63.2827 176.19 63.255 176.134 63.1717L174.359 60.7303C174.276 60.6194 174.304 60.4252 174.415 60.3419C174.526 60.2587 174.72 60.2864 174.803 60.3974L176.578 62.8388C176.661 62.9498 176.633 63.144 176.522 63.2272C176.467 63.255 176.411 63.2827 176.356 63.2827Z" fill="#472938"/>
<path d="M188.198 68.8591C188.198 68.8591 190.444 70.4127 194.022 70.5514C194.022 70.5514 190.139 71.3559 188.198 68.8591Z" fill="#472938"/>
<path d="M194.05 67.5829C193.439 67.5829 192.857 67.4996 192.386 67.2499C192.247 67.1667 192.191 67.0002 192.275 66.8893C192.358 66.7506 192.524 66.6951 192.635 66.7783C193.8 67.3609 196.046 66.8615 196.324 66.5286C196.351 66.2512 195.935 65.0027 195.658 64.1982C195.409 63.4769 195.187 62.811 195.103 62.3394C194.798 61.0355 196.13 59.4264 196.185 59.3431C196.296 59.2321 196.462 59.2044 196.573 59.3154C196.684 59.4264 196.712 59.5928 196.601 59.7038C196.268 60.1199 195.436 61.3684 195.63 62.2284C195.741 62.6723 195.963 63.3659 196.185 64.0317C196.74 65.6686 196.962 66.4176 196.823 66.7506C196.74 66.9448 196.546 67.0835 196.157 67.2499C195.714 67.4164 194.882 67.5829 194.05 67.5829Z" fill="#472938"/>
<path d="M200.151 59.6206C200.151 59.6206 200.955 58.927 200.206 58.4831C199.457 58.0392 198.154 58.1502 197.988 58.5663C197.821 58.9825 197.766 59.2322 198.32 59.2599C198.903 59.2877 200.068 58.9825 200.151 59.6206Z" fill="#472938"/>
<path d="M185.397 57.3179C185.397 57.3179 187.588 56.1804 189.168 56.6521C190.749 57.1237 191.11 57.7895 191.886 57.5953C192.663 57.3734 191.969 56.1249 190.25 55.6533C188.531 55.1817 186.146 55.903 185.397 57.3179Z" fill="#472938"/>
<path d="M188.336 61.2297C188.004 61.1742 187.782 60.869 187.809 60.5361L187.893 60.0645C187.948 59.7316 188.253 59.5096 188.586 59.5374C188.919 59.5929 189.141 59.898 189.113 60.231L189.03 60.7026C188.974 61.0355 188.669 61.2852 188.336 61.2297Z" fill="#472938"/>
<path d="M197.405 62.3394C197.128 62.3116 196.961 62.0619 196.989 61.7845L197.045 61.3961C197.072 61.1187 197.322 60.9522 197.599 60.98C197.877 61.0077 198.043 61.2574 198.015 61.5348L197.96 61.9232C197.932 62.2007 197.682 62.3671 197.405 62.3394Z" fill="#472938"/>
<path d="M211.937 288.335C213.13 289.334 214.655 290.638 215.875 288.557C215.737 287.225 215.903 283.064 215.903 283.064L205.42 283.647L206.002 288.002C206.002 287.975 210.745 287.336 211.937 288.335Z" fill="#FFEDE5"/>
<path d="M215.071 300.015C216.763 299.405 220.423 295.715 221.172 294.938C220.923 293.717 220.34 292.497 219.564 292.358C218.427 292.192 216.014 289.861 215.875 288.529C214.627 290.638 213.13 289.334 211.937 288.307C210.745 287.309 206.002 287.947 206.002 287.947C206.002 287.947 204.449 295.909 204.283 300.043C206.64 300.209 213.518 300.598 215.071 300.015Z" fill="#3B2645"/>
<path d="M204.588 302.429C205.78 303.455 214.322 303.15 215.21 302.9C216.097 302.651 220.424 298.378 221.061 297.352C221.339 296.908 221.366 295.909 221.145 294.938C220.396 295.715 216.735 299.405 215.043 300.015C213.49 300.57 206.585 300.209 204.255 300.071C204.255 301.319 204.311 302.207 204.588 302.429Z" fill="#E5E5E5"/>
<path d="M146.099 288.224C148.789 288.585 149.455 290.166 150.287 290.083C151.119 290 153.032 288.335 153.032 288.335C153.032 287.115 154.252 283.064 154.252 283.064L143.187 283.425L141.994 288.918C142.022 288.918 143.436 287.864 146.099 288.224Z" fill="#FFEDE5"/>
<path d="M153.642 296.547C154.724 296.131 155.695 295.216 156.305 294.605C156.277 293.606 156 292.469 155.223 292.025C153.892 291.276 153.06 288.335 153.06 288.335C153.06 288.335 151.146 289.972 150.314 290.083C149.482 290.194 148.789 288.613 146.127 288.224C143.437 287.864 142.05 288.918 142.05 288.918C141.052 291.803 140.636 296.27 140.525 298.85C141.884 299.127 144.102 299.46 147.181 299.46C152.755 299.433 151.923 297.185 153.642 296.547Z" fill="#3B2645"/>
<path d="M140.497 300.764C140.636 301.208 141.052 302.429 147.264 302.429C153.476 302.429 153.282 299.349 153.698 298.351C154.142 297.324 155.805 296.686 156.083 296.187C156.194 295.965 156.305 295.327 156.277 294.605C155.695 295.216 154.696 296.131 153.615 296.547C151.895 297.185 152.755 299.46 147.125 299.46C144.047 299.46 141.828 299.127 140.469 298.85C140.441 299.904 140.441 300.653 140.497 300.764Z" fill="#E5E5E5"/>
<path d="M204.782 139.299C204.782 139.299 212.353 156.611 214.378 170.288C216.402 183.965 212.076 221.03 212.714 224.193C213.352 227.356 216.902 237.066 217.429 250.105C217.928 263.144 215.903 283.036 215.903 283.036C215.903 283.036 209.746 285.783 205.42 283.619C205.42 283.619 202.064 262.423 200.206 253.518C198.348 244.612 198.348 234.181 196.296 229.298C194.244 224.415 188.919 190.097 187.394 184.576C187.394 184.576 181.764 212.153 176.55 224.526C171.336 236.899 169.894 238.203 168.313 245.333C166.732 252.463 155.584 278.265 154.28 283.064C154.28 283.064 148.262 286.116 143.215 283.425C143.215 283.425 146.182 251.908 151.507 239.424C156.832 226.94 157.47 226.607 158.662 217.507C159.855 208.407 154.946 168.651 168.258 143.238C168.23 143.211 186.894 139.16 204.782 139.299Z" fill="#FF8A00"/>
<path d="M187.394 140.242C188.614 145.569 204.727 169.817 204.727 169.817L195.325 139.521L187.394 140.242Z" fill="#543753"/>
<path d="M180.349 177.668C180.349 177.668 182.79 183.438 194.937 182.634C194.937 182.634 188.281 184.104 188.891 191.956L187.394 184.604L185.702 192.372C185.702 192.372 186.146 184.659 177.465 181.996L183.15 182.162C183.178 182.134 180.377 180.137 180.349 177.668Z" fill="#543753"/>
<path d="M162.378 85.5603C162.378 85.5603 158.274 88.9727 146.21 107.505C134.146 126.038 137.252 127.036 139.221 129.755C141.163 132.474 155.778 147.788 156.86 149.175C157.941 150.59 161.935 154.807 164.07 153.115C166.206 151.423 165.512 146.568 167.897 144.737C170.282 142.878 172.279 141.019 172.473 140.02C172.667 139.021 172.168 138.189 171.946 138.189C171.724 138.189 169.312 140.27 167.842 140.991C166.372 141.713 162.933 144.209 162.878 144.209C162.822 144.209 149.76 124.512 149.76 124.512L164.292 107.172L162.378 85.5603Z" fill="#FFEDE5"/>
<path d="M162.656 91.8303C162.656 91.8303 157.275 98.4055 158.718 114.053L164.347 107.367L162.656 91.8303Z" fill="#DF845C"/>
<path d="M147.846 139.382L153.31 129.811L149.954 124.706L147.042 138.522L147.846 139.382Z" fill="#DF845C"/>
<path d="M182.124 82.2866C185.674 83.1467 195.02 88.3624 200.899 99.2932C206.779 110.224 204.699 112.166 202.452 115.301L201.593 129.339L205.364 141.074L168.258 143.238C168.258 143.238 171.142 131.142 169.644 127.314C168.147 123.485 151.895 101.846 160.908 87.5024C165.484 80.1504 182.124 82.2866 182.124 82.2866Z" fill="#FFEDE5"/>
<path d="M201.593 129.311L202.453 115.273C204.699 112.166 206.807 110.196 200.899 99.2655C199.457 96.6022 197.821 94.2718 196.102 92.2465C195.797 96.519 194.909 101.624 192.829 106.923C188.142 118.935 169.339 118.214 164.32 117.798C166.732 122.403 169.062 125.927 169.589 127.258C169.866 127.952 170.005 128.923 170.033 130.033C184.26 131.392 201.593 129.311 201.593 129.311Z" fill="#FF8A00"/>
<path d="M182.429 82.37C182.318 82.3423 182.207 82.3145 182.124 82.2868C182.124 82.2868 181.875 82.2591 181.459 82.2036C175.385 83.8682 170.643 87.6412 167.481 93.3563C166.427 89.6387 165.845 86.1708 166.205 83.5352C166.15 83.563 166.095 83.5907 166.039 83.5907C165.9 83.6462 165.762 83.7017 165.623 83.7572C165.124 83.9514 164.652 84.1733 164.209 84.423C161.103 87.7799 160.021 94.0499 160.992 103.15C161.435 107.228 162.212 111.14 162.905 114.136C162.905 114.413 162.905 114.691 162.905 114.968C163.044 115.246 163.155 115.495 163.294 115.773C163.349 115.912 163.432 116.05 163.488 116.189C163.82 116.855 164.153 117.493 164.486 118.131C164.236 117.215 163.848 115.801 163.46 114.08C163.46 110.835 163.737 106.201 164.958 101.457C165.568 99.0159 166.372 96.8242 167.343 94.8267C170.615 105.452 177.326 117.382 177.742 118.103L178.547 119.518L178.269 117.909C178.242 117.743 175.33 101.346 177.354 91.6917C178.63 85.616 180.571 83.452 181.791 82.6752C182.124 82.592 182.429 82.5087 182.762 82.4533C182.651 82.4255 182.54 82.3978 182.429 82.37ZM164.403 101.346C163.432 105.092 163.072 108.782 162.961 111.778C161.103 102.928 159.383 88.8342 165.623 83.9236C165.346 86.7257 166.011 90.3046 167.121 94.1054C165.984 96.2694 165.096 98.683 164.403 101.346ZM176.772 91.6085C175.108 99.5708 176.744 112.027 177.437 116.439C175.496 112.804 170.338 102.872 167.703 94.1054C170.587 88.5845 174.83 84.9224 180.405 83.0914C179.185 84.3675 177.77 86.8367 176.772 91.6085Z" fill="#FF8A00"/>
<path d="M183.65 128.451H169.866C169.7 128.451 169.589 128.34 169.589 128.174C169.589 128.007 169.7 127.896 169.866 127.896H183.65C183.816 127.896 183.927 128.007 183.927 128.174C183.927 128.34 183.788 128.451 183.65 128.451Z" fill="#472938"/>
<path d="M187.893 142.073L195.824 141.602L191.748 130.144C189.806 130.255 187.699 130.366 185.452 130.421C186.201 134.888 187.005 139.021 187.893 142.073Z" fill="#DF845C"/>
<path d="M182.208 103.288C182.208 103.288 182.679 108.67 183.456 115.634C184.371 115.273 185.286 114.857 186.146 114.358L182.208 103.288Z" fill="#DF845C"/>
<path d="M183.483 115.634C184.01 120.239 184.676 125.511 185.48 130.449C187.699 130.393 189.834 130.282 191.775 130.171L186.173 114.386C185.286 114.857 184.398 115.273 183.483 115.634Z" fill="#543753"/>
<path d="M170.088 143.1L170.865 143.044C170.865 143.044 172.113 141.962 172.362 140.547C172.029 141.213 171.17 142.129 170.088 143.1Z" fill="#DF845C"/>
<path d="M182.734 82.4532C182.734 82.4532 194.41 84.8114 196.074 90.4433C197.766 96.0751 199.014 129.311 199.014 129.311C199.014 129.311 210.689 162.465 211.937 167.514C213.185 172.563 215.792 180.692 215.959 182.329C216.125 183.966 214.516 187.739 213.962 188.349C213.407 188.959 210.079 190.208 209.33 190.374C208.582 190.541 204.061 187.572 204.283 186.962C204.505 186.351 206.307 185.269 206.307 185.269L206.64 183.022C206.64 183.022 203.395 176.697 203.617 173.479C203.839 170.288 203.34 168.207 202.258 166.265C201.177 164.323 188.17 135.249 186.839 130.172C185.508 125.095 181.653 102.428 181.736 98.1559C181.819 93.8834 182.734 82.4532 182.734 82.4532Z" fill="#FFEDE5"/>
<path d="M109.852 42.6141L112.181 55.4869C112.486 57.1793 113.651 58.5942 115.26 59.2323L120.418 61.2575C120.418 61.2575 114.982 69.3863 104.083 71.6889C93.1843 73.9639 87.2217 64.0873 87.2217 64.0873L91.8254 60.6472C92.8515 59.8704 93.4062 58.6497 93.323 57.3735L92.491 45.4162L109.852 42.6141Z" fill="#FFEDE5"/>
<path d="M93.1289 54.3772C93.1289 54.3772 106.191 62.0898 109.852 42.6141L92.5188 45.3884L93.1289 54.3772Z" fill="#DF845C"/>
<path d="M113.606 38.5267C114.098 36.4389 113.53 34.5182 112.338 34.2368C111.145 33.9554 109.779 35.4197 109.287 37.5076C108.795 39.5954 109.362 41.5161 110.555 41.7975C111.748 42.0789 113.113 40.6146 113.606 38.5267Z" fill="#FFEDE5"/>
<path d="M90.7188 44.1974C91.7799 43.5845 91.771 41.5817 90.6988 39.7241C89.6267 37.8664 87.8973 36.8573 86.8361 37.4702C85.775 38.0831 85.784 40.0859 86.8561 41.9435C87.9283 43.8012 89.6576 44.8103 90.7188 44.1974Z" fill="#DF845C"/>
<path d="M110.739 39.174C110.684 39.174 110.656 39.174 110.601 39.1462C110.462 39.063 110.407 38.8966 110.49 38.7856L111.46 36.899C111.544 36.7603 111.71 36.7048 111.821 36.7881C111.96 36.8713 112.015 37.0378 111.932 37.1487L110.961 39.0353C110.934 39.1185 110.85 39.174 110.739 39.174Z" fill="#472938"/>
<path d="M89.8565 41.7819C89.801 41.7819 89.7178 41.7541 89.6623 41.6986L87.7765 39.9508C87.6656 39.8398 87.6656 39.6734 87.7488 39.5624C87.8597 39.4514 88.0261 39.4514 88.137 39.5347L90.0229 41.2825C90.1338 41.3935 90.1338 41.5599 90.0506 41.6709C89.9951 41.7541 89.9119 41.7819 89.8565 41.7819Z" fill="#472938"/>
<path d="M85.7519 29.7412C85.7519 29.7412 90.3002 46.6645 92.0196 49.1059C93.7113 51.5196 98.9529 53.7668 99.8403 53.9055C100.728 54.0442 104.25 53.6835 105.054 52.9899C105.858 52.2964 110.185 47.7187 110.85 44.7502C111.488 41.7817 111.655 26.1068 108.909 23.2493C106.136 20.3917 84.3653 22.7221 85.7519 29.7412Z" fill="#FFEDE5"/>
<path d="M100.007 41.7818C99.3133 41.7818 98.0931 41.4211 97.9267 41.3379C97.7048 41.2269 97.6771 41.2269 97.7603 36.3441C97.7603 36.0112 97.7603 35.7615 97.7603 35.6783C97.7325 35.4563 97.0669 34.3189 96.4845 33.3756C96.4013 33.2369 96.4291 33.0704 96.5677 32.9872C96.7064 32.904 96.8728 32.9317 96.956 33.0704C97.4552 33.875 98.3427 35.2621 98.3427 35.6505C98.3427 35.7338 98.3427 35.9834 98.3427 36.3164C98.3149 37.3151 98.2872 40.1727 98.3149 40.8385C98.6477 40.9495 99.5906 41.1992 100.062 41.1714C100.45 41.1437 101.06 40.672 101.338 40.3946C101.449 40.2836 101.615 40.2836 101.726 40.3946C101.837 40.5056 101.837 40.672 101.726 40.783C101.643 40.8662 100.783 41.6985 100.09 41.7263C100.062 41.7818 100.034 41.7818 100.007 41.7818Z" fill="#472938"/>
<path d="M96.5676 44.7224L104.277 43.6681C104.277 43.6681 103.695 47.2192 100.949 47.8296C98.2039 48.4399 96.5676 44.7224 96.5676 44.7224Z" fill="white"/>
<path d="M104.222 34.8461C103.75 34.9016 103.335 34.5687 103.279 34.097L103.224 33.459C103.168 32.9873 103.501 32.5712 103.972 32.5157C104.444 32.4602 104.86 32.7931 104.915 33.2647L104.971 33.9028C105.054 34.3745 104.693 34.7906 104.222 34.8461Z" fill="#472938"/>
<path d="M93.4338 36.7879C92.9623 36.8711 92.5186 36.5659 92.4354 36.0943L92.3244 35.4562C92.2412 34.9846 92.5463 34.5407 93.0178 34.4574C93.4892 34.3742 93.933 34.6794 94.0162 35.151L94.1271 35.7891C94.2103 36.2608 93.9052 36.7046 93.4338 36.7879Z" fill="#472938"/>
<path d="M101.338 30.9342C101.338 30.9342 105.331 29.5193 107.467 30.7678C107.467 30.7678 107.106 29.02 104.915 29.1032C102.724 29.1864 101.31 29.4916 101.088 30.0187C100.866 30.5458 101.338 30.9342 101.338 30.9342Z" fill="#472938"/>
<path d="M95.403 32.0163C95.403 32.0163 91.1876 31.6278 89.4404 33.3757C89.4404 33.3757 89.3572 31.5724 91.4926 31.1285C93.6281 30.6846 95.0702 30.6291 95.403 31.073C95.7635 31.5446 95.403 32.0163 95.403 32.0163Z" fill="#472938"/>
<path d="M88.442 39.1461L87.6378 32.1548C87.6378 32.1548 94.2659 32.8484 99.2579 27.7991C104.25 22.7498 107.716 25.5796 107.716 25.5796L111.183 35.0401L112.015 34.18C112.015 34.18 112.209 25.3577 112.015 25.0525C111.821 24.7473 110.351 23.8318 110.351 23.8318C110.351 23.8318 109.88 15.2314 99.2024 13.5391C88.5252 11.8468 85.6964 23.0273 82.5903 23.4712L83.8383 25.0525C83.8383 25.0525 83.4223 26.3287 83.4501 27.9101C83.4778 29.4914 86.8612 37.4815 86.8612 37.4815L88.442 39.1461Z" fill="#3B2645"/>
<path d="M73.6325 68.6925C73.6325 68.6925 67.3371 70.4958 67.6144 83.6183C67.6144 83.6183 61.3745 92.9955 60.6812 104.204C60.6812 104.204 45.428 90.1934 44.901 88.4734C44.3464 86.7255 44.6515 80.5943 44.2909 79.0962C43.9304 77.598 42.5992 76.0167 42.7656 73.9082C42.932 71.7997 43.2925 68.8312 43.0984 68.526C42.9043 68.2208 39.9923 68.5538 39.4931 70.9674C38.9939 73.3811 38.8552 76.1276 38.8552 76.1276C38.8552 76.1276 34.1684 77.2929 33.586 78.1529C33.0036 79.0129 33.3364 81.2879 33.3364 81.2879C33.3364 81.2879 33.4473 88.945 34.2238 89.805C35.0003 90.6651 38.7166 92.5516 39.4931 93.0787C40.2696 93.6058 49.0333 113.775 52.8327 118.353C56.6321 122.93 60.1542 124.207 63.4545 123.125C66.7547 122.043 75.8789 109.725 78.8186 104.01C81.7583 98.2944 80.6767 69.3583 73.6325 68.6925Z" fill="#FFEDE5"/>
<path d="M80.2051 87.7522C76.8494 86.9199 74.6585 87.4193 74.6585 87.4193C74.6585 87.4193 79.1236 103.566 72.218 114.053C74.9359 110.446 77.4873 106.562 78.7908 104.037C80.0387 101.568 80.5657 94.7435 80.2051 87.7522Z" fill="#DF845C"/>
<path d="M60.6533 104.204L63.2602 106.118L60.7643 103.011L60.6533 104.204Z" fill="#DF845C"/>
<path d="M35.5272 78.0142C35.5272 78.0142 40.2696 78.3749 40.5192 78.6523C40.7688 78.9297 41.157 88.7231 40.2696 89.3889C39.3544 90.0825 34.8062 89.9715 34.8062 89.9715C34.8062 89.9715 40.2418 90.4709 40.8242 90.2212C41.4066 89.9715 42.4605 86.5314 42.6546 84.7558C42.8487 82.9802 41.7394 78.2916 41.3234 78.1807C40.9074 78.0697 35.5272 78.0142 35.5272 78.0142Z" fill="#DF845C"/>
<path d="M133.897 274.547C134.091 268.444 134.729 259.482 134.618 251.187C134.451 239.258 133.259 225.83 132.676 221.918C132.066 218.006 133.481 199.89 133.481 199.89L108.41 203.386C109.02 205.328 113.568 222.362 113.762 229.797C113.984 237.232 123.108 271.856 123.469 274.63C123.524 274.991 123.552 275.379 123.608 275.768C125.909 276.045 130.319 276.267 133.897 274.547Z" fill="#FFEDE5"/>
<path d="M126.131 283.397C126.131 283.397 125.854 280.429 129.182 279.707C132.51 278.986 134.035 280.65 134.035 280.65C133.841 279.347 133.841 277.21 133.924 274.547C130.347 276.267 125.937 276.045 123.663 275.768C123.885 277.932 123.94 280.512 123.719 282.62C124.079 283.564 126.131 283.397 126.131 283.397Z" fill="white"/>
<path d="M122.637 296.048C126.187 297.907 125.161 302.068 129.598 303.095C133.286 303.955 138.888 303.455 141.079 303.206C141.662 303.15 142.133 302.679 142.244 302.096C142.3 301.68 142.355 301.125 142.327 300.542C139.554 300.792 133.037 301.291 130.43 300.653C127.102 299.849 126.298 296.436 124.634 295.493C123.386 294.799 122.581 293.884 122.249 293.468C122.193 294.05 122.11 294.55 122.082 294.91C121.971 295.41 122.221 295.854 122.637 296.048Z" fill="#3B2645"/>
<path d="M141.079 296.825C140.414 295.881 139.443 293.856 138.445 291.554C137.862 293.634 131.206 292.663 130.347 292.441C129.487 292.219 126.159 283.397 126.159 283.397C126.159 283.397 124.107 283.536 123.718 282.592C123.663 283.064 123.607 283.536 123.524 283.952C123.191 285.727 122.581 290.583 122.249 293.468C122.581 293.884 123.386 294.772 124.634 295.493C126.325 296.436 127.102 299.849 130.43 300.653C133.037 301.291 139.554 300.792 142.327 300.542C142.244 299.433 141.967 298.101 141.079 296.825Z" fill="#FF8A00"/>
<path d="M130.319 292.441C131.179 292.663 137.835 293.634 138.417 291.554C136.309 286.726 134.007 280.65 134.007 280.65C134.007 280.65 132.482 278.986 129.154 279.707C125.826 280.428 126.104 283.397 126.104 283.397C126.104 283.397 129.459 292.247 130.319 292.441Z" fill="#3B2645"/>
<path d="M124.838 222.789C127.471 222.379 129.524 221.519 129.423 220.868C129.322 220.217 127.105 220.022 124.471 220.431C121.838 220.841 119.785 221.7 119.887 222.351C119.988 223.002 122.204 223.198 124.838 222.789Z" fill="#E0855C"/>
<path d="M62.8445 275.018C62.8722 268.887 63.205 259.982 63.5933 251.686C64.2866 236.955 67.5036 223.999 67.5036 222.417C67.5036 216.147 68.2247 196.699 68.613 197.171L91.8255 202.803C91.1599 204.717 84.8091 220.808 84.3376 228.243C83.8661 235.679 73.7158 272.716 73.2444 275.462C73.1889 275.823 73.1334 276.184 73.078 276.6C70.7761 276.766 66.3666 276.85 62.8445 275.018Z" fill="#FFEDE5"/>
<path d="M70.3047 284.118C70.3047 284.118 70.693 281.15 67.3927 280.318C64.0925 279.485 62.5117 281.094 62.5117 281.094C62.7613 279.79 62.8445 277.654 62.8445 274.991C66.3666 276.822 70.7762 276.739 73.078 276.544C72.8007 278.681 72.6343 281.261 72.8007 283.397C72.3292 284.34 70.3047 284.118 70.3047 284.118Z" fill="white"/>
<path d="M73.3553 296.88C69.7223 298.628 70.6375 302.817 66.1725 303.677C62.4562 304.399 56.8819 303.733 54.691 303.4C54.1086 303.317 53.6371 302.845 53.5816 302.235C53.5262 301.819 53.4984 301.264 53.5539 300.681C56.3272 301.014 62.8168 301.735 65.4514 301.208C68.8071 300.515 69.7223 297.13 71.414 296.242C72.6897 295.576 73.5217 294.716 73.8822 294.3C73.9377 294.883 73.9654 295.382 73.9932 295.771C74.0486 296.242 73.7713 296.686 73.3553 296.88Z" fill="#3B2645"/>
<path d="M54.9129 297.047C55.6062 296.131 56.6601 294.134 57.7416 291.859C58.2686 293.967 64.9245 293.218 65.812 293.024C66.6994 292.83 70.3047 284.118 70.3047 284.118C70.3047 284.118 72.3292 284.34 72.773 283.397C72.8007 283.869 72.8562 284.34 72.9116 284.756C73.189 286.56 73.6327 291.415 73.8823 294.3C73.5218 294.716 72.6898 295.576 71.414 296.242C69.6946 297.13 68.8071 300.487 65.4514 301.208C62.8445 301.763 56.3273 301.042 53.554 300.681C53.6372 299.599 53.9977 298.267 54.9129 297.047Z" fill="#FF8A00"/>
<path d="M65.7842 293.024C64.8967 293.218 58.2408 293.967 57.7139 291.859C59.988 287.087 62.484 281.094 62.484 281.094C62.484 281.094 64.0647 279.485 67.365 280.317C70.6652 281.15 70.2769 284.118 70.2769 284.118C70.2769 284.118 66.6716 292.83 65.7842 293.024Z" fill="#3B2645"/>
<path d="M78.5757 224.787C78.6987 224.14 76.6759 223.212 74.0577 222.714C71.4396 222.216 69.2174 222.337 69.0945 222.984C68.9715 223.632 70.9943 224.56 73.6125 225.058C76.2306 225.555 78.4528 225.434 78.5757 224.787Z" fill="#E0855C"/>
<path d="M130.43 147.012C130.43 147.012 135.089 176.53 133.48 199.89C133.48 199.89 124.467 206.632 103.418 202.609L100.173 184.049L94.8482 202.72C94.8482 202.72 73.0223 204.024 67.1707 195.562C67.1707 195.562 70.3045 160.55 76.9327 146.401C83.5609 132.252 128.267 135.415 130.43 147.012Z" fill="#3B2645"/>
<path d="M100.173 184.049C100.173 184.049 97.5661 181.746 97.2887 181.524C97.0114 181.302 94.5986 171.758 94.5986 171.758L97.261 194.258L100.173 184.049Z" fill="#3B2645"/>
<path d="M112.098 200.39C107.411 200.39 104.028 200.029 103.945 200.029C103.862 200.029 103.806 199.946 103.834 199.862C103.834 199.779 103.917 199.724 104 199.751C104.194 199.779 122.803 201.749 133.647 196.284C133.702 196.256 133.786 196.284 133.841 196.339C133.869 196.395 133.841 196.478 133.786 196.533C127.435 199.724 118.532 200.39 112.098 200.39Z" fill="white"/>
<path d="M95.708 199.835C95.6803 199.835 95.708 199.835 95.708 199.835C75.5183 198.142 67.5035 192.51 67.4203 192.455C67.3648 192.399 67.3371 192.316 67.3925 192.261C67.448 192.205 67.5312 192.178 67.5867 192.233C67.6699 192.288 75.6293 197.865 95.7357 199.557C95.8189 199.557 95.8744 199.64 95.8744 199.696C95.8189 199.779 95.7635 199.835 95.708 199.835Z" fill="white"/>
<path d="M116.896 59.8702C116.896 59.8702 112.625 68.4428 102.835 69.0809C93.0457 69.719 89.2463 62.6168 89.2463 62.6168L73.6326 68.7203C73.6326 68.7203 76.4613 78.7633 74.6587 87.4469C74.6587 87.4469 78.7909 102.206 78.7909 104.065C78.7909 105.924 82.2575 113.803 82.4794 115.662C82.7013 117.521 76.9328 146.429 76.9328 146.429C76.9328 146.429 104.499 154.53 110.906 154.252C117.312 153.975 130.43 147.012 130.43 147.012C130.43 147.012 129.126 122.792 130.43 116.827C131.733 110.862 136.614 94.9098 136.614 94.9098C136.614 94.9098 132.482 74.0192 133.647 65.6963L116.896 59.8702Z" fill="#FF8A00"/>
<path d="M133.453 94.5769C133.314 94.5769 133.203 94.4937 133.175 94.3549C130.735 84.3674 130.263 64.8085 130.263 64.6143C130.263 64.4478 130.374 64.3368 130.541 64.3368C130.707 64.3368 130.818 64.4478 130.818 64.6143C130.818 64.8085 131.29 84.3119 133.73 94.244C133.758 94.3827 133.675 94.5491 133.536 94.5769C133.48 94.5769 133.453 94.5769 133.453 94.5769Z" fill="#472938"/>
<path d="M75.574 90.9981C75.5185 90.9981 75.4353 90.9703 75.3798 90.9426C75.2689 90.8316 75.2412 90.6651 75.3521 90.5542C80.2331 85.0333 75.7404 68.0267 75.6849 67.8602C75.6572 67.7215 75.7404 67.5551 75.879 67.5273C76.0177 67.4996 76.1841 67.5828 76.2118 67.7215C76.406 68.4428 80.8155 85.172 75.7404 90.9148C75.7126 90.9703 75.6294 90.9981 75.574 90.9981Z" fill="#472938"/>
<path d="M101.338 72.1048C91.6313 72.1048 86.6116 63.7819 86.5562 63.6709C86.473 63.5322 86.5284 63.3658 86.6671 63.2825C86.8058 63.1993 86.9722 63.2548 87.0554 63.3935C87.1108 63.4767 92.3524 72.1881 102.475 71.4945C110.684 70.9396 115.121 65.6684 116.591 63.9206C117.09 63.3103 117.229 63.1715 117.451 63.227C117.562 63.2548 117.645 63.338 117.673 63.449C117.728 63.5877 117.645 63.7542 117.479 63.7819C117.451 63.7819 117.451 63.7819 117.423 63.7819C117.34 63.8651 117.173 64.0871 117.007 64.2813C115.509 66.0568 110.961 71.4668 102.503 72.0494C102.114 72.1049 101.726 72.1048 101.338 72.1048Z" fill="#472938"/>
<path d="M133.647 65.6963C133.647 65.6963 143.742 65.1414 145.877 81.066C145.877 81.066 156.249 100.764 157.442 107.061C158.634 113.359 156.499 122.237 153.892 126.787C151.285 131.337 142.605 146.04 141.024 148.288C139.443 150.535 139.693 151.117 135.56 151.423C135.56 151.423 132.51 151.978 131.9 152.255C131.29 152.532 127.601 154.502 126.852 154.225C126.103 153.975 125.382 152.976 125.521 152.782C125.687 152.56 129.542 150.479 129.542 150.479C129.542 150.479 123.33 151.534 122.748 151.506C122.165 151.478 121.306 150.174 121.306 150.174C121.306 150.174 119.281 149.259 119.032 148.537C118.782 147.816 121.001 146.373 121.001 146.373C121.001 146.373 119.669 146.04 119.198 145.347C118.726 144.653 126.963 140.242 127.962 140.298C128.96 140.353 135.727 141.213 135.727 141.213C135.727 141.213 144.712 112.305 144.796 110.501C144.879 108.698 137.668 101.18 136.559 94.9098C136.614 94.9098 131.983 73.1037 133.647 65.6963Z" fill="#FFEDE5"/>
<path d="M120.917 150.257C120.806 150.257 120.723 150.202 120.668 150.091C120.612 149.952 120.668 149.786 120.806 149.73L127.074 146.873C127.213 146.817 127.379 146.873 127.435 147.012C127.49 147.15 127.435 147.317 127.296 147.372L121.028 150.23C121.001 150.257 120.973 150.257 120.917 150.257Z" fill="#472938"/>
<path d="M121.056 146.679C120.945 146.679 120.862 146.623 120.806 146.54C120.723 146.401 120.779 146.235 120.917 146.152L127.046 142.878C127.185 142.795 127.351 142.85 127.435 142.989C127.518 143.128 127.462 143.294 127.324 143.377L121.195 146.651C121.139 146.651 121.084 146.679 121.056 146.679Z" fill="#472938"/>
<defs>
<linearGradient id="paint0_linear_64_218" x1="277.555" y1="292.774" x2="-82.921" y2="267.028" gradientUnits="userSpaceOnUse">
<stop stop-color="#C150F6"/>
<stop offset="1" stop-color="#EEA4CE"/>
</linearGradient>
<linearGradient id="paint1_linear_64_218" x1="50.2308" y1="113.617" x2="4.57031" y2="191.729" gradientUnits="userSpaceOnUse">
<stop stop-color="#C150F6"/>
<stop offset="1" stop-color="#EEA4CE"/>
</linearGradient>
<linearGradient id="paint2_linear_64_218" x1="269.07" y1="95.2538" x2="220.541" y2="133.013" gradientUnits="userSpaceOnUse">
<stop stop-color="#C150F6"/>
<stop offset="1" stop-color="#EEA4CE"/>
</linearGradient>
</defs>
</svg>
