<svg width="25" height="34" viewBox="0 0 25 34" fill="none" xmlns="http://www.w3.org/2000/svg">
<path d="M0 0.944809L2.80651 32.1486C2.89235 33.1042 7.0496 33.9247 12.0934 33.9952C17.1372 34.0657 21.3137 33.3622 21.4232 32.4066L25 1.29L0 0.944809Z" fill="url(#paint0_linear_121_60)"/>
<g opacity="0.64">
<path opacity="0.64" d="M22.7222 7.23593C22.7561 7.20965 22.7741 7.18457 22.7741 7.15829C22.7741 6.7247 18.164 6.30904 12.4663 6.2302C6.76853 6.15137 2.14597 6.43804 2.13807 6.87282C2.13807 6.89909 2.15501 6.92537 2.18776 6.95165H2.10645L4.44653 31.3972C4.51881 32.1474 7.96116 32.79 12.1365 32.8485C16.3118 32.907 19.7689 32.3576 19.8603 31.6099L22.8046 7.2431L22.7222 7.23593Z" fill="white"/>
</g>
<path d="M24.9648 1.19034C24.9717 0.63692 19.3975 0.111032 12.5145 0.0157378C5.63144 -0.0795568 0.0461086 0.291828 0.0392585 0.845248C0.0324085 1.39867 5.60664 1.92456 12.4896 2.01985C19.3727 2.11515 24.958 1.74376 24.9648 1.19034Z" fill="#B6B4C2"/>
<g opacity="0.51">
<path opacity="0.51" d="M22.8056 7.09506C22.8056 7.48684 18.1503 7.74126 12.4153 7.66243C6.68027 7.58359 2.04529 7.20017 2.04981 6.8084C2.05433 6.41662 6.70512 6.161 12.4401 6.24103C18.1751 6.32106 22.8135 6.70209 22.8056 7.09506Z" fill="white"/>
</g>
<path d="M10.762 18.5426C10.8245 17.6802 10.8685 16.8174 10.8941 15.9542C10.9088 15.4765 10.2029 15.4406 10.1883 15.9232C10.1649 16.7115 10.1273 17.4995 10.0753 18.287L8.32704 18.2106C8.34285 17.6492 8.35829 17.0886 8.37335 16.5288C8.38577 16.051 7.67991 16.0152 7.66635 16.4977C7.62645 17.9502 7.5888 19.403 7.55342 20.8563C7.53986 21.334 8.24573 21.3699 8.25928 20.8873C8.2766 20.2447 8.29391 19.6013 8.31123 18.9571L10.0245 19.0323C9.96352 19.8016 9.88822 20.5688 9.79863 21.334C9.74329 21.8118 10.4492 21.8393 10.5045 21.3651C10.6016 20.5338 10.6822 19.7008 10.7462 18.8663C10.7691 18.8162 10.7822 18.7617 10.785 18.7061C10.7877 18.6506 10.7799 18.595 10.762 18.5426Z" fill="white"/>
<path d="M12.3511 24.0729C12.2946 24.0729 11.8384 24.0251 11.6667 24.0036C11.7617 23.9249 11.8488 23.8361 11.9265 23.7384C11.9931 23.6644 12.0642 23.5951 12.1297 23.5187C12.4019 23.1985 12.6052 22.802 12.4979 22.3612C12.3071 21.5753 11.2669 21.5251 11.0783 22.3385C10.9654 22.8044 11.643 23.0349 11.7559 22.5667C11.879 22.5667 11.8847 22.6443 11.7717 22.796C11.7123 22.901 11.6393 22.9967 11.5549 23.0803C11.4555 23.1914 11.3493 23.2965 11.2556 23.4135C11.0851 23.6297 10.9168 23.8985 10.9507 24.1947C11.0263 24.8553 11.8768 24.7704 12.3263 24.8194C12.7758 24.8684 12.8017 24.1278 12.3511 24.0729Z" fill="white"/>
<path d="M15.5248 16.5145C15.5213 16.4269 15.4853 16.3444 15.4246 16.2847C15.3639 16.225 15.2835 16.193 15.2007 16.1956C14.0148 16.18 13.414 18.0386 13.3835 19.0539C13.3485 20.1886 13.8702 21.5765 15.1182 21.5933C16.3436 21.61 17.0935 20.3928 17.1974 19.2199C17.2878 18.1986 16.5729 16.6996 15.5248 16.5145ZM16.4723 19.3501C16.3594 20.0895 15.8399 20.9518 15.0222 20.8372C14.2045 20.7225 14.0464 19.6308 14.0961 18.9404C14.1216 18.5944 14.2025 18.2555 14.3356 17.9383C14.4361 17.6994 14.6574 17.2216 14.9307 17.0269C14.9654 17.0973 15.0199 17.1546 15.0866 17.1909C15.1534 17.2273 15.2291 17.2409 15.3034 17.2299C15.6852 17.181 16.1245 17.8272 16.2916 18.127C16.4886 18.4986 16.5527 18.9327 16.4723 19.3501Z" fill="white"/>
<defs>
<linearGradient id="paint0_linear_121_60" x1="45.8333" y1="64.6068" x2="-14.8786" y2="61.1183" gradientUnits="userSpaceOnUse">
<stop stop-color="#CC8FED"/>
<stop offset="1" stop-color="#6B50F6"/>
</linearGradient>
</defs>
</svg>
