<svg width="186" height="87" viewBox="0 0 186 87" fill="none" xmlns="http://www.w3.org/2000/svg">
<path d="M3.024 68.786V72.98H7.596V74.33H3.024V78.65H8.136V80H1.386V67.436H8.136V68.786H3.024ZM14.2865 78.488L17.3465 70.136H19.0925L15.2225 80H13.3145L9.44452 70.136H11.2085L14.2865 78.488ZM29.7044 74.69C29.7044 75.002 29.6864 75.332 29.6504 75.68H21.7664C21.8264 76.652 22.1564 77.414 22.7564 77.966C23.3684 78.506 24.1064 78.776 24.9704 78.776C25.6784 78.776 26.2664 78.614 26.7344 78.29C27.2144 77.954 27.5504 77.51 27.7424 76.958H29.5064C29.2424 77.906 28.7144 78.68 27.9224 79.28C27.1304 79.868 26.1464 80.162 24.9704 80.162C24.0344 80.162 23.1944 79.952 22.4504 79.532C21.7184 79.112 21.1424 78.518 20.7224 77.75C20.3024 76.97 20.0924 76.07 20.0924 75.05C20.0924 74.03 20.2964 73.136 20.7044 72.368C21.1124 71.6 21.6824 71.012 22.4144 70.604C23.1584 70.184 24.0104 69.974 24.9704 69.974C25.9064 69.974 26.7344 70.178 27.4544 70.586C28.1744 70.994 28.7264 71.558 29.1104 72.278C29.5064 72.986 29.7044 73.79 29.7044 74.69ZM28.0124 74.348C28.0124 73.724 27.8744 73.19 27.5984 72.746C27.3224 72.29 26.9444 71.948 26.4644 71.72C25.9964 71.48 25.4744 71.36 24.8984 71.36C24.0704 71.36 23.3624 71.624 22.7744 72.152C22.1984 72.68 21.8684 73.412 21.7844 74.348H28.0124ZM33.5045 71.738C33.7925 71.174 34.2005 70.736 34.7285 70.424C35.2685 70.112 35.9225 69.956 36.6905 69.956V71.648H36.2585C34.4225 71.648 33.5045 72.644 33.5045 74.636V80H31.8665V70.136H33.5045V71.738ZM47.0773 70.136L41.1373 84.644H39.4453L41.3893 79.892L37.4113 70.136H39.2293L42.3253 78.128L45.3853 70.136H47.0773ZM50.3619 71.972C50.6979 71.384 51.1899 70.904 51.8379 70.532C52.4859 70.16 53.2239 69.974 54.0519 69.974C54.9399 69.974 55.7379 70.184 56.4459 70.604C57.1539 71.024 57.7119 71.618 58.1199 72.386C58.5279 73.142 58.7319 74.024 58.7319 75.032C58.7319 76.028 58.5279 76.916 58.1199 77.696C57.7119 78.476 57.1479 79.082 56.4279 79.514C55.7199 79.946 54.9279 80.162 54.0519 80.162C53.1999 80.162 52.4499 79.976 51.8019 79.604C51.1659 79.232 50.6859 78.758 50.3619 78.182V80H48.7239V66.68H50.3619V71.972ZM57.0579 75.032C57.0579 74.288 56.9079 73.64 56.6079 73.088C56.3079 72.536 55.8999 72.116 55.3839 71.828C54.8799 71.54 54.3219 71.396 53.7099 71.396C53.1099 71.396 52.5519 71.546 52.0359 71.846C51.5319 72.134 51.1239 72.56 50.8119 73.124C50.5119 73.676 50.3619 74.318 50.3619 75.05C50.3619 75.794 50.5119 76.448 50.8119 77.012C51.1239 77.564 51.5319 77.99 52.0359 78.29C52.5519 78.578 53.1099 78.722 53.7099 78.722C54.3219 78.722 54.8799 78.578 55.3839 78.29C55.8999 77.99 56.3079 77.564 56.6079 77.012C56.9079 76.448 57.0579 75.788 57.0579 75.032ZM65.19 80.162C64.266 80.162 63.426 79.952 62.67 79.532C61.926 79.112 61.338 78.518 60.906 77.75C60.486 76.97 60.276 76.07 60.276 75.05C60.276 74.042 60.492 73.154 60.924 72.386C61.368 71.606 61.968 71.012 62.724 70.604C63.48 70.184 64.326 69.974 65.262 69.974C66.198 69.974 67.044 70.184 67.8 70.604C68.556 71.012 69.15 71.6 69.582 72.368C70.026 73.136 70.248 74.03 70.248 75.05C70.248 76.07 70.02 76.97 69.564 77.75C69.12 78.518 68.514 79.112 67.746 79.532C66.978 79.952 66.126 80.162 65.19 80.162ZM65.19 78.722C65.778 78.722 66.33 78.584 66.846 78.308C67.362 78.032 67.776 77.618 68.088 77.066C68.412 76.514 68.574 75.842 68.574 75.05C68.574 74.258 68.418 73.586 68.106 73.034C67.794 72.482 67.386 72.074 66.882 71.81C66.378 71.534 65.832 71.396 65.244 71.396C64.644 71.396 64.092 71.534 63.588 71.81C63.096 72.074 62.7 72.482 62.4 73.034C62.1 73.586 61.95 74.258 61.95 75.05C61.95 75.854 62.094 76.532 62.382 77.084C62.682 77.636 63.078 78.05 63.57 78.326C64.062 78.59 64.602 78.722 65.19 78.722ZM71.7896 75.032C71.7896 74.024 71.9936 73.142 72.4016 72.386C72.8096 71.618 73.3676 71.024 74.0756 70.604C74.7956 70.184 75.5996 69.974 76.4876 69.974C77.2556 69.974 77.9696 70.154 78.6296 70.514C79.2896 70.862 79.7936 71.324 80.1416 71.9V66.68H81.7976V80H80.1416V78.146C79.8176 78.734 79.3376 79.22 78.7016 79.604C78.0656 79.976 77.3216 80.162 76.4696 80.162C75.5936 80.162 74.7956 79.946 74.0756 79.514C73.3676 79.082 72.8096 78.476 72.4016 77.696C71.9936 76.916 71.7896 76.028 71.7896 75.032ZM80.1416 75.05C80.1416 74.306 79.9916 73.658 79.6916 73.106C79.3916 72.554 78.9836 72.134 78.4676 71.846C77.9636 71.546 77.4056 71.396 76.7936 71.396C76.1816 71.396 75.6236 71.54 75.1196 71.828C74.6156 72.116 74.2136 72.536 73.9136 73.088C73.6136 73.64 73.4636 74.288 73.4636 75.032C73.4636 75.788 73.6136 76.448 73.9136 77.012C74.2136 77.564 74.6156 77.99 75.1196 78.29C75.6236 78.578 76.1816 78.722 76.7936 78.722C77.4056 78.722 77.9636 78.578 78.4676 78.29C78.9836 77.99 79.3916 77.564 79.6916 77.012C79.9916 76.448 80.1416 75.794 80.1416 75.05ZM93.0617 70.136L87.1217 84.644H85.4297L87.3737 79.892L83.3957 70.136H85.2137L88.3097 78.128L91.3697 70.136H93.0617ZM98.8951 73.718C98.8951 72.494 99.1711 71.396 99.7231 70.424C100.275 69.44 101.025 68.672 101.973 68.12C102.933 67.568 103.995 67.292 105.159 67.292C106.527 67.292 107.721 67.622 108.741 68.282C109.761 68.942 110.505 69.878 110.973 71.09H109.011C108.663 70.334 108.159 69.752 107.499 69.344C106.851 68.936 106.071 68.732 105.159 68.732C104.283 68.732 103.497 68.936 102.801 69.344C102.105 69.752 101.559 70.334 101.163 71.09C100.767 71.834 100.569 72.71 100.569 73.718C100.569 74.714 100.767 75.59 101.163 76.346C101.559 77.09 102.105 77.666 102.801 78.074C103.497 78.482 104.283 78.686 105.159 78.686C106.071 78.686 106.851 78.488 107.499 78.092C108.159 77.684 108.663 77.102 109.011 76.346H110.973C110.505 77.546 109.761 78.476 108.741 79.136C107.721 79.784 106.527 80.108 105.159 80.108C103.995 80.108 102.933 79.838 101.973 79.298C101.025 78.746 100.275 77.984 99.7231 77.012C99.1711 76.04 98.8951 74.942 98.8951 73.718ZM112.799 75.032C112.799 74.024 113.003 73.142 113.411 72.386C113.819 71.618 114.377 71.024 115.085 70.604C115.805 70.184 116.603 69.974 117.479 69.974C118.343 69.974 119.093 70.16 119.729 70.532C120.365 70.904 120.839 71.372 121.151 71.936V70.136H122.807V80H121.151V78.164C120.827 78.74 120.341 79.22 119.693 79.604C119.057 79.976 118.313 80.162 117.461 80.162C116.585 80.162 115.793 79.946 115.085 79.514C114.377 79.082 113.819 78.476 113.411 77.696C113.003 76.916 112.799 76.028 112.799 75.032ZM121.151 75.05C121.151 74.306 121.001 73.658 120.701 73.106C120.401 72.554 119.993 72.134 119.477 71.846C118.973 71.546 118.415 71.396 117.803 71.396C117.191 71.396 116.633 71.54 116.129 71.828C115.625 72.116 115.223 72.536 114.923 73.088C114.623 73.64 114.473 74.288 114.473 75.032C114.473 75.788 114.623 76.448 114.923 77.012C115.223 77.564 115.625 77.99 116.129 78.29C116.633 78.578 117.191 78.722 117.803 78.722C118.415 78.722 118.973 78.578 119.477 78.29C119.993 77.99 120.401 77.564 120.701 77.012C121.001 76.448 121.151 75.794 121.151 75.05ZM130.381 69.956C131.581 69.956 132.553 70.322 133.297 71.054C134.041 71.774 134.413 72.818 134.413 74.186V80H132.793V74.42C132.793 73.436 132.547 72.686 132.055 72.17C131.563 71.642 130.891 71.378 130.039 71.378C129.175 71.378 128.485 71.648 127.969 72.188C127.465 72.728 127.213 73.514 127.213 74.546V80H125.575V70.136H127.213V71.54C127.537 71.036 127.975 70.646 128.527 70.37C129.091 70.094 129.709 69.956 130.381 69.956ZM149.61 67.454V68.786H146.19V80H144.552V68.786H141.114V67.454H149.61ZM153.264 71.738C153.552 71.174 153.96 70.736 154.488 70.424C155.028 70.112 155.682 69.956 156.45 69.956V71.648H156.018C154.182 71.648 153.264 72.644 153.264 74.636V80H151.626V70.136H153.264V71.738ZM157.729 75.032C157.729 74.024 157.933 73.142 158.341 72.386C158.749 71.618 159.307 71.024 160.015 70.604C160.735 70.184 161.533 69.974 162.409 69.974C163.273 69.974 164.023 70.16 164.659 70.532C165.295 70.904 165.769 71.372 166.081 71.936V70.136H167.737V80H166.081V78.164C165.757 78.74 165.271 79.22 164.623 79.604C163.987 79.976 163.243 80.162 162.391 80.162C161.515 80.162 160.723 79.946 160.015 79.514C159.307 79.082 158.749 78.476 158.341 77.696C157.933 76.916 157.729 76.028 157.729 75.032ZM166.081 75.05C166.081 74.306 165.931 73.658 165.631 73.106C165.331 72.554 164.923 72.134 164.407 71.846C163.903 71.546 163.345 71.396 162.733 71.396C162.121 71.396 161.563 71.54 161.059 71.828C160.555 72.116 160.153 72.536 159.853 73.088C159.553 73.64 159.403 74.288 159.403 75.032C159.403 75.788 159.553 76.448 159.853 77.012C160.153 77.564 160.555 77.99 161.059 78.29C161.563 78.578 162.121 78.722 162.733 78.722C163.345 78.722 163.903 78.578 164.407 78.29C164.923 77.99 165.331 77.564 165.631 77.012C165.931 76.448 166.081 75.794 166.081 75.05ZM171.351 68.534C171.039 68.534 170.775 68.426 170.559 68.21C170.343 67.994 170.235 67.73 170.235 67.418C170.235 67.106 170.343 66.842 170.559 66.626C170.775 66.41 171.039 66.302 171.351 66.302C171.651 66.302 171.903 66.41 172.107 66.626C172.323 66.842 172.431 67.106 172.431 67.418C172.431 67.73 172.323 67.994 172.107 68.21C171.903 68.426 171.651 68.534 171.351 68.534ZM172.143 70.136V80H170.505V70.136H172.143ZM179.741 69.956C180.941 69.956 181.913 70.322 182.657 71.054C183.401 71.774 183.773 72.818 183.773 74.186V80H182.153V74.42C182.153 73.436 181.907 72.686 181.415 72.17C180.923 71.642 180.251 71.378 179.399 71.378C178.535 71.378 177.845 71.648 177.329 72.188C176.825 72.728 176.573 73.514 176.573 74.546V80H174.935V70.136H176.573V71.54C176.897 71.036 177.335 70.646 177.887 70.37C178.451 70.094 179.069 69.956 179.741 69.956Z" fill="#B6B4C2"/>
<path d="M48.2346 22.72C47.7786 21.88 47.1186 21.244 46.2546 20.812C45.4146 20.356 44.4186 20.128 43.2666 20.128C41.2746 20.128 39.6786 20.788 38.4786 22.108C37.2786 23.404 36.6786 25.144 36.6786 27.328C36.6786 29.656 37.3026 31.48 38.5506 32.8C39.8226 34.096 41.5626 34.744 43.7706 34.744C45.2826 34.744 46.5546 34.36 47.5866 33.592C48.6426 32.824 49.4106 31.72 49.8906 30.28H42.0786V25.744H55.4706V31.468C55.0146 33.004 54.2346 34.432 53.1306 35.752C52.0506 37.072 50.6706 38.14 48.9906 38.956C47.3106 39.772 45.4146 40.18 43.3026 40.18C40.8066 40.18 38.5746 39.64 36.6066 38.56C34.6626 37.456 33.1386 35.932 32.0346 33.988C30.9546 32.044 30.4146 29.824 30.4146 27.328C30.4146 24.832 30.9546 22.612 32.0346 20.668C33.1386 18.7 34.6626 17.176 36.6066 16.096C38.5506 14.992 40.7706 14.44 43.2666 14.44C46.2906 14.44 48.8346 15.172 50.8986 16.636C52.9866 18.1 54.3666 20.128 55.0386 22.72H48.2346ZM87.5004 14.728V40H81.3444V24.844L75.6924 40H70.7244L65.0364 24.808V40H58.8804V14.728H66.1524L73.2444 32.224L80.2644 14.728H87.5004ZM101.071 40.252C99.2233 40.252 97.5673 39.952 96.1033 39.352C94.6393 38.752 93.4633 37.864 92.5753 36.688C91.7113 35.512 91.2553 34.096 91.2073 32.44H97.7593C97.8553 33.376 98.1793 34.096 98.7313 34.6C99.2833 35.08 100.003 35.32 100.891 35.32C101.803 35.32 102.523 35.116 103.051 34.708C103.579 34.276 103.843 33.688 103.843 32.944C103.843 32.32 103.627 31.804 103.195 31.396C102.787 30.988 102.271 30.652 101.647 30.388C101.047 30.124 100.183 29.824 99.0553 29.488C97.4233 28.984 96.0913 28.48 95.0593 27.976C94.0273 27.472 93.1393 26.728 92.3953 25.744C91.6513 24.76 91.2793 23.476 91.2793 21.892C91.2793 19.54 92.1313 17.704 93.8353 16.384C95.5393 15.04 97.7593 14.368 100.495 14.368C103.279 14.368 105.523 15.04 107.227 16.384C108.931 17.704 109.843 19.552 109.963 21.928H103.303C103.255 21.112 102.955 20.476 102.403 20.02C101.851 19.54 101.143 19.3 100.279 19.3C99.5353 19.3 98.9353 19.504 98.4793 19.912C98.0233 20.296 97.7953 20.86 97.7953 21.604C97.7953 22.42 98.1793 23.056 98.9473 23.512C99.7153 23.968 100.915 24.46 102.547 24.988C104.179 25.54 105.499 26.068 106.507 26.572C107.539 27.076 108.427 27.808 109.171 28.768C109.915 29.728 110.287 30.964 110.287 32.476C110.287 33.916 109.915 35.224 109.171 36.4C108.451 37.576 107.395 38.512 106.003 39.208C104.611 39.904 102.967 40.252 101.071 40.252Z" fill="url(#paint0_linear_229_4141)"/>
<path d="M130.528 14.728V19.66H120.232V24.988H127.936V29.776H120.232V40H114.076V14.728H130.528ZM136.859 17.824C135.779 17.824 134.891 17.512 134.195 16.888C133.523 16.24 133.187 15.448 133.187 14.512C133.187 13.552 133.523 12.76 134.195 12.136C134.891 11.488 135.779 11.164 136.859 11.164C137.915 11.164 138.779 11.488 139.451 12.136C140.147 12.76 140.495 13.552 140.495 14.512C140.495 15.448 140.147 16.24 139.451 16.888C138.779 17.512 137.915 17.824 136.859 17.824ZM139.919 19.912V40H133.763V19.912H139.919ZM155.576 34.78V40H152.444C150.212 40 148.472 39.46 147.224 38.38C145.976 37.276 145.352 35.488 145.352 33.016V25.024H142.904V19.912H145.352V15.016H151.508V19.912H155.54V25.024H151.508V33.088C151.508 33.688 151.652 34.12 151.94 34.384C152.228 34.648 152.708 34.78 153.38 34.78H155.576Z" fill="#1D1617"/>
<defs>
<linearGradient id="paint0_linear_229_4141" x1="263.667" y1="104" x2="-38.4083" y2="49.6003" gradientUnits="userSpaceOnUse">
<stop stop-color="#CC8FED"/>
<stop offset="1" stop-color="#6B50F6"/>
</linearGradient>
</defs>
</svg>
