<svg width="306" height="172" viewBox="0 0 306 172" fill="none" xmlns="http://www.w3.org/2000/svg">
<path d="M289.542 121.224C290.441 120.502 291.146 119.91 291.656 119.45C292.166 118.982 292.595 118.497 292.942 117.994C293.296 117.484 293.473 116.985 293.473 116.496C293.473 116.036 293.36 115.675 293.133 115.412C292.914 115.143 292.556 115.009 292.06 115.009C291.578 115.009 291.203 115.161 290.934 115.466C290.672 115.763 290.53 116.163 290.509 116.666H289.574C289.602 115.873 289.843 115.26 290.296 114.828C290.75 114.396 291.334 114.18 292.049 114.18C292.779 114.18 293.356 114.382 293.781 114.786C294.213 115.189 294.429 115.745 294.429 116.454C294.429 117.042 294.252 117.615 293.898 118.175C293.551 118.727 293.154 119.216 292.708 119.641C292.262 120.059 291.692 120.548 290.998 121.107H294.653V121.915H289.542V121.224ZM298.82 116.071C299.259 116.071 299.655 116.167 300.01 116.358C300.364 116.542 300.64 116.822 300.838 117.197C301.044 117.573 301.146 118.03 301.146 118.568V122H300.19V118.706C300.19 118.125 300.045 117.683 299.755 117.378C299.464 117.066 299.067 116.911 298.565 116.911C298.055 116.911 297.647 117.07 297.343 117.389C297.045 117.707 296.896 118.171 296.896 118.781V122H295.93V114.137H296.896V117.006C297.088 116.709 297.35 116.479 297.683 116.316C298.023 116.153 298.402 116.071 298.82 116.071Z" fill="#B6B4C2"/>
<path d="M289.425 93.2894V92.5562L293.154 87.3925H294.312V92.45H295.375V93.2894H294.312V95H293.356V93.2894H289.425ZM293.399 88.4019L290.541 92.45H293.399V88.4019ZM299.39 89.0712C299.829 89.0712 300.226 89.1669 300.58 89.3581C300.934 89.5423 301.211 89.8221 301.409 90.1975C301.614 90.5729 301.717 91.0298 301.717 91.5681V95H300.761V91.7062C300.761 91.1254 300.616 90.6827 300.325 90.3781C300.035 90.0665 299.638 89.9106 299.135 89.9106C298.625 89.9106 298.218 90.07 297.913 90.3887C297.616 90.7075 297.467 91.1715 297.467 91.7806V95H296.5V87.1375H297.467V90.0062C297.658 89.7087 297.92 89.4785 298.253 89.3156C298.593 89.1527 298.972 89.0712 299.39 89.0712Z" fill="#B6B4C2"/>
<path d="M293.941 61.1456C293.785 60.3594 293.3 59.9662 292.485 59.9662C291.855 59.9662 291.384 60.2106 291.072 60.6994C290.76 61.181 290.608 61.9779 290.615 63.09C290.778 62.7217 291.047 62.4348 291.423 62.2294C291.805 62.0169 292.23 61.9106 292.698 61.9106C293.427 61.9106 294.008 62.1373 294.44 62.5906C294.879 63.044 295.099 63.6708 295.099 64.4712C295.099 64.9529 295.003 65.385 294.812 65.7675C294.628 66.15 294.344 66.4546 293.962 66.6812C293.586 66.9079 293.13 67.0213 292.591 67.0213C291.862 67.0213 291.291 66.8583 290.881 66.5325C290.47 66.2067 290.183 65.7569 290.02 65.1831C289.857 64.6094 289.776 63.901 289.776 63.0581C289.776 60.4585 290.682 59.1587 292.496 59.1587C293.19 59.1587 293.735 59.3465 294.132 59.7219C294.529 60.0973 294.762 60.5719 294.833 61.1456H293.941ZM292.496 62.7287C292.191 62.7287 291.904 62.7925 291.635 62.92C291.366 63.0404 291.146 63.2281 290.976 63.4831C290.813 63.731 290.732 64.0356 290.732 64.3969C290.732 64.9352 290.888 65.3744 291.199 65.7144C291.511 66.0473 291.957 66.2137 292.538 66.2137C293.034 66.2137 293.427 66.0615 293.718 65.7569C294.015 65.4452 294.164 65.0273 294.164 64.5031C294.164 63.9506 294.022 63.5185 293.739 63.2069C293.455 62.8881 293.041 62.7287 292.496 62.7287ZM299.453 61.0712C299.892 61.0712 300.288 61.1669 300.643 61.3581C300.997 61.5423 301.273 61.8221 301.471 62.1975C301.677 62.5729 301.779 63.0298 301.779 63.5681V67H300.823V63.7062C300.823 63.1254 300.678 62.6827 300.388 62.3781C300.097 62.0665 299.7 61.9106 299.198 61.9106C298.688 61.9106 298.28 62.07 297.976 62.3887C297.678 62.7075 297.529 63.1715 297.529 63.7806V67H296.563V59.1375H297.529V62.0062C297.721 61.7087 297.983 61.4785 298.316 61.3156C298.656 61.1527 299.035 61.0712 299.453 61.0712Z" fill="#B6B4C2"/>
<path d="M290.753 35.835C290.087 35.4808 289.754 34.9248 289.754 34.1669C289.754 33.7844 289.854 33.4373 290.052 33.1256C290.25 32.8069 290.551 32.5554 290.955 32.3712C291.359 32.18 291.855 32.0844 292.443 32.0844C293.03 32.0844 293.523 32.18 293.919 32.3712C294.323 32.5554 294.624 32.8069 294.823 33.1256C295.021 33.4373 295.12 33.7844 295.12 34.1669C295.12 34.5494 295.028 34.8823 294.844 35.1656C294.667 35.449 294.426 35.6721 294.121 35.835C294.504 36.0192 294.798 36.2742 295.003 36.6C295.209 36.9187 295.311 37.2942 295.311 37.7262C295.311 38.2292 295.184 38.6648 294.929 39.0331C294.674 39.3944 294.327 39.6706 293.888 39.8619C293.455 40.0531 292.974 40.1488 292.443 40.1488C291.911 40.1488 291.426 40.0531 290.987 39.8619C290.555 39.6706 290.211 39.3944 289.956 39.0331C289.701 38.6648 289.574 38.2292 289.574 37.7262C289.574 37.2871 289.676 36.9081 289.882 36.5894C290.087 36.2635 290.378 36.0121 290.753 35.835ZM293.356 34.4431C293.356 34.1527 293.271 33.9296 293.101 33.7737C292.938 33.6108 292.719 33.5294 292.443 33.5294C292.166 33.5294 291.943 33.6108 291.773 33.7737C291.61 33.9367 291.529 34.1633 291.529 34.4537C291.529 34.73 291.614 34.9496 291.784 35.1125C291.954 35.2683 292.173 35.3462 292.443 35.3462C292.712 35.3462 292.931 35.2648 293.101 35.1019C293.271 34.939 293.356 34.7194 293.356 34.4431ZM292.443 36.6212C292.11 36.6212 291.84 36.7133 291.635 36.8975C291.43 37.0746 291.327 37.3225 291.327 37.6412C291.327 37.9387 291.426 38.1831 291.624 38.3744C291.83 38.5656 292.103 38.6612 292.443 38.6612C292.783 38.6612 293.048 38.5656 293.239 38.3744C293.438 38.1831 293.537 37.9387 293.537 37.6412C293.537 37.3296 293.434 37.0817 293.229 36.8975C293.03 36.7133 292.768 36.6212 292.443 36.6212ZM300.193 34.0075C300.873 34.0075 301.418 34.2342 301.829 34.6875C302.24 35.1337 302.445 35.75 302.445 36.5362V40H300.639V36.7806C300.639 36.384 300.536 36.0758 300.331 35.8562C300.125 35.6367 299.849 35.5269 299.502 35.5269C299.155 35.5269 298.879 35.6367 298.673 35.8562C298.468 36.0758 298.365 36.384 298.365 36.7806V40H296.548V32.1375H298.365V34.8681C298.549 34.606 298.801 34.3971 299.12 34.2412C299.438 34.0854 299.796 34.0075 300.193 34.0075Z" fill="url(#paint0_linear_229_3425)"/>
<path d="M289.404 5.2V4.31812H291.401V12H290.424V5.2H289.404ZM293.062 8.07937C293.062 6.86104 293.26 5.91187 293.657 5.23187C294.054 4.54479 294.748 4.20125 295.74 4.20125C296.724 4.20125 297.415 4.54479 297.811 5.23187C298.208 5.91187 298.406 6.86104 298.406 8.07937C298.406 9.31896 298.208 10.2823 297.811 10.9694C297.415 11.6565 296.724 12 295.74 12C294.748 12 294.054 11.6565 293.657 10.9694C293.26 10.2823 293.062 9.31896 293.062 8.07937ZM297.45 8.07937C297.45 7.46312 297.408 6.9425 297.323 6.5175C297.245 6.08542 297.078 5.73833 296.823 5.47625C296.575 5.21417 296.214 5.08312 295.74 5.08312C295.258 5.08312 294.89 5.21417 294.635 5.47625C294.387 5.73833 294.22 6.08542 294.135 6.5175C294.057 6.9425 294.018 7.46312 294.018 8.07937C294.018 8.71687 294.057 9.25167 294.135 9.68375C294.22 10.1158 294.387 10.4629 294.635 10.725C294.89 10.9871 295.258 11.1181 295.74 11.1181C296.214 11.1181 296.575 10.9871 296.823 10.725C297.078 10.4629 297.245 10.1158 297.323 9.68375C297.408 9.25167 297.45 8.71687 297.45 8.07937ZM302.783 6.07125C303.222 6.07125 303.619 6.16687 303.973 6.35812C304.327 6.54229 304.604 6.82208 304.802 7.1975C305.007 7.57292 305.11 8.02979 305.11 8.56812V12H304.154V8.70625C304.154 8.12542 304.009 7.68271 303.718 7.37812C303.428 7.06646 303.031 6.91062 302.528 6.91062C302.018 6.91062 301.611 7.07 301.306 7.38875C301.009 7.7075 300.86 8.17146 300.86 8.78062V12H299.893V4.1375H300.86V7.00625C301.051 6.70875 301.313 6.47854 301.646 6.31562C301.986 6.15271 302.365 6.07125 302.783 6.07125Z" fill="#B6B4C2"/>
<path d="M290.191 146.079C290.191 144.861 290.389 143.912 290.786 143.232C291.182 142.545 291.877 142.201 292.868 142.201C293.853 142.201 294.543 142.545 294.94 143.232C295.337 143.912 295.535 144.861 295.535 146.079C295.535 147.319 295.337 148.282 294.94 148.969C294.543 149.656 293.853 150 292.868 150C291.877 150 291.182 149.656 290.786 148.969C290.389 148.282 290.191 147.319 290.191 146.079ZM294.579 146.079C294.579 145.463 294.536 144.942 294.451 144.517C294.373 144.085 294.207 143.738 293.952 143.476C293.704 143.214 293.343 143.083 292.868 143.083C292.387 143.083 292.018 143.214 291.763 143.476C291.515 143.738 291.349 144.085 291.264 144.517C291.186 144.942 291.147 145.463 291.147 146.079C291.147 146.717 291.186 147.252 291.264 147.684C291.349 148.116 291.515 148.463 291.763 148.725C292.018 148.987 292.387 149.118 292.868 149.118C293.343 149.118 293.704 148.987 293.952 148.725C294.207 148.463 294.373 148.116 294.451 147.684C294.536 147.252 294.579 146.717 294.579 146.079ZM299.912 144.071C300.351 144.071 300.748 144.167 301.102 144.358C301.456 144.542 301.732 144.822 301.931 145.197C302.136 145.573 302.239 146.03 302.239 146.568V150H301.282V146.706C301.282 146.125 301.137 145.683 300.847 145.378C300.556 145.066 300.16 144.911 299.657 144.911C299.147 144.911 298.74 145.07 298.435 145.389C298.137 145.707 297.989 146.171 297.989 146.781V150H297.022V142.137H297.989V145.006C298.18 144.709 298.442 144.479 298.775 144.316C299.115 144.153 299.494 144.071 299.912 144.071Z" fill="#B6B4C2"/>
<g opacity="0.3">
<line x1="1" y1="7.4" x2="284" y2="7.4" stroke="#A5A3B0" stroke-width="1.2"/>
<line x1="1" y1="35.4" x2="284" y2="35.4" stroke="#A5A3B0" stroke-width="1.2"/>
<line x1="1" y1="62.4" x2="284" y2="62.4" stroke="#A5A3B0" stroke-width="1.2"/>
<line x1="1" y1="89.4" x2="284" y2="89.4" stroke="#A5A3B0" stroke-width="1.2"/>
<line x1="1" y1="117.4" x2="284" y2="117.4" stroke="#A5A3B0" stroke-width="1.2"/>
<line x1="1" y1="144.4" x2="284" y2="144.4" stroke="#A5A3B0" stroke-width="1.2"/>
</g>
<path d="M8.576 167.084C8.024 167.084 7.528 166.988 7.088 166.796C6.656 166.596 6.316 166.324 6.068 165.98C5.82 165.628 5.692 165.224 5.684 164.768H6.848C6.888 165.16 7.048 165.492 7.328 165.764C7.616 166.028 8.032 166.16 8.576 166.16C9.096 166.16 9.504 166.032 9.8 165.776C10.104 165.512 10.256 165.176 10.256 164.768C10.256 164.448 10.168 164.188 9.992 163.988C9.816 163.788 9.596 163.636 9.332 163.532C9.068 163.428 8.712 163.316 8.264 163.196C7.712 163.052 7.268 162.908 6.932 162.764C6.604 162.62 6.32 162.396 6.08 162.092C5.848 161.78 5.732 161.364 5.732 160.844C5.732 160.388 5.848 159.984 6.08 159.632C6.312 159.28 6.636 159.008 7.052 158.816C7.476 158.624 7.96 158.528 8.504 158.528C9.288 158.528 9.928 158.724 10.424 159.116C10.928 159.508 11.212 160.028 11.276 160.676H10.076C10.036 160.356 9.868 160.076 9.572 159.836C9.276 159.588 8.884 159.464 8.396 159.464C7.94 159.464 7.568 159.584 7.28 159.824C6.992 160.056 6.848 160.384 6.848 160.808C6.848 161.112 6.932 161.36 7.1 161.552C7.276 161.744 7.488 161.892 7.736 161.996C7.992 162.092 8.348 162.204 8.804 162.332C9.356 162.484 9.8 162.636 10.136 162.788C10.472 162.932 10.76 163.16 11 163.472C11.24 163.776 11.36 164.192 11.36 164.72C11.36 165.128 11.252 165.512 11.036 165.872C10.82 166.232 10.5 166.524 10.076 166.748C9.652 166.972 9.152 167.084 8.576 167.084ZM18.799 160.424V167H17.707V166.028C17.499 166.364 17.207 166.628 16.831 166.82C16.463 167.004 16.055 167.096 15.607 167.096C15.095 167.096 14.635 166.992 14.227 166.784C13.819 166.568 13.495 166.248 13.255 165.824C13.023 165.4 12.907 164.884 12.907 164.276V160.424H13.987V164.132C13.987 164.78 14.151 165.28 14.479 165.632C14.807 165.976 15.255 166.148 15.823 166.148C16.407 166.148 16.867 165.968 17.203 165.608C17.539 165.248 17.707 164.724 17.707 164.036V160.424H18.799ZM23.8468 160.304C24.6468 160.304 25.2948 160.548 25.7908 161.036C26.2868 161.516 26.5348 162.212 26.5348 163.124V167H25.4548V163.28C25.4548 162.624 25.2908 162.124 24.9628 161.78C24.6348 161.428 24.1868 161.252 23.6188 161.252C23.0428 161.252 22.5828 161.432 22.2388 161.792C21.9028 162.152 21.7348 162.676 21.7348 163.364V167H20.6428V160.424H21.7348V161.36C21.9508 161.024 22.2428 160.764 22.6108 160.58C22.9868 160.396 23.3988 160.304 23.8468 160.304Z" fill="#B6B4C2"/>
<path d="M57.408 158.696V167H56.316V160.808L53.556 167H52.788L50.016 160.796V167H48.924V158.696H50.1L53.172 165.56L56.244 158.696H57.408ZM62.1279 167.108C61.5119 167.108 60.9519 166.968 60.4479 166.688C59.9519 166.408 59.5599 166.012 59.2719 165.5C58.9919 164.98 58.8519 164.38 58.8519 163.7C58.8519 163.028 58.9959 162.436 59.2839 161.924C59.5799 161.404 59.9799 161.008 60.4839 160.736C60.9879 160.456 61.5519 160.316 62.1759 160.316C62.7999 160.316 63.3639 160.456 63.8679 160.736C64.3719 161.008 64.7679 161.4 65.0559 161.912C65.3519 162.424 65.4999 163.02 65.4999 163.7C65.4999 164.38 65.3479 164.98 65.0439 165.5C64.7479 166.012 64.3439 166.408 63.8319 166.688C63.3199 166.968 62.7519 167.108 62.1279 167.108ZM62.1279 166.148C62.5199 166.148 62.8879 166.056 63.2319 165.872C63.5759 165.688 63.8519 165.412 64.0599 165.044C64.2759 164.676 64.3839 164.228 64.3839 163.7C64.3839 163.172 64.2799 162.724 64.0719 162.356C63.8639 161.988 63.5919 161.716 63.2559 161.54C62.9199 161.356 62.5559 161.264 62.1639 161.264C61.7639 161.264 61.3959 161.356 61.0599 161.54C60.7319 161.716 60.4679 161.988 60.2679 162.356C60.0679 162.724 59.9679 163.172 59.9679 163.7C59.9679 164.236 60.0639 164.688 60.2559 165.056C60.4559 165.424 60.7199 165.7 61.0479 165.884C61.3759 166.06 61.7359 166.148 62.1279 166.148ZM70.1397 160.304C70.9397 160.304 71.5877 160.548 72.0837 161.036C72.5797 161.516 72.8277 162.212 72.8277 163.124V167H71.7477V163.28C71.7477 162.624 71.5837 162.124 71.2557 161.78C70.9277 161.428 70.4797 161.252 69.9117 161.252C69.3357 161.252 68.8757 161.432 68.5317 161.792C68.1957 162.152 68.0277 162.676 68.0277 163.364V167H66.9357V160.424H68.0277V161.36C68.2437 161.024 68.5357 160.764 68.9037 160.58C69.2797 160.396 69.6917 160.304 70.1397 160.304Z" fill="#B6B4C2"/>
<path d="M100.072 158.636V159.524H97.792V167H96.7V159.524H94.408V158.636H100.072ZM107.248 160.424V167H106.156V166.028C105.948 166.364 105.656 166.628 105.28 166.82C104.912 167.004 104.504 167.096 104.056 167.096C103.544 167.096 103.084 166.992 102.676 166.784C102.268 166.568 101.944 166.248 101.704 165.824C101.472 165.4 101.356 164.884 101.356 164.276V160.424H102.436V164.132C102.436 164.78 102.6 165.28 102.928 165.632C103.256 165.976 103.704 166.148 104.272 166.148C104.856 166.148 105.316 165.968 105.652 165.608C105.988 165.248 106.156 164.724 106.156 164.036V160.424H107.248ZM115.092 163.46C115.092 163.668 115.08 163.888 115.056 164.12H109.8C109.84 164.768 110.06 165.276 110.46 165.644C110.868 166.004 111.36 166.184 111.936 166.184C112.408 166.184 112.8 166.076 113.112 165.86C113.432 165.636 113.656 165.34 113.784 164.972H114.96C114.784 165.604 114.432 166.12 113.904 166.52C113.376 166.912 112.72 167.108 111.936 167.108C111.312 167.108 110.752 166.968 110.256 166.688C109.768 166.408 109.384 166.012 109.104 165.5C108.824 164.98 108.684 164.38 108.684 163.7C108.684 163.02 108.82 162.424 109.092 161.912C109.364 161.4 109.744 161.008 110.232 160.736C110.728 160.456 111.296 160.316 111.936 160.316C112.56 160.316 113.112 160.452 113.592 160.724C114.072 160.996 114.44 161.372 114.696 161.852C114.96 162.324 115.092 162.86 115.092 163.46ZM113.964 163.232C113.964 162.816 113.872 162.46 113.688 162.164C113.504 161.86 113.252 161.632 112.932 161.48C112.62 161.32 112.272 161.24 111.888 161.24C111.336 161.24 110.864 161.416 110.472 161.768C110.088 162.12 109.868 162.608 109.812 163.232H113.964Z" fill="#B6B4C2"/>
<path d="M147.436 158.636L145.012 167H143.788L141.844 160.268L139.828 167L138.616 167.012L136.276 158.636H137.44L139.264 165.728L141.28 158.636H142.504L144.424 165.704L146.26 158.636H147.436ZM154.631 163.46C154.631 163.668 154.619 163.888 154.595 164.12H149.339C149.379 164.768 149.599 165.276 149.999 165.644C150.407 166.004 150.899 166.184 151.475 166.184C151.947 166.184 152.339 166.076 152.651 165.86C152.971 165.636 153.195 165.34 153.323 164.972H154.499C154.323 165.604 153.971 166.12 153.443 166.52C152.915 166.912 152.259 167.108 151.475 167.108C150.851 167.108 150.291 166.968 149.795 166.688C149.307 166.408 148.923 166.012 148.643 165.5C148.363 164.98 148.223 164.38 148.223 163.7C148.223 163.02 148.359 162.424 148.631 161.912C148.903 161.4 149.283 161.008 149.771 160.736C150.267 160.456 150.835 160.316 151.475 160.316C152.099 160.316 152.651 160.452 153.131 160.724C153.611 160.996 153.979 161.372 154.235 161.852C154.499 162.324 154.631 162.86 154.631 163.46ZM153.503 163.232C153.503 162.816 153.411 162.46 153.227 162.164C153.043 161.86 152.791 161.632 152.471 161.48C152.159 161.32 151.811 161.24 151.427 161.24C150.875 161.24 150.403 161.416 150.011 161.768C149.627 162.12 149.407 162.608 149.351 163.232H153.503ZM155.664 163.688C155.664 163.016 155.8 162.428 156.072 161.924C156.344 161.412 156.716 161.016 157.188 160.736C157.668 160.456 158.204 160.316 158.796 160.316C159.308 160.316 159.784 160.436 160.224 160.676C160.664 160.908 161 161.216 161.232 161.6V158.12H162.336V167H161.232V165.764C161.016 166.156 160.696 166.48 160.272 166.736C159.848 166.984 159.352 167.108 158.784 167.108C158.2 167.108 157.668 166.964 157.188 166.676C156.716 166.388 156.344 165.984 156.072 165.464C155.8 164.944 155.664 164.352 155.664 163.688ZM161.232 163.7C161.232 163.204 161.132 162.772 160.932 162.404C160.732 162.036 160.46 161.756 160.116 161.564C159.78 161.364 159.408 161.264 159 161.264C158.592 161.264 158.22 161.36 157.884 161.552C157.548 161.744 157.28 162.024 157.08 162.392C156.88 162.76 156.78 163.192 156.78 163.688C156.78 164.192 156.88 164.632 157.08 165.008C157.28 165.376 157.548 165.66 157.884 165.86C158.22 166.052 158.592 166.148 159 166.148C159.408 166.148 159.78 166.052 160.116 165.86C160.46 165.66 160.732 165.376 160.932 165.008C161.132 164.632 161.232 164.196 161.232 163.7Z" fill="#B6B4C2"/>
<path d="M190.804 158.576V160.22H188.572V167H186.52V160.22H184.288V158.576H190.804ZM195.95 160.232C196.718 160.232 197.334 160.488 197.798 161C198.262 161.504 198.494 162.2 198.494 163.088V167H196.454V163.364C196.454 162.916 196.338 162.568 196.106 162.32C195.874 162.072 195.562 161.948 195.17 161.948C194.778 161.948 194.466 162.072 194.234 162.32C194.002 162.568 193.886 162.916 193.886 163.364V167H191.834V158.12H193.886V161.204C194.094 160.908 194.378 160.672 194.738 160.496C195.098 160.32 195.502 160.232 195.95 160.232ZM206.532 160.304V167H204.48V166.088C204.272 166.384 203.988 166.624 203.628 166.808C203.276 166.984 202.884 167.072 202.452 167.072C201.94 167.072 201.488 166.96 201.096 166.736C200.704 166.504 200.4 166.172 200.184 165.74C199.968 165.308 199.86 164.8 199.86 164.216V160.304H201.9V163.94C201.9 164.388 202.016 164.736 202.248 164.984C202.48 165.232 202.792 165.356 203.184 165.356C203.584 165.356 203.9 165.232 204.132 164.984C204.364 164.736 204.48 164.388 204.48 163.94V160.304H206.532Z" fill="url(#paint1_linear_229_3425)"/>
<path d="M231.652 158.636V159.524H228.016V162.344H230.968V163.232H228.016V167H226.924V158.636H231.652ZM234.063 161.492C234.255 161.116 234.527 160.824 234.879 160.616C235.239 160.408 235.675 160.304 236.187 160.304V161.432H235.899C234.675 161.432 234.063 162.096 234.063 163.424V167H232.971V160.424H234.063V161.492ZM238.011 159.356C237.803 159.356 237.627 159.284 237.483 159.14C237.339 158.996 237.267 158.82 237.267 158.612C237.267 158.404 237.339 158.228 237.483 158.084C237.627 157.94 237.803 157.868 238.011 157.868C238.211 157.868 238.379 157.94 238.515 158.084C238.659 158.228 238.731 158.404 238.731 158.612C238.731 158.82 238.659 158.996 238.515 159.14C238.379 159.284 238.211 159.356 238.011 159.356ZM238.539 160.424V167H237.447V160.424H238.539Z" fill="#B6B4C2"/>
<path d="M263.576 167.084C263.024 167.084 262.528 166.988 262.088 166.796C261.656 166.596 261.316 166.324 261.068 165.98C260.82 165.628 260.692 165.224 260.684 164.768H261.848C261.888 165.16 262.048 165.492 262.328 165.764C262.616 166.028 263.032 166.16 263.576 166.16C264.096 166.16 264.504 166.032 264.8 165.776C265.104 165.512 265.256 165.176 265.256 164.768C265.256 164.448 265.168 164.188 264.992 163.988C264.816 163.788 264.596 163.636 264.332 163.532C264.068 163.428 263.712 163.316 263.264 163.196C262.712 163.052 262.268 162.908 261.932 162.764C261.604 162.62 261.32 162.396 261.08 162.092C260.848 161.78 260.732 161.364 260.732 160.844C260.732 160.388 260.848 159.984 261.08 159.632C261.312 159.28 261.636 159.008 262.052 158.816C262.476 158.624 262.96 158.528 263.504 158.528C264.288 158.528 264.928 158.724 265.424 159.116C265.928 159.508 266.212 160.028 266.276 160.676H265.076C265.036 160.356 264.868 160.076 264.572 159.836C264.276 159.588 263.884 159.464 263.396 159.464C262.94 159.464 262.568 159.584 262.28 159.824C261.992 160.056 261.848 160.384 261.848 160.808C261.848 161.112 261.932 161.36 262.1 161.552C262.276 161.744 262.488 161.892 262.736 161.996C262.992 162.092 263.348 162.204 263.804 162.332C264.356 162.484 264.8 162.636 265.136 162.788C265.472 162.932 265.76 163.16 266 163.472C266.24 163.776 266.36 164.192 266.36 164.72C266.36 165.128 266.252 165.512 266.036 165.872C265.82 166.232 265.5 166.524 265.076 166.748C264.652 166.972 264.152 167.084 263.576 167.084ZM267.559 163.688C267.559 163.016 267.695 162.428 267.967 161.924C268.239 161.412 268.611 161.016 269.083 160.736C269.563 160.456 270.095 160.316 270.679 160.316C271.255 160.316 271.755 160.44 272.179 160.688C272.603 160.936 272.919 161.248 273.127 161.624V160.424H274.231V167H273.127V165.776C272.911 166.16 272.587 166.48 272.155 166.736C271.731 166.984 271.235 167.108 270.667 167.108C270.083 167.108 269.555 166.964 269.083 166.676C268.611 166.388 268.239 165.984 267.967 165.464C267.695 164.944 267.559 164.352 267.559 163.688ZM273.127 163.7C273.127 163.204 273.027 162.772 272.827 162.404C272.627 162.036 272.355 161.756 272.011 161.564C271.675 161.364 271.303 161.264 270.895 161.264C270.487 161.264 270.115 161.36 269.779 161.552C269.443 161.744 269.175 162.024 268.975 162.392C268.775 162.76 268.675 163.192 268.675 163.688C268.675 164.192 268.775 164.632 268.975 165.008C269.175 165.376 269.443 165.66 269.779 165.86C270.115 166.052 270.487 166.148 270.895 166.148C271.303 166.148 271.675 166.052 272.011 165.86C272.355 165.66 272.627 165.376 272.827 165.008C273.027 164.632 273.127 164.196 273.127 163.7ZM277.408 161.324V165.2C277.408 165.52 277.476 165.748 277.612 165.884C277.748 166.012 277.984 166.076 278.32 166.076H279.124V167H278.14C277.532 167 277.076 166.86 276.772 166.58C276.468 166.3 276.316 165.84 276.316 165.2V161.324H275.464V160.424H276.316V158.768H277.408V160.424H279.124V161.324H277.408Z" fill="#B6B4C2"/>
<path d="M51.864 78.5C20.8463 78.5 10.742 105.833 0 119.5V145H285V36C242.2 47 250.76 82.5 219.541 82.5C196.882 82.5 183.79 58 158.11 58C131.403 58 138.975 99.5 107.756 99.5C75.4946 99.5 68.9841 78.5 51.864 78.5Z" fill="url(#paint2_linear_229_3425)"/>
<path d="M1 119.5C11.6667 105.833 21.7 78.5 52.5 78.5C69.5 78.5 75.9649 99.5 108 99.5C139 99.5 131.481 58 158 58C183.5 58 196.5 82.5 219 82.5C250 82.5 241.5 47 284 36" stroke="url(#paint3_linear_229_3425)" stroke-width="1.8" stroke-linecap="round"/>
<path d="M199.5 74.5C199.5 76.1569 198.157 77.5 196.5 77.5C194.843 77.5 193.5 76.1569 193.5 74.5C193.5 72.8431 194.843 71.5 196.5 71.5C198.157 71.5 199.5 72.8431 199.5 74.5Z" fill="white" stroke="url(#paint4_linear_229_3425)"/>
<line x1="196.4" y1="80.4" x2="196.4" y2="153.6" stroke="url(#paint5_linear_229_3425)" stroke-width="0.8" stroke-linecap="round" stroke-dasharray="1.5 1.5"/>
<defs>
<linearGradient id="paint0_linear_229_3425" x1="304" y1="44" x2="283.994" y2="42.5486" gradientUnits="userSpaceOnUse">
<stop stop-color="#00FF66"/>
<stop offset="1" stop-color="#00F0FF"/>
</linearGradient>
<linearGradient id="paint1_linear_229_3425" x1="208" y1="172" x2="176.16" y2="168.715" gradientUnits="userSpaceOnUse">
<stop stop-color="#00FF66"/>
<stop offset="1" stop-color="#00F0FF"/>
</linearGradient>
<linearGradient id="paint2_linear_229_3425" x1="142.5" y1="-16" x2="142.5" y2="184.5" gradientUnits="userSpaceOnUse">
<stop stop-color="#93A8FE"/>
<stop offset="0.78125" stop-color="white"/>
</linearGradient>
<linearGradient id="paint3_linear_229_3425" x1="284" y1="119.5" x2="-71.0203" y2="26.3919" gradientUnits="userSpaceOnUse">
<stop stop-color="#00FF66"/>
<stop offset="1" stop-color="#00F0FF"/>
</linearGradient>
<linearGradient id="paint4_linear_229_3425" x1="200" y1="78" x2="190.67" y2="77.2781" gradientUnits="userSpaceOnUse">
<stop stop-color="#00FF66"/>
<stop offset="1" stop-color="#00F0FF"/>
</linearGradient>
<linearGradient id="paint5_linear_229_3425" x1="195" y1="154" x2="211.814" y2="151.064" gradientUnits="userSpaceOnUse">
<stop stop-color="#00FF66"/>
<stop offset="1" stop-color="#00F0FF"/>
</linearGradient>
</defs>
</svg>
