<svg width="24" height="31" viewBox="0 0 24 31" fill="none" xmlns="http://www.w3.org/2000/svg">
<circle cx="12" cy="29" r="2" fill="url(#paint0_linear_88_430)"/>
<path fill-rule="evenodd" clip-rule="evenodd" d="M9.15722 20.7714V17.7047C9.1572 16.9246 9.79312 16.2908 10.581 16.2856H13.4671C14.2587 16.2856 14.9005 16.9209 14.9005 17.7047V20.7809C14.9003 21.4432 15.4343 21.9845 16.103 22H18.0271C19.9451 22 21.5 20.4607 21.5 18.5618V9.83784C21.4898 9.09083 21.1355 8.38935 20.538 7.93303L13.9577 2.6853C12.8049 1.77157 11.1662 1.77157 10.0134 2.6853L3.46203 7.94256C2.86226 8.39702 2.50739 9.09967 2.5 9.84736V18.5618C2.5 20.4607 4.05488 22 5.97291 22H7.89696C8.58235 22 9.13797 21.4499 9.13797 20.7714" fill="url(#paint1_linear_88_430)"/>
<defs>
<linearGradient id="paint0_linear_88_430" x1="17.3333" y1="34.7037" x2="7.64328" y2="33.9675" gradientUnits="userSpaceOnUse">
<stop stop-color="#CC8FED"/>
<stop offset="1" stop-color="#6B50F6"/>
</linearGradient>
<linearGradient id="paint1_linear_88_430" x1="37.3333" y1="40.5185" x2="-8.7202" y2="37.1946" gradientUnits="userSpaceOnUse">
<stop stop-color="#CC8FED"/>
<stop offset="1" stop-color="#6B50F6"/>
</linearGradient>
</defs>
</svg>
