<svg width="14" height="14" viewBox="0 0 14 14" fill="none" xmlns="http://www.w3.org/2000/svg">
<path d="M6.99984 7.58334C7.322 7.58334 7.58317 7.32217 7.58317 7.00001C7.58317 6.67784 7.322 6.41667 6.99984 6.41667C6.67767 6.41667 6.4165 6.67784 6.4165 7.00001C6.4165 7.32217 6.67767 7.58334 6.99984 7.58334Z" fill="#A5A3B0" stroke="#A5A3B0" stroke-width="2" stroke-linecap="round" stroke-linejoin="round"/>
<path d="M6.99984 3.49999C7.322 3.49999 7.58317 3.23883 7.58317 2.91666C7.58317 2.5945 7.322 2.33333 6.99984 2.33333C6.67767 2.33333 6.4165 2.5945 6.4165 2.91666C6.4165 3.23883 6.67767 3.49999 6.99984 3.49999Z" fill="#A5A3B0" stroke="#A5A3B0" stroke-width="2" stroke-linecap="round" stroke-linejoin="round"/>
<path d="M6.99984 11.6667C7.322 11.6667 7.58317 11.4055 7.58317 11.0833C7.58317 10.7612 7.322 10.5 6.99984 10.5C6.67767 10.5 6.4165 10.7612 6.4165 11.0833C6.4165 11.4055 6.67767 11.6667 6.99984 11.6667Z" fill="#A5A3B0" stroke="#A5A3B0" stroke-width="2" stroke-linecap="round" stroke-linejoin="round"/>
</svg>
