<svg width="73" height="91" viewBox="0 0 73 91" fill="none" xmlns="http://www.w3.org/2000/svg">
<g clip-path="url(#clip0_151_829)">
<g opacity="0.3">
<path opacity="0.3" d="M18.3031 55.992H18.2588L16.5559 55.4971C16.4975 55.4788 16.4484 55.438 16.4191 55.3832C16.3899 55.3285 16.3828 55.2642 16.3994 55.2042C16.4161 55.1442 16.4551 55.0932 16.5081 55.0622C16.5611 55.0312 16.6239 55.0227 16.683 55.0384L18.3741 55.5273C18.4277 55.5452 18.4732 55.5823 18.502 55.6318C18.5309 55.6813 18.5413 55.7398 18.5312 55.7964C18.5211 55.8531 18.4912 55.9041 18.4471 55.9401C18.403 55.976 18.3477 55.9945 18.2913 55.992H18.3031Z" fill="black"/>
<path opacity="0.3" d="M16.5559 57.3318C16.5077 57.3273 16.462 57.3079 16.425 57.276C16.388 57.2442 16.3615 57.2015 16.349 57.1538C16.3396 57.1225 16.3367 57.0896 16.3404 57.057C16.3441 57.0245 16.3543 56.9931 16.3704 56.9648C16.3865 56.9365 16.4081 56.9119 16.4339 56.8925C16.4597 56.8731 16.4892 56.8593 16.5204 56.852L18.2233 56.4114C18.2824 56.3984 18.3442 56.4093 18.3956 56.4418C18.447 56.4742 18.484 56.5258 18.499 56.5856C18.5139 56.6454 18.5055 56.7087 18.4756 56.7624C18.4457 56.816 18.3966 56.8557 18.3386 56.8731L16.6328 57.3137C16.6084 57.3242 16.5824 57.3304 16.5559 57.3318Z" fill="black"/>
<path opacity="0.3" d="M17.4251 58.9372C17.369 58.9316 17.3167 58.906 17.2773 58.8648C17.2342 58.8202 17.21 58.76 17.21 58.6973C17.21 58.6346 17.2342 58.5745 17.2773 58.5298L18.5367 57.2775C18.5582 57.2534 18.5842 57.234 18.6133 57.2206C18.6423 57.2072 18.6737 57.1999 18.7056 57.1994C18.7375 57.1988 18.7691 57.2049 18.7986 57.2173C18.8281 57.2297 18.8548 57.2481 18.877 57.2714C18.8993 57.2948 18.9166 57.3225 18.9279 57.3529C18.9393 57.3833 18.9444 57.4158 18.943 57.4483C18.9416 57.4808 18.9337 57.5127 18.9197 57.542C18.9058 57.5712 18.8861 57.5973 18.862 57.6185L17.6084 58.8769C17.5836 58.8993 17.5545 58.9163 17.523 58.9267C17.4914 58.9371 17.4581 58.9407 17.4251 58.9372Z" fill="black"/>
<path opacity="0.3" d="M18.9537 59.8878H18.9094C18.8792 59.8792 18.851 59.8645 18.8265 59.8445C18.802 59.8245 18.7817 59.7997 18.7668 59.7715C18.7519 59.7434 18.7427 59.7124 18.7398 59.6806C18.7369 59.6487 18.7402 59.6166 18.7497 59.5861L19.2169 57.8599C19.2347 57.8003 19.2748 57.7502 19.3284 57.7203C19.382 57.6905 19.445 57.6832 19.5038 57.7002C19.5626 57.7172 19.6125 57.757 19.6429 57.8111C19.6732 57.8652 19.6816 57.9293 19.6662 57.9897L19.1873 59.7158C19.1728 59.767 19.1419 59.8118 19.0996 59.8429C19.0572 59.8741 19.0059 59.8899 18.9537 59.8878Z" fill="black"/>
</g>
<path d="M65.139 33.0906L60.9025 35.5802L51.6252 36.9503C51.6252 36.9503 44.8521 26.5633 43.8143 24.9308C42.7766 23.2982 41.5616 22.251 38.75 22.2541L39.2822 30.5407C39.3708 30.8093 44.9792 37.8616 48.6777 41.7062C49.9844 43.0611 50.7856 43.4082 52.8167 42.8288C58.0288 41.3531 64.3467 36.9805 64.8552 35.8881C65.5381 34.4607 65.0888 33.1208 65.139 33.0906Z" fill="#FFEDE5"/>
<path d="M63.3979 27.8368C63.9537 25.9839 66.2243 24.4751 68.3322 25.0786C68.6661 25.1728 68.9862 25.3118 69.2842 25.4921C71.3537 26.6991 73.0004 29.6414 73.0004 32.0616C73.0071 32.4703 72.9513 32.8776 72.8348 33.2687C72.282 35.1185 70.0174 36.6395 67.9006 36.0329C67.5672 35.9374 67.2472 35.7984 66.9486 35.6195C64.8968 34.4124 63.2324 31.4671 63.2324 29.0469C63.2264 28.6373 63.2822 28.2291 63.3979 27.8368Z" fill="#455A64"/>
<path d="M66.9516 35.6014C64.8998 34.3943 63.2354 31.449 63.2354 29.0288C63.2354 26.6086 64.8998 25.6309 66.9516 26.8379C69.0033 28.045 70.6589 30.9873 70.6589 33.4075C70.6589 35.8277 69.0033 36.8084 66.9516 35.6014Z" fill="#37474F"/>
<path d="M66.9514 29.5207C66.1621 29.056 65.5205 29.4332 65.5205 30.3626C65.5474 30.8693 65.6909 31.3624 65.9396 31.8018C66.1882 32.2412 66.5349 32.6145 66.9514 32.8915C67.7408 33.3562 68.3794 32.979 68.3794 32.0495C68.3531 31.5431 68.2101 31.0501 67.9619 30.6107C67.7138 30.1712 67.3676 29.7978 66.9514 29.5207Z" fill="#455A64"/>
<path d="M66.4607 30.9179C66.4702 31.0915 66.5195 31.2603 66.6048 31.4107C66.6901 31.5612 66.8088 31.6891 66.9515 31.784C66.9983 31.8184 67.0528 31.8406 67.11 31.8485C67.1672 31.8564 67.2255 31.8498 67.2796 31.8293L67.3151 31.8081C67.3574 31.7712 67.3906 31.7246 67.4122 31.6722C67.4337 31.6199 67.443 31.5631 67.4393 31.5064C67.4299 31.3331 67.3809 31.1646 67.2962 31.0142C67.2115 30.8638 67.0934 30.7357 66.9515 30.6403C66.9046 30.6058 66.8502 30.5837 66.7929 30.5758C66.7357 30.5679 66.6774 30.5745 66.6233 30.595L66.5878 30.6161C66.5448 30.6527 66.5109 30.699 66.4888 30.7515C66.4667 30.8039 66.4571 30.8609 66.4607 30.9179Z" fill="#37474F"/>
<path d="M58.6112 35.544C58.6204 35.7173 58.6693 35.886 58.754 36.0364C58.8388 36.1869 58.957 36.3149 59.0991 36.4101C59.1626 36.452 59.2363 36.4749 59.3119 36.4765C59.3693 36.4754 59.4254 36.4587 59.4745 36.4282L67.2795 31.8293L67.315 31.8081C67.3572 31.7712 67.3905 31.7246 67.412 31.6722C67.4336 31.6199 67.4429 31.5631 67.4391 31.5064C67.4297 31.3331 67.3807 31.1646 67.296 31.0142C67.2113 30.8638 67.0933 30.7357 66.9513 30.6403C66.9045 30.6058 66.85 30.5837 66.7928 30.5758C66.7355 30.5679 66.6773 30.5745 66.6232 30.595L66.5877 30.6161L58.7827 35.2151C58.7267 35.2479 58.6809 35.2962 58.6505 35.3544C58.6202 35.4125 58.6066 35.4783 58.6112 35.544Z" fill="#FAFAFA"/>
<path d="M50.9513 35.1728C51.5041 33.323 53.7687 31.793 55.8855 32.3996C56.2197 32.4956 56.5406 32.6345 56.8405 32.813C58.8922 34.0201 60.5567 36.9654 60.5567 39.3856C60.5617 39.7941 60.5059 40.2012 60.3911 40.5926C59.8353 42.4425 57.5737 43.9634 55.4569 43.3599C55.1236 43.2638 54.8037 43.1249 54.5049 42.9464C52.4531 41.7394 50.7887 38.7941 50.7887 36.3769C50.7818 35.9694 50.8367 35.5633 50.9513 35.1728Z" fill="#455A64"/>
<path d="M54.5019 42.9344C52.4501 41.7273 50.7856 38.782 50.7856 36.3648C50.7856 33.9477 52.4501 32.9639 54.5019 34.171C56.5536 35.3781 58.2181 38.3233 58.2181 40.7435C58.2181 43.1637 56.5566 44.1445 54.5019 42.9344Z" fill="#37474F"/>
<path d="M54.5017 36.8477C53.7123 36.3799 53.0737 36.7571 53.0737 37.6896C53.1005 38.1956 53.2437 38.688 53.4918 39.1268C53.7399 39.5657 54.0859 39.9386 54.5017 40.2154C55.2911 40.6802 55.9326 40.303 55.9326 39.3735C55.9053 38.8673 55.7615 38.3749 55.5129 37.936C55.2643 37.4972 54.9178 37.1243 54.5017 36.8477Z" fill="#455A64"/>
<path d="M54.0139 38.2509C54.0231 38.4242 54.072 38.5929 54.1567 38.7433C54.2415 38.8937 54.3596 39.0217 54.5017 39.117C54.5486 39.1515 54.603 39.1736 54.6603 39.1815C54.7175 39.1894 54.7758 39.1828 54.8299 39.1623C54.843 39.1577 54.8551 39.1505 54.8654 39.1411C54.9082 39.1045 54.942 39.0581 54.9641 39.0057C54.9861 38.9533 54.9959 38.8963 54.9925 38.8394C54.9828 38.6659 54.9333 38.4971 54.8481 38.3467C54.7629 38.1963 54.6442 38.0684 54.5017 37.9733C54.455 37.9398 54.4009 37.9185 54.3443 37.9111C54.2876 37.9038 54.23 37.9106 54.1765 37.931L54.1411 37.9522C54.0981 37.9881 54.0642 38.0339 54.0421 38.0858C54.02 38.1378 54.0103 38.1944 54.0139 38.2509Z" fill="#37474F"/>
<path d="M52.8315 38.9601C52.8399 39.1335 52.8885 39.3024 52.9733 39.453C53.0581 39.6035 53.1767 39.7314 53.3193 39.8261C53.3828 39.868 53.4565 39.891 53.5321 39.8925C53.5895 39.8911 53.6456 39.8745 53.6947 39.8442L54.83 39.1743C54.8431 39.1698 54.8552 39.1626 54.8655 39.1532C54.9083 39.1165 54.9421 39.0701 54.9642 39.0177C54.9862 38.9653 54.996 38.9084 54.9926 38.8514C54.9829 38.6779 54.9334 38.5092 54.8482 38.3588C54.763 38.2084 54.6443 38.0804 54.5018 37.9853C54.4551 37.9519 54.401 37.9306 54.3444 37.9232C54.2877 37.9158 54.2301 37.9227 54.1766 37.9431L54.1412 37.9642L53.0029 38.6311C52.9469 38.6639 52.9011 38.7122 52.8708 38.7704C52.8404 38.8286 52.8268 38.8943 52.8315 38.9601Z" fill="#FAFAFA"/>
<path d="M52.8315 38.9601C52.8402 39.1339 52.8889 39.3031 52.9736 39.4541C53.0584 39.6051 53.1768 39.7336 53.3193 39.8292C53.3666 39.8626 53.4212 39.884 53.4783 39.8913C53.5354 39.8987 53.5935 39.8918 53.6474 39.8714L53.6829 39.8503C53.7261 39.8139 53.7602 39.7676 53.7823 39.7151C53.8044 39.6626 53.8139 39.6055 53.81 39.5485C53.8001 39.3747 53.7506 39.2056 53.6654 39.0547C53.5802 38.9038 53.4617 38.7753 53.3193 38.6794C53.272 38.6459 53.2174 38.6246 53.1603 38.6173C53.1031 38.6099 53.0451 38.6167 52.9911 38.6372L52.9556 38.6583C52.9132 38.6951 52.8798 38.7416 52.8582 38.794C52.8367 38.8465 52.8275 38.9033 52.8315 38.9601Z" fill="#E0E0E0"/>
<path d="M62.4305 38.0125C64.2251 36.6153 65.9457 36.6244 65.6353 33.2083C65.3722 31.6995 65.0056 31.5908 63.5658 31.0175C62.9331 30.767 62.0876 30.5769 61.5821 31.1683C61.5265 31.2427 61.4652 31.3123 61.3988 31.3766C61.2497 31.4735 61.0786 31.5297 60.9021 31.5395C60.565 31.5563 60.2446 31.6942 59.9974 31.9288C59.8289 32.125 59.7639 32.3935 59.5983 32.5897C59.4392 32.7434 59.2682 32.8837 59.0868 33.0091C58.9569 33.1242 58.8521 33.2659 58.7792 33.425C58.7064 33.5841 58.6672 33.757 58.6641 33.9326C58.676 34.1333 58.7309 34.3289 58.8249 34.5057C58.9189 34.6824 59.0496 34.836 59.208 34.9556L60.1127 34.4245C60.4823 34.1649 61.245 35.0914 60.9169 35.5802C60.3936 36.3588 62.4305 38.0125 62.4305 38.0125Z" fill="#FFEDE5"/>
<path d="M41.5289 44.8808C42.1025 42.5149 42.268 36.6032 42.268 36.6032L25.4814 37.1162L26.395 40.8491C26.5457 41.6906 26.6258 42.5437 26.6344 43.3991C26.6344 43.3991 28.2634 46.4802 33.0942 47.0204C36.0625 47.3092 39.0384 46.5543 41.5289 44.8808Z" fill="#FFEDE5"/>
<path d="M42.277 36.6032C42.2977 36.7903 42.1795 38.5798 42.1795 38.5798C40.0331 40.4237 33.1476 41.3561 25.9191 38.9027L24.3877 32.8673C24.3877 32.8673 29.5851 30.5377 26.0729 22.7218L29.8482 22.42L36.5504 22.248H38.75C40.5586 24.0416 42.0871 26.1075 43.2822 28.374C44.1603 30.0458 45.2778 32.4962 42.277 36.6032Z" fill="#455A64"/>
<path d="M32.7778 36.6576C29.7534 35.87 28.9966 33.9416 28.7808 32.5233C28.7808 32.5233 28.2102 36.6576 32.5325 37.6202C37.0913 38.6342 38.9656 34.9496 38.9656 34.9496C38.9656 34.9496 36.4261 37.6082 32.7778 36.6576Z" fill="#37474F"/>
<path d="M7.03334 82.6625C6.14641 83.3234 4.10353 83.4833 2.30306 82.6202C0.502602 81.7572 -0.24833 79.3008 0.0887024 77.4026C0.496689 75.088 1.61717 73.8236 1.90099 72.4294C2.18481 71.0353 1.90099 69.11 2.33263 67.8667C2.51055 67.3888 2.78762 66.9558 3.14482 66.5975C3.50203 66.2391 3.93093 65.9638 4.40212 65.7905C4.70253 65.672 5.02555 65.6254 5.34636 65.6541C5.66718 65.6829 5.97728 65.7863 6.25285 65.9565L6.785 66.2763L7.03334 82.6625Z" fill="#263238"/>
<path d="M9.14708 73.8357L7.74573 78.1269C7.74573 78.1269 8.63266 81.1868 8.13302 82.0016C7.39688 83.2087 6.09901 83.4199 3.91421 82.7379C1.41603 81.9624 0.827704 79.6538 0.957786 77.8613C1.13517 75.3053 3.45005 73.383 3.18397 70.9206C3.05389 69.7135 3.21649 68.3646 3.86395 67.3265C4.58827 66.1677 5.77676 65.9504 7.00958 66.3276C8.06798 66.6535 8.9963 67.3325 9.8921 67.9693C10.1493 68.1364 10.3822 68.3395 10.5839 68.5728C10.7444 68.7913 10.8646 69.0377 10.9387 69.3001C11.1008 69.8274 11.1492 70.3844 11.0806 70.9326C11.0155 71.4457 10.6933 71.7444 10.3947 72.1397L9.14708 73.8357Z" fill="url(#paint0_linear_151_829)"/>
<path d="M15.187 71.8048C15.1012 71.7716 10.8203 68.9772 10.3591 68.7659C9.89792 68.5547 8.76266 68.2559 7.66583 70.8482C6.88237 72.692 8.00877 73.374 8.00877 73.374L13.0347 76.4219L15.187 71.8048Z" fill="#FFEDE5"/>
<path d="M7.74592 78.1269C6.84013 77.6647 5.83734 77.4358 4.82497 77.4599C4.74981 77.4671 4.67406 77.4554 4.60439 77.4257C4.53471 77.396 4.47324 77.3493 4.42537 77.2897C4.3775 77.2301 4.34469 77.1595 4.32983 77.0839C4.31496 77.0084 4.3185 76.9302 4.34012 76.8564C4.36857 76.7684 4.42198 76.6911 4.49356 76.6341C4.56514 76.5772 4.65168 76.5432 4.74219 76.5365C5.41922 76.4822 7.06299 76.4611 8.15391 77.3785C8.44364 77.976 7.74592 78.1269 7.74592 78.1269Z" fill="url(#paint1_linear_151_829)"/>
<path d="M8.26008 76.1653C7.37924 75.6562 6.38947 75.3754 5.37757 75.3475C5.30136 75.3514 5.22541 75.3359 5.15653 75.3024C5.08764 75.2689 5.02796 75.2185 4.98284 75.1557C4.93772 75.0929 4.90857 75.0197 4.898 74.9426C4.88743 74.8654 4.89577 74.7868 4.92228 74.7138C4.95488 74.6272 5.01184 74.5523 5.08601 74.4986C5.16018 74.4449 5.24824 74.4148 5.33913 74.412C6.01911 74.3939 7.66288 74.4633 8.7065 75.435C8.96371 76.0537 8.26008 76.1653 8.26008 76.1653Z" fill="url(#paint2_linear_151_829)"/>
<path opacity="0.3" d="M7.74592 78.1269C6.84013 77.6647 5.83734 77.4358 4.82497 77.4599C4.74981 77.4671 4.67406 77.4554 4.60439 77.4257C4.53471 77.396 4.47324 77.3493 4.42537 77.2897C4.3775 77.2301 4.34469 77.1595 4.32983 77.0839C4.31496 77.0084 4.3185 76.9302 4.34012 76.8564C4.36857 76.7684 4.42198 76.6911 4.49356 76.6341C4.56514 76.5772 4.65168 76.5432 4.74219 76.5365C5.41922 76.4822 7.06299 76.4611 8.15391 77.3785C8.44364 77.976 7.74592 78.1269 7.74592 78.1269Z" fill="black"/>
<path opacity="0.3" d="M8.26008 76.1653C7.37924 75.6562 6.38947 75.3754 5.37757 75.3475C5.30136 75.3514 5.22541 75.3359 5.15653 75.3024C5.08764 75.2689 5.02796 75.2185 4.98284 75.1557C4.93772 75.0929 4.90857 75.0197 4.898 74.9426C4.88743 74.8654 4.89577 74.7868 4.92228 74.7138C4.95488 74.6272 5.01184 74.5523 5.08601 74.4986C5.16018 74.4449 5.24824 74.4148 5.33913 74.412C6.01911 74.3939 7.66288 74.4633 8.7065 75.435C8.96371 76.0537 8.26008 76.1653 8.26008 76.1653Z" fill="black"/>
<path d="M51.8883 83.1272L57.4494 80.876C57.3548 79.4124 57 77.463 57.3695 73.6335L51.0605 72.4083V78.8541L51.8883 83.1272Z" fill="#FFEDE5"/>
<path d="M67.7554 88.1124C67.9031 88.5694 67.8757 89.0665 67.6785 89.5036C67.4893 89.911 65.405 91.109 62.5934 90.9159C60.5085 90.7668 58.5007 90.051 56.7782 88.8427C55.7079 88.1185 54.5904 87.9827 53.2009 87.9012C51.8114 87.8197 49.9784 87.1106 49.6739 86.4467C49.3694 85.7828 49.7212 84.636 49.7212 84.636L67.7554 88.1124Z" fill="#263238"/>
<path d="M56.4113 79.1559L56.633 79.1076C56.7535 79.0746 56.8795 79.0684 57.0026 79.0895C57.1391 79.1326 57.2604 79.2154 57.3514 79.3279C57.6267 79.686 57.8663 80.0711 58.0669 80.4776C58.6582 81.4584 59.894 82.2732 61.245 83.0125C62.1645 83.5165 63.0632 83.9178 64.0123 84.3433C64.9613 84.7688 66.2621 85.0585 67.0189 85.5806C68.1217 86.338 68.2665 88.2452 67.0189 88.9966C65.9369 89.6484 63.0839 90.3516 60.092 89.4855C58.4601 89.0147 56.6508 87.2373 54.5133 87.0713C53.1533 86.9627 50.5783 86.5734 49.7032 85.5202C49.3809 85.0525 49.8126 83.5678 50.1673 82.2883C50.5546 80.8911 50.6965 78.4286 51.1518 78.5523C51.1518 78.5523 51.0276 78.8994 51.205 79.0865C51.3824 79.2736 52.0062 79.6478 52.1895 79.8047C52.4961 80.1238 52.7435 80.497 52.9198 80.9061C52.993 81.0909 53.1296 81.2421 53.3041 81.3316C53.5347 81.4192 53.7062 81.2713 53.8954 81.1777C54.1512 81.0609 54.4393 81.0406 54.7084 81.1204C54.6824 80.8432 54.634 80.5686 54.5635 80.2996C54.5333 80.2146 54.5261 80.1228 54.5428 80.034C54.58 79.9512 54.6408 79.8818 54.7173 79.8349C55.2292 79.4902 55.8063 79.2589 56.4113 79.1559Z" fill="url(#paint3_linear_151_829)"/>
<path d="M59.9739 82.2581C59.9739 82.2581 59.7787 81.7239 58.9716 81.5731C58.3508 81.4554 57.2569 81.9201 56.5769 82.4784C56.513 82.5323 56.4628 82.6013 56.4308 82.6794C56.3987 82.7575 56.3858 82.8424 56.3931 82.9267C56.4004 83.0111 56.4276 83.0924 56.4725 83.1636C56.5174 83.2348 56.5786 83.2937 56.6508 83.3354C56.7436 83.3896 56.8508 83.4123 56.9571 83.4004C57.0633 83.3884 57.1631 83.3425 57.2421 83.269C57.9906 82.5846 58.9695 82.2223 59.9739 82.2581Z" fill="url(#paint4_linear_151_829)"/>
<path d="M61.8926 83.3535C61.7586 83.1606 61.5813 83.0033 61.3756 82.8946C61.1699 82.7859 60.9416 82.7291 60.71 82.7289C60.71 82.7289 59.0928 82.7771 58.0906 83.7277C58.0295 83.7801 57.9818 83.8468 57.9513 83.922C57.9208 83.9972 57.9085 84.0789 57.9155 84.16C57.9224 84.2411 57.9484 84.3193 57.9913 84.388C58.0341 84.4566 58.0925 84.5138 58.1615 84.5546C58.2493 84.6044 58.3502 84.6248 58.4499 84.6128C58.5497 84.6009 58.6432 84.5573 58.7174 84.4882C59.1301 84.0691 59.6295 83.7497 60.1789 83.5534C60.7284 83.357 61.3139 83.2887 61.8926 83.3535Z" fill="url(#paint5_linear_151_829)"/>
<path d="M64.0126 84.3433C63.8583 84.1643 63.6681 84.0213 63.4549 83.9239C63.2416 83.8265 63.0104 83.7771 62.7768 83.779C62.7768 83.779 61.269 83.8363 60.2698 84.7869C60.208 84.8387 60.1594 84.905 60.1283 84.9802C60.0972 85.0554 60.0844 85.1372 60.0911 85.2186C60.0978 85.2999 60.1237 85.3784 60.1667 85.4472C60.2097 85.516 60.2684 85.5732 60.3378 85.6138C60.4261 85.6634 60.5274 85.6836 60.6276 85.6717C60.7277 85.6598 60.8217 85.6164 60.8965 85.5474C61.2883 85.113 61.774 84.7779 62.315 84.5689C62.8559 84.3599 63.4372 84.2826 64.0126 84.3433Z" fill="url(#paint6_linear_151_829)"/>
<path opacity="0.3" d="M59.9739 82.2581C59.9739 82.2581 59.7787 81.7239 58.9716 81.5731C58.3508 81.4554 57.2569 81.9201 56.5769 82.4784C56.513 82.5323 56.4628 82.6013 56.4308 82.6794C56.3987 82.7575 56.3858 82.8424 56.3931 82.9267C56.4004 83.0111 56.4276 83.0924 56.4725 83.1636C56.5174 83.2348 56.5786 83.2937 56.6508 83.3354C56.7436 83.3896 56.8508 83.4123 56.9571 83.4004C57.0633 83.3884 57.1631 83.3425 57.2421 83.269C57.9906 82.5846 58.9695 82.2223 59.9739 82.2581Z" fill="black"/>
<path opacity="0.3" d="M61.8926 83.3535C61.7586 83.1606 61.5813 83.0033 61.3756 82.8946C61.1699 82.7859 60.9416 82.7291 60.71 82.7289C60.71 82.7289 59.0928 82.7771 58.0906 83.7277C58.0295 83.7801 57.9818 83.8468 57.9513 83.922C57.9208 83.9972 57.9085 84.0789 57.9155 84.16C57.9224 84.2411 57.9484 84.3193 57.9913 84.388C58.0341 84.4566 58.0925 84.5138 58.1615 84.5546C58.2493 84.6044 58.3502 84.6248 58.4499 84.6128C58.5497 84.6009 58.6432 84.5573 58.7174 84.4882C59.1301 84.0691 59.6295 83.7497 60.1789 83.5534C60.7284 83.357 61.3139 83.2887 61.8926 83.3535Z" fill="black"/>
<path opacity="0.3" d="M64.0126 84.3433C63.8583 84.1643 63.6681 84.0213 63.4549 83.9239C63.2416 83.8265 63.0104 83.7771 62.7768 83.779C62.7768 83.779 61.269 83.8363 60.2698 84.7869C60.208 84.8387 60.1594 84.905 60.1283 84.9802C60.0972 85.0554 60.0844 85.1372 60.0911 85.2186C60.0978 85.2999 60.1237 85.3784 60.1667 85.4472C60.2097 85.516 60.2684 85.5732 60.3378 85.6138C60.4261 85.6634 60.5274 85.6836 60.6276 85.6717C60.7277 85.6598 60.8217 85.6164 60.8965 85.5474C61.2883 85.113 61.774 84.7779 62.315 84.5689C62.8559 84.3599 63.4372 84.2826 64.0126 84.3433Z" fill="black"/>
<path d="M55.6901 50.7563C51.4625 49.7876 41.3663 47.633 41.3663 47.633L41.5289 44.8808C37.8777 46.8122 30.1821 46.266 26.6344 43.3991L26.0757 46.3173C24.7305 47.961 23.5657 49.7501 22.6019 51.6526C21.7918 53.2912 20.4378 55.8472 21.7859 61.8011C22.5782 65.2986 23.6337 74.5056 23.6337 74.5056L13.2862 70.6128C13.2862 70.6128 12.3992 70.7667 11.6483 72.7463C11.2049 73.9172 11.057 75.0428 11.5064 75.6252C15.2906 78.6761 21.4222 83.6583 27.6189 86.4527C31.7579 88.0702 33.9575 84.5184 34.1585 83.2026C34.9361 78.1631 35.8319 61.9701 35.8319 61.9701L49.6679 61.5204C49.2097 64.1941 51.0722 74.6414 51.0722 74.6414C51.0722 74.6414 54.478 76.1503 57.2984 74.6052C57.2984 74.6052 59.1846 62.5827 59.3679 58.5722C59.5542 54.0999 59.7789 51.6948 55.6901 50.7563Z" fill="url(#paint7_linear_151_829)"/>
<path opacity="0.15" d="M49.6679 61.5204C49.6679 60.7992 50.138 58.2794 51.7374 56.9365C51.7374 56.9365 49.5438 57.3379 48.5386 61.5566L49.6679 61.5204Z" fill="black"/>
<path opacity="0.15" d="M23.6338 74.5056C23.6338 74.5056 23.9295 78.4799 24.6745 80.4173C24.6745 80.4173 22.809 76.9771 22.605 74.1133L23.6338 74.5056Z" fill="black"/>
<path opacity="0.15" d="M41.3633 47.633L41.5259 44.8839C37.8747 46.8122 30.1821 46.266 26.6374 43.4022L26.0786 46.3173C26.1082 46.3444 28.3846 48.7465 34.3034 49.0573C40.2221 49.3682 41.3633 47.633 41.3633 47.633Z" fill="black"/>
<path opacity="0.15" d="M35.8438 61.9701C35.7948 60.4764 35.4487 59.0084 34.8266 57.6555C34.2045 56.3025 33.3194 55.0928 32.2251 54.0999C32.2251 54.0999 35.4062 55.6087 36.4705 60.3858C36.4705 60.3858 38.8357 59.2602 40.0714 55.8864C40.0714 55.8864 39.693 59.2602 37.7891 61.1794L43.5275 61.7196L35.8438 61.9701Z" fill="black"/>
<path d="M33.9988 0.937009C32.7841 0.935025 31.581 1.17746 30.4582 1.65046C29.3354 2.12345 28.315 2.81772 27.4553 3.69356C26.5956 4.56941 25.9135 5.60965 25.4479 6.75479C24.9824 7.89993 24.7426 9.12751 24.7422 10.3673C24.7422 11.6074 24.9817 12.8353 25.4471 13.9808C25.9125 15.1263 26.5945 16.1669 27.4543 17.0431C28.314 17.9192 29.3346 18.6138 30.4575 19.0869C31.5805 19.5601 32.7839 19.8027 33.9988 19.8007C36.447 19.7967 38.7936 18.8009 40.5231 17.0322C42.2526 15.2635 43.2236 12.8663 43.2228 10.3673C43.2228 7.86887 42.2515 5.47251 40.522 3.70442C38.7926 1.93632 36.4465 0.941006 33.9988 0.937009Z" fill="#263238"/>
<path d="M24.3461 6.67064C24.6802 6.65503 25.015 6.67424 25.3453 6.72798C25.4573 6.73549 25.5626 6.78493 25.641 6.86679C25.6865 6.93451 25.7121 7.01407 25.7149 7.09614C25.7912 7.62006 25.7435 8.15501 25.5759 8.65629C25.4459 9.00635 25.0408 9.18439 24.7836 9.43788C23.7844 10.4277 23.7045 12.0663 24.0977 13.4273C24.4909 14.7883 25.2803 16.0014 25.7918 17.3171C26.3032 18.6328 26.5752 20.2171 25.8509 21.5419C25.57 22.0489 25.0586 22.4472 25.1207 23.0507C25.1916 23.7901 25.8243 24.4962 26.0963 25.1631C26.3948 25.9532 26.4964 26.8066 26.3919 27.6467C26.3171 28.6912 25.9371 29.6888 25.301 30.5105C24.8148 31.0889 24.1871 31.5254 23.4819 31.7756C22.7766 32.0258 22.019 32.0807 21.2862 31.9349C20.9772 31.8798 20.6848 31.7528 20.4318 31.5637C19.9972 31.2076 19.8227 30.6252 19.5862 30.1091C18.8264 28.4404 17.2211 27.2272 16.7333 25.4558C16.2041 23.5698 17.0851 21.6083 18.1671 20.0059C18.6727 19.2575 19.2374 18.5242 19.4857 17.649C19.8198 16.4691 19.5271 15.2138 19.4502 13.9856C19.3769 12.7859 19.512 11.5824 19.8494 10.4307C20.0918 9.59782 20.4672 8.63819 21.1029 8.04068C21.9949 7.21286 23.1418 6.72838 24.3461 6.67064Z" fill="#263238"/>
<path d="M39.7755 5.25233C40.7866 5.87096 42.0313 8.48128 41.8864 13.9433C41.7622 18.5725 40.287 19.7102 39.5479 20.0391C38.8088 20.368 37.3838 20.1568 36.0002 19.9154V22.6947C36.0002 22.6947 37.9041 24.97 37.774 26.2465C37.6439 27.523 35.0068 27.8097 33.2211 26.5483C31.4354 25.2869 29.9365 22.8637 29.9365 22.8637L29.9957 16.4722C29.9957 16.4722 29.1708 17.2869 27.7902 16.0497C26.6579 15.0267 26.2794 13.3096 27.1723 12.4043C28.0651 11.499 29.7059 11.7434 30.3327 13.0591C30.3327 13.0591 32.5382 13.1497 35.4857 11.5141C36.6324 10.8877 37.6184 9.99433 38.3637 8.90642C39.109 7.81851 39.5926 6.56666 39.7755 5.25233Z" fill="#FFEDE5"/>
<path d="M36.8253 12.7604C36.8258 12.8748 36.7933 12.9868 36.7318 13.0825C36.6703 13.1781 36.5826 13.2532 36.4796 13.2983C36.3766 13.3434 36.2628 13.3565 36.1526 13.336C36.0423 13.3156 35.9404 13.2624 35.8595 13.1832C35.7787 13.1039 35.7225 13.0022 35.6979 12.8905C35.6734 12.7789 35.6816 12.6624 35.7215 12.5555C35.7615 12.4486 35.8314 12.3561 35.9225 12.2895C36.0136 12.2229 36.122 12.1851 36.234 12.181C36.3868 12.1809 36.5337 12.2411 36.6439 12.3491C36.7542 12.4572 36.8191 12.6045 36.8253 12.7604Z" fill="#263238"/>
<g style="mix-blend-mode:multiply" opacity="0.5">
<g style="mix-blend-mode:multiply" opacity="0.5">
<path d="M36.9554 16.6864L38.277 17.1209C38.2529 17.2115 38.2112 17.2962 38.1543 17.3699C38.0975 17.4436 38.0266 17.5048 37.946 17.5499C37.8654 17.595 37.7767 17.623 37.6852 17.6322C37.5938 17.6415 37.5014 17.6318 37.4137 17.6038C37.2355 17.5417 37.0879 17.4112 37.0024 17.2399C36.9168 17.0686 36.9 16.8701 36.9554 16.6864Z" fill="#F28F8F"/>
</g>
</g>
<path d="M41.5114 10.992L40.3613 10.1712C40.4095 10.0917 40.4731 10.0231 40.5482 9.96965C40.6233 9.91619 40.7084 9.87898 40.7981 9.86033C40.8878 9.84167 40.9804 9.84195 41.07 9.86116C41.1596 9.88037 41.2444 9.9181 41.3192 9.97202C41.472 10.0855 41.5768 10.2539 41.6125 10.4433C41.6481 10.6327 41.612 10.8288 41.5114 10.992Z" fill="#263238"/>
<path d="M41.2393 12.356C41.2404 12.4705 41.2084 12.5828 41.1473 12.6789C41.0861 12.7749 40.9986 12.8504 40.8957 12.896C40.7927 12.9416 40.6789 12.9551 40.5685 12.935C40.458 12.9149 40.3558 12.8619 40.2747 12.7828C40.1935 12.7037 40.137 12.602 40.1122 12.4903C40.0875 12.3786 40.0955 12.2619 40.1353 12.1548C40.1752 12.0477 40.2451 11.955 40.3363 11.8883C40.4274 11.8216 40.5359 11.7838 40.648 11.7796C40.8003 11.7794 40.9468 11.8393 41.057 11.9467C41.1671 12.054 41.2324 12.2007 41.2393 12.356Z" fill="#263238"/>
<g style="mix-blend-mode:multiply" opacity="0.5">
<g style="mix-blend-mode:multiply" opacity="0.5">
<path d="M38.5488 12.012L38.6257 15.5185L40.435 14.9542L38.5488 12.012Z" fill="#F28F8F"/>
</g>
</g>
<g style="mix-blend-mode:multiply" opacity="0.5">
<g style="mix-blend-mode:multiply" opacity="0.5">
<path d="M36.0035 19.9153C34.543 19.7162 31.5452 18.8229 31.084 17.6098C31.2698 18.2228 31.635 18.7631 32.1306 19.1579C33.0234 19.9485 35.9976 20.8538 35.9976 20.8538L36.0035 19.9153Z" fill="#F28F8F"/>
</g>
</g>
<path d="M26.0728 22.7248C23.211 22.933 22.0314 23.3042 20.4379 26.9134C19.004 30.1574 15.5746 38.5527 14.7172 40.4237C13.8598 42.2946 13.6972 43.046 14.4216 45.0045C15.0128 46.6009 19.8436 55.7717 20.3728 57.1085C20.902 58.4454 21.1356 59.7973 22.0373 61.3545C22.939 62.9116 24.364 64.4325 25.4904 64.7916C27.1608 65.3258 29.3338 64.5834 29.3958 63.5544C29.4579 62.5253 26.945 60.8083 26.262 58.5238C26.7165 58.8286 27.1951 59.0941 27.6929 59.3175C28.37 59.6012 29.1268 59.5378 29.3515 59.1455C29.5762 58.7532 28.8992 58.5148 28.296 57.9022C27.9354 57.5371 27.2968 56.7162 26.4808 55.992C25.928 55.5031 25.0233 55.3583 24.6153 54.8211C24.3965 54.5344 23.4032 52.0509 22.6552 49.8389C21.7328 47.0958 20.5177 43.4444 20.5177 43.4444L25.4904 32.8824C25.4904 32.8824 29.3899 28.9111 26.0728 22.7248Z" fill="#FFEDE5"/>
<path d="M20.3639 57.1085C20.3639 57.1085 21.508 54.7457 24.6063 54.8211L23.7874 52.9622C23.7874 52.9622 20.763 53.1795 19.4888 55.2708L20.3639 57.1085Z" fill="#37474F"/>
<path d="M20.0299 55.1017L20.6951 56.0644C20.7432 56.1344 20.8047 56.1938 20.8758 56.239C20.947 56.2842 21.0263 56.3143 21.109 56.3275C21.1918 56.3408 21.2764 56.3369 21.3576 56.316C21.4389 56.2952 21.5152 56.2578 21.582 56.2062L22.7646 55.3009C22.902 55.1935 22.9942 55.0366 23.0222 54.8622C23.0502 54.6878 23.012 54.509 22.9154 54.3624L22.2975 53.433C22.251 53.3612 22.1907 53.2999 22.1202 53.2527C22.0498 53.2055 21.9706 53.1735 21.8877 53.1585C21.8047 53.1436 21.7196 53.146 21.6376 53.1657C21.5555 53.1854 21.4783 53.2219 21.4105 53.273L20.157 54.1783C20.0205 54.2838 19.9305 54.4402 19.9067 54.6133C19.8829 54.7863 19.9272 54.9619 20.0299 55.1017Z" fill="#263238"/>
<path d="M19.808 55.0776L20.4791 56.0403C20.5275 56.1099 20.5891 56.169 20.6603 56.214C20.7314 56.2589 20.8106 56.2889 20.8933 56.3021C20.9759 56.3154 21.0604 56.3115 21.1416 56.2909C21.2228 56.2703 21.2991 56.2333 21.3661 56.1821L22.5486 55.2768C22.686 55.1694 22.7782 55.0127 22.8068 54.8385C22.8353 54.6643 22.798 54.4855 22.7024 54.3383L22.0845 53.4088C22.0377 53.3375 21.9773 53.2765 21.9068 53.2295C21.8363 53.1826 21.7573 53.1507 21.6744 53.1357C21.5916 53.1208 21.5066 53.1231 21.4247 53.1426C21.3427 53.162 21.2654 53.1982 21.1975 53.2489L19.944 54.1693C19.8097 54.2727 19.7203 54.4255 19.6949 54.5952C19.6695 54.7649 19.7101 54.9381 19.808 55.0776Z" fill="#455A64"/>
<path d="M22.5812 54.7608C22.5663 54.8801 22.5057 54.9886 22.4127 55.0625L21.2301 55.9678C21.189 56.0013 21.1414 56.0254 21.0904 56.0384C21.0394 56.0514 20.9862 56.0531 20.9345 56.0433C20.8838 56.0353 20.8352 56.017 20.7915 55.9895C20.7479 55.9621 20.71 55.926 20.6802 55.8833L20.0062 54.9177C19.9493 54.8375 19.924 54.7384 19.9352 54.6401C19.9392 54.5804 19.9562 54.5224 19.9848 54.4702C20.0134 54.418 20.053 54.373 20.1008 54.3383L21.3543 53.433C21.3962 53.4012 21.4441 53.3786 21.495 53.3667C21.5459 53.3548 21.5987 53.3537 21.65 53.3636C21.7006 53.3727 21.7489 53.392 21.7921 53.4206C21.8352 53.4491 21.8724 53.4861 21.9013 53.5295L22.5191 54.459C22.5771 54.5478 22.6023 54.6548 22.5901 54.7608H22.5812Z" fill="url(#paint8_linear_151_829)"/>
</g>
<defs>
<linearGradient id="paint0_linear_151_829" x1="11.1108" y1="83.1229" x2="-2.49544" y2="82.4918" gradientUnits="userSpaceOnUse">
<stop stop-color="#C150F6"/>
<stop offset="1" stop-color="#EEA4CE"/>
</linearGradient>
<linearGradient id="paint1_linear_151_829" x1="8.22434" y1="78.1269" x2="3.16816" y2="77.1793" gradientUnits="userSpaceOnUse">
<stop stop-color="#C150F6"/>
<stop offset="1" stop-color="#EEA4CE"/>
</linearGradient>
<linearGradient id="paint2_linear_151_829" x1="8.76305" y1="76.1653" x2="3.72159" y2="75.3055" gradientUnits="userSpaceOnUse">
<stop stop-color="#C150F6"/>
<stop offset="1" stop-color="#EEA4CE"/>
</linearGradient>
<linearGradient id="paint3_linear_151_829" x1="67.9012" y1="89.8885" x2="43.7272" y2="86.8681" gradientUnits="userSpaceOnUse">
<stop stop-color="#C150F6"/>
<stop offset="1" stop-color="#EEA4CE"/>
</linearGradient>
<linearGradient id="paint4_linear_151_829" x1="59.9739" y1="83.4035" x2="55.2759" y2="82.699" gradientUnits="userSpaceOnUse">
<stop stop-color="#C150F6"/>
<stop offset="1" stop-color="#EEA4CE"/>
</linearGradient>
<linearGradient id="paint5_linear_151_829" x1="61.8926" y1="84.6162" x2="56.6959" y2="83.7684" gradientUnits="userSpaceOnUse">
<stop stop-color="#C150F6"/>
<stop offset="1" stop-color="#EEA4CE"/>
</linearGradient>
<linearGradient id="paint6_linear_151_829" x1="64.0126" y1="85.675" x2="58.8839" y2="84.8539" gradientUnits="userSpaceOnUse">
<stop stop-color="#C150F6"/>
<stop offset="1" stop-color="#EEA4CE"/>
</linearGradient>
<linearGradient id="paint7_linear_151_829" x1="59.4502" y1="86.8669" x2="-4.72415" y2="81.3585" gradientUnits="userSpaceOnUse">
<stop stop-color="#C150F6"/>
<stop offset="1" stop-color="#EEA4CE"/>
</linearGradient>
<linearGradient id="paint8_linear_151_829" x1="22.5931" y1="56.0496" x2="19.0467" y2="55.7784" gradientUnits="userSpaceOnUse">
<stop stop-color="#C150F6"/>
<stop offset="1" stop-color="#EEA4CE"/>
</linearGradient>
<clipPath id="clip0_151_829">
<rect width="73" height="90" fill="white" transform="translate(0 0.937012)"/>
</clipPath>
</defs>
</svg>
