<svg width="50" height="51" viewBox="0 0 50 51" fill="none" xmlns="http://www.w3.org/2000/svg">
<mask id="mask0_64_1545" style="mask-type:alpha" maskUnits="userSpaceOnUse" x="0" y="0" width="50" height="51">
<circle cx="25" cy="25.4295" r="25" fill="#C4C4C4"/>
</mask>
<g mask="url(#mask0_64_1545)">
<g clip-path="url(#clip0_64_1545)">
<g opacity="0.3">
<path opacity="0.3" d="M17.2124 30.1334H17.1925L16.4284 29.9113C16.4022 29.9031 16.3802 29.8848 16.367 29.8602C16.3539 29.8356 16.3507 29.8068 16.3582 29.7799C16.3657 29.753 16.3832 29.7301 16.407 29.7162C16.4307 29.7023 16.4589 29.6984 16.4855 29.7055L17.2442 29.9248C17.2683 29.9329 17.2887 29.9495 17.3017 29.9718C17.3146 29.994 17.3193 30.0202 17.3147 30.0456C17.3102 30.071 17.2968 30.0939 17.277 30.1101C17.2572 30.1262 17.2324 30.1345 17.2071 30.1334H17.2124Z" fill="black"/>
<path opacity="0.3" d="M16.4284 30.7346C16.4068 30.7326 16.3863 30.7238 16.3697 30.7096C16.3531 30.6953 16.3412 30.6761 16.3356 30.6547C16.3314 30.6407 16.3301 30.6259 16.3317 30.6113C16.3334 30.5967 16.338 30.5826 16.3452 30.5699C16.3524 30.5572 16.3621 30.5462 16.3737 30.5375C16.3853 30.5288 16.3985 30.5226 16.4125 30.5193L17.1766 30.3216C17.2031 30.3158 17.2308 30.3206 17.2539 30.3352C17.277 30.3498 17.2936 30.3729 17.3003 30.3997C17.307 30.4266 17.3032 30.455 17.2898 30.4791C17.2764 30.5031 17.2544 30.521 17.2284 30.5288L16.4629 30.7265C16.452 30.7312 16.4403 30.7339 16.4284 30.7346Z" fill="black"/>
<path opacity="0.3" d="M16.8185 31.4551C16.7933 31.4526 16.7698 31.441 16.7521 31.4226C16.7328 31.4026 16.7219 31.3756 16.7219 31.3474C16.7219 31.3193 16.7328 31.2923 16.7521 31.2723L17.3173 30.7103C17.3269 30.6995 17.3386 30.6908 17.3516 30.6848C17.3646 30.6788 17.3787 30.6755 17.393 30.6753C17.4073 30.675 17.4215 30.6778 17.4348 30.6833C17.448 30.6889 17.46 30.6972 17.4699 30.7076C17.4799 30.7181 17.4877 30.7305 17.4928 30.7442C17.4979 30.7578 17.5002 30.7724 17.4996 30.787C17.4989 30.8016 17.4954 30.8159 17.4891 30.829C17.4829 30.8421 17.474 30.8538 17.4632 30.8634L16.9007 31.428C16.8896 31.4381 16.8765 31.4457 16.8624 31.4504C16.8482 31.455 16.8333 31.4566 16.8185 31.4551Z" fill="black"/>
<path opacity="0.3" d="M17.5042 31.8814H17.4843C17.4707 31.8775 17.4581 31.8709 17.4471 31.862C17.4361 31.853 17.427 31.8419 17.4203 31.8292C17.4136 31.8166 17.4095 31.8027 17.4082 31.7884C17.4069 31.7741 17.4084 31.7597 17.4126 31.746L17.6222 30.9715C17.6302 30.9447 17.6482 30.9222 17.6723 30.9088C17.6964 30.8954 17.7246 30.8922 17.751 30.8998C17.7774 30.9074 17.7998 30.9253 17.8134 30.9496C17.827 30.9739 17.8308 31.0026 17.8239 31.0297L17.609 31.8042C17.6025 31.8272 17.5886 31.8473 17.5696 31.8613C17.5506 31.8753 17.5276 31.8824 17.5042 31.8814Z" fill="black"/>
</g>
<path d="M38.2281 19.8572L36.3272 20.9743L32.1644 21.5891C32.1644 21.5891 29.1252 16.9284 28.6596 16.1958C28.194 15.4633 27.6488 14.9934 26.3872 14.9948L26.626 18.713C26.6658 18.8335 29.1823 21.998 30.8418 23.7231C31.4282 24.331 31.7877 24.4867 32.699 24.2268C35.0377 23.5646 37.8726 21.6026 38.1008 21.1124C38.4072 20.472 38.2056 19.8707 38.2281 19.8572Z" fill="#FFEDE5"/>
<path d="M37.4463 17.5C37.6957 16.6686 38.7145 15.9916 39.6603 16.2624C39.8101 16.3047 39.9538 16.367 40.0875 16.4479C41.0161 16.9895 41.755 18.3097 41.755 19.3957C41.758 19.5791 41.733 19.7618 41.6807 19.9373C41.4326 20.7674 40.4165 21.4498 39.4667 21.1776C39.3171 21.1348 39.1735 21.0724 39.0395 20.9921C38.1189 20.4505 37.372 19.1289 37.372 18.043C37.3693 17.8592 37.3944 17.676 37.4463 17.5Z" fill="#455A64"/>
<path d="M39.041 20.9839C38.1204 20.4423 37.3735 19.1208 37.3735 18.0348C37.3735 16.9488 38.1204 16.5101 39.041 17.0517C39.9617 17.5934 40.7045 18.9136 40.7045 19.9995C40.7045 21.0855 39.9617 21.5256 39.041 20.9839Z" fill="#37474F"/>
<path d="M39.041 18.2555C38.6868 18.0469 38.3989 18.2162 38.3989 18.6333C38.411 18.8606 38.4754 19.0819 38.587 19.279C38.6985 19.4762 38.8541 19.6437 39.041 19.768C39.3952 19.9765 39.6817 19.8072 39.6817 19.3902C39.6699 19.1629 39.6057 18.9417 39.4944 18.7445C39.3831 18.5474 39.2277 18.3798 39.041 18.2555Z" fill="#455A64"/>
<path d="M38.8209 18.8827C38.8251 18.9605 38.8473 19.0363 38.8855 19.1038C38.9238 19.1713 38.9771 19.2287 39.0411 19.2713C39.0621 19.2868 39.0866 19.2967 39.1122 19.3002C39.1379 19.3038 39.1641 19.3008 39.1883 19.2916L39.2043 19.2821C39.2232 19.2655 39.2381 19.2447 39.2478 19.2211C39.2575 19.1976 39.2617 19.1722 39.26 19.1467C39.2558 19.069 39.2338 18.9934 39.1958 18.9259C39.1578 18.8584 39.1048 18.8009 39.0411 18.7581C39.0201 18.7426 38.9956 18.7327 38.97 18.7292C38.9443 18.7256 38.9181 18.7286 38.8939 18.7378L38.8779 18.7473C38.8586 18.7637 38.8434 18.7845 38.8335 18.808C38.8236 18.8315 38.8193 18.8571 38.8209 18.8827Z" fill="#37474F"/>
<path d="M35.2987 20.9585C35.3028 21.0362 35.3248 21.1119 35.3628 21.1794C35.4008 21.2469 35.4539 21.3043 35.5176 21.3471C35.5461 21.3658 35.5792 21.3762 35.6131 21.3769C35.6389 21.3763 35.6641 21.3689 35.6861 21.3552L39.1882 19.2916L39.2041 19.2821C39.2231 19.2655 39.238 19.2447 39.2477 19.2212C39.2574 19.1976 39.2615 19.1722 39.2599 19.1467C39.2557 19.069 39.2337 18.9934 39.1957 18.9259C39.1576 18.8584 39.1047 18.8009 39.041 18.7581C39.02 18.7426 38.9955 18.7327 38.9698 18.7292C38.9442 18.7256 38.918 18.7286 38.8937 18.7378L38.8778 18.7473L35.3757 20.8109C35.3505 20.8256 35.33 20.8472 35.3164 20.8733C35.3028 20.8994 35.2967 20.929 35.2987 20.9585Z" fill="#FAFAFA"/>
<path d="M31.8618 20.7918C32.1099 19.9618 33.126 19.2753 34.0758 19.5475C34.2258 19.5905 34.3697 19.6529 34.5043 19.733C35.4249 20.2746 36.1718 21.5962 36.1718 22.6821C36.1741 22.8655 36.149 23.0481 36.0975 23.2237C35.8481 24.0538 34.8333 24.7362 33.8835 24.4654C33.734 24.4223 33.5904 24.36 33.4563 24.2799C32.5357 23.7383 31.7888 22.4167 31.7888 21.3321C31.7858 21.1493 31.8104 20.967 31.8618 20.7918Z" fill="#455A64"/>
<path d="M33.4548 24.2744C32.5342 23.7328 31.7874 22.4112 31.7874 21.3266C31.7874 20.242 32.5342 19.8006 33.4548 20.3422C34.3755 20.8838 35.1223 22.2054 35.1223 23.2914C35.1223 24.3773 34.3768 24.8174 33.4548 24.2744Z" fill="#37474F"/>
<path d="M33.4547 21.5434C33.1005 21.3335 32.814 21.5027 32.814 21.9211C32.826 22.1482 32.8902 22.3691 33.0016 22.566C33.1129 22.7629 33.2681 22.9303 33.4547 23.0545C33.8089 23.263 34.0968 23.0938 34.0968 22.6767C34.0845 22.4496 34.02 22.2286 33.9084 22.0317C33.7969 21.8348 33.6414 21.6675 33.4547 21.5434Z" fill="#455A64"/>
<path d="M33.2359 22.1727C33.24 22.2505 33.262 22.3261 33.3 22.3936C33.338 22.4611 33.3911 22.5186 33.4548 22.5613C33.4758 22.5768 33.5003 22.5867 33.5259 22.5903C33.5516 22.5938 33.5778 22.5908 33.6021 22.5816C33.6079 22.5796 33.6133 22.5764 33.618 22.5722C33.6372 22.5557 33.6524 22.5349 33.6623 22.5114C33.6722 22.4879 33.6765 22.4623 33.675 22.4367C33.6707 22.3589 33.6485 22.2832 33.6102 22.2157C33.572 22.1482 33.5187 22.0908 33.4548 22.0481C33.4338 22.0331 33.4096 22.0235 33.3841 22.0202C33.3587 22.0169 33.3329 22.02 33.3089 22.0292L33.293 22.0387C33.2737 22.0548 33.2585 22.0753 33.2486 22.0986C33.2386 22.1219 33.2343 22.1473 33.2359 22.1727Z" fill="#37474F"/>
<path d="M32.7052 22.4912C32.709 22.569 32.7308 22.6448 32.7689 22.7124C32.8069 22.7799 32.8601 22.8373 32.9241 22.8798C32.9526 22.8986 32.9857 22.9089 33.0196 22.9096C33.0454 22.909 33.0705 22.9015 33.0926 22.888L33.602 22.5874C33.6079 22.5853 33.6133 22.5821 33.6179 22.5779C33.6371 22.5614 33.6523 22.5406 33.6622 22.5171C33.6721 22.4936 33.6765 22.468 33.675 22.4425C33.6706 22.3646 33.6484 22.2889 33.6102 22.2214C33.5719 22.1539 33.5187 22.0965 33.4547 22.0539C33.4338 22.0388 33.4095 22.0293 33.3841 22.026C33.3587 22.0227 33.3328 22.0257 33.3088 22.0349L33.2929 22.0444L32.7822 22.3436C32.757 22.3583 32.7365 22.38 32.7229 22.4061C32.7093 22.4322 32.7031 22.4617 32.7052 22.4912Z" fill="#FAFAFA"/>
<path d="M32.7052 22.491C32.7091 22.569 32.731 22.6449 32.769 22.7127C32.8071 22.7805 32.8602 22.8381 32.9241 22.881C32.9454 22.896 32.9698 22.9056 32.9955 22.9089C33.0211 22.9122 33.0471 22.9091 33.0714 22.8999L33.0873 22.8905C33.1067 22.8742 33.1219 22.8534 33.1319 22.8298C33.1418 22.8063 33.1461 22.7806 33.1443 22.7551C33.1399 22.6771 33.1176 22.6012 33.0794 22.5335C33.0412 22.4658 32.988 22.4081 32.9241 22.3651C32.9029 22.3501 32.8784 22.3405 32.8528 22.3372C32.8271 22.3339 32.8011 22.337 32.7769 22.3461L32.761 22.3556C32.7419 22.3721 32.7269 22.393 32.7173 22.4165C32.7076 22.44 32.7035 22.4656 32.7052 22.491Z" fill="#E0E0E0"/>
<path d="M37.0128 22.0657C37.818 21.4387 38.5901 21.4428 38.4508 19.91C38.3327 19.233 38.1682 19.1842 37.5222 18.9269C37.2383 18.8146 36.8589 18.7292 36.6321 18.9946C36.6072 19.028 36.5797 19.0592 36.5498 19.0881C36.4829 19.1316 36.4062 19.1568 36.327 19.1612C36.1757 19.1687 36.0319 19.2306 35.921 19.3359C35.8454 19.4239 35.8162 19.5444 35.7419 19.6324C35.6706 19.7014 35.5938 19.7643 35.5125 19.8206C35.4541 19.8723 35.4071 19.9358 35.3744 20.0072C35.3418 20.0786 35.3241 20.1562 35.3228 20.235C35.3281 20.325 35.3527 20.4128 35.3949 20.4921C35.4371 20.5714 35.4958 20.6403 35.5668 20.694L35.9728 20.4557C36.1386 20.3392 36.4808 20.7549 36.3336 20.9743C36.0988 21.3236 37.0128 22.0657 37.0128 22.0657Z" fill="#FFEDE5"/>
<path d="M27.6342 25.1475C27.8916 24.0859 27.9658 21.4333 27.9658 21.4333L20.4336 21.6635L20.8435 23.3385C20.9111 23.7161 20.9471 24.0988 20.951 24.4827C20.951 24.4827 21.6819 25.8652 23.8495 26.1075C25.1814 26.2371 26.5167 25.8984 27.6342 25.1475Z" fill="#FFEDE5"/>
<path d="M27.9697 21.4335C27.979 21.5175 27.9259 22.3204 27.9259 22.3204C26.9628 23.1478 23.8732 23.5662 20.6298 22.4653L19.9426 19.7572C19.9426 19.7572 22.2747 18.7118 20.6988 15.2048L22.3928 15.0694L25.4001 14.9922H26.3871C27.1986 15.797 27.8845 16.724 28.4207 17.741C28.8147 18.4911 29.3161 19.5906 27.9697 21.4335Z" fill="#455A64"/>
<path d="M23.7075 21.4578C22.3504 21.1044 22.0108 20.2392 21.914 19.6028C21.914 19.6028 21.658 21.4578 23.5974 21.8898C25.643 22.3447 26.484 20.6914 26.484 20.6914C26.484 20.6914 25.3445 21.8844 23.7075 21.4578Z" fill="#37474F"/>
<path d="M12.1557 42.1003C11.7577 42.3968 10.8411 42.4686 10.0332 42.0813C9.22531 41.6941 8.88837 40.5919 9.03959 39.7402C9.22266 38.7016 9.72543 38.1342 9.85278 37.5087C9.98013 36.8831 9.85278 36.0192 10.0465 35.4613C10.1263 35.2469 10.2506 35.0526 10.4109 34.8918C10.5712 34.731 10.7636 34.6075 10.9751 34.5297C11.1098 34.4766 11.2548 34.4556 11.3987 34.4685C11.5427 34.4814 11.6818 34.5279 11.8055 34.6042L12.0443 34.7477L12.1557 42.1003Z" fill="#263238"/>
<path d="M13.104 38.1397L12.4752 40.0652C12.4752 40.0652 12.8732 41.4382 12.649 41.8038C12.3187 42.3455 11.7363 42.4402 10.756 42.1342C9.63506 41.7862 9.37107 40.7504 9.42944 39.9461C9.50904 38.7992 10.5477 37.9366 10.4283 36.8317C10.37 36.2901 10.4429 35.6848 10.7335 35.219C11.0585 34.6991 11.5917 34.6016 12.1449 34.7708C12.6198 34.9171 13.0364 35.2217 13.4383 35.5074C13.5537 35.5824 13.6582 35.6736 13.7487 35.7783C13.8208 35.8763 13.8747 35.9869 13.9079 36.1046C13.9807 36.3412 14.0024 36.5911 13.9716 36.8371C13.9424 37.0673 13.7978 37.2014 13.6638 37.3788L13.104 38.1397Z" fill="url(#paint0_linear_64_1545)"/>
<path d="M15.8143 37.2286C15.7759 37.2137 13.855 35.9598 13.648 35.865C13.4411 35.7702 12.9317 35.6362 12.4395 36.7993C12.088 37.6267 12.5934 37.9327 12.5934 37.9327L14.8486 39.3003L15.8143 37.2286Z" fill="#FFEDE5"/>
<path d="M12.4753 40.0654C12.0689 39.858 11.619 39.7553 11.1647 39.7661C11.131 39.7694 11.097 39.7641 11.0657 39.7508C11.0345 39.7374 11.0069 39.7165 10.9854 39.6898C10.9639 39.663 10.9492 39.6313 10.9425 39.5974C10.9359 39.5635 10.9374 39.5284 10.9471 39.4953C10.9599 39.4558 10.9839 39.4211 11.016 39.3956C11.0481 39.37 11.0869 39.3548 11.1276 39.3518C11.4313 39.3274 12.1689 39.3179 12.6584 39.7296C12.7884 39.9977 12.4753 40.0654 12.4753 40.0654Z" fill="url(#paint1_linear_64_1545)"/>
<path d="M12.7064 39.1851C12.3111 38.9566 11.867 38.8306 11.413 38.8181C11.3788 38.8198 11.3447 38.8129 11.3138 38.7979C11.2829 38.7828 11.2561 38.7602 11.2359 38.7321C11.2156 38.7039 11.2025 38.671 11.1978 38.6364C11.1931 38.6018 11.1968 38.5665 11.2087 38.5338C11.2233 38.4949 11.2489 38.4613 11.2822 38.4372C11.3154 38.4131 11.355 38.3996 11.3957 38.3984C11.7008 38.3902 12.4384 38.4214 12.9067 38.8574C13.0221 39.135 12.7064 39.1851 12.7064 39.1851Z" fill="url(#paint2_linear_64_1545)"/>
<path opacity="0.3" d="M12.4753 40.0654C12.0689 39.858 11.619 39.7553 11.1647 39.7661C11.131 39.7694 11.097 39.7641 11.0657 39.7508C11.0345 39.7374 11.0069 39.7165 10.9854 39.6898C10.9639 39.663 10.9492 39.6313 10.9425 39.5974C10.9359 39.5635 10.9374 39.5284 10.9471 39.4953C10.9599 39.4558 10.9839 39.4211 11.016 39.3956C11.0481 39.37 11.0869 39.3548 11.1276 39.3518C11.4313 39.3274 12.1689 39.3179 12.6584 39.7296C12.7884 39.9977 12.4753 40.0654 12.4753 40.0654Z" fill="black"/>
<path opacity="0.3" d="M12.7064 39.1851C12.3111 38.9566 11.867 38.8306 11.413 38.8181C11.3788 38.8198 11.3447 38.8129 11.3138 38.7979C11.2829 38.7828 11.2561 38.7602 11.2359 38.7321C11.2156 38.7039 11.2025 38.671 11.1978 38.6364C11.1931 38.6018 11.1968 38.5665 11.2087 38.5338C11.2233 38.4949 11.2489 38.4613 11.2822 38.4372C11.3154 38.4131 11.355 38.3996 11.3957 38.3984C11.7008 38.3902 12.4384 38.4214 12.9067 38.8574C13.0221 39.135 12.7064 39.1851 12.7064 39.1851Z" fill="black"/>
<path d="M32.2823 42.3091L34.7776 41.2989C34.7351 40.6422 34.576 39.7675 34.7418 38.0492L31.9109 37.4995V40.3917L32.2823 42.3091Z" fill="#FFEDE5"/>
<path d="M39.4021 44.5458C39.4684 44.7508 39.4561 44.9739 39.3676 45.17C39.2827 45.3528 38.3475 45.8903 37.0859 45.8037C36.1504 45.7368 35.2495 45.4156 34.4766 44.8734C33.9963 44.5485 33.4949 44.4875 32.8714 44.451C32.2479 44.4144 31.4255 44.0962 31.2888 43.7983C31.1522 43.5004 31.3101 42.9859 31.3101 42.9859L39.4021 44.5458Z" fill="#263238"/>
<path d="M34.3118 40.5269L34.4113 40.5052C34.4654 40.4904 34.5219 40.4876 34.5771 40.4971C34.6384 40.5164 34.6928 40.5536 34.7337 40.604C34.8571 40.7647 34.9647 40.9375 35.0547 41.1199C35.32 41.56 35.8745 41.9256 36.4807 42.2573C36.8933 42.4835 37.2966 42.6636 37.7224 42.8545C38.1482 43.0454 38.7319 43.1754 39.0715 43.4097C39.5663 43.7495 39.6313 44.6053 39.0715 44.9425C38.586 45.2349 37.3059 45.5504 35.9634 45.1618C35.2311 44.9506 34.4193 44.153 33.4601 44.0786C32.8499 44.0298 31.6945 43.8551 31.3018 43.3826C31.1572 43.1727 31.3509 42.5065 31.5101 41.9324C31.6839 41.3054 31.7476 40.2005 31.9518 40.256C31.9518 40.256 31.8961 40.4118 31.9757 40.4957C32.0553 40.5797 32.3352 40.7476 32.4175 40.818C32.555 40.9612 32.666 41.1286 32.7451 41.3122C32.778 41.3951 32.8393 41.463 32.9176 41.5031C33.0211 41.5424 33.098 41.4761 33.1829 41.4341C33.2977 41.3817 33.427 41.3725 33.5477 41.4083C33.5361 41.284 33.5143 41.1608 33.4827 41.04C33.4691 41.0019 33.4659 40.9607 33.4734 40.9209C33.4901 40.8837 33.5174 40.8526 33.5517 40.8315C33.7814 40.6769 34.0404 40.5731 34.3118 40.5269Z" fill="url(#paint3_linear_64_1545)"/>
<path d="M35.9106 41.9191C35.9106 41.9191 35.823 41.6794 35.4609 41.6117C35.1823 41.5589 34.6915 41.7674 34.3864 42.0179C34.3577 42.0421 34.3351 42.0731 34.3208 42.1081C34.3064 42.1432 34.3006 42.1813 34.3039 42.2191C34.3071 42.2569 34.3194 42.2934 34.3395 42.3254C34.3597 42.3573 34.3871 42.3838 34.4195 42.4025C34.4612 42.4268 34.5093 42.437 34.5569 42.4316C34.6046 42.4263 34.6494 42.4056 34.6848 42.3727C35.0207 42.0656 35.4599 41.903 35.9106 41.9191Z" fill="url(#paint4_linear_64_1545)"/>
<path d="M36.7712 42.4106C36.7111 42.324 36.6316 42.2534 36.5393 42.2047C36.447 42.1559 36.3445 42.1304 36.2406 42.1303C36.2406 42.1303 35.515 42.1519 35.0653 42.5785C35.0379 42.602 35.0164 42.6319 35.0028 42.6656C34.9891 42.6994 34.9836 42.736 34.9867 42.7724C34.9898 42.8088 35.0015 42.8439 35.0207 42.8747C35.0399 42.9056 35.0661 42.9312 35.0971 42.9495C35.1365 42.9718 35.1818 42.981 35.2265 42.9756C35.2713 42.9703 35.3132 42.9507 35.3465 42.9197C35.5317 42.7317 35.7558 42.5883 36.0023 42.5002C36.2489 42.4121 36.5116 42.3815 36.7712 42.4106Z" fill="url(#paint5_linear_64_1545)"/>
<path d="M37.7225 42.8548C37.6533 42.7745 37.568 42.7103 37.4723 42.6666C37.3766 42.6229 37.2728 42.6007 37.168 42.6016C37.168 42.6016 36.4915 42.6273 36.0431 43.0538C36.0154 43.0771 35.9936 43.1068 35.9796 43.1406C35.9657 43.1743 35.9599 43.211 35.9629 43.2475C35.9659 43.284 35.9776 43.3192 35.9969 43.3501C36.0161 43.381 36.0425 43.4066 36.0736 43.4248C36.1133 43.4471 36.1587 43.4562 36.2037 43.4508C36.2486 43.4455 36.2908 43.426 36.3243 43.395C36.5001 43.2001 36.7181 43.0498 36.9608 42.956C37.2035 42.8622 37.4644 42.8275 37.7225 42.8548Z" fill="url(#paint6_linear_64_1545)"/>
<path opacity="0.3" d="M35.9106 41.9191C35.9106 41.9191 35.823 41.6794 35.4609 41.6117C35.1823 41.5589 34.6915 41.7674 34.3864 42.0179C34.3577 42.0421 34.3351 42.0731 34.3208 42.1081C34.3064 42.1432 34.3006 42.1813 34.3039 42.2191C34.3071 42.2569 34.3194 42.2934 34.3395 42.3254C34.3597 42.3573 34.3871 42.3838 34.4195 42.4025C34.4612 42.4268 34.5093 42.437 34.5569 42.4316C34.6046 42.4263 34.6494 42.4056 34.6848 42.3727C35.0207 42.0656 35.4599 41.903 35.9106 41.9191Z" fill="black"/>
<path opacity="0.3" d="M36.7712 42.4106C36.7111 42.324 36.6316 42.2534 36.5393 42.2047C36.447 42.1559 36.3445 42.1304 36.2406 42.1303C36.2406 42.1303 35.515 42.1519 35.0653 42.5785C35.0379 42.602 35.0164 42.6319 35.0028 42.6656C34.9891 42.6994 34.9836 42.736 34.9867 42.7724C34.9898 42.8088 35.0015 42.8439 35.0207 42.8747C35.0399 42.9056 35.0661 42.9312 35.0971 42.9495C35.1365 42.9718 35.1818 42.981 35.2265 42.9756C35.2713 42.9703 35.3132 42.9507 35.3465 42.9197C35.5317 42.7317 35.7558 42.5883 36.0023 42.5002C36.2489 42.4121 36.5116 42.3815 36.7712 42.4106Z" fill="black"/>
<path opacity="0.3" d="M37.7225 42.8548C37.6533 42.7745 37.568 42.7103 37.4723 42.6666C37.3766 42.6229 37.2728 42.6007 37.168 42.6016C37.168 42.6016 36.4915 42.6273 36.0431 43.0538C36.0154 43.0771 35.9936 43.1068 35.9796 43.1406C35.9657 43.1743 35.9599 43.211 35.9629 43.2475C35.9659 43.284 35.9776 43.3192 35.9969 43.3501C36.0161 43.381 36.0425 43.4066 36.0736 43.4248C36.1133 43.4471 36.1587 43.4562 36.2037 43.4508C36.2486 43.4455 36.2908 43.426 36.3243 43.395C36.5001 43.2001 36.7181 43.0498 36.9608 42.956C37.2035 42.8622 37.4644 42.8275 37.7225 42.8548Z" fill="black"/>
<path d="M33.9883 27.7839C32.0913 27.3492 27.5611 26.3824 27.5611 26.3824L27.6341 25.1475C25.9958 26.0141 22.5427 25.7691 20.9508 24.4827L20.7001 25.7921C20.0966 26.5296 19.5739 27.3324 19.1414 28.1861C18.7779 28.9213 18.1704 30.0682 18.7753 32.7398C19.1308 34.3091 19.6044 38.4404 19.6044 38.4404L14.9614 36.6936C14.9614 36.6936 14.5634 36.7627 14.2265 37.651C14.0275 38.1763 13.9612 38.6814 14.1628 38.9427C15.8608 40.3117 18.6121 42.5472 21.3926 43.8011C23.2498 44.5269 24.2367 42.9331 24.327 42.3428C24.6758 40.0815 25.0778 32.8156 25.0778 32.8156L31.2861 32.6138C31.0805 33.8135 31.9162 38.5013 31.9162 38.5013C31.9162 38.5013 33.4444 39.1783 34.71 38.4851C34.71 38.4851 35.5563 33.0905 35.6386 31.2909C35.7221 29.2842 35.823 28.205 33.9883 27.7839Z" fill="url(#paint7_linear_64_1545)"/>
<path opacity="0.15" d="M31.286 32.614C31.286 32.2904 31.497 31.1598 32.2146 30.5572C32.2146 30.5572 31.2303 30.7373 30.7793 32.6303L31.286 32.614Z" fill="black"/>
<path opacity="0.15" d="M19.6042 38.4405C19.6042 38.4405 19.7369 40.2238 20.0712 41.0931C20.0712 41.0931 19.2341 39.5495 19.1426 38.2645L19.6042 38.4405Z" fill="black"/>
<path opacity="0.15" d="M27.5598 26.3826L27.6327 25.1491C25.9944 26.0143 22.5427 25.7693 20.9521 24.4843L20.7014 25.7923C20.7147 25.8045 21.7361 26.8823 24.3919 27.0218C27.0477 27.1612 27.5598 26.3826 27.5598 26.3826Z" fill="black"/>
<path opacity="0.15" d="M25.0829 32.8157C25.061 32.1454 24.9057 31.4867 24.6265 30.8797C24.3474 30.2726 23.9503 29.7298 23.4592 29.2843C23.4592 29.2843 24.8866 29.9613 25.3642 32.1048C25.3642 32.1048 26.4254 31.5997 26.9799 30.0859C26.9799 30.0859 26.8101 31.5997 25.9558 32.4609L28.5307 32.7033L25.0829 32.8157Z" fill="black"/>
<path d="M24.2553 5.42975C23.7103 5.42886 23.1704 5.53765 22.6666 5.74988C22.1628 5.96212 21.705 6.27364 21.3192 6.66664C20.9334 7.05963 20.6274 7.5264 20.4185 8.04023C20.2096 8.55406 20.102 9.10488 20.1018 9.6612C20.1018 10.2176 20.2093 10.7686 20.4181 11.2826C20.6269 11.7966 20.933 12.2635 21.3187 12.6566C21.7045 13.0498 22.1624 13.3614 22.6663 13.5737C23.1702 13.7861 23.7102 13.8949 24.2553 13.894C25.3538 13.8922 26.4067 13.4454 27.1828 12.6518C27.9588 11.8581 28.3945 10.7825 28.3942 9.6612C28.3942 8.54012 27.9583 7.46486 27.1823 6.67151C26.4063 5.87815 25.3536 5.43155 24.2553 5.42975Z" fill="#263238"/>
<path d="M19.9241 8.00243C20.074 7.99543 20.2243 8.00405 20.3725 8.02816C20.4227 8.03153 20.4699 8.05371 20.5051 8.09045C20.5256 8.12083 20.5371 8.15653 20.5383 8.19336C20.5725 8.42844 20.5512 8.66848 20.4759 8.89341C20.4176 9.05048 20.2358 9.13037 20.1204 9.24411C19.672 9.68824 19.6362 10.4235 19.8127 11.0342C19.9891 11.6449 20.3433 12.1892 20.5728 12.7796C20.8023 13.3699 20.9243 14.0808 20.5993 14.6753C20.4733 14.9027 20.2438 15.0815 20.2717 15.3523C20.3035 15.684 20.5874 16.0009 20.7094 16.3001C20.8434 16.6546 20.889 17.0376 20.8421 17.4145C20.8085 17.8832 20.638 18.3308 20.3526 18.6995C20.1344 18.959 19.8528 19.1549 19.5363 19.2672C19.2199 19.3794 18.8799 19.4041 18.5511 19.3386C18.4125 19.3139 18.2813 19.257 18.1677 19.1721C17.9727 19.0123 17.8945 18.751 17.7883 18.5194C17.4474 17.7706 16.7271 17.2263 16.5082 16.4315C16.2707 15.5852 16.6661 14.705 17.1516 13.986C17.3784 13.6502 17.6318 13.3212 17.7432 12.9285C17.8931 12.3991 17.7618 11.8358 17.7273 11.2847C17.6944 10.7464 17.755 10.2064 17.9064 9.68959C18.0152 9.31587 18.1836 8.88528 18.4689 8.61718C18.8691 8.24573 19.3837 8.02834 19.9241 8.00243Z" fill="#263238"/>
<path d="M26.8475 7.36601C27.3011 7.6436 27.8596 8.81486 27.7946 11.2657C27.7389 13.3428 27.077 13.8533 26.7453 14.0009C26.4137 14.1485 25.7743 14.0537 25.1534 13.9454V15.1925C25.1534 15.1925 26.0077 16.2135 25.9494 16.7862C25.891 17.359 24.7077 17.4876 23.9065 16.9216C23.1052 16.3556 22.4327 15.2683 22.4327 15.2683L22.4592 12.4004C22.4592 12.4004 22.0891 12.766 21.4696 12.2108C20.9615 11.7518 20.7917 10.9814 21.1923 10.5751C21.5929 10.1689 22.3292 10.2786 22.6104 10.869C22.6104 10.869 23.6 10.9096 24.9226 10.1757C25.4371 9.89463 25.8795 9.49378 26.214 9.00562C26.5484 8.51747 26.7654 7.95576 26.8475 7.36601Z" fill="#FFEDE5"/>
<path d="M25.5235 10.7349C25.5238 10.7862 25.5092 10.8365 25.4816 10.8794C25.454 10.9223 25.4146 10.956 25.3684 10.9762C25.3222 10.9965 25.2712 11.0023 25.2217 10.9932C25.1722 10.984 25.1265 10.9601 25.0902 10.9246C25.0539 10.889 25.0287 10.8434 25.0177 10.7933C25.0067 10.7432 25.0104 10.6909 25.0283 10.6429C25.0462 10.595 25.0776 10.5534 25.1185 10.5236C25.1593 10.4937 25.208 10.4767 25.2582 10.4749C25.3268 10.4748 25.3927 10.5019 25.4422 10.5503C25.4916 10.5988 25.5208 10.6649 25.5235 10.7349Z" fill="#263238"/>
<g style="mix-blend-mode:multiply" opacity="0.5">
<g style="mix-blend-mode:multiply" opacity="0.5">
<path d="M25.582 12.4967L26.175 12.6917C26.1642 12.7323 26.1455 12.7703 26.12 12.8034C26.0945 12.8364 26.0627 12.8639 26.0265 12.8841C25.9903 12.9044 25.9505 12.9169 25.9095 12.9211C25.8684 12.9253 25.827 12.9209 25.7876 12.9083C25.7077 12.8805 25.6415 12.8219 25.6031 12.7451C25.5647 12.6682 25.5572 12.5791 25.582 12.4967Z" fill="#F28F8F"/>
</g>
</g>
<path d="M27.6261 9.9416L27.1101 9.5733C27.1317 9.53763 27.1603 9.50685 27.194 9.48287C27.2277 9.45888 27.2658 9.44218 27.3061 9.43381C27.3464 9.42544 27.3879 9.42557 27.4281 9.43419C27.4683 9.44281 27.5064 9.45973 27.5399 9.48393C27.6085 9.53484 27.6555 9.61043 27.6715 9.6954C27.6875 9.78037 27.6713 9.86837 27.6261 9.9416Z" fill="#263238"/>
<path d="M27.504 10.5535C27.5045 10.6049 27.4901 10.6553 27.4627 10.6984C27.4353 10.7415 27.396 10.7754 27.3498 10.7959C27.3036 10.8163 27.2525 10.8224 27.203 10.8134C27.1534 10.8043 27.1076 10.7806 27.0711 10.7451C27.0347 10.7096 27.0094 10.6639 26.9983 10.6138C26.9871 10.5637 26.9908 10.5113 27.0086 10.4633C27.0265 10.4152 27.0579 10.3736 27.0988 10.3437C27.1397 10.3138 27.1884 10.2968 27.2387 10.2949C27.307 10.2949 27.3728 10.3217 27.4222 10.3699C27.4716 10.4181 27.5009 10.4839 27.504 10.5535Z" fill="#263238"/>
<g style="mix-blend-mode:multiply" opacity="0.5">
<g style="mix-blend-mode:multiply" opacity="0.5">
<path d="M26.2969 10.3991L26.3314 11.9725L27.1432 11.7193L26.2969 10.3991Z" fill="#F28F8F"/>
</g>
</g>
<g style="mix-blend-mode:multiply" opacity="0.5">
<g style="mix-blend-mode:multiply" opacity="0.5">
<path d="M25.1547 13.9457C24.4993 13.8563 23.1542 13.4555 22.9473 12.9111C23.0306 13.1862 23.1945 13.4286 23.4169 13.6058C23.8175 13.9605 25.152 14.3668 25.152 14.3668L25.1547 13.9457Z" fill="#F28F8F"/>
</g>
</g>
<path d="M20.6987 15.2061C19.4146 15.2995 18.8853 15.4661 18.1703 17.0856C17.5269 18.5412 15.9881 22.3082 15.6034 23.1477C15.2187 23.9872 15.1457 24.3244 15.4707 25.2032C15.7361 25.9195 17.9037 30.0345 18.1411 30.6343C18.3786 31.2342 18.4834 31.8408 18.888 32.5395C19.2926 33.2382 19.932 33.9206 20.4374 34.0818C21.1869 34.3214 22.1619 33.9883 22.1898 33.5266C22.2177 33.0649 21.0901 32.2944 20.7836 31.2694C20.9876 31.4061 21.2023 31.5253 21.4257 31.6255C21.7295 31.7528 22.0691 31.7243 22.1699 31.5483C22.2707 31.3723 21.9669 31.2653 21.6963 30.9904C21.5345 30.8266 21.2479 30.4583 20.8818 30.1333C20.6337 29.914 20.2278 29.849 20.0447 29.6079C19.9466 29.4793 19.5009 28.3649 19.1652 27.3724C18.7513 26.1415 18.2061 24.5031 18.2061 24.5031L20.4374 19.7639C20.4374 19.7639 22.1871 17.9819 20.6987 15.2061Z" fill="#FFEDE5"/>
<path d="M18.1373 30.6342C18.1373 30.6342 18.6507 29.5739 20.0409 29.6078L19.6735 28.7737C19.6735 28.7737 18.3164 28.8712 17.7446 29.8096L18.1373 30.6342Z" fill="#37474F"/>
<path d="M17.9873 29.7337L18.2858 30.1656C18.3074 30.197 18.335 30.2237 18.3669 30.2439C18.3988 30.2642 18.4344 30.2777 18.4715 30.2837C18.5087 30.2896 18.5466 30.2879 18.5831 30.2785C18.6195 30.2692 18.6538 30.2524 18.6838 30.2293L19.2144 29.823C19.2761 29.7748 19.3174 29.7044 19.33 29.6262C19.3425 29.5479 19.3254 29.4677 19.282 29.4019L19.0048 28.9849C18.9839 28.9527 18.9569 28.9252 18.9253 28.904C18.8936 28.8828 18.8581 28.8684 18.8209 28.8617C18.7837 28.855 18.7455 28.8561 18.7087 28.8649C18.6719 28.8738 18.6372 28.8902 18.6068 28.9131L18.0443 29.3193C17.9831 29.3667 17.9427 29.4368 17.932 29.5145C17.9213 29.5921 17.9412 29.6709 17.9873 29.7337Z" fill="#263238"/>
<path d="M17.8878 29.7231L18.1889 30.155C18.2107 30.1863 18.2383 30.2128 18.2702 30.2329C18.3021 30.2531 18.3377 30.2666 18.3748 30.2725C18.4119 30.2784 18.4498 30.2767 18.4862 30.2675C18.5226 30.2582 18.5569 30.2416 18.5869 30.2186L19.1175 29.8124C19.1792 29.7642 19.2206 29.6939 19.2334 29.6158C19.2462 29.5376 19.2294 29.4574 19.1865 29.3913L18.9093 28.9743C18.8883 28.9422 18.8612 28.9149 18.8295 28.8938C18.7979 28.8727 18.7625 28.8584 18.7253 28.8517C18.6881 28.845 18.65 28.8461 18.6132 28.8548C18.5764 28.8635 18.5418 28.8797 18.5113 28.9025L17.9488 29.3155C17.8886 29.3619 17.8485 29.4304 17.8371 29.5066C17.8257 29.5827 17.8439 29.6604 17.8878 29.7231Z" fill="#455A64"/>
<path d="M19.1321 29.5807C19.1254 29.6343 19.0982 29.683 19.0564 29.7161L18.5258 30.1224C18.5074 30.1374 18.486 30.1482 18.4631 30.154C18.4402 30.1599 18.4164 30.1606 18.3932 30.1562C18.3704 30.1526 18.3486 30.1444 18.329 30.1321C18.3094 30.1198 18.2924 30.1036 18.2791 30.0844L17.9766 29.6511C17.9511 29.6152 17.9397 29.5707 17.9448 29.5266C17.9466 29.4998 17.9542 29.4738 17.967 29.4504C17.9799 29.4269 17.9976 29.4067 18.0191 29.3912L18.5815 28.985C18.6003 28.9707 18.6218 28.9606 18.6447 28.9552C18.6675 28.9499 18.6912 28.9494 18.7142 28.9538C18.7369 28.9579 18.7586 28.9666 18.778 28.9794C18.7973 28.9922 18.814 29.0088 18.8269 29.0283L19.1042 29.4453C19.1302 29.4852 19.1415 29.5332 19.136 29.5807H19.1321Z" fill="url(#paint8_linear_64_1545)"/>
</g>
</g>
<defs>
<linearGradient id="paint0_linear_64_1545" x1="13.9852" y1="42.307" x2="7.87996" y2="42.0238" gradientUnits="userSpaceOnUse">
<stop stop-color="#C150F6"/>
<stop offset="1" stop-color="#EEA4CE"/>
</linearGradient>
<linearGradient id="paint1_linear_64_1545" x1="12.69" y1="40.0654" x2="10.4213" y2="39.6402" gradientUnits="userSpaceOnUse">
<stop stop-color="#C150F6"/>
<stop offset="1" stop-color="#EEA4CE"/>
</linearGradient>
<linearGradient id="paint2_linear_64_1545" x1="12.9321" y1="39.1851" x2="10.6699" y2="38.7992" gradientUnits="userSpaceOnUse">
<stop stop-color="#C150F6"/>
<stop offset="1" stop-color="#EEA4CE"/>
</linearGradient>
<linearGradient id="paint3_linear_64_1545" x1="39.4674" y1="45.3427" x2="28.6204" y2="43.9874" gradientUnits="userSpaceOnUse">
<stop stop-color="#C150F6"/>
<stop offset="1" stop-color="#EEA4CE"/>
</linearGradient>
<linearGradient id="paint4_linear_64_1545" x1="35.9106" y1="42.433" x2="33.8026" y2="42.1169" gradientUnits="userSpaceOnUse">
<stop stop-color="#C150F6"/>
<stop offset="1" stop-color="#EEA4CE"/>
</linearGradient>
<linearGradient id="paint5_linear_64_1545" x1="36.7712" y1="42.9771" x2="34.4395" y2="42.5967" gradientUnits="userSpaceOnUse">
<stop stop-color="#C150F6"/>
<stop offset="1" stop-color="#EEA4CE"/>
</linearGradient>
<linearGradient id="paint6_linear_64_1545" x1="37.7225" y1="43.4523" x2="35.4213" y2="43.0839" gradientUnits="userSpaceOnUse">
<stop stop-color="#C150F6"/>
<stop offset="1" stop-color="#EEA4CE"/>
</linearGradient>
<linearGradient id="paint7_linear_64_1545" x1="35.6755" y1="43.9869" x2="6.88006" y2="41.5153" gradientUnits="userSpaceOnUse">
<stop stop-color="#C150F6"/>
<stop offset="1" stop-color="#EEA4CE"/>
</linearGradient>
<linearGradient id="paint8_linear_64_1545" x1="19.1374" y1="30.159" x2="17.5461" y2="30.0374" gradientUnits="userSpaceOnUse">
<stop stop-color="#C150F6"/>
<stop offset="1" stop-color="#EEA4CE"/>
</linearGradient>
<clipPath id="clip0_64_1545">
<rect width="32.7556" height="40.3836" fill="white" transform="translate(9 5.42976)"/>
</clipPath>
</defs>
</svg>
