<svg width="12" height="12" viewBox="0 0 12 12" fill="none" xmlns="http://www.w3.org/2000/svg">
<path fill-rule="evenodd" clip-rule="evenodd" d="M5.99992 0.458374C6.48317 0.458374 6.87492 0.850125 6.87492 1.33337V5.12504H10.6666C11.1498 5.12504 11.5416 5.51679 11.5416 6.00004C11.5416 6.48329 11.1498 6.87504 10.6666 6.87504H6.87492V10.6667C6.87492 11.15 6.48317 11.5417 5.99992 11.5417C5.51667 11.5417 5.12492 11.15 5.12492 10.6667V6.87504H1.33325C0.850003 6.87504 0.458252 6.48329 0.458252 6.00004C0.458252 5.51679 0.850003 5.12504 1.33325 5.12504H5.12492V1.33337C5.12492 0.850125 5.51667 0.458374 5.99992 0.458374Z" fill="white"/>
</svg>
