<svg width="20" height="20" viewBox="0 0 20 20" fill="none" xmlns="http://www.w3.org/2000/svg">
<path fill-rule="evenodd" clip-rule="evenodd" d="M9.98712 12.7885C6.7641 12.7885 4.01172 13.2758 4.01172 15.2274C4.01172 17.179 6.74664 17.6838 9.98712 17.6838C13.2101 17.6838 15.9617 17.1957 15.9617 15.2449C15.9617 13.2941 13.2276 12.7885 9.98712 12.7885Z" stroke="url(#paint0_linear_229_2210)" stroke-width="1.2" stroke-linecap="round" stroke-linejoin="round"/>
<path fill-rule="evenodd" clip-rule="evenodd" d="M9.98692 10.0049C12.102 10.0049 13.8163 8.28984 13.8163 6.17476C13.8163 4.05968 12.102 2.3454 9.98692 2.3454C7.87184 2.3454 6.15676 4.05968 6.15676 6.17476C6.14962 8.2827 7.85279 9.99778 9.95994 10.0049H9.98692Z" stroke="url(#paint1_linear_229_2210)" stroke-width="1.2" stroke-linecap="round" stroke-linejoin="round"/>
<defs>
<linearGradient id="paint0_linear_229_2210" x1="15.9617" y1="17.6838" x2="0.491489" y2="14.7615" gradientUnits="userSpaceOnUse">
<stop stop-color="#00FF66"/>
<stop offset="1" stop-color="#00F0FF"/>
</linearGradient>
<linearGradient id="paint1_linear_229_2210" x1="13.8163" y1="10.0049" x2="3.60769" y2="9.21497" gradientUnits="userSpaceOnUse">
<stop stop-color="#00FF66"/>
<stop offset="1" stop-color="#00F0FF"/>
</linearGradient>
</defs>
</svg>
