<svg width="55" height="55" viewBox="0 0 55 55" fill="none" xmlns="http://www.w3.org/2000/svg">
<circle opacity="0.3" cx="27.5" cy="27.5" r="27.5" fill="url(#paint0_linear_229_2143)"/>
<mask id="mask0_229_2143" style="mask-type:alpha" maskUnits="userSpaceOnUse" x="0" y="0" width="55" height="55">
<circle cx="27.5" cy="27.5" r="27.5" fill="#C4C4C4"/>
</mask>
<g mask="url(#mask0_229_2143)">
<path d="M41.1555 40.089C41.6153 35.5193 41.1769 31.0652 40.3925 26.5672C39.9356 23.9366 39.7545 21.2673 39.8522 18.6008C39.9375 16.7486 39.462 14.9128 38.4849 13.323C37.3688 11.4026 35.4659 9.85232 33.127 10.123C33.0208 10.145 32.911 10.145 32.8047 10.123C32.7189 10.091 32.6389 10.0457 32.5678 9.98884C31.3592 9.0934 29.3663 8.82268 27.8829 8.80186C26.0552 8.77084 24.2465 9.16753 22.608 9.95876C19.8402 11.3146 17.7051 13.9292 17.1577 16.9002C16.9657 18.1357 16.9418 19.3906 17.0866 20.6323C17.1814 21.6619 17.3236 22.7147 17.1363 23.7235C16.8733 25.1118 16.0155 26.3104 15.4776 27.6223C14.7979 29.2572 14.4696 31.0111 14.5131 32.7751C14.5676 34.0385 14.9539 37.2454 16.4254 37.7035C18.4089 38.3236 20.5037 38.5203 22.5866 38.7123L28.4587 39.2584C29.4635 39.3509 30.4872 39.4435 31.4659 39.2075C32.1981 39.0316 32.8735 38.6799 33.5986 38.4809C34.4986 38.2354 35.4496 38.2306 36.3522 38.4671" fill="#AA4F7A"/>
<g style="mix-blend-mode:multiply" opacity="0.32">
<g style="mix-blend-mode:multiply" opacity="0.32">
<path d="M23.8142 14.5519L20.0227 15.6741C19.9536 15.6902 19.8884 15.7193 19.8308 15.7597C19.7664 15.819 19.7197 15.8941 19.6957 15.9772C19.0449 17.5907 18.6038 19.2775 18.3829 20.9982C18.1033 23.2449 19.1507 25.4661 18.48 27.7082L17.7075 30.3806C17.3189 31.6833 16.9279 33.0531 17.2336 34.3765C17.4706 35.4178 18.1033 36.3201 18.5677 37.2827C19.2658 38.7315 19.5803 40.3282 19.4824 41.9265C19.4824 41.8756 22.563 41.267 22.845 41.1861C23.9954 40.8649 25.1267 40.4817 26.2337 40.0384C27.1958 39.6543 28.1294 39.1846 29.0939 38.8375C29.6697 38.6339 30.1982 38.4859 30.5963 38.0023C31.6982 36.6626 31.9541 34.3002 31.9968 32.6551C32.045 30.7155 31.6711 28.7881 30.8996 27.0002C30.3608 25.7493 29.619 24.5915 28.7029 23.5711" fill="#AA4F7A"/>
</g>
</g>
<path d="M12.1173 39.3973C9.98455 42.8009 8.67885 46.6672 7.9632 50.6007C7.65514 52.3013 7.4632 54.1269 8.26415 55.6656C9.56985 58.2108 13.1647 57.5004 15.4751 56.9937C18.9965 56.2255 23.2951 54.6591 25.4989 51.79" fill="#EA7C99"/>
<path d="M45.1985 57.2898C46.0729 54.8626 45.881 51.813 45.6724 49.4229C45.4189 46.371 44.7625 43.5828 43.2767 40.8248C42.1629 38.7609 40.9923 36.4887 38.8003 35.3874C37.7387 34.8529 36.5918 34.5035 35.4828 34.0477C34.132 33.4877 32.8406 32.2869 33.215 30.7297C33.4519 29.7001 34.2102 28.8578 34.9899 28.122C35.4359 27.6812 35.8477 27.2087 36.2221 26.7083C36.2436 26.6764 36.273 26.6501 36.3074 26.632C36.3589 26.6196 36.4131 26.6245 36.4614 26.6458C37.0463 26.828 37.6728 26.8404 38.2647 26.6814C38.8566 26.5225 39.3884 26.199 39.7956 25.7504C40.5681 24.9174 40.7767 23.1474 40.0966 22.1848C39.5089 21.3519 38.042 21.065 37.1297 21.4398C37.4852 19.5702 37.5515 16.914 36.7529 15.144C36.0088 13.4294 34.087 12.1383 32.4448 11.347C30.8026 10.5557 29.0064 10.4053 27.2173 10.5997C25.3381 10.8056 23.3855 11.4928 22.2954 12.9991C21.8803 13.6228 21.561 14.3026 21.3476 15.0167C20.7311 16.817 20.2985 18.6725 20.0561 20.5559C19.8523 22.1524 19.8002 24.0451 20.1485 25.6255C20.342 26.6162 20.8376 27.5268 21.5703 28.2377C22.4826 29.0753 23.2528 29.3437 24.4945 29.5149C25.7907 29.6954 27.6462 29.9407 28.286 31.2156C29.4282 33.4577 27.5751 34.522 25.6651 35.1652C21.5348 36.5535 21.6769 40.6605 21.1224 44.1705C20.8855 45.7254 20.1746 46.9818 19.6651 48.4418C19.3938 49.3312 19.2347 50.2497 19.1911 51.1767C19.1461 51.695 18.9091 52.4239 18.9897 52.9283C19.075 53.4697 19.5205 53.7474 19.9542 54.1014C21.2883 55.1865 22.7978 56.0588 24.2836 56.9126C25.5728 57.6261 26.9329 58.2099 28.3429 58.6549C30.3121 59.3074 32.1344 60.1265 34.1771 60.5638C35.7094 60.916 37.2681 61.1482 38.8382 61.2579C41.234 61.3945 43.4734 60.5036 44.6629 58.4143C44.8742 58.0551 45.0533 57.6789 45.1985 57.2898Z" fill="#FF8DA8"/>
<g style="mix-blend-mode:multiply" opacity="0.2">
<g style="mix-blend-mode:multiply" opacity="0.2">
<path d="M31.2504 10.7198C31.5561 12.0665 31.3097 13.464 31.1509 14.8338C30.9921 16.2035 30.9376 17.6589 31.5774 18.8899C31.9951 19.6434 32.6407 20.2528 33.4261 20.635C34.2114 21.0172 35.0984 21.1535 35.9661 21.0255C35.5251 18.3756 34.6209 15.8195 33.2931 13.4686" fill="#FF8DA8"/>
</g>
</g>
<path d="M23.3779 15.0492C23.1812 14.2278 21.6409 14.8733 21.2452 15.1649C20.911 15.4078 20.4537 15.9215 20.9726 16.2431C21.4916 16.5647 22.6006 15.9493 23.0153 15.6623C23.2215 15.5119 23.4371 15.2806 23.3779 15.0492Z" fill="#843860"/>
<path d="M29.5227 14.7298C29.7193 13.9084 31.2596 14.5563 31.6554 14.8478C31.9871 15.0792 32.4445 15.6021 31.9255 15.9238C31.4066 16.2454 30.2976 15.6299 29.8829 15.343C29.6791 15.1995 29.4634 14.9751 29.5227 14.7298Z" fill="#843860"/>
<path d="M38.857 61.2652C41.2528 61.4017 43.4921 60.5109 44.6817 58.4215C44.8868 58.0595 45.0596 57.681 45.1983 57.2901C46.0727 54.8629 45.8808 51.8133 45.6722 49.4232C45.4187 46.3713 44.7623 43.5831 43.2765 40.8251C42.2812 38.974 41.2362 36.9726 39.4613 35.7787C39.402 35.8134 39.3404 35.8481 39.2836 35.8851C36.0039 37.9282 33.0963 40.9315 29.2455 41.4706C26.9706 41.7876 24.6483 41.1722 22.5796 40.1911C22.3284 40.0708 22.0654 39.9458 21.7952 39.8278C21.4682 41.2161 21.3568 42.7548 21.1317 44.1801C20.8947 45.735 20.1838 46.9914 19.6744 48.4514C19.4031 49.3408 19.2439 50.2592 19.2004 51.1863C19.1554 51.7046 18.9184 52.4334 18.999 52.9378C19.0843 53.4792 19.5298 53.7569 19.9635 54.1109C21.2976 55.1961 22.8071 56.0684 24.2929 56.9222C25.5821 57.6356 26.9421 58.2194 28.3522 58.6645C30.3214 59.317 32.1437 60.136 34.1863 60.5733C35.7218 60.9253 37.2837 61.1567 38.857 61.2652Z" fill="#F26757"/>
<g style="mix-blend-mode:multiply" opacity="0.25">
<g style="mix-blend-mode:multiply" opacity="0.25">
<path d="M32.0369 26.9925C33.2972 26.9925 34.3189 25.9949 34.3189 24.7643C34.3189 23.5337 33.2972 22.5361 32.0369 22.5361C30.7766 22.5361 29.7549 23.5337 29.7549 24.7643C29.7549 25.9949 30.7766 26.9925 32.0369 26.9925Z" fill="#FF8DA8"/>
</g>
<g style="mix-blend-mode:multiply" opacity="0.25">
<path d="M21.5886 24.0152C21.5883 23.5308 21.4261 23.0597 21.1268 22.6735C20.8274 22.2872 20.4072 22.0069 19.9298 21.8749C19.8321 23.129 19.9046 24.3901 20.1455 25.6256C20.1763 25.7644 20.2142 25.9033 20.2545 26.0398C20.6524 25.863 20.9899 25.578 21.2264 25.219C21.463 24.86 21.5887 24.4421 21.5886 24.0152Z" fill="#FF8DA8"/>
</g>
</g>
<path d="M45.9802 48.9279C45.801 46.9976 45.4036 45.0925 44.7953 43.2475C44.3214 41.7968 43.8901 40.0545 42.7337 38.9901C40.9422 37.3404 38.4564 37.7036 36.7242 39.2932C34.4635 41.3756 35.1578 44.0666 36.2194 46.5285C36.9753 48.2823 37.8379 50.0408 37.9872 51.9358C38.0129 52.0968 37.9932 52.2616 37.9303 52.4125C37.7787 52.7017 37.3806 52.7549 37.0464 52.7549C35.3545 52.7549 33.6933 52.3361 32.0535 51.9219L27.1435 50.6817C25.7098 50.3208 24.2596 49.9552 22.8662 49.4601C21.6624 51.0688 20.6653 52.8157 19.897 54.6615C22.1174 56.3853 24.4586 58.0535 27.1269 59.0299C31.1032 60.4876 36.1507 62.5839 40.5441 61.6931C41.6619 61.4893 42.7049 61.0013 43.5678 60.2781C44.4307 59.555 45.083 58.6225 45.4588 57.5745C46.4849 54.8466 46.2219 51.7646 45.9802 48.9279Z" fill="#FF8DA8"/>
<path d="M34.4159 33.4183C34.0576 33.1558 33.7536 32.8291 33.5201 32.4558C31.9434 32.9702 30.2394 32.9783 28.6575 32.4789C28.6619 32.8966 28.5235 33.3037 28.2642 33.6358C30.2772 34.2712 32.4552 34.1942 34.4159 33.4183Z" fill="#F7BF54"/>
<path d="M30.8398 9.88463C31.7332 10.6736 31.9749 11.8768 32.091 13.0013C32.2688 14.7459 32.2617 16.5391 32.9323 18.1819C33.6029 19.8247 35.1645 21.3264 37.0958 21.3842C37.2058 21.3963 37.3168 21.3745 37.4134 21.3217C37.4833 21.2601 37.5328 21.1796 37.5556 21.0904C38.7854 17.821 37.5556 13.9176 34.6029 11.7287C33.5626 10.9652 32.3446 10.4052 31.1598 9.85223" fill="#AA4F7A"/>
<g style="mix-blend-mode:multiply" opacity="0.2">
<g style="mix-blend-mode:multiply" opacity="0.2">
<path d="M21.02 16.1246C22.5153 16.5503 24.0722 16.8465 25.6291 16.747C27.186 16.6475 28.7476 16.1269 29.8945 15.088C31.0414 14.0491 31.6836 12.4503 31.3614 10.9602C29.3503 12.4199 26.94 13.2624 24.4371 13.3804" fill="#FF8DA8"/>
</g>
</g>
<path d="M31.4304 10.2456C31.8712 11.4048 31.3356 12.7353 30.4494 13.6376C28.9897 15.1231 26.7835 15.6414 24.6839 15.8288C22.5844 16.0162 20.4351 15.9491 18.4185 16.5507C18.9516 13.9222 21.1365 11.8097 23.6721 10.7824C26.2076 9.75508 29.0465 9.69029 31.7717 9.98877" fill="#AA4F7A"/>
<path d="M23.916 24.3364C23.9172 24.3202 23.9172 24.304 23.916 24.2878C23.9084 24.2239 23.8879 24.1622 23.8558 24.1061C23.8236 24.0499 23.7804 24.0006 23.7287 23.9608C23.6769 23.921 23.6177 23.8916 23.5542 23.8743C23.4908 23.8569 23.4245 23.852 23.3592 23.8598L18.0392 24.4706C17.9265 24.4841 17.8219 24.5344 17.7423 24.6134C17.6627 24.6924 17.6128 24.7954 17.6008 24.9056L16.6529 33.7698C16.6396 33.8988 16.6789 34.0277 16.7623 34.1286C16.8457 34.2295 16.9665 34.2943 17.0984 34.3089H17.1529C17.2768 34.3084 17.3961 34.2632 17.488 34.1821C17.5798 34.1009 17.6377 33.9895 17.6506 33.8692L18.5629 25.3961L23.281 24.8524C23.3216 24.7141 23.4039 24.591 23.5172 24.499C23.6304 24.4069 23.7694 24.3503 23.916 24.3364Z" fill="#B9B5EC"/>
<path d="M26.9089 21.9604C26.8852 21.9604 26.8426 22.0761 26.7217 22.2589C26.5456 22.5174 26.2995 22.7233 26.0108 22.8535C25.8206 22.9428 25.6128 22.9909 25.4018 22.9947C25.1648 22.9947 25.0369 22.916 25.0819 22.68C25.1269 22.444 25.2762 22.1895 25.3686 21.9118C25.4781 21.6253 25.5723 21.3333 25.6506 21.0372C25.9327 20.0005 26.0415 18.9262 25.9729 17.8557C25.9184 17.0343 25.7738 16.5438 25.7359 16.5507C25.698 16.5577 25.762 17.0575 25.7644 17.8627C25.7705 18.9094 25.6366 19.9525 25.3663 20.9655C25.2833 21.2616 25.198 21.5485 25.0985 21.8193C25.0511 21.9558 24.9966 22.0877 24.9468 22.2172C24.8864 22.3522 24.8419 22.4935 24.8141 22.6383C24.7976 22.7193 24.7976 22.8026 24.8141 22.8836C24.8331 22.9732 24.8813 23.0544 24.9516 23.115C25.0795 23.2094 25.2404 23.251 25.3994 23.2307C25.6422 23.2147 25.8785 23.1468 26.0914 23.0317C26.3998 22.8716 26.6486 22.6206 26.8023 22.3144C26.9208 22.0969 26.9231 21.965 26.9089 21.9604Z" fill="#C45673"/>
<path d="M24.1669 19.0567C24.1243 19.0567 24.0911 19.4339 23.93 20.0169C23.841 20.3576 23.7229 20.6904 23.5769 21.0119C23.4909 21.1948 23.3844 21.3678 23.2593 21.5278C23.1447 21.6887 22.9777 21.807 22.7854 21.8633C22.6973 21.891 22.6032 21.8949 22.5131 21.8745C22.423 21.8541 22.3402 21.8103 22.2735 21.7476C22.1431 21.6009 22.044 21.4302 21.9821 21.2455C21.8461 20.922 21.7452 20.5854 21.6811 20.2414C21.5816 19.649 21.6077 19.2673 21.5603 19.2626C21.5129 19.258 21.4276 19.6398 21.4797 20.2668C21.5103 20.6348 21.59 20.9972 21.7167 21.345C21.7839 21.5682 21.9004 21.7744 22.0579 21.9489C22.1562 22.0494 22.2821 22.1201 22.4205 22.1526C22.5582 22.1862 22.7022 22.1862 22.8399 22.1526C23.0981 22.0811 23.3231 21.925 23.4773 21.7106C23.6136 21.5264 23.7266 21.3267 23.8138 21.116C23.9594 20.7765 24.0674 20.4228 24.1361 20.0609C24.2451 19.4454 24.2025 19.0567 24.1669 19.0567Z" fill="#C45673"/>
<path d="M31.7714 18.8531C31.7263 18.8531 31.7429 19.2881 31.6031 19.9568C31.5222 20.3443 31.3941 20.7211 31.2216 21.079C31.1247 21.2793 30.9878 21.4587 30.8187 21.6065C30.6431 21.7537 30.4199 21.8356 30.1884 21.8379C30.0755 21.8287 29.9658 21.7963 29.8666 21.7428C29.7674 21.6894 29.6808 21.6162 29.6126 21.5278C29.4656 21.3561 29.348 21.1623 29.2642 20.954C29.1103 20.582 29.0014 20.1938 28.9396 19.7971C28.8329 19.1238 28.878 18.6934 28.8329 18.6888C28.7879 18.6842 28.6789 19.1122 28.7358 19.8226C28.7755 20.2424 28.8736 20.6549 29.0273 21.0489C29.1131 21.2903 29.2405 21.5157 29.404 21.7153C29.4979 21.8324 29.6162 21.9288 29.7509 21.9982C29.8857 22.0676 30.034 22.1084 30.186 22.1179C30.4887 22.12 30.7816 22.0129 31.0083 21.8171C31.2105 21.6446 31.3722 21.4315 31.4823 21.1923C31.6524 20.8086 31.7673 20.4037 31.8235 19.9892C31.897 19.2858 31.8045 18.8508 31.7714 18.8531Z" fill="#C45673"/>
<path d="M37.0464 25.9401C37.0866 25.917 36.935 25.6902 36.9136 25.2876C36.9043 25.0516 36.9413 24.8159 37.0227 24.5935C37.1238 24.3221 37.2686 24.0683 37.4516 23.8415C37.7884 23.4161 38.203 23.0552 38.6743 22.7771C39.0393 22.562 39.2904 22.4648 39.2786 22.4231C39.2667 22.3815 38.9895 22.4231 38.5795 22.6013C38.0442 22.8439 37.578 23.2109 37.2217 23.6703C37.0181 23.9237 36.8639 24.2116 36.7667 24.5194C36.6883 24.7751 36.6696 25.0448 36.7122 25.3084C36.7928 25.7619 37.025 25.9656 37.0464 25.9401Z" fill="#C45673"/>
<path d="M37.3711 25.6C37.383 25.6324 37.5489 25.6139 37.7456 25.4473C37.8689 25.3355 37.9682 25.2007 38.0373 25.0509C38.1065 24.9011 38.1443 24.7393 38.1484 24.575C38.1541 24.254 38.0626 23.9385 37.8854 23.668C37.7503 23.4667 37.6318 23.3718 37.601 23.3926C37.5702 23.4135 37.6247 23.55 37.7005 23.7559C37.8053 24.0136 37.8584 24.2885 37.8569 24.5657C37.847 24.8344 37.7564 25.0944 37.5963 25.3131C37.4707 25.482 37.3522 25.5607 37.3711 25.6Z" fill="#C45673"/>
<path d="M23.9086 25.1394C23.8068 25.1107 23.7077 25.0735 23.6124 25.0283C23.5152 24.9871 23.4327 24.9187 23.3754 24.8317C23.3673 24.8179 23.363 24.8024 23.363 24.7865C23.363 24.7707 23.3673 24.7551 23.3754 24.7414C23.4007 24.7 23.4367 24.6657 23.4797 24.6419C23.5294 24.6119 23.5958 24.5771 23.6645 24.5448L23.7688 24.4985L23.8494 24.4661C23.8795 24.446 23.9066 24.4218 23.9299 24.3944C23.9465 24.3735 23.9702 24.3388 23.9939 24.3018C23.9932 24.207 23.954 24.1163 23.8849 24.0496L23.8138 24.0149L23.783 23.9918L23.7285 23.9547C23.6938 23.9304 23.6606 23.9041 23.629 23.8761C23.5659 23.8211 23.508 23.7607 23.456 23.6956C23.4072 23.6339 23.3628 23.569 23.3233 23.5012C23.2996 23.4411 23.3067 23.4503 23.3233 23.4295C23.3701 23.398 23.4252 23.3803 23.4821 23.3786C23.5531 23.3751 23.6243 23.3751 23.6953 23.3786L24.11 23.3925C24.6195 23.3925 24.937 23.3925 24.9394 23.3508C24.9418 23.3092 24.6314 23.2536 24.1266 23.1935L23.7119 23.1472H23.5982C23.5532 23.1449 23.5081 23.1449 23.4631 23.1472C23.3535 23.1468 23.2466 23.18 23.1574 23.2421C23.0963 23.2887 23.0563 23.3568 23.046 23.4318C23.0376 23.4994 23.05 23.5678 23.0816 23.6285C23.1244 23.717 23.1768 23.8008 23.238 23.8784C23.2989 23.9611 23.3671 24.0385 23.4418 24.1098C23.4797 24.1421 23.52 24.1769 23.5626 24.2069L23.6266 24.2509L23.655 24.2694L23.546 24.3226C23.4749 24.3596 23.4062 24.3967 23.3304 24.4453C23.2483 24.4998 23.1828 24.5749 23.1408 24.6628C23.1206 24.7121 23.1124 24.7655 23.1169 24.8185C23.1214 24.8715 23.1385 24.9227 23.1669 24.9682C23.2543 25.0886 23.3776 25.1799 23.52 25.2296C23.5791 25.2538 23.6401 25.2731 23.7024 25.2875L23.8588 25.3222C24.2569 25.4032 24.501 25.4379 24.5105 25.4032C24.52 25.3685 24.2878 25.269 23.9086 25.1394Z" fill="#C45673"/>
<path d="M23.743 34.4225L11.2974 35.1536L13.1931 50.9199C13.2134 51.086 13.2987 51.2381 13.4312 51.3442C13.5638 51.4503 13.7332 51.5022 13.904 51.489L21.8449 51.0055C22.0043 50.9959 22.1549 50.9305 22.269 50.8213C22.383 50.7121 22.4529 50.5663 22.4657 50.4108L23.743 34.4225Z" fill="#F9A353"/>
<path d="M12.8402 48.037L22.8616 45.2929L23.5583 36.7064L11.8662 39.9063L12.8402 48.037Z" fill="#F7BF54"/>
<g style="mix-blend-mode:multiply" opacity="0.14">
<g style="mix-blend-mode:multiply" opacity="0.14">
<path d="M11.2974 35.1537L13.1931 50.9199C13.2134 51.0861 13.2987 51.2381 13.4312 51.3442C13.5638 51.4503 13.7332 51.5022 13.904 51.4891L20.224 51.105C18.5354 48.7132 17.2156 46.0923 16.3069 43.326C15.4226 40.6138 15.0359 37.7705 15.1647 34.9269L11.2974 35.1537Z" fill="#F9A353"/>
</g>
</g>
<path d="M23.7541 32.9978L10.6153 33.7869C10.3227 33.8045 10.1 34.0503 10.118 34.336L10.1681 35.1305C10.1861 35.4162 10.4379 35.6336 10.7305 35.616L23.8693 34.8268C24.1619 34.8093 24.3845 34.5634 24.3665 34.2777L24.3165 33.4833C24.2985 33.1975 24.0467 32.9802 23.7541 32.9978Z" fill="#F7BF54"/>
<g style="mix-blend-mode:multiply" opacity="0.2">
<g style="mix-blend-mode:multiply" opacity="0.2">
<path d="M45.9803 48.9275C45.8011 46.9972 45.4038 45.0921 44.7955 43.2471C44.3215 41.7964 43.8903 40.0541 42.7339 38.9897C41.4234 37.7842 39.7457 37.657 38.2599 38.2956L35.2788 43.4554C35.4533 44.5162 35.7721 45.5496 36.2267 46.5281C36.7646 47.7752 37.3547 49.027 37.7054 50.3274C39.3417 50.5979 40.9964 50.7487 42.6557 50.7785C43.8171 50.8136 44.9791 50.7361 46.1249 50.5472C46.0704 49.9872 46.0254 49.4574 45.9803 48.9275Z" fill="#FF8DA8"/>
</g>
</g>
<path d="M35.9467 48.8695C39.1339 49.5637 43.0557 49.3994 46.1363 47.9255C46.0463 47.0578 45.0013 44.0291 44.9041 43.7121C44.2098 41.4191 43.7192 39.0105 41.8709 37.4648C40.2121 36.0581 37.9514 35.7087 36.2026 37.1548C35.8119 37.4939 35.4861 37.8982 35.2405 38.3487C33.9443 40.5931 34.468 43.8185 35.167 46.1925C35.423 47.0841 35.6828 47.9764 35.9467 48.8695Z" fill="#DB5449"/>
<path d="M39.0962 33.3464C38.5512 32.164 39.0346 31.0187 38.345 29.8757C37.9801 29.2764 37.3166 28.7188 37.0843 28.0432C36.8758 27.4485 36.8829 26.6549 36.8261 26.014C36.6675 24.2683 36.802 22.509 37.2242 20.8056C37.2539 20.7153 37.2644 20.62 37.255 20.5256C37.2165 20.3971 37.1408 20.2822 37.037 20.1948C36.3217 19.4746 35.6575 18.7077 35.0488 17.8995L35.6459 21.0138C35.582 21.6525 35.4967 22.2841 35.3948 22.932C35.223 24.1714 34.8711 25.3806 34.3497 26.523C33.1388 29.0103 32.3734 32.2497 33.6128 34.8874C34.1222 35.9679 35.1459 36.8703 36.3569 36.9929C37.8948 37.1457 39.4517 36.0674 40.9185 36.5302C40.2195 35.5214 39.6098 34.4563 39.0962 33.3464Z" fill="#AA4F7A"/>
<path d="M23.3992 56.9634C21.2664 55.8621 18.1005 53.7958 18.4655 51.0355C18.5585 50.1781 18.8047 49.3433 19.193 48.569C19.5223 47.9789 19.9039 47.4491 19.5697 46.7341C19.3494 46.2714 18.8043 45.9428 18.4181 45.6189C17.9325 45.234 17.5098 44.7791 17.1645 44.2699C17.1393 44.2405 17.122 44.2054 17.1142 44.1679C17.1063 44.1303 17.1081 44.0914 17.1195 44.0547C17.3375 43.6776 18.8944 44.4967 19.1408 44.6494C19.8303 45.0698 20.3974 45.6562 20.7878 46.3523C20.7451 46.2737 20.8138 45.9706 20.802 45.8618C20.7716 45.702 20.7206 45.5465 20.6503 45.3991C20.5493 45.0765 20.4257 44.7611 20.2806 44.455C19.9394 43.8118 19.4536 43.2565 19.0508 42.6526C18.9472 42.5152 18.876 42.3572 18.8422 42.1898C18.8262 42.1073 18.8352 42.022 18.868 41.9443C18.9008 41.8667 18.9561 41.8 19.0271 41.7525C19.264 41.6206 19.5508 41.8104 19.7522 41.9839C20.1906 42.368 20.738 42.7984 21.0034 43.3259C21.3162 43.946 21.4916 44.6841 21.7143 45.3389C21.9513 45.3875 21.6645 43.8025 21.6148 43.6591C21.4513 43.1801 21.4062 42.7475 21.1148 42.3287C20.7356 41.7872 20.2427 41.2458 20.2404 40.5887C20.2325 40.5184 20.2427 40.4474 20.27 40.382C20.2973 40.3165 20.3409 40.2587 20.3968 40.2138C20.5911 40.0958 20.8304 40.2671 20.9821 40.4337C22.0603 41.6299 22.4347 43.2241 22.6219 44.7767L23.2428 42.4073C23.2925 42.2222 23.411 41.9908 23.603 42.0302C23.6643 42.0483 23.7193 42.0828 23.7617 42.1297C24.2973 42.6734 24.1077 43.4694 23.9703 44.1242C23.8115 44.8831 23.6906 45.6513 23.5887 46.4194C23.4987 47.0928 23.3518 47.7615 23.3257 48.4417C23.2949 49.0526 23.6575 49.4343 24.1977 49.7351C24.4919 49.8719 24.798 49.9826 25.1124 50.066C25.4418 50.1794 25.7404 50.3691 26.0793 50.4709" fill="#FF8DA8"/>
<path d="M41.132 19.6767C39.132 19.0451 36.7575 18.9988 34.6793 19.008H34.6604C34.3665 16.8169 32.7646 15.1347 30.8452 15.1347C29.0371 15.1347 27.5276 16.6202 27.1011 18.617C26.7998 18.3433 26.4036 18.1911 25.992 18.1911C25.5805 18.1911 25.1843 18.3433 24.883 18.617C24.5228 16.5346 22.9612 14.9427 21.0915 14.9427C18.9588 14.9427 17.2266 17.0043 17.2266 19.5379C17.2266 22.0715 18.9588 24.1331 21.0915 24.1331C23.2242 24.1331 24.9565 22.0715 24.9565 19.5379C24.9565 19.4662 24.9565 19.3967 24.9565 19.325C25.0417 19.1275 25.1852 18.9593 25.3687 18.8418C25.5523 18.7243 25.7675 18.6629 25.987 18.6654C26.2064 18.6679 26.4202 18.7341 26.6009 18.8558C26.7816 18.9774 26.9211 19.1488 27.0015 19.3482C27.0015 19.4754 26.9849 19.6027 26.9849 19.7322C26.9849 22.2774 28.7196 24.3275 30.8499 24.3275C32.9803 24.3275 34.7149 22.2635 34.7149 19.7299C34.7149 19.649 34.7149 19.5726 34.7149 19.4986C36.2439 19.4902 37.7714 19.597 39.2836 19.8179C39.8642 19.9035 40.4401 20.0192 41.0135 20.1487C42.2149 20.4218 42.4353 21.5625 42.4922 22.569C42.5112 22.8813 43.0135 22.8836 42.9922 22.569C42.8903 21.227 42.5349 20.114 41.132 19.6767ZM21.0963 23.5431C19.2953 23.5431 17.8332 21.7453 17.8332 19.5356C17.8332 17.3259 19.2953 15.5281 21.0963 15.5281C22.8972 15.5281 24.3593 17.3259 24.3593 19.5356C24.3593 21.7453 22.8949 23.5431 21.0963 23.5431ZM30.8452 23.7374C29.0466 23.7374 27.5821 21.9396 27.5821 19.7299C27.5821 17.5203 29.0466 15.7224 30.8452 15.7224C32.6438 15.7224 34.1106 17.5203 34.1106 19.7299C34.1106 21.9396 32.6461 23.7374 30.8452 23.7374Z" fill="#F7BF54"/>
</g>
<defs>
<linearGradient id="paint0_linear_229_2143" x1="55" y1="55" x2="-18.3036" y2="49.3277" gradientUnits="userSpaceOnUse">
<stop stop-color="#C150F6"/>
<stop offset="1" stop-color="#EEA4CE"/>
</linearGradient>
</defs>
</svg>
