<svg width="50" height="50" viewBox="0 0 50 50" fill="none" xmlns="http://www.w3.org/2000/svg">
<circle opacity="0.3" cx="25" cy="25" r="25" fill="url(#paint0_linear_151_1221)"/>
<mask id="mask0_151_1221" style="mask-type:alpha" maskUnits="userSpaceOnUse" x="0" y="0" width="50" height="50">
<circle cx="25" cy="25" r="25" fill="#C4C4C4"/>
</mask>
<g mask="url(#mask0_151_1221)">
<path d="M24.3608 60.4275C23.562 60.4289 22.7653 60.3441 21.9845 60.1747C20.6198 59.8934 19.3342 59.3121 18.2205 58.4726C17.1067 57.633 16.1925 56.5562 15.5436 55.3197C15.0287 54.163 14.6462 52.9515 14.4035 51.7085L14.3475 51.4717C13.5474 48.0532 12.5392 44.438 10.679 41.1719C10.3789 40.6463 10.0509 40.1206 9.73485 39.6151C8.97025 38.4703 8.32288 37.251 7.8026 35.9758C7.00249 33.789 7.15051 31.6143 8.24266 30.1819C8.38652 29.9593 8.57371 29.7682 8.793 29.62C9.01229 29.4717 9.25916 29.3694 9.51883 29.3192C9.67705 29.3 9.83752 29.3136 9.99028 29.3592C10.1431 29.4047 10.2849 29.4813 10.4069 29.584C10.5022 29.6602 10.5803 29.7557 10.6361 29.8643C10.692 29.9728 10.7243 30.092 10.731 30.214H10.471C10.4647 30.1289 10.4408 30.0461 10.4009 29.9708C10.3609 29.8955 10.3058 29.8294 10.2389 29.7766C10.1439 29.6975 10.0341 29.6383 9.91593 29.6025C9.79775 29.5666 9.6736 29.5549 9.55083 29.568C9.10013 29.671 8.70621 29.944 8.45068 30.3303C7.41454 31.6986 7.25052 33.773 8.05063 35.8755C8.56651 37.1416 9.20993 38.3516 9.97089 39.4867C10.2869 39.9962 10.615 40.5219 10.919 41.0515C12.7833 44.3417 13.8034 47.9769 14.6035 51.4156L14.6595 51.6523C14.8972 52.8748 15.273 54.0661 15.7797 55.2033C16.4102 56.405 17.2989 57.4512 18.3816 58.2665C19.4643 59.0818 20.714 59.6458 22.0405 59.9179C24.7227 60.451 27.5056 60.0727 29.9496 58.8426C30.9281 58.4052 31.8116 57.7794 32.5499 57.0009C33.301 56.0891 33.8799 55.0475 34.2581 53.9273C34.9262 52.1699 35.4583 50.3162 35.9384 48.5306C36.6785 45.8664 37.4426 43.1099 38.7387 40.6142C39.1388 39.8839 39.5388 39.1657 39.9629 38.4715C40.7569 37.2257 41.4269 35.9046 41.9632 34.5273C42.4232 33.2193 42.4432 32.1199 42.0272 31.3174C41.8811 31.0498 41.6782 30.8176 41.4328 30.6374C41.1874 30.4571 40.9054 30.3331 40.607 30.2742C40.3986 30.2247 40.1816 30.2248 39.9733 30.2742C39.765 30.3237 39.571 30.4212 39.4068 30.559L39.2348 30.3624C39.4278 30.1968 39.6567 30.0786 39.9032 30.0173C40.1498 29.956 40.4072 29.9533 40.655 30.0093C40.9936 30.0795 41.3127 30.2237 41.5893 30.4318C41.8659 30.6399 42.0933 30.9066 42.2552 31.2131C42.7073 32.0958 42.6873 33.2434 42.2032 34.6236C41.6614 36.0183 40.9805 37.3545 40.1709 38.612C39.7709 39.3061 39.3308 40.0203 38.9708 40.7426C37.6906 43.2142 36.9305 45.9587 36.1944 48.6069C35.6943 50.4044 35.1783 52.2622 34.5022 54.0277C34.1154 55.1788 33.5215 56.2491 32.7499 57.1854C31.9874 57.9889 31.0754 58.635 30.0656 59.0873C28.2875 59.9554 26.3383 60.4133 24.3608 60.4275Z" fill="#AB8DA8"/>
<path d="M27.297 13.7068C27.5039 13.3775 27.6224 13.0002 27.6411 12.6114C27.6637 12.4368 27.6478 12.2594 27.5945 12.0916C27.5413 11.9238 27.4521 11.7698 27.333 11.6404C27.233 11.5441 27.109 11.4679 27.017 11.3635C26.925 11.2592 26.881 11.1509 26.805 11.0506C26.7226 10.9429 26.6165 10.8558 26.4951 10.796C26.3737 10.7361 26.2402 10.7052 26.1049 10.7055C25.8288 10.7055 25.5368 10.8339 25.3048 10.7055C25.1607 10.6333 25.0647 10.4888 24.9047 10.4086C24.7541 10.3317 24.5813 10.3104 24.4166 10.3484C24.2728 10.3987 24.1209 10.4218 23.9686 10.4166C23.7526 10.3845 23.6045 10.1919 23.4125 10.0836C23.3138 10.033 23.2052 10.0046 23.0945 10.0005C22.9837 9.99643 22.8733 10.0167 22.7712 10.0599C22.669 10.1031 22.5775 10.1682 22.5031 10.2506C22.4287 10.333 22.3731 10.4308 22.3404 10.537C22.3143 10.6383 22.3143 10.7446 22.3404 10.8459C22.3844 11.0907 22.5524 11.2873 22.5644 11.5321C22.5764 11.7768 22.4284 11.9895 22.5644 12.2061C22.7004 12.4228 22.9004 12.4308 22.9965 12.6355C23.1245 12.9123 22.9965 13.2734 23.1125 13.5704C23.1725 13.7589 23.2045 14.0278 23.3805 14.1481C23.6245 14.3167 24.1566 14.1762 24.4486 14.1481L25.5808 14.0559C26.0809 14.0077 26.6969 14.0559 27.149 13.8071C27.2036 13.7822 27.2536 13.7483 27.297 13.7068Z" fill="#3B2645"/>
<path d="M23.4566 13.5302C23.4169 13.4755 23.3649 13.4309 23.3047 13.4002C23.2446 13.3695 23.1781 13.3535 23.1106 13.3535C23.0431 13.3535 22.9766 13.3695 22.9164 13.4002C22.8563 13.4309 22.8043 13.4755 22.7645 13.5302C22.4165 13.9314 23.0046 14.7339 23.4566 14.782C23.4829 14.3652 23.4829 13.947 23.4566 13.5302Z" fill="#E0855C"/>
<path d="M29.0773 20.2511C28.9719 20.927 28.8303 21.5967 28.6533 22.2573C28.6253 22.3817 28.6013 22.5021 28.5853 22.6185C28.5693 22.7348 28.5533 22.8231 28.5333 22.9716C28.5333 22.9996 28.5333 23.0317 28.5333 23.0598C28.5333 23.1561 28.5053 23.2564 28.4933 23.3648L27.9892 28.0794C24.8568 28.942 21.5883 28.0794 21.5883 28.0794C21.5883 28.0794 21.5883 28.0192 21.5883 27.9028C21.5363 27.3692 21.3763 25.6719 21.2163 23.758C21.2163 23.758 21.2163 23.7299 21.2163 23.7179C21.2179 23.6885 21.2179 23.659 21.2163 23.6296C21.1483 22.8271 21.0843 21.9765 21.0323 21.166C20.9362 19.7576 20.8762 18.4576 20.8882 17.6511C20.8882 17.3542 21.5803 17.3863 22.0524 17.3221C22.4004 17.2739 22.7565 17.2418 23.0645 17.2258C23.3726 17.2097 23.6046 17.2017 23.7606 17.2017H23.9366C23.9366 17.2017 23.9767 16.7403 23.9767 16.7363L24.0847 15.6048C24.1372 15.6183 24.1907 15.6277 24.2447 15.6328C24.3437 15.6515 24.444 15.6622 24.5447 15.6649C24.6767 15.6649 24.8008 15.6649 24.9168 15.6649L25.0888 15.6449H25.1888C25.3008 15.6248 25.4088 15.6007 25.5089 15.5727C25.6089 15.5446 25.6409 15.5325 25.7049 15.5125C25.9971 15.4185 26.2746 15.2834 26.529 15.1112L26.565 15.0872L26.633 15.035L26.681 14.9989C26.681 15.0551 26.681 15.0791 26.681 15.1032C26.649 15.368 26.613 15.7051 26.597 16.0381C26.597 16.2708 26.573 16.4995 26.565 16.6961C26.557 16.8927 26.493 17.1776 26.633 17.2779C26.683 17.3061 26.7369 17.3264 26.793 17.3381C27.0126 17.3729 27.2349 17.3877 27.4571 17.3823C27.5251 17.3823 27.5931 17.3823 27.6611 17.3823C27.8317 17.3723 28.0027 17.3723 28.1732 17.3823C28.2924 17.3819 28.4104 17.4055 28.5204 17.4517C28.6303 17.4979 28.7299 17.5657 28.8133 17.6511C28.917 17.8016 28.9829 17.9751 29.0053 18.1567L29.0533 18.4857C29.1295 19.0712 29.1375 19.6637 29.0773 20.2511Z" fill="#FFEDE5"/>
<path d="M26.665 14.9707C26.6109 15.2578 26.4941 15.5294 26.3228 15.7658C26.1516 16.0023 25.9303 16.1977 25.6748 16.3381C25.4192 16.4785 25.1359 16.5604 24.845 16.5779C24.5542 16.5954 24.2631 16.548 23.9927 16.4392L24.0687 15.6086C24.5217 15.6963 24.9883 15.6847 25.4365 15.5745C25.8846 15.4644 26.3037 15.2584 26.665 14.9707Z" fill="#E0855C"/>
<path d="M23.5367 12.3266C23.3047 12.5674 23.2847 13.105 23.2687 13.6989C23.2087 15.5045 23.7488 16.0662 24.6649 16.1665C25.581 16.2668 26.5451 15.9097 26.7412 14.2405C26.8412 13.402 26.9452 12.6356 26.6411 12.2705C26.2051 11.7328 24.2408 11.5883 23.5367 12.3266Z" fill="#FFEDE5"/>
<path d="M26.6053 13.9958C26.6053 13.9958 26.8853 13.2495 27.3294 13.6468C27.7735 14.044 27.1614 15.1715 26.4813 15.0872C26.4893 15.0872 26.3973 14.2526 26.6053 13.9958Z" fill="#FFEDE5"/>
<path d="M27.1331 13.9877C27.0281 14.0206 26.934 14.0816 26.8611 14.1642C26.7784 14.2334 26.7116 14.3196 26.665 14.417C26.665 14.4451 26.693 14.4651 26.713 14.4451C26.7694 14.3891 26.8228 14.3302 26.8731 14.2685C26.9096 14.3089 26.9547 14.3404 27.0051 14.3608C27.0451 14.3608 27.0771 14.3247 27.0611 14.2926C27.0334 14.2501 26.9965 14.2145 26.9531 14.1883C27.0278 14.1403 27.0986 14.0867 27.1651 14.0278C27.1663 14.023 27.1665 14.0179 27.1654 14.013C27.1644 14.0082 27.1622 14.0036 27.1591 13.9997C27.156 13.9958 27.152 13.9927 27.1475 13.9906C27.143 13.9885 27.1381 13.9875 27.1331 13.9877Z" fill="#E0855C"/>
<path d="M24.0569 13.6586C24.0569 13.6586 23.9009 13.7148 23.9249 13.4379C23.9489 13.1611 24.0569 13.2253 24.0569 13.2253C24.0569 13.2253 24.1649 13.2253 24.1489 13.4419C24.1329 13.6586 24.0569 13.6586 24.0569 13.6586Z" fill="#3B2645"/>
<path d="M25.6291 13.6586C25.6291 13.6586 25.4771 13.7148 25.5011 13.4379C25.5251 13.1611 25.6291 13.2253 25.6291 13.2253C25.6291 13.2253 25.7371 13.2253 25.7211 13.4419C25.7051 13.6586 25.6291 13.6586 25.6291 13.6586Z" fill="#3B2645"/>
<path d="M24.2246 12.8201C24.1617 12.7844 24.0893 12.7694 24.0175 12.7773C23.9457 12.7853 23.8782 12.8156 23.8246 12.8642C23.8218 12.8697 23.8206 12.8758 23.8208 12.8819C23.8211 12.888 23.8229 12.894 23.8261 12.8992C23.8293 12.9044 23.8338 12.9087 23.8391 12.9117C23.8445 12.9147 23.8505 12.9163 23.8566 12.9164C23.9126 12.9164 23.9606 12.8843 24.0166 12.8802C24.0752 12.8774 24.1338 12.887 24.1886 12.9083C24.2406 12.9244 24.2766 12.8441 24.2246 12.8201Z" fill="#3B2645"/>
<path d="M25.865 12.9566C25.801 12.7961 25.5249 12.7841 25.4049 12.8804C25.3991 12.8849 25.3944 12.8906 25.3912 12.8972C25.3879 12.9038 25.3862 12.9111 25.3862 12.9185C25.3862 12.9258 25.3879 12.9331 25.3912 12.9397C25.3944 12.9463 25.3991 12.9521 25.4049 12.9566C25.4768 12.9626 25.5491 12.9626 25.6209 12.9566C25.6791 12.966 25.7357 12.9835 25.789 13.0088C25.7959 13.0189 25.8065 13.0258 25.8185 13.0281C25.8305 13.0303 25.8429 13.0277 25.853 13.0208C25.863 13.0139 25.87 13.0032 25.8722 12.9912C25.8745 12.9791 25.8719 12.9667 25.865 12.9566Z" fill="#3B2645"/>
<path d="M24.373 14.9506C24.7105 14.995 25.0535 14.9363 25.3572 14.7821C25.3118 14.8892 25.2445 14.9855 25.1598 15.065C25.075 15.1445 24.9747 15.2053 24.8651 15.2435C24.5171 15.3398 24.373 14.9506 24.373 14.9506Z" fill="white"/>
<path d="M22.3525 17.647C23.2726 18.293 23.3566 19.5489 22.9086 20.552C22.6045 21.2221 22.0404 21.6915 21.7084 22.3255C21.3624 22.9403 20.9606 23.5219 20.5082 24.0628C19.5161 25.3268 18.572 26.4703 18.2079 26.9036C16.9558 28.4043 14.3234 30.3864 13.3753 31.0765C13.1593 31.237 13.0312 31.3253 13.0312 31.3253C13.0312 31.3253 12.1231 30.8478 12.3631 29.9651C12.3631 29.9651 15.9636 26.1292 16.4957 25.3468C17.0837 24.3298 17.6178 23.2825 18.0959 22.2091C18.7093 21.0188 19.3481 19.8445 20.0122 18.6862C20.3162 18.1526 20.7043 17.4825 21.3724 17.3621C21.642 17.3317 21.9142 17.3894 22.1485 17.5266C22.2192 17.5618 22.2874 17.602 22.3525 17.647Z" fill="#FFEDE5"/>
<path d="M12.3633 29.9692C12.4618 29.9616 12.5608 29.9616 12.6593 29.9692C12.6593 29.9692 13.5234 30.4507 13.3754 31.0766C13.3754 31.0766 13.2834 31.1609 13.1394 31.2893C12.9953 31.4177 12.8393 31.5702 12.6513 31.7627C12.4633 31.9553 12.0352 32.5652 11.8512 32.5131C11.8083 32.4972 11.7708 32.4693 11.7432 32.4328L11.3711 32.0316C11.1631 31.7989 10.815 31.4056 11.0791 31.0967C10.8871 31.213 10.439 31.4979 10.219 31.3615L10.127 31.213C10.127 31.213 10.787 30.7195 11.0591 30.4748C11.4261 30.1662 11.8847 29.9884 12.3633 29.9692Z" fill="#FFEDE5"/>
<path d="M23.4449 23.7941C23.4435 23.8154 23.4435 23.8369 23.4449 23.8583C23.4449 23.8583 23.4809 23.8583 23.4729 23.8583L23.4449 23.7941Z" fill="#D6BED3"/>
<path d="M24.929 36.7983C24.561 39.7555 24.1289 42.3274 24.1289 42.3274C24.1889 43.0416 24.2169 43.816 24.2169 44.6105C24.2169 46.1673 24.1129 47.8204 23.9809 49.2769C23.8129 51.1347 23.5808 52.7155 23.4808 53.51V53.6103C23.6289 58.8786 22.1327 59.5768 21.4326 58.4252C20.7325 57.2736 21.4326 53.8791 21.4326 53.8791C21.4348 53.8484 21.4348 53.8176 21.4326 53.7869C21.138 52.2104 20.9416 50.6171 20.8445 49.0161C20.6044 45.1401 21.0165 42.4879 20.9685 42.0064C20.1324 33.5803 21.3005 28.934 21.3005 28.934C21.4829 28.2588 21.8122 27.6326 22.2647 27.1003C23.1168 26.1774 24.1409 26.4102 24.785 27.5377C24.8527 27.6533 24.9142 27.7725 24.969 27.8948C25.2315 28.5424 25.3804 29.2306 25.4091 29.9291C25.4731 31.6745 25.2291 34.3668 24.929 36.7983Z" fill="#FFEDE5"/>
<path d="M29.0616 48.8114C28.9685 50.4458 28.7735 52.0726 28.4775 53.6825L28.4415 53.8791C28.4415 53.8791 29.1416 57.2856 28.4415 58.4252C27.7414 59.5647 26.2612 58.8986 26.3932 53.6825C26.3932 53.6584 26.3932 53.6343 26.3932 53.6143C26.2812 52.8599 26.0572 51.2269 25.8811 49.2929C25.7451 47.8244 25.6411 46.1793 25.6411 44.6225C25.6411 43.82 25.6731 43.0496 25.7331 42.3314C25.7331 42.3314 25.2891 39.7594 24.933 36.8063C24.633 34.3707 24.385 31.6784 24.489 29.9491C24.5189 29.2503 24.6691 28.5621 24.933 27.9148C24.9854 27.7887 25.0469 27.6667 25.117 27.5496C25.8571 26.2617 27.0893 26.1493 27.9974 27.6018C28.2576 28.0228 28.462 28.476 28.6055 28.95C28.6055 28.95 29.7737 33.5843 28.9376 42.0224C28.8775 42.4959 29.2736 45.0558 29.0616 48.8114Z" fill="#FFEDE5"/>
<path d="M12.2672 32.5733C12.3469 32.6658 12.4459 32.7396 12.5572 32.7896C12.6685 32.8395 12.7893 32.8643 12.9112 32.8622C12.9671 32.8491 13.0197 32.8249 13.0659 32.7909C13.1122 32.7568 13.1511 32.7138 13.1802 32.6643C13.2094 32.6148 13.2282 32.5598 13.2356 32.5028C13.243 32.4458 13.2388 32.3879 13.2233 32.3325C13.1768 32.2105 13.1012 32.1017 13.0033 32.0155C12.3992 31.4137 11.7791 30.8118 11.151 30.2541C11.0461 30.1354 10.9058 30.0538 10.751 30.0214C10.607 30.0213 10.4676 30.0725 10.3578 30.1658C10.2479 30.2591 10.1746 30.3885 10.1509 30.5309C10.1509 30.7877 10.3709 30.884 10.5509 31.0285C11.119 31.534 11.6871 32.0637 12.2672 32.5733Z" fill="#3B2645"/>
<path d="M12.1794 31.8629C12.2043 31.8371 12.2246 31.8073 12.2394 31.7746C12.2495 31.7332 12.2501 31.6899 12.2411 31.6482C12.2321 31.6065 12.2137 31.5674 12.1874 31.5339C12.0394 31.2891 11.7353 30.8959 11.4353 30.8598C11.3362 30.8547 11.2376 30.8758 11.1491 30.9208C11.0607 30.9659 10.9856 31.0334 10.9312 31.1166C10.8414 31.2461 10.7843 31.3956 10.7648 31.5521C10.7453 31.7087 10.764 31.8676 10.8192 32.0154C10.907 32.2811 11.0874 32.5062 11.3273 32.6493C11.447 32.7002 11.5816 32.7027 11.7032 32.6564C11.8247 32.61 11.9236 32.5183 11.9794 32.4005C12.0394 32.2521 12.0194 32.0715 12.1154 31.9471C12.1336 31.9168 12.155 31.8885 12.1794 31.8629Z" fill="#FFEDE5"/>
<path d="M27.489 17.6471C26.5649 18.2931 26.4809 19.549 26.9329 20.5521C27.233 21.2221 27.7971 21.6916 28.1331 22.3256C28.4819 22.9386 28.8835 23.52 29.3333 24.0629C30.3254 25.3268 31.2735 26.4704 31.6336 26.9037C32.8897 28.4124 35.5221 30.3865 36.4702 31.0766L36.8183 31.3254C36.8183 31.3254 37.7224 30.8479 37.4824 29.9652C37.4824 29.9652 33.8819 26.1293 33.3498 25.3469C32.7602 24.3308 32.226 23.2834 31.7496 22.2092C31.1335 21.0055 30.4974 19.8459 29.8293 18.6863C29.5253 18.1526 29.1412 17.4826 28.4692 17.3622C28.1996 17.3321 27.9274 17.3898 27.693 17.5267C27.6222 17.5617 27.554 17.602 27.489 17.6471Z" fill="#FFEDE5"/>
<path d="M37.4785 29.9692C37.3786 29.9616 37.2783 29.9616 37.1785 29.9692C37.1785 29.9692 36.3143 30.4506 36.4624 31.0766C36.4624 31.0766 36.5584 31.1608 36.6984 31.2892C36.8384 31.4176 37.0024 31.5701 37.1865 31.7627C37.3705 31.9553 37.8065 32.5652 37.9866 32.513C38.0289 32.4961 38.0661 32.4684 38.0946 32.4328L38.4626 32.0315C38.6747 31.7988 39.0187 31.4056 38.7587 31.0966C38.9467 31.213 39.3948 31.4979 39.6188 31.3615L39.6948 31.213C39.6948 31.213 39.0347 30.7195 38.7587 30.4747C38.3987 30.17 37.9489 29.9924 37.4785 29.9692Z" fill="#FFEDE5"/>
<path d="M37.5704 32.5732C37.4907 32.6658 37.3917 32.7396 37.2804 32.7895C37.1691 32.8394 37.0482 32.8642 36.9263 32.8621C36.8697 32.85 36.8162 32.8264 36.7691 32.7928C36.722 32.7592 36.6822 32.7162 36.6522 32.6666C36.6222 32.617 36.6027 32.5618 36.5948 32.5043C36.5869 32.4468 36.5908 32.3884 36.6063 32.3325C36.6561 32.2158 36.7329 32.1127 36.8303 32.0315C37.4357 31.4297 38.0544 30.8425 38.6865 30.2701C38.7909 30.1507 38.9315 30.069 39.0866 30.0374C39.2301 30.0374 39.3689 30.0888 39.4781 30.1821C39.5873 30.2755 39.6599 30.4048 39.6827 30.5469C39.6827 30.8037 39.4666 30.9 39.2826 31.0445C38.7185 31.534 38.1505 32.0636 37.5704 32.5732Z" fill="#3B2645"/>
<path d="M37.6627 31.8629C37.6354 31.8383 37.6136 31.8082 37.5987 31.7746C37.5902 31.7328 37.5909 31.6897 37.6005 31.6481C37.6102 31.6066 37.6287 31.5676 37.6547 31.5339C37.7987 31.2891 38.1027 30.8959 38.4028 30.8598C38.5018 30.8547 38.6005 30.8758 38.6889 30.9208C38.7774 30.9659 38.8525 31.0334 38.9069 31.1166C38.9956 31.2467 39.0512 31.3967 39.0686 31.5535C39.086 31.7102 39.0648 31.8688 39.0069 32.0154C38.9217 32.2825 38.7407 32.5085 38.4988 32.6493C38.3791 32.7002 38.2444 32.7027 38.1229 32.6564C38.0014 32.61 37.9024 32.5183 37.8467 32.4005C37.7907 32.2521 37.8107 32.0715 37.7107 31.9471L37.6627 31.8629Z" fill="#FFEDE5"/>
<path d="M29.1215 46.2394V46.6406C29.1215 46.9095 29.1215 47.1863 29.1215 47.4712V47.7962C29.1215 48.1252 29.0975 48.4663 29.0815 48.8154C28.0457 49.102 26.9792 49.2623 25.9051 49.2928C25.8611 48.8434 25.773 47.6477 25.769 47.5153C25.769 47.2425 25.709 46.4721 25.705 46.3678C25.681 45.782 25.665 45.1962 25.665 44.6224C25.665 43.8761 25.693 43.1458 25.749 42.4677C25.749 42.4196 25.749 42.3754 25.749 42.3313C25.749 42.2872 25.305 39.7633 24.9489 36.8062C24.9089 37.1192 24.8689 37.4321 24.8289 37.7331C24.4929 40.2769 24.1368 42.3313 24.1368 42.3313C24.1968 43.0455 24.2248 43.8199 24.2248 44.6144C24.2248 45.2202 24.2248 45.8181 24.1808 46.452C24.1808 46.5564 24.1008 47.8965 24.0888 48.0249C24.0608 48.4542 24.0248 48.8755 23.9888 49.2808C23.4287 49.2567 22.8767 49.2206 22.3286 49.1725C21.8965 49.1363 21.3525 49.1123 20.8244 49.036C20.8004 48.6749 20.7844 48.3298 20.7724 47.9928C20.7724 47.9085 20.7724 47.8243 20.7724 47.74C20.7724 47.3709 20.7724 47.0218 20.7724 46.6848V46.4199C20.7724 43.9884 21.0084 42.3875 20.9724 42.0063C20.1363 33.5802 21.3044 28.9338 21.3044 28.9338C21.4868 28.2587 21.8161 27.6325 22.2686 27.1002C22.6115 27.1534 22.948 27.2422 23.2727 27.365C23.7673 27.4946 24.2779 27.5527 24.7889 27.5375H25.157C25.601 27.5375 26.0451 27.4854 26.4851 27.4733H26.7812C27.203 27.467 27.6243 27.5074 28.0374 27.5937C28.2842 28.0193 28.4752 28.4752 28.6054 28.9499C28.9286 30.4644 29.1187 32.0043 29.1735 33.5521C29.309 36.3775 29.2301 39.209 28.9375 42.0223C28.8895 42.3794 29.1015 43.9082 29.1215 46.2394Z" fill="#3B2645"/>
<path d="M13.0874 17.1695C13.0874 17.1454 13.0394 17.1454 13.0354 17.1695C12.8354 18.5377 12.9514 19.9782 12.9514 21.3785C12.9514 22.8591 12.9034 24.3517 12.9914 25.8283C12.9952 25.8441 13.0042 25.8581 13.0169 25.8681C13.0296 25.8782 13.0453 25.8836 13.0614 25.8836C13.0776 25.8836 13.0933 25.8782 13.106 25.8681C13.1187 25.8581 13.1277 25.8441 13.1315 25.8283C13.2155 24.3517 13.1675 22.8591 13.1675 21.3785C13.1675 20.0103 13.2835 18.5498 13.0874 17.1695Z" fill="#F7F8F8"/>
<path d="M14.8353 17.6349C14.8311 17.6152 14.8202 17.5976 14.8046 17.5849C14.7889 17.5723 14.7694 17.5654 14.7493 17.5654C14.7292 17.5654 14.7097 17.5723 14.6941 17.5849C14.6784 17.5976 14.6676 17.6152 14.6633 17.6349C14.6633 18.951 14.5793 20.2912 14.6633 21.6032C14.6633 21.6256 14.6722 21.647 14.6879 21.6628C14.7037 21.6786 14.725 21.6875 14.7473 21.6875C14.7696 21.6875 14.791 21.6786 14.8067 21.6628C14.8225 21.647 14.8313 21.6256 14.8313 21.6032C14.9233 20.2912 14.8433 18.951 14.8353 17.6349Z" fill="#F7F8F8"/>
<path d="M32.7221 31.4135C32.7189 31.4017 32.7118 31.3912 32.7021 31.3838C32.6923 31.3763 32.6804 31.3723 32.6681 31.3723C32.6559 31.3723 32.6439 31.3763 32.6342 31.3838C32.6244 31.3912 32.6174 31.4017 32.6141 31.4135C32.5014 33.1365 32.4787 34.8642 32.5461 36.5896C32.5461 38.3149 32.5461 40.0362 32.6101 41.7616C32.6135 41.7744 32.621 41.7858 32.6315 41.7939C32.642 41.802 32.6549 41.8063 32.6681 41.8063C32.6814 41.8063 32.6942 41.802 32.7047 41.7939C32.7152 41.7858 32.7228 41.7744 32.7261 41.7616C32.7821 40.0362 32.7821 38.3149 32.7901 36.5896C32.8555 34.8642 32.8328 33.1366 32.7221 31.4135Z" fill="#F7F8F8"/>
<path d="M35.8062 21.3224C35.7937 20.1743 35.7189 19.0277 35.5822 17.8878C35.5822 17.8196 35.4741 17.8396 35.4701 17.8878C35.4393 19.1206 35.4753 20.3543 35.5782 21.5832C35.6302 22.7267 35.6182 23.8984 35.7702 25.0299C35.7702 25.1342 35.9462 25.1021 35.9502 25.0058C36.0062 23.782 35.8782 22.5341 35.8062 21.3224Z" fill="#F7F8F8"/>
<path d="M36.6065 21.9603C36.6037 21.9514 36.5982 21.9435 36.5906 21.9379C36.583 21.9324 36.5739 21.9294 36.5645 21.9294C36.5551 21.9294 36.546 21.9324 36.5385 21.9379C36.5309 21.9435 36.5253 21.9514 36.5225 21.9603C36.4165 23.6088 36.4085 25.2622 36.4985 26.9117C36.496 26.9217 36.4959 26.9322 36.498 26.9423C36.5002 26.9524 36.5046 26.9619 36.511 26.9701C36.5173 26.9783 36.5255 26.9849 36.5347 26.9894C36.544 26.9939 36.5542 26.9963 36.5645 26.9963C36.5748 26.9963 36.585 26.9939 36.5943 26.9894C36.6036 26.9849 36.6117 26.9783 36.6181 26.9701C36.6245 26.9619 36.6289 26.9524 36.631 26.9423C36.6332 26.9322 36.633 26.9217 36.6305 26.9117C36.7205 25.2622 36.7125 23.6088 36.6065 21.9603Z" fill="#F7F8F8"/>
<path d="M24.8091 37.7292C24.8152 37.4167 24.8554 37.1059 24.9291 36.8023C24.8891 37.1153 24.8491 37.4282 24.8091 37.7292Z" fill="#291B30"/>
<path d="M29.1613 33.5523C28.6212 30.2982 24.1606 30.1457 24.1606 30.1457C23.8846 28.8056 25.6848 28.4043 25.6848 28.4043L26.737 27.4935C27.1588 27.4872 27.5801 27.5276 27.9931 27.6139C28.2537 28.031 28.4595 28.4801 28.6052 28.95C28.9218 30.4653 29.1078 32.005 29.1613 33.5523Z" fill="#291B30"/>
<path d="M28.6693 29.299C25.0688 30.9963 21.1562 29.4395 21.1562 29.4395C21.4403 28.637 21.2283 24.5443 21.2083 23.7659C21.2083 23.7659 21.2083 23.7378 21.2083 23.7258C21.2099 23.6964 21.2099 23.6669 21.2083 23.6375C21.9644 21.8801 22.0484 18.4936 22.0524 17.33C22.3924 17.2778 22.7485 17.2498 23.0565 17.2337C23.1765 18.5337 23.6046 21.868 24.7967 21.7236C25.9889 21.5791 26.557 18.61 26.765 17.3099C26.9843 17.3468 27.2068 17.3616 27.4291 17.3541C27.4971 17.3541 27.5651 17.3541 27.6331 17.3541C27.5291 19.1316 28.5132 22.8671 28.5412 22.9715C28.5412 22.9995 28.5412 23.0316 28.5412 23.0597C28.5412 23.156 28.5132 23.2563 28.5012 23.3647C28.5012 23.3647 28.5012 23.4088 28.5012 23.4329C28.2492 25.6959 28.6693 29.299 28.6693 29.299Z" fill="#AB8DA8"/>
</g>
<defs>
<linearGradient id="paint0_linear_151_1221" x1="50" y1="50" x2="-16.6397" y2="44.8434" gradientUnits="userSpaceOnUse">
<stop stop-color="#00FF66"/>
<stop offset="1" stop-color="#00F0FF"/>
</linearGradient>
</defs>
</svg>
