<svg width="50" height="50" viewBox="0 0 50 50" fill="none" xmlns="http://www.w3.org/2000/svg">
<circle opacity="0.3" cx="25" cy="25" r="25" fill="url(#paint0_linear_151_1280)"/>
<mask id="mask0_151_1280" style="mask-type:alpha" maskUnits="userSpaceOnUse" x="0" y="0" width="50" height="50">
<circle cx="25" cy="25" r="25" fill="#C4C4C4"/>
</mask>
<g mask="url(#mask0_151_1280)">
<path d="M33.0846 15.2443C33.0846 15.2443 33.0846 15.4052 33.0604 15.6787C32.984 16.849 32.7226 20.1428 32.1234 22.0169C31.9545 22.5398 31.4276 23.7744 30.8083 25.174C29.8993 27.2734 28.7893 29.6864 28.3671 30.7522C28.2303 31.098 26.9031 30.4425 26.5492 30.3781C25.6564 30.2052 25.5478 28.6126 25.8374 27.2734C25.9311 26.8045 26.1024 26.3546 26.3441 25.9422L26.4205 25.8255L26.4728 25.7491C26.9635 25.0333 27.7638 24.1083 28.4837 23.2677C29.0164 22.6865 29.4893 22.0533 29.8953 21.3775C30.2975 20.5209 31.5885 15.3931 31.5885 15.3931C32.1958 14.7336 33.0846 15.2443 33.0846 15.2443Z" fill="#FFEDE5"/>
<path d="M33.2531 14.6894C33.2089 14.8824 33.1727 15.0674 33.1445 15.2162C33.0922 15.4897 33.0681 15.6707 33.0681 15.6707C32.6177 16.1412 31.7409 15.6707 31.7409 15.6707C31.6812 15.5902 31.6275 15.5056 31.5801 15.4173C31.3384 15.002 31.2422 14.518 31.3066 14.0419C31.3709 13.6759 31.4353 12.8353 31.4353 12.8353H31.5962C31.7651 12.8353 31.8173 13.3582 31.8294 13.6035C31.8325 13.6369 31.8325 13.6706 31.8294 13.704C31.8387 13.6608 31.8564 13.6197 31.8817 13.5834C31.9352 13.5186 32.0041 13.4681 32.082 13.4365C32.16 13.4049 32.2445 13.3932 32.3281 13.4024C32.5332 13.4024 32.7303 13.4024 32.9394 13.4024C33.0336 13.4004 33.1271 13.4196 33.2129 13.4587C33.2435 13.4713 33.271 13.4906 33.2933 13.515C33.5628 13.7885 33.3255 14.4038 33.2531 14.6894Z" fill="#FFEDE5"/>
<path d="M33.2531 14.6893C33.2088 14.8824 33.1727 15.0674 33.1445 15.2162C33.1129 15.1682 33.078 15.1225 33.0399 15.0795C32.8625 14.9072 32.6536 14.7707 32.4246 14.6773C32.1672 14.5405 31.4594 14.1384 31.6766 13.7322C31.7134 13.6768 31.7669 13.6345 31.8294 13.6115L31.8897 13.5914C32.2226 13.5413 32.5585 13.5144 32.8952 13.511C33.0037 13.511 33.1123 13.4748 33.2209 13.4627C33.251 13.4763 33.2783 13.4954 33.3013 13.519C33.5628 13.7885 33.3255 14.4038 33.2531 14.6893Z" fill="#E0855C"/>
<path d="M27.1118 22.2663C27.2438 21.5101 27.4293 20.7642 27.6668 20.0343C27.6963 19.9556 27.705 19.8708 27.6923 19.7878C27.6796 19.7048 27.6458 19.6265 27.5941 19.5603C27.5425 19.4942 27.4747 19.4423 27.3973 19.4098C27.3199 19.3773 27.2355 19.3652 27.1521 19.3747C26.9801 19.4048 26.8126 19.4561 26.6534 19.5275C26.6534 19.5275 27.0555 18.3693 26.4885 17.9872C25.9214 17.6051 25.0809 18.3371 24.7551 18.884C24.8182 18.7671 24.8358 18.631 24.8046 18.5018C24.7734 18.3727 24.6956 18.2596 24.5862 18.1843C24.184 17.9269 22.3863 19.9096 22.7402 21.5384C23.0941 23.1672 23.2429 22.7087 23.2429 22.7087C23.2429 22.7087 26.9992 22.4755 27.1118 22.2663Z" fill="#3B2645"/>
<path d="M23.1426 22.0049C23.1026 21.95 23.0503 21.9054 22.9898 21.8747C22.9294 21.8439 22.8625 21.8279 22.7947 21.8279C22.7268 21.8279 22.66 21.8439 22.5995 21.8747C22.5391 21.9054 22.4867 21.95 22.4468 22.0049C22.0969 22.4071 22.6921 23.2114 23.1426 23.2597C23.169 22.8418 23.169 22.4227 23.1426 22.0049Z" fill="#E0855C"/>
<path d="M29.6298 26.8712C29.096 28.1323 28.6735 29.4376 28.367 30.7723C28.3429 30.901 28.3187 31.0216 28.2986 31.1383C28.1659 31.9426 27.7637 35.908 27.6994 36.5314C27.6994 36.5837 27.6994 36.6119 27.6994 36.6119C24.5504 37.4806 21.2646 36.6119 21.2646 36.6119C21.2646 36.6119 21.2646 36.5515 21.2646 36.4349C21.1922 35.6627 20.8825 32.4574 20.6975 29.6864C20.601 28.2708 20.5407 26.9717 20.5568 26.1634C20.5568 25.8658 21.2485 25.8979 21.7231 25.8296C22.2927 25.7564 22.8661 25.7162 23.4404 25.7089H23.6173L23.6575 25.2464L23.6897 24.9367L23.7661 24.1083C23.8184 24.1083 23.8707 24.1284 23.923 24.1324C24.0239 24.1509 24.1261 24.1617 24.2286 24.1646C24.3531 24.1747 24.4782 24.1747 24.6027 24.1646L24.7796 24.1445C24.858 24.1366 24.9358 24.1246 25.0129 24.1083C25.1416 24.0801 25.2662 24.0439 25.3829 24.0077L25.4874 23.9715H25.5156L25.596 23.9394C25.7461 23.8796 25.8913 23.8083 26.0304 23.7262C26.1068 23.682 26.1711 23.6377 26.2234 23.6015L26.2596 23.5774L26.328 23.5251C26.3471 23.5158 26.3636 23.502 26.3762 23.4849C26.3762 23.5452 26.3762 23.5694 26.3762 23.5975C26.34 23.8589 26.3039 24.1967 26.2878 24.5346C26.2878 24.7638 26.2636 24.9931 26.2556 25.1941C26.2556 25.536 26.2556 25.7853 26.2556 25.7853C26.3306 25.7813 26.4058 25.7813 26.4808 25.7853C26.4845 25.7832 26.4886 25.7821 26.4929 25.7821C26.4971 25.7821 26.5013 25.7832 26.5049 25.7853C26.8329 25.8007 27.1594 25.8383 27.4822 25.8979C28.2236 26.0312 28.9364 26.291 29.5896 26.6661C29.619 26.6904 29.639 26.7241 29.6464 26.7615C29.6537 26.7989 29.6479 26.8376 29.6298 26.8712Z" fill="#FFEDE5"/>
<path d="M26.3682 23.4487C26.3146 23.7369 26.1976 24.0096 26.0255 24.2469C25.8535 24.4842 25.6308 24.6803 25.3736 24.8208C25.1163 24.9614 24.8311 25.0429 24.5384 25.0595C24.2458 25.076 23.9531 25.0273 23.6816 24.9167L23.7581 24.0882C24.2135 24.176 24.6826 24.1644 25.1331 24.054C25.5836 23.9436 26.0049 23.7372 26.3682 23.4487Z" fill="#E0855C"/>
<path d="M23.2432 20.7984C23.01 21.0356 22.9939 21.5786 22.9738 22.1738C22.9135 23.9796 23.4564 24.5466 24.3774 24.6431C25.2984 24.7397 26.2676 24.3898 26.4647 22.7127C26.5652 21.8762 26.6698 21.104 26.3681 20.738C25.8936 20.1991 23.931 20.0584 23.2432 20.7984Z" fill="#FFEDE5"/>
<path d="M26.3159 22.4714C26.3159 22.4714 26.6014 21.7234 27.0438 22.1215C27.4862 22.5197 26.8628 23.6538 26.1952 23.5653C26.1952 23.5653 26.0987 22.7288 26.3159 22.4714Z" fill="#FFEDE5"/>
<path d="M26.8387 22.4473C26.7346 22.4834 26.6408 22.5441 26.5652 22.6242C26.4832 22.6946 26.4162 22.7808 26.3682 22.8776C26.3682 22.9098 26.3963 22.9259 26.4204 22.9098C26.4446 22.8937 26.521 22.7891 26.5773 22.7328C26.6115 22.7772 26.6556 22.813 26.706 22.8374C26.7152 22.8389 26.7247 22.8378 26.7335 22.8344C26.7422 22.831 26.7498 22.8253 26.7556 22.8179C26.7613 22.8105 26.765 22.8016 26.7662 22.7923C26.7674 22.783 26.766 22.7736 26.7623 22.765C26.7343 22.7236 26.6971 22.6892 26.6537 22.6644C26.7289 22.615 26.8001 22.5599 26.8669 22.4996C26.8709 22.4946 26.8733 22.4886 26.8739 22.4823C26.8745 22.476 26.8732 22.4696 26.8702 22.464C26.8672 22.4584 26.8626 22.4539 26.857 22.4509C26.8514 22.4479 26.845 22.4466 26.8387 22.4473Z" fill="#E0855C"/>
<path d="M23.7461 22.1296C23.7461 22.1296 23.5892 22.1899 23.6134 21.9124C23.6375 21.6349 23.7461 21.6993 23.7461 21.6993C23.7461 21.6993 23.8547 21.6993 23.8386 21.9164C23.8225 22.1336 23.7461 22.1296 23.7461 22.1296Z" fill="#3B2645"/>
<path d="M25.3306 22.1296C25.3306 22.1296 25.1737 22.1899 25.1978 21.9124C25.222 21.6349 25.3306 21.6993 25.3306 21.6993C25.3306 21.6993 25.4391 21.6993 25.4231 21.9164C25.407 22.1336 25.3306 22.1296 25.3306 22.1296Z" fill="#3B2645"/>
<path d="M24.4499 22.8696C24.3735 22.8696 24.1925 22.9017 24.1523 22.8173C24.1679 22.6255 24.207 22.4364 24.2689 22.2542C24.3432 22.0085 24.4037 21.7587 24.4499 21.5062C24.4499 21.5062 24.4499 21.4861 24.4217 21.5062C24.2627 21.9437 24.1377 22.3928 24.0477 22.8495C24.0466 22.855 24.0466 22.8608 24.0478 22.8664C24.0491 22.8719 24.0515 22.8772 24.0549 22.8818C24.0583 22.8863 24.0627 22.8901 24.0677 22.8929C24.0727 22.8956 24.0782 22.8973 24.0839 22.8977C24.2005 22.8977 24.3131 22.9218 24.4298 22.9218C24.4861 22.9379 24.4981 22.8736 24.4499 22.8696Z" fill="#E0855C"/>
<path d="M23.9187 21.293C23.8061 21.2327 23.597 21.2207 23.5165 21.3373C23.5137 21.3422 23.5122 21.3478 23.5122 21.3534C23.5122 21.3591 23.5137 21.3647 23.5166 21.3696C23.5194 21.3745 23.5236 21.3785 23.5285 21.3813C23.5334 21.3841 23.539 21.3856 23.5447 21.3855C23.601 21.3855 23.6492 21.3574 23.7055 21.3534C23.7645 21.3506 23.8234 21.3602 23.8785 21.3815C23.9308 21.3976 23.967 21.3172 23.9187 21.293Z" fill="#3B2645"/>
<path d="M25.5637 21.4298C25.4993 21.2689 25.2218 21.2528 25.1052 21.3534C25.0984 21.3567 25.0927 21.3618 25.0887 21.3682C25.0846 21.3746 25.0825 21.382 25.0825 21.3896C25.0825 21.3971 25.0846 21.4045 25.0887 21.4109C25.0927 21.4173 25.0984 21.4225 25.1052 21.4258C25.1736 21.4499 25.246 21.4258 25.3184 21.4258C25.3768 21.4352 25.4337 21.4528 25.4873 21.4781C25.5396 21.4941 25.5758 21.4579 25.5637 21.4298Z" fill="#3B2645"/>
<path d="M24.0474 23.4286C24.3927 23.4739 24.7437 23.4122 25.0528 23.2517C25.0065 23.3586 24.9387 23.4548 24.8536 23.5344C24.7685 23.614 24.6679 23.6752 24.5581 23.7142C24.2082 23.8187 24.0474 23.4286 24.0474 23.4286Z" fill="white"/>
<path d="M23.4001 30.3781C23.0542 30.4425 21.4656 30.6194 21.1841 30.3781C20.982 30.1765 20.8149 29.9428 20.6894 29.6864C20.0452 28.3296 19.4825 26.9356 19.0043 25.5118C18.4654 23.9916 18.0069 22.576 17.834 22.0371C17.2106 20.1428 16.9693 16.845 16.8929 15.6747C16.8728 15.4012 16.8647 15.2443 16.8647 15.2443C16.8647 15.2443 17.7455 14.7456 18.3729 15.4012C18.3729 15.4012 19.684 20.5329 20.0701 21.3896C20.3943 21.9478 20.7757 22.4707 21.2082 22.95C21.9522 23.8428 22.8692 24.8885 23.4322 25.6888L23.5368 25.8376L23.6132 25.9542C23.9678 26.5972 24.179 27.3092 24.2326 28.0415C24.3371 29.1515 24.132 30.2374 23.4001 30.3781Z" fill="#FFEDE5"/>
<path d="M18.3727 15.4012C18.3254 15.4895 18.2716 15.5741 18.2119 15.6546C18.2119 15.6546 17.3392 16.1372 16.8928 15.6747C16.8928 15.6747 16.8726 15.55 16.8364 15.357C16.8003 15.1639 16.76 14.9548 16.6997 14.6894C16.6514 14.4963 16.3378 13.7282 16.4986 13.5914C16.5371 13.5654 16.5812 13.5488 16.6273 13.5432L17.1662 13.4466C17.4759 13.3903 17.9947 13.3059 18.1194 13.696C18.1194 13.4708 18.1194 12.9399 18.3526 12.8233H18.5216C18.5216 12.8233 18.5819 13.6477 18.6462 14.0298C18.7097 14.5046 18.6135 14.987 18.3727 15.4012Z" fill="#FFEDE5"/>
<path d="M20.6492 37.3277C20.6492 37.3277 18.9842 41.82 18.9158 50.318C18.9158 50.9936 17.6007 55.6709 18.1115 62.2062L20.0701 62.5762C20.0701 62.5762 21.9683 55.6749 22.0528 50.9655C22.0528 50.9655 24.4658 42.6083 24.6307 38.7635C24.7956 34.9187 22.2378 33.672 20.6492 37.3277Z" fill="#FFEDE5"/>
<path d="M28.2382 37.3277C28.2382 37.3277 29.9032 41.82 29.9676 50.318C29.9676 50.9936 31.2867 55.6709 30.7719 62.2062L28.8134 62.5762C28.8134 62.5762 26.9191 55.6749 26.8306 50.9655C26.8306 50.9655 24.4176 42.6083 24.2527 38.7635C24.0878 34.9187 26.6497 33.672 28.2382 37.3277Z" fill="#FFEDE5"/>
<path d="M30.808 25.174C29.8991 27.2734 28.7931 29.6864 28.3668 30.7522C28.3426 30.8809 28.3185 31.0015 28.2984 31.1182C28.1657 31.9225 27.7635 35.888 27.6992 36.5113C26.6093 36.8451 24.3933 37.2393 21.2644 36.4148C21.192 35.6426 20.8823 32.4373 20.6973 29.6663C20.0531 28.3095 19.4904 26.9155 19.0122 25.4918C19.7643 25.0172 20.818 24.1686 21.2161 22.95C21.9601 23.8429 22.8771 24.8885 23.4401 25.6888H23.5206C23.5206 25.7331 23.5206 25.7854 23.5447 25.8376C23.6451 26.6075 23.8806 27.3536 24.2405 28.0415C24.2925 28.1375 24.3661 28.2201 24.4554 28.2829C24.5447 28.3457 24.6473 28.387 24.7552 28.4035C25.1574 28.4035 25.5395 27.8968 25.8451 27.2855C26.0743 26.8176 26.2692 26.3337 26.4283 25.8376L26.4564 25.7612C26.4601 25.7591 26.4643 25.758 26.4685 25.758C26.4727 25.758 26.4769 25.7591 26.4806 25.7612C26.9712 25.0454 27.7716 24.1204 28.4914 23.2798C28.8735 23.8268 29.7905 24.9207 30.808 25.174Z" fill="#E8CEE5"/>
<path d="M30.056 46.4852C28.9996 47.0355 27.8077 47.2713 26.6214 47.1649C26.2035 47.1293 25.7951 47.0204 25.4149 46.8432L24.4497 41.454L23.5126 46.8432C21.4776 47.5791 18.6865 46.2359 18.6865 46.2359C19.5753 37.5208 21.2323 36.2137 21.2323 36.2137C23.963 37.1025 27.7234 36.2419 27.7234 36.2419C29.6498 38.8278 30.056 46.4852 30.056 46.4852Z" fill="#3B2645"/>
<path d="M16.8726 15.3369H16.8364C16.8042 15.1639 16.76 14.9347 16.6996 14.6693C16.6514 14.4762 16.3417 13.7121 16.4985 13.5713C16.5373 13.5459 16.5813 13.5294 16.6272 13.5231L17.1661 13.4266C17.3944 13.3683 17.6336 13.3683 17.8619 13.4266C17.9704 13.477 18.0613 13.5587 18.1229 13.6611C18.1845 13.7636 18.2141 13.8822 18.2078 14.0017C18.2078 14.7256 17.0616 15.2363 16.8726 15.3369Z" fill="#E0855C"/>
<path d="M38.4493 13.7925H10.2328C10.1686 13.7845 10.1094 13.7534 10.0665 13.7049C10.0237 13.6563 10 13.5938 10 13.5291C10 13.4643 10.0237 13.4018 10.0665 13.3533C10.1094 13.3048 10.1686 13.2736 10.2328 13.2656H38.4493C38.5136 13.2736 38.5727 13.3048 38.6156 13.3533C38.6585 13.4018 38.6822 13.4643 38.6822 13.5291C38.6822 13.5938 38.6585 13.6563 38.6156 13.7049C38.5727 13.7534 38.5136 13.7845 38.4493 13.7925Z" fill="#3B2645"/>
<path d="M11.1296 14.8784C11.0109 14.8784 10.8969 14.8315 10.8125 14.7479C10.7282 14.6643 10.6803 14.5507 10.6792 14.432V12.6262C10.6792 12.5067 10.7267 12.3922 10.8111 12.3077C10.8956 12.2232 11.0102 12.1758 11.1296 12.1758C11.2491 12.1758 11.3637 12.2232 11.4481 12.3077C11.5326 12.3922 11.5801 12.5067 11.5801 12.6262V14.432C11.5801 14.4909 11.5684 14.5493 11.5457 14.6037C11.523 14.6582 11.4898 14.7076 11.4479 14.7491C11.406 14.7906 11.3563 14.8234 11.3017 14.8456C11.2471 14.8678 11.1886 14.8789 11.1296 14.8784Z" fill="#3B2645"/>
<path d="M12.0225 16.4549C11.9051 16.4549 11.7926 16.4083 11.7097 16.3253C11.6267 16.2424 11.5801 16.1298 11.5801 16.0125V11.0497C11.5801 10.9313 11.6271 10.8177 11.7108 10.734C11.7945 10.6503 11.9081 10.6033 12.0265 10.6033C12.1449 10.6033 12.2584 10.6503 12.3422 10.734C12.4259 10.8177 12.4729 10.9313 12.4729 11.0497V16.0125C12.4724 16.0711 12.4603 16.1291 12.4374 16.183C12.4145 16.237 12.3811 16.2859 12.3393 16.327C12.2975 16.3681 12.248 16.4005 12.1936 16.4225C12.1392 16.4444 12.0811 16.4554 12.0225 16.4549Z" fill="#291B30"/>
<path d="M12.9152 17.219C12.7968 17.219 12.6832 17.172 12.5995 17.0883C12.5158 17.0046 12.4688 16.891 12.4688 16.7726V10.4464C12.4688 10.328 12.5158 10.2145 12.5995 10.1308C12.6832 10.047 12.7968 10 12.9152 10C13.0336 10 13.1471 10.047 13.2308 10.1308C13.3145 10.2145 13.3616 10.328 13.3616 10.4464V16.7605C13.3632 16.8202 13.3528 16.8795 13.3311 16.9351C13.3094 16.9906 13.2768 17.0413 13.2352 17.084C13.1936 17.1268 13.1438 17.1607 13.0888 17.1839C13.0339 17.2071 12.9748 17.219 12.9152 17.219Z" fill="#3B2645"/>
<path d="M37.1622 14.8784C37.2806 14.8784 37.3942 14.8314 37.4779 14.7476C37.5616 14.6639 37.6086 14.5504 37.6086 14.432V12.6262C37.6086 12.5676 37.5971 12.5095 37.5747 12.4554C37.5522 12.4012 37.5193 12.352 37.4779 12.3105C37.4364 12.2691 37.3872 12.2362 37.3331 12.2138C37.2789 12.1913 37.2209 12.1798 37.1622 12.1798C37.1036 12.1798 37.0456 12.1913 36.9914 12.2138C36.9372 12.2362 36.888 12.2691 36.8466 12.3105C36.8051 12.352 36.7722 12.4012 36.7498 12.4554C36.7274 12.5095 36.7158 12.5676 36.7158 12.6262V14.432C36.7158 14.5504 36.7629 14.6639 36.8466 14.7476C36.9303 14.8314 37.0438 14.8784 37.1622 14.8784Z" fill="#3B2645"/>
<path d="M36.2697 16.4549C36.3874 16.4549 36.5003 16.4084 36.5839 16.3256C36.6675 16.2427 36.715 16.1302 36.7161 16.0125V11.0497C36.7161 10.9313 36.669 10.8177 36.5853 10.734C36.5016 10.6503 36.3881 10.6033 36.2697 10.6033C36.1513 10.6033 36.0377 10.6503 35.954 10.734C35.8703 10.8177 35.8232 10.9313 35.8232 11.0497V16.0125C35.8243 16.1302 35.8718 16.2427 35.9554 16.3256C36.039 16.4084 36.152 16.4549 36.2697 16.4549Z" fill="#291B30"/>
<path d="M35.3768 17.219C35.4951 17.219 35.6087 17.172 35.6924 17.0883C35.7761 17.0046 35.8232 16.891 35.8232 16.7726V10.4464C35.8232 10.328 35.7761 10.2145 35.6924 10.1308C35.6087 10.047 35.4951 10 35.3768 10C35.2584 10 35.1448 10.047 35.0611 10.1308C34.9774 10.2145 34.9303 10.328 34.9303 10.4464V16.7605C34.9287 16.8202 34.9391 16.8795 34.9608 16.9351C34.9825 16.9906 35.0151 17.0413 35.0567 17.084C35.0984 17.1268 35.1481 17.1607 35.2031 17.1839C35.258 17.2071 35.3171 17.219 35.3768 17.219Z" fill="#3B2645"/>
<path d="M16.8809 14.0982C16.8969 14.138 16.9216 14.1737 16.9533 14.2027C17.0012 14.2344 17.0568 14.2524 17.1142 14.255C17.2929 14.2718 17.4731 14.2624 17.6491 14.2268C17.8124 14.2051 17.9623 14.1251 18.0714 14.0016C18.1282 13.9204 18.1629 13.8258 18.1721 13.727C18.1813 13.6283 18.1646 13.5289 18.1237 13.4386C18.0632 13.2964 17.9695 13.1708 17.8506 13.0721C17.7317 12.9735 17.5909 12.9047 17.44 12.8715C17.1906 12.8152 16.5592 12.8393 16.4587 13.149C16.4064 13.3018 16.5552 13.4547 16.6276 13.5753C16.7 13.696 16.8086 13.9292 16.8809 14.0982Z" fill="#FFEDE5"/>
<path d="M32.8954 14.0982C32.8794 14.139 32.8531 14.1751 32.819 14.2027C32.7713 14.2349 32.7156 14.2531 32.6581 14.255C32.4807 14.2717 32.3018 14.2623 32.1272 14.2268C31.9587 14.2071 31.8031 14.1271 31.6889 14.0016C31.6319 13.9204 31.5974 13.8255 31.589 13.7266C31.5805 13.6277 31.5983 13.5284 31.6406 13.4386C31.7007 13.2969 31.7937 13.1715 31.9119 13.0729C32.0301 12.9743 32.1701 12.9053 32.3203 12.8715C32.5736 12.8152 33.2051 12.8393 33.3056 13.149C33.3579 13.3018 33.2091 13.4547 33.1367 13.5753C33.0643 13.696 32.9839 13.9292 32.8954 14.0982Z" fill="#FFEDE5"/>
<path d="M26.6214 47.1649C26.2035 47.1294 25.7951 47.0204 25.4149 46.8432L24.4497 41.4541C24.4497 41.4541 25.6562 43.1794 26.6214 47.1649Z" fill="#291B30"/>
<path d="M23.1306 32.2925C23.1283 32.3139 23.1283 32.3355 23.1306 32.3569C23.1306 32.3569 23.1668 32.3569 23.1588 32.3569L23.1306 32.2925Z" fill="#D6BED3"/>
<path d="M27.3171 28.13C27.1323 27.5174 27.0071 26.8885 26.943 26.2518C26.943 26.2348 26.9362 26.2184 26.9242 26.2063C26.9121 26.1943 26.8957 26.1875 26.8787 26.1875C26.8616 26.1875 26.8452 26.1943 26.8332 26.2063C26.8211 26.2184 26.8143 26.2348 26.8143 26.2518C26.6736 27.4141 27.1642 28.8338 27.7755 29.8111C27.7861 29.8259 27.8014 29.8367 27.8189 29.8418C27.8365 29.8468 27.8552 29.8457 27.872 29.8387C27.8888 29.8317 27.9028 29.8191 27.9115 29.8032C27.9203 29.7872 27.9234 29.7687 27.9203 29.7508C27.7675 29.1958 27.498 28.677 27.3171 28.13Z" fill="#D6BED3"/>
<path d="M22.8894 26.0347C22.5596 26.5535 22.2781 27.1045 21.9483 27.6434C21.6185 28.1823 21.2324 28.6408 20.9429 29.1797C20.9375 29.1866 20.9352 29.1954 20.9363 29.2041C20.9374 29.2127 20.942 29.2206 20.9489 29.2259C20.9558 29.2313 20.9646 29.2336 20.9733 29.2325C20.982 29.2314 20.9898 29.2268 20.9952 29.2199C21.8658 28.3156 22.5492 27.2482 23.006 26.0789C23.0261 26.0146 22.9256 25.9744 22.8894 26.0347Z" fill="#D6BED3"/>
</g>
<defs>
<linearGradient id="paint0_linear_151_1280" x1="50" y1="50" x2="-16.6397" y2="44.8434" gradientUnits="userSpaceOnUse">
<stop stop-color="#00FF66"/>
<stop offset="1" stop-color="#00F0FF"/>
</linearGradient>
</defs>
</svg>
